G04 DipTrace 2.4.0.2*
%INBottom.gbr*%
%MOIN*%
%ADD11C,0.006*%
%ADD13C,0.01*%
%ADD14C,0.008*%
%ADD15C,0.02*%
%ADD16C,0.0197*%
%ADD17C,0.025*%
%ADD18C,0.013*%
%ADD19C,0.015*%
%ADD21R,0.0394X0.0433*%
%ADD22R,0.0433X0.0394*%
%ADD23R,0.0709X0.0787*%
%ADD25R,0.048X0.048*%
%ADD26C,0.048*%
%ADD27R,0.0748X0.1339*%
%ADD28R,0.0591X0.0512*%
%ADD29R,0.0669X0.0669*%
%ADD30C,0.0669*%
%ADD32O,0.0413X0.0492*%
%ADD33R,0.0787X0.0748*%
%ADD36C,0.0591*%
%ADD37C,0.0492*%
%ADD38C,0.0787*%
%ADD45R,0.0846X0.0374*%
%ADD46R,0.0846X0.128*%
%ADD49C,0.04*%
%FSLAX44Y44*%
G04*
G70*
G90*
G75*
G01*
%LNBottom*%
%LPD*%
X-41339Y-1220D2*
D13*
X-39764D1*
D11*
X-39646Y-1102D1*
X-36062Y4875D2*
D13*
Y5000D1*
X-35629Y4566D1*
Y2934D1*
X-36688Y1875D1*
Y1750D1*
X-39540Y-1102D1*
X-39646D1*
X-33753Y5000D2*
D11*
X-32625D1*
X-32562Y4937D1*
X-29688Y5563D2*
D14*
X-30313D1*
X-30375Y5625D1*
X-30688Y4000D2*
D13*
X-30188D1*
X-29563Y3375D1*
X-28500Y1562D2*
Y938D1*
X-26625Y-937D1*
X-26688D1*
X-23875Y-3750D1*
X-18502D1*
X-33188Y-937D2*
Y-500D1*
X-33063Y-375D1*
X-34688Y250D2*
Y125D1*
X-33937Y-625D1*
X-33500D1*
X-33188Y-937D1*
X-29187D1*
X-28500Y-250D1*
Y938D1*
X-33750Y3375D2*
X-33375D1*
X-33250Y3250D1*
X-27813Y4688D2*
X-27500D1*
X-27313Y4875D1*
X-35630Y17756D2*
X-35236D1*
X-34724Y18268D1*
X-34191Y12939D2*
X-35504D1*
X-35827Y12616D1*
Y9331D1*
X-35787Y9291D1*
X-18502Y15250D2*
Y16873D1*
X-16000Y19375D1*
X-32691Y9376D2*
X-35872D1*
X-35787Y9291D1*
X-35750Y8125D2*
Y6938D1*
X-35437Y6625D1*
X-30625Y7188D2*
Y6456D1*
X-30544Y6375D1*
X-29563Y3375D2*
Y2437D1*
X-29813Y2187D1*
X-32187D1*
X-33250Y3250D1*
X-35437Y6625D2*
Y5687D1*
X-35379Y5629D1*
Y2379D1*
X-34625Y1625D1*
X-32750D1*
X-32187Y2187D1*
X-34129Y11295D2*
X-32772D1*
X-32441Y11626D1*
Y9973D2*
Y11626D1*
X-34129Y11295D2*
Y12939D1*
X-34191D1*
X-32691Y9376D2*
Y9723D1*
X-32441Y9973D1*
X-28565Y10501D2*
X-30941D1*
X-32066Y9376D1*
X-32691D1*
X-37625Y5687D2*
D11*
Y6375D1*
X-37500Y6500D1*
Y14625D1*
X-38125Y15250D1*
Y15268D1*
X-46942Y7439D2*
X-46630D1*
X-46234Y7835D1*
X-40197D1*
X-39803Y7441D1*
X-44942Y17627D2*
X-44567D1*
X-44317Y17377D1*
Y14939D1*
X-43880Y14502D1*
Y12689D1*
X-44005Y12564D1*
X-44317D1*
X-45755Y11126D1*
Y8313D1*
X-46630Y7439D1*
X-46942Y6439D2*
X-44939D1*
X-44055Y7323D1*
X-40354D1*
X-44692Y17064D2*
X-44817D1*
Y12762D1*
X-46005Y11574D1*
Y8626D1*
X-46692Y7938D1*
X-47255D1*
X-47567Y7626D1*
Y7064D1*
X-46942Y6439D1*
X-17502Y15250D2*
D13*
Y15064D1*
X-17814Y14752D1*
X-21873D1*
X-21938Y14688D1*
X-43192Y15814D2*
X-43505Y16127D1*
Y17620D1*
X-42975Y18150D1*
Y18320D1*
X-42084D1*
X-41693Y17929D1*
X-35879Y15314D2*
X-35788D1*
X-33583Y17520D1*
X-35879Y15314D2*
X-32566D1*
X-38938Y14250D2*
Y11747D1*
X-38192Y11001D1*
X-21938Y14688D2*
Y9437D1*
X-22437Y8938D1*
X-46875Y14794D2*
Y14814D1*
X-47693D1*
Y11689D1*
X-46697D1*
X-45709Y12677D1*
X-46942Y8439D2*
Y8501D1*
X-46255Y9188D1*
Y12131D1*
X-45709Y12677D1*
X-35938Y1063D2*
D11*
Y-187D1*
X-34518Y-1607D1*
X-33188D1*
X-29938Y7188D2*
Y6438D1*
X-29875Y6375D1*
X-33188Y-1607D2*
Y-1813D1*
X-33375Y-2000D1*
X-35625D1*
X-35875Y-1750D1*
X-32625Y-1625D2*
X-33169D1*
X-33188Y-1607D1*
X-42362Y354D2*
D15*
X-41604D1*
X-41312Y63D1*
Y-289D1*
X-41339Y-315D1*
X-37480Y394D2*
D11*
Y-1732D1*
X-37953Y-2205D1*
X-33188Y5625D2*
X-32581D1*
X-32562Y5607D1*
X-29750Y4938D2*
X-30357D1*
X-30375Y4956D1*
X-30688Y3331D2*
Y3188D1*
X-30128D1*
X-32562Y5607D2*
X-31026D1*
X-30375Y4956D1*
X-32312Y3938D2*
X-31250D1*
X-31228Y3915D1*
Y3603D1*
X-30956Y3331D1*
X-30688D1*
X-31228Y3915D2*
Y4103D1*
X-30375Y4956D1*
X-33750Y4044D2*
X-32419D1*
X-32312Y3938D1*
X-28000Y5625D2*
X-27393D1*
X-27313Y5544D1*
X-28000Y5625D2*
X-28750D1*
X-29375Y5000D1*
X-29688D1*
X-29750Y4938D1*
X-30441Y11626D2*
X-30566D1*
X-30253Y11939D1*
X-27753D1*
X-27190Y11376D1*
X-27815Y11126D2*
X-27628D1*
X-27190Y11564D1*
Y11376D1*
X-34129Y10626D2*
Y10501D1*
X-34441Y10189D1*
X-37248Y-6379D2*
X-37808D1*
X-38062Y-6125D1*
Y-2314D1*
X-37953Y-2205D1*
X-39646Y-1772D2*
X-38386D1*
X-37953Y-2205D1*
X-45505Y17377D2*
X-45317D1*
Y15814D1*
X-31878Y7313D2*
X-31691D1*
X-30941Y8063D1*
X-28315D1*
X-26253Y10126D1*
Y12814D1*
X-27628Y14189D1*
X-29875D1*
Y14875D1*
X-30688Y13687D2*
X-27439D1*
X-26440Y12689D1*
Y10189D1*
X-28378Y8251D1*
X-31441D1*
X-32250Y7442D1*
Y7000D1*
X-32003Y13251D2*
X-27253D1*
X-26628Y12626D1*
Y10251D1*
X-28440Y8438D1*
X-31566D1*
X-32562Y7442D1*
Y7250D1*
X-32812Y7000D1*
X-22688Y14831D2*
Y13129D1*
X-28129Y7687D1*
X-30750D1*
X-31250Y7187D1*
Y6688D1*
X-31688Y6375D2*
Y7000D1*
X-30812Y7875D1*
X-28191D1*
X-24000Y12066D1*
Y14750D1*
X-24081Y14831D1*
X-24000D1*
X-25690Y10939D2*
Y14578D1*
X-25438Y14831D1*
X-37625Y3750D2*
Y2000D1*
X-25062Y4188D2*
X-25190D1*
X-25440Y4438D1*
Y5768D1*
X-28000Y1125D2*
X-23625Y-3250D1*
X-18002D1*
X-17502Y-2750D1*
X-10439Y1063D2*
Y1125D1*
X-9876Y563D1*
Y625D1*
X-13939Y-3250D2*
X-16377D1*
X-16877Y-2750D1*
X-17502D1*
X-18502D2*
X-19875D1*
X-19938Y-2812D1*
X-23687D1*
X-27437Y938D1*
Y1125D1*
X-18502Y-2750D2*
X-18190D1*
X-17689Y-2250D1*
X-16877D1*
X-16252Y-2875D1*
X-14582D1*
X-14564Y-2857D1*
X-27000Y1562D2*
Y937D1*
X-23625Y-2438D1*
X-20188D1*
X-20000Y-2250D1*
X-18127D1*
X-17627Y-1750D1*
X-17502D1*
X-13269D1*
X-13001Y-2018D1*
X-26375Y1062D2*
X-26437D1*
X-26312Y938D1*
Y687D1*
X-23562Y-2063D1*
X-18814D1*
X-18502Y-1750D1*
X-18190D1*
X-17689Y-1250D1*
X-16939D1*
X-16689Y-1500D1*
X-12314D1*
X-12001Y-1813D1*
Y-4750D1*
X-11439Y-5313D1*
X-10608D1*
X-10501Y-5420D1*
X-11251Y-2018D2*
Y-1499D1*
X-11437Y-1313D1*
X-16377D1*
X-16939Y-750D1*
X-17502D1*
X-25812Y1188D2*
Y1062D1*
X-23250Y-1500D1*
X-20690D1*
X-20440Y-1250D1*
X-18002D1*
X-17502Y-750D1*
X-25500Y1625D2*
X-25438D1*
X-22938Y-875D1*
X-20877D1*
X-20752Y-1000D1*
X-20315D1*
X-20190Y-875D1*
X-18626D1*
X-18502Y-750D1*
X-18315D1*
X-17814Y-250D1*
X-15814D1*
X-14502Y1063D1*
X-13564D1*
X-26187Y3188D2*
Y3060D1*
X-25878Y2750D1*
X-23940D1*
X-20940Y-250D1*
X-18252D1*
X-17502Y500D1*
Y250D1*
X-17127D1*
X-15689Y1688D1*
X-12001D1*
X-11689Y1375D1*
Y1063D1*
X-26187Y4250D2*
Y3687D1*
X-25562Y3062D1*
X-23812D1*
X-21063Y313D1*
X-18565D1*
X-18502Y250D1*
X-12376Y-5670D2*
X-12439D1*
Y-6376D1*
X-25812Y4750D2*
Y3563D1*
X-25562Y3313D1*
X-23625D1*
X-21063Y750D1*
X-18001D1*
X-17502Y1250D1*
X-13814Y-6251D2*
Y-5982D1*
X-13501Y-5670D1*
X-26562Y5375D2*
Y2812D1*
X-26188Y2438D1*
X-24063D1*
X-21000Y-625D1*
X-20565D1*
X-15314Y-5670D2*
X-14752D1*
X-25438Y3687D2*
Y3750D1*
X-25375Y3687D1*
X-23687D1*
X-21250Y1250D1*
X-18502D1*
X-24625Y4562D2*
X-24250D1*
X-21687Y2000D1*
X-20188D1*
X-19959Y1772D1*
X-17980D1*
X-17502Y2250D1*
X-25687Y6500D2*
X-21500Y2312D1*
X-18565D1*
X-18502Y2250D1*
X-26125Y7063D2*
Y7500D1*
X-23861Y5236D1*
X-23780D1*
X-21339Y2795D1*
X-17956D1*
X-17502Y3250D1*
X-26250Y7875D2*
X-25937D1*
X-23456Y5394D1*
X-23331D1*
X-21245Y3307D1*
X-18559D1*
X-18502Y3250D1*
X-26062Y8375D2*
X-25812D1*
X-21217Y3780D1*
X-17972D1*
X-17502Y4250D1*
X-25625Y8937D2*
Y8875D1*
X-21002Y4252D1*
X-18504D1*
X-18502Y4250D1*
X-25000Y9250D2*
X-24500D1*
X-20000Y4750D1*
X-18001D1*
X-17502Y5250D1*
X-25438Y9688D2*
X-24375D1*
X-20001Y5313D1*
X-18438D1*
X-18502Y5250D1*
X-24937Y10250D2*
X-24437D1*
X-19975Y5787D1*
X-17964D1*
X-17502Y6250D1*
X-26938Y15375D2*
X-26875D1*
X-26313Y14813D1*
X-28687D2*
X-27937D1*
X-27750Y15000D1*
Y15312D1*
X-27813Y15375D1*
X-29311Y14752D2*
X-28687Y15375D1*
X-40313Y2812D2*
Y2010D1*
X-40827Y1496D1*
X-37250Y4875D2*
Y14640D1*
X-36691Y15198D1*
Y16627D1*
X-36441Y16877D1*
Y16953D1*
X-36535Y17047D1*
X-36339D1*
X-42047Y14173D2*
Y13504D1*
X-42008Y13465D1*
X-42756Y16732D2*
Y14882D1*
X-42047Y14173D1*
X-27190Y10707D2*
Y10126D1*
X-27378Y9939D1*
X-30407D1*
X-30441Y9973D1*
X-33691Y5541D2*
Y6688D1*
X-31753Y8626D1*
X-31191D1*
X-30441Y9376D1*
Y9972D1*
Y9973D1*
X-10439Y393D2*
Y-687D1*
X-10564Y-813D1*
X-36339Y17717D2*
Y18346D1*
X-36732Y18740D1*
X-38882D1*
X-39693Y17929D1*
X-42756Y17402D2*
Y17441D1*
X-39181D1*
X-38693Y17929D1*
X-40827Y10551D2*
Y11260D1*
X-40217Y11870D1*
Y13169D1*
X-40079Y13307D1*
X-40118D1*
Y14331D1*
X-40157Y14370D1*
X-41754Y10626D2*
Y10923D1*
X-40827Y11850D1*
X-43317Y10626D2*
Y11683D1*
X-43189Y11811D1*
X-43819Y10512D2*
Y11260D1*
X-44370Y11811D1*
X-41339Y7008D2*
Y6260D1*
X-39921Y4843D1*
X-39780D1*
X-38938Y4000D1*
X-41811Y5551D2*
X-41339D1*
X-39803Y4016D1*
X-39685D1*
X-42323Y5551D2*
X-42362D1*
X-40866Y4055D1*
X-42835Y5551D2*
Y4882D1*
X-42008Y4055D1*
X-43380Y5501D2*
Y4246D1*
X-43189Y4055D1*
X-44291Y6496D2*
Y4134D1*
X-44370Y4055D1*
X-42323Y10551D2*
Y11496D1*
X-42008Y11811D1*
X-44442Y14189D2*
Y13425D1*
X-44409D1*
X-29875Y15544D2*
Y16000D1*
X-30313Y16437D1*
X-30688Y14357D2*
Y14688D1*
X-30938Y14938D1*
Y16437D1*
X-32003Y13921D2*
Y16122D1*
X-31688Y16437D1*
X-24313Y16500D2*
X-23688D1*
X-22688Y15500D1*
X-24938Y16500D2*
Y16438D1*
X-24000Y15500D1*
X-25438D2*
Y16438D1*
X-25500Y16500D1*
X-43942Y17439D2*
D13*
Y15127D1*
X-43442Y14627D1*
Y13814D1*
X-46255Y15877D2*
D15*
Y14189D1*
X-47067Y13376D1*
X-11564Y-813D2*
D11*
Y269D1*
X-11689Y393D1*
X-13564D2*
Y-813D1*
X-27813Y16812D2*
Y16044D1*
X-27188Y16812D2*
Y16294D1*
X-26938Y16044D1*
X-28500Y16813D2*
Y16232D1*
X-28687Y16044D1*
X-12564Y-3813D2*
X-12626D1*
Y-4500D1*
X-12439Y-4688D1*
Y-5001D1*
X-12376D1*
X-13564Y-3813D2*
Y-4938D1*
X-13501Y-5001D1*
X-14564Y-3813D2*
Y-4563D1*
X-14752Y-4750D1*
Y-5001D1*
X-11251Y-2688D2*
Y-3500D1*
X-11564Y-3813D1*
X-10564D2*
Y-4688D1*
X-10501Y-4750D1*
X-13751Y-2250D2*
X-14502D1*
X-14564Y-2188D1*
X-12501Y-2750D2*
X-12939D1*
X-13001Y-2688D1*
X-41693Y16929D2*
X-41614D1*
Y13228D1*
X-42677Y12165D1*
Y9724D1*
X-41457Y8504D1*
X-39724D1*
X-38187Y6967D1*
Y3875D1*
X-38000Y3687D1*
Y2813D1*
Y1125D1*
X-44409Y2323D2*
X-43385D1*
X-42125Y1062D1*
X-38000D1*
Y1125D1*
X-38125Y15938D2*
Y16497D1*
X-37693Y16929D1*
X-40827Y14173D2*
X-40851D1*
Y13406D1*
X-36000Y3188D2*
Y3250D1*
X-36063Y3188D1*
X-36250D1*
X-36750Y3687D1*
Y13873D1*
X-36816Y13939D1*
X-38125Y15938D2*
X-38500D1*
X-38875Y15562D1*
Y15125D1*
X-38313Y14563D1*
Y12622D1*
X-38192Y12501D1*
X-36254Y15938D2*
Y9254D1*
X-34937Y7938D1*
Y2625D1*
X-34562Y2250D1*
X-39062Y2812D2*
Y2438D1*
X-39687Y1813D1*
Y1500D1*
X-39693Y16929D2*
Y15130D1*
X-39313Y14750D1*
Y10938D1*
X-38000Y9625D1*
Y4562D1*
X-37813Y4375D1*
X-37500D1*
X-37062Y3937D1*
Y3563D1*
X-37313Y1625D2*
Y1750D1*
X-37000Y2063D1*
Y3500D1*
X-37062Y3563D1*
X-46130Y17064D2*
D16*
X-46295D1*
X-46490Y16870D1*
X-47387D1*
X-48193Y16064D1*
Y9689D1*
X-47880Y9376D1*
Y-1057D1*
X-46181Y-2756D1*
X-41969D1*
X-41339Y-2126D1*
X-46942Y9439D2*
D11*
X-47880Y9376D1*
X-47790Y15877D2*
X-48193D1*
Y16002D1*
X-47317Y16877D1*
X-46317D1*
X-46130Y17064D1*
D49*
X-36062Y4875D3*
X-33753Y5000D3*
X-29688Y5563D3*
X-29563Y3375D3*
X-28500Y1562D3*
X-33063Y-375D3*
X-34688Y250D3*
X-33250Y3250D3*
X-27813Y4688D3*
X-33250Y3250D3*
X-32691Y9376D3*
X-35750Y8125D3*
X-35437Y6625D3*
X-30625Y7188D3*
X-32691Y9376D3*
X-28565Y10501D3*
X-32691Y9376D3*
X-32566Y15314D3*
X-38938Y14250D3*
X-22437Y8938D3*
X-29938Y7188D3*
X-35875Y-1750D3*
X-32625Y-1625D3*
X-33188Y5625D3*
X-29750Y4938D3*
X-30128Y3188D3*
X-32312Y3938D3*
D3*
X-28000Y5625D3*
D3*
X-29750Y4938D3*
X-27815Y11126D3*
X-34441Y10189D3*
X-45505Y17377D3*
X-31878Y7313D3*
X-32250Y7000D3*
X-32812D3*
X-31250Y6688D3*
X-31688Y6375D3*
X-25690Y10939D3*
X-37625Y3750D3*
Y2000D3*
X-25440Y5768D3*
X-28000Y1125D3*
X-9876Y625D3*
X-13939Y-3250D3*
X-27437Y1125D3*
X-27000Y1562D3*
X-26375Y1062D3*
X-25812Y1188D3*
X-25500Y1625D3*
X-12439Y-6376D3*
X-13814Y-6251D3*
X-26562Y5375D3*
X-20565Y-625D3*
X-15314Y-5670D3*
X-26313Y14813D3*
X-28687D3*
X-29311Y14752D3*
X-33691Y5541D3*
X-30313Y16437D3*
X-30938D3*
X-31688D3*
X-24313Y16500D3*
X-24938D3*
X-25500D3*
X-43942Y17439D3*
X-43442Y13814D3*
X-13751Y-2250D3*
X-12501Y-2750D3*
X-38000Y1125D3*
X-40827Y14173D3*
X-40851Y13406D3*
D3*
X-36000Y3188D3*
X-36816Y13939D3*
X-36254Y15938D3*
X-34562Y2250D3*
X-37062Y3563D3*
X-37313Y1625D3*
X-25062Y4188D3*
X-25687Y6500D3*
X-24625Y4562D3*
X-25438Y3687D3*
X-25812Y4750D3*
X-40313Y2812D3*
X-44409Y2323D3*
X-40354Y7323D3*
X-39803Y7441D3*
X-42047Y14173D3*
X-42008Y13465D3*
X-39062Y2812D3*
X-38000Y2813D3*
X-26187Y4250D3*
X-40827Y1496D3*
X-39687Y1500D3*
X-43189Y11811D3*
X-26187Y3188D3*
X-44442Y14189D3*
X-26125Y7063D3*
X-26250Y7875D3*
X-26062Y8375D3*
X-25625Y8937D3*
X-25000Y9250D3*
X-25438Y9688D3*
X-46130Y17064D3*
X-43819Y10512D3*
X-24937Y10250D3*
X-37250Y4875D3*
X-37625Y5687D3*
X-21000Y15500D3*
X-20472Y-5197D3*
X-44370Y11811D3*
X-43317Y10626D3*
X-42008Y11811D3*
X-42323Y10551D3*
X-41754Y10626D3*
X-40827Y11850D3*
Y10551D3*
X-44692Y17064D3*
X-44291Y6496D3*
X-40079Y13307D3*
X-44409Y13425D3*
X-40157Y14370D3*
X-44942Y17627D3*
X-44370Y4055D3*
X-27188Y16812D3*
X-43380Y5501D3*
X-43189Y4055D3*
X-42835Y5551D3*
X-42008Y4055D3*
X-42323Y5551D3*
X-40866Y4055D3*
X-41811Y5551D3*
X-39685Y4016D3*
X-41339Y7008D3*
X-38938Y4000D3*
X-38192Y12501D3*
X-27813Y16812D3*
X-28500Y16813D3*
X-37480Y394D3*
X-42362Y354D3*
X-36254Y6438D3*
X-46875Y14794D3*
X-35630Y17756D3*
X-34724Y18268D3*
X-35879Y15314D3*
X-34191Y12939D3*
X-35787Y9291D3*
X-21938Y14688D3*
X-23563Y7562D3*
X-38192Y11001D3*
X-43192Y15814D3*
X-45317D3*
X-33583Y17520D3*
X-26625Y-937D3*
X-45709Y12677D3*
X-35938Y1063D3*
X-46243Y18631D2*
D17*
X-45890D1*
X-45270D2*
X-43980D1*
X-43360D2*
X-39433D1*
X-36180D2*
X-35039D1*
X-34411D2*
X-17777D1*
X-46168Y18382D2*
X-46056D1*
X-45102D2*
X-44148D1*
X-43192D2*
X-42109D1*
X-41274D2*
X-41109D1*
X-40274D2*
X-40109D1*
X-37274D2*
X-36816D1*
X-36020D2*
X-35199D1*
X-34250D2*
X-17605D1*
X-46153Y18134D2*
X-46075D1*
X-45086D2*
X-44164D1*
X-43176D2*
X-42281D1*
X-37106D2*
X-36927D1*
X-34254D2*
X-17711D1*
X-46196Y17885D2*
X-45976D1*
X-44399D2*
X-44101D1*
X-37071D2*
X-36926D1*
X-34434D2*
X-17961D1*
X-46297Y17636D2*
X-45433D1*
X-43496D2*
X-43341D1*
X-37145D2*
X-36925D1*
X-34887D2*
X-21371D1*
X-20508D2*
X-18211D1*
X-17270D2*
X-17086D1*
X-45770Y17388D2*
X-45367D1*
X-43453D2*
X-43340D1*
X-37282D2*
X-36925D1*
X-35321D2*
X-21507D1*
X-20371D2*
X-18457D1*
X-17516D2*
X-16941D1*
X-45645Y17139D2*
X-45175D1*
X-43563D2*
X-43339D1*
X-37106D2*
X-36927D1*
X-35754D2*
X-28855D1*
X-26832D2*
X-21515D1*
X-20368D2*
X-18707D1*
X-17766D2*
X-16945D1*
X-45672Y16890D2*
X-45148D1*
X-43602D2*
X-43339D1*
X-37071D2*
X-36926D1*
X-35754D2*
X-31816D1*
X-31559D2*
X-31066D1*
X-30809D2*
X-30441D1*
X-30184D2*
X-28984D1*
X-26703D2*
X-25777D1*
X-24036D2*
X-21394D1*
X-20489D2*
X-18839D1*
X-18016D2*
X-16945D1*
X-45590Y16642D2*
X-45136D1*
X-43602D2*
X-43339D1*
X-37141D2*
X-37011D1*
X-35754D2*
X-32128D1*
X-29871D2*
X-28957D1*
X-26731D2*
X-25968D1*
X-23387D2*
X-18843D1*
X-18161D2*
X-16945D1*
X-47125Y16393D2*
X-46918D1*
X-45590D2*
X-45136D1*
X-43602D2*
X-43339D1*
X-41067D2*
X-40987D1*
X-40399D2*
X-40011D1*
X-39371D2*
X-38988D1*
X-37399D2*
X-37011D1*
X-36137D2*
X-32175D1*
X-29825D2*
X-29175D1*
X-26450D2*
X-25976D1*
X-23137D2*
X-18843D1*
X-18161D2*
X-16949D1*
X-47125Y16144D2*
X-46918D1*
X-45590D2*
X-45136D1*
X-43602D2*
X-43078D1*
X-42438D2*
X-41933D1*
X-41293D2*
X-40011D1*
X-39371D2*
X-38734D1*
X-37539D2*
X-37011D1*
X-35813D2*
X-32324D1*
X-29594D2*
X-29175D1*
X-26450D2*
X-25824D1*
X-23989D2*
X-23773D1*
X-22891D2*
X-18843D1*
X-18161D2*
X-16949D1*
X-47125Y15896D2*
X-46918D1*
X-45590D2*
X-45136D1*
X-43602D2*
X-43078D1*
X-42438D2*
X-41933D1*
X-41293D2*
X-40011D1*
X-39371D2*
X-38984D1*
X-37539D2*
X-37011D1*
X-35766D2*
X-32324D1*
X-31684D2*
X-31257D1*
X-30618D2*
X-30363D1*
X-29387D2*
X-29175D1*
X-26450D2*
X-25925D1*
X-24950D2*
X-24839D1*
X-22200D2*
X-21269D1*
X-20731D2*
X-18843D1*
X-18161D2*
X-16949D1*
X-47125Y15647D2*
X-46918D1*
X-45590D2*
X-45136D1*
X-43602D2*
X-43078D1*
X-42438D2*
X-41933D1*
X-41293D2*
X-40011D1*
X-39371D2*
X-39185D1*
X-37539D2*
X-37011D1*
X-35868D2*
X-32324D1*
X-31684D2*
X-31257D1*
X-30618D2*
X-30363D1*
X-29387D2*
X-29175D1*
X-26450D2*
X-25925D1*
X-24950D2*
X-24589D1*
X-23512D2*
X-23277D1*
X-22200D2*
X-21464D1*
X-20536D2*
X-18976D1*
X-17028D2*
X-16950D1*
X-47125Y15398D2*
X-46918D1*
X-45590D2*
X-45136D1*
X-43602D2*
X-43078D1*
X-42438D2*
X-41933D1*
X-41293D2*
X-40011D1*
X-39371D2*
X-39193D1*
X-37539D2*
X-37011D1*
X-35934D2*
X-32324D1*
X-31684D2*
X-31257D1*
X-30618D2*
X-30363D1*
X-29387D2*
X-29175D1*
X-26450D2*
X-25925D1*
X-24950D2*
X-24488D1*
X-23512D2*
X-23175D1*
X-22200D2*
X-21480D1*
X-20520D2*
X-19109D1*
X-47125Y15149D2*
X-46918D1*
X-45590D2*
X-45136D1*
X-43496D2*
X-43078D1*
X-42438D2*
X-41933D1*
X-41293D2*
X-40011D1*
X-39270D2*
X-39194D1*
X-37539D2*
X-37183D1*
X-35934D2*
X-32324D1*
X-31684D2*
X-31257D1*
X-30618D2*
X-30363D1*
X-24950D2*
X-24488D1*
X-23512D2*
X-23175D1*
X-22200D2*
X-21332D1*
X-20668D2*
X-19117D1*
X-47748Y14901D2*
X-46644D1*
X-45864D2*
X-45136D1*
X-43246D2*
X-43076D1*
X-42332D2*
X-41933D1*
X-41293D2*
X-39906D1*
X-35934D2*
X-32324D1*
X-31684D2*
X-31253D1*
X-30457D2*
X-30360D1*
X-24950D2*
X-24488D1*
X-23512D2*
X-23175D1*
X-22200D2*
X-19015D1*
X-47748Y14652D2*
X-46644D1*
X-45864D2*
X-45136D1*
X-43102D2*
X-42970D1*
X-42082D2*
X-41933D1*
X-41293D2*
X-40550D1*
X-39762D2*
X-39656D1*
X-38993D2*
X-38840D1*
X-36797D2*
X-36574D1*
X-35934D2*
X-32324D1*
X-31684D2*
X-31175D1*
X-27657D2*
X-26773D1*
X-24950D2*
X-24488D1*
X-23512D2*
X-23175D1*
X-22200D2*
X-18972D1*
X-47748Y14403D2*
X-46644D1*
X-45864D2*
X-45136D1*
X-43102D2*
X-42718D1*
X-38993D2*
X-38632D1*
X-37993D2*
X-37817D1*
X-36930D2*
X-36574D1*
X-35934D2*
X-32324D1*
X-31684D2*
X-31175D1*
X-27399D2*
X-26558D1*
X-24950D2*
X-24488D1*
X-23512D2*
X-23175D1*
X-22200D2*
X-19105D1*
X-47748Y14155D2*
X-46832D1*
X-45868D2*
X-45136D1*
X-43102D2*
X-42539D1*
X-39719D2*
X-39635D1*
X-38993D2*
X-38632D1*
X-37993D2*
X-37817D1*
X-35934D2*
X-32492D1*
X-31516D2*
X-31175D1*
X-27153D2*
X-26011D1*
X-25371D2*
X-24320D1*
X-23680D2*
X-23007D1*
X-22368D2*
X-19121D1*
X-45996Y13906D2*
X-45136D1*
X-42961D2*
X-42453D1*
X-39797D2*
X-39632D1*
X-38993D2*
X-38632D1*
X-37993D2*
X-37817D1*
X-35934D2*
X-32492D1*
X-31516D2*
X-31175D1*
X-26903D2*
X-26011D1*
X-25371D2*
X-24320D1*
X-23680D2*
X-23007D1*
X-22368D2*
X-19019D1*
X-46246Y13657D2*
X-45136D1*
X-42981D2*
X-42457D1*
X-39746D2*
X-39630D1*
X-38993D2*
X-38632D1*
X-37993D2*
X-37817D1*
X-35934D2*
X-32492D1*
X-31516D2*
X-31175D1*
X-26653D2*
X-26011D1*
X-25371D2*
X-24320D1*
X-23680D2*
X-23007D1*
X-22368D2*
X-18964D1*
X-46442Y13409D2*
X-45136D1*
X-43188D2*
X-42496D1*
X-38993D2*
X-38632D1*
X-37993D2*
X-37817D1*
X-35934D2*
X-32492D1*
X-26407D2*
X-26011D1*
X-25371D2*
X-24320D1*
X-23680D2*
X-23007D1*
X-22368D2*
X-19105D1*
X-46442Y13160D2*
X-45136D1*
X-43559D2*
X-42382D1*
X-38993D2*
X-38632D1*
X-37993D2*
X-37817D1*
X-35934D2*
X-35753D1*
X-33758D2*
X-32492D1*
X-26157D2*
X-26011D1*
X-25371D2*
X-24320D1*
X-23680D2*
X-23097D1*
X-22368D2*
X-19121D1*
X-46442Y12911D2*
X-45136D1*
X-43559D2*
X-42375D1*
X-41489D2*
X-40535D1*
X-39809D2*
X-39632D1*
X-38993D2*
X-38632D1*
X-37946D2*
X-37820D1*
X-33703D2*
X-32492D1*
X-31516D2*
X-27355D1*
X-25371D2*
X-24320D1*
X-23680D2*
X-23347D1*
X-22461D2*
X-19023D1*
X-47748Y12663D2*
X-47621D1*
X-46516D2*
X-45359D1*
X-43559D2*
X-42621D1*
X-41739D2*
X-40535D1*
X-39895D2*
X-39632D1*
X-38993D2*
X-38652D1*
X-33789D2*
X-27105D1*
X-25371D2*
X-24320D1*
X-23680D2*
X-23597D1*
X-22711D2*
X-18961D1*
X-46446Y12414D2*
X-45605D1*
X-43711D2*
X-42871D1*
X-41985D2*
X-40535D1*
X-39895D2*
X-39632D1*
X-38993D2*
X-38671D1*
X-35489D2*
X-34468D1*
X-33789D2*
X-26949D1*
X-25371D2*
X-24320D1*
X-22961D2*
X-19105D1*
X-47748Y12165D2*
X-47652D1*
X-46481D2*
X-45855D1*
X-44043D2*
X-43515D1*
X-41680D2*
X-41195D1*
X-39895D2*
X-39632D1*
X-38993D2*
X-38539D1*
X-35489D2*
X-34468D1*
X-33789D2*
X-33086D1*
X-31797D2*
X-31086D1*
X-29797D2*
X-26949D1*
X-25371D2*
X-24343D1*
X-23207D2*
X-19121D1*
X-47748Y11917D2*
X-47476D1*
X-46657D2*
X-46105D1*
X-43891D2*
X-43668D1*
X-41532D2*
X-41312D1*
X-39895D2*
X-39632D1*
X-38993D2*
X-37820D1*
X-35489D2*
X-34468D1*
X-33789D2*
X-33086D1*
X-31797D2*
X-31086D1*
X-29797D2*
X-26949D1*
X-25371D2*
X-24593D1*
X-23457D2*
X-19027D1*
X-47748Y11668D2*
X-46308D1*
X-43786D2*
X-43656D1*
X-41539D2*
X-41452D1*
X-39977D2*
X-39632D1*
X-38993D2*
X-37820D1*
X-35489D2*
X-34617D1*
X-33641D2*
X-33086D1*
X-31797D2*
X-31086D1*
X-29797D2*
X-27675D1*
X-25371D2*
X-24839D1*
X-23707D2*
X-18957D1*
X-47748Y11419D2*
X-46324D1*
X-45020D2*
X-44644D1*
X-40227D2*
X-39632D1*
X-38993D2*
X-37820D1*
X-35489D2*
X-34617D1*
X-31797D2*
X-31086D1*
X-29797D2*
X-27675D1*
X-25371D2*
X-25089D1*
X-23953D2*
X-19101D1*
X-47748Y11170D2*
X-46324D1*
X-45270D2*
X-44171D1*
X-40473D2*
X-39632D1*
X-38993D2*
X-37820D1*
X-35489D2*
X-34617D1*
X-31797D2*
X-31086D1*
X-29797D2*
X-27675D1*
X-24203D2*
X-19121D1*
X-47748Y10922D2*
X-47566D1*
X-45434D2*
X-44140D1*
X-41313D2*
X-41148D1*
X-40508D2*
X-39632D1*
X-38856D2*
X-37820D1*
X-35489D2*
X-34617D1*
X-33641D2*
X-32781D1*
X-32102D2*
X-28789D1*
X-28344D2*
X-27675D1*
X-24453D2*
X-19027D1*
X-47748Y10673D2*
X-47566D1*
X-45434D2*
X-44281D1*
X-40352D2*
X-39492D1*
X-38606D2*
X-37820D1*
X-35489D2*
X-34617D1*
X-33641D2*
X-32781D1*
X-32102D2*
X-31238D1*
X-28110D2*
X-27675D1*
X-24700D2*
X-18953D1*
X-47748Y10424D2*
X-47566D1*
X-45434D2*
X-44300D1*
X-40356D2*
X-39242D1*
X-38356D2*
X-37820D1*
X-35489D2*
X-34617D1*
X-33641D2*
X-33086D1*
X-31797D2*
X-31488D1*
X-28082D2*
X-27675D1*
X-24168D2*
X-19101D1*
X-47748Y10176D2*
X-47566D1*
X-45434D2*
X-44164D1*
X-43176D2*
X-42996D1*
X-42024D2*
X-41894D1*
X-41614D2*
X-41125D1*
X-40528D2*
X-38992D1*
X-38110D2*
X-37820D1*
X-35489D2*
X-34617D1*
X-33641D2*
X-33086D1*
X-23922D2*
X-19121D1*
X-47748Y9927D2*
X-47566D1*
X-45434D2*
X-42996D1*
X-42356D2*
X-38746D1*
X-35489D2*
X-33086D1*
X-23672D2*
X-19031D1*
X-45434Y9678D2*
X-42992D1*
X-42188D2*
X-38496D1*
X-31293D2*
X-31086D1*
X-23422D2*
X-18945D1*
X-44493Y9430D2*
X-42824D1*
X-41942D2*
X-38320D1*
X-31543D2*
X-31086D1*
X-29797D2*
X-27890D1*
X-25946D2*
X-25851D1*
X-23176D2*
X-19097D1*
X-44371Y9181D2*
X-42574D1*
X-41692D2*
X-38320D1*
X-31789D2*
X-31078D1*
X-30196D2*
X-28140D1*
X-26192D2*
X-26046D1*
X-22926D2*
X-19121D1*
X-46578Y8932D2*
X-46324D1*
X-44371D2*
X-42328D1*
X-41442D2*
X-38320D1*
X-35465D2*
X-32855D1*
X-32528D2*
X-31328D1*
X-30442D2*
X-28390D1*
X-26442D2*
X-26117D1*
X-22676D2*
X-19035D1*
X-44504Y8684D2*
X-42078D1*
X-39461D2*
X-38320D1*
X-36430D2*
X-36125D1*
X-35243D2*
X-32136D1*
X-26692D2*
X-26437D1*
X-24993D2*
X-24375D1*
X-22430D2*
X-18941D1*
X-45434Y8435D2*
X-41832D1*
X-39215D2*
X-38320D1*
X-36430D2*
X-36121D1*
X-34993D2*
X-32386D1*
X-26938D2*
X-26550D1*
X-24743D2*
X-24128D1*
X-22180D2*
X-19097D1*
X-45465Y8186D2*
X-39847D1*
X-38965D2*
X-38320D1*
X-36430D2*
X-36234D1*
X-34743D2*
X-32636D1*
X-27188D2*
X-26621D1*
X-24493D2*
X-23878D1*
X-21930D2*
X-19125D1*
X-39856Y7938D2*
X-39601D1*
X-38715D2*
X-38320D1*
X-36430D2*
X-36199D1*
X-34618D2*
X-32882D1*
X-27438D2*
X-26734D1*
X-24246D2*
X-23863D1*
X-21684D2*
X-19039D1*
X-38469Y7689D2*
X-38323D1*
X-36430D2*
X-36089D1*
X-35411D2*
X-35257D1*
X-34618D2*
X-33132D1*
X-27684D2*
X-26703D1*
X-21434D2*
X-18933D1*
X-46188Y7440D2*
X-44378D1*
X-39313D2*
X-39101D1*
X-36430D2*
X-36089D1*
X-35411D2*
X-35257D1*
X-34618D2*
X-33382D1*
X-27942D2*
X-26445D1*
X-21184D2*
X-19093D1*
X-46371Y7191D2*
X-44628D1*
X-39387D2*
X-38855D1*
X-36430D2*
X-36089D1*
X-35411D2*
X-35257D1*
X-34618D2*
X-33628D1*
X-30137D2*
X-26597D1*
X-23258D2*
X-22882D1*
X-20938D2*
X-19125D1*
X-46578Y6943D2*
X-44878D1*
X-43993D2*
X-41824D1*
X-40852D2*
X-40648D1*
X-40063D2*
X-38605D1*
X-36430D2*
X-36089D1*
X-34618D2*
X-33878D1*
X-30203D2*
X-26597D1*
X-23250D2*
X-22636D1*
X-20688D2*
X-19043D1*
X-43844Y6694D2*
X-41707D1*
X-40969D2*
X-38507D1*
X-36430D2*
X-35976D1*
X-34618D2*
X-34011D1*
X-29368D2*
X-26433D1*
X-23000D2*
X-22386D1*
X-20438D2*
X-18929D1*
X-43805Y6445D2*
X-41660D1*
X-41020D2*
X-38507D1*
X-36430D2*
X-35890D1*
X-34618D2*
X-34011D1*
X-33371D2*
X-32171D1*
X-29368D2*
X-26175D1*
X-22754D2*
X-22136D1*
X-20192D2*
X-19093D1*
X-44746Y6197D2*
X-44669D1*
X-43911D2*
X-41652D1*
X-40832D2*
X-38507D1*
X-36430D2*
X-35777D1*
X-34618D2*
X-34011D1*
X-33371D2*
X-32140D1*
X-31235D2*
X-31052D1*
X-29368D2*
X-26066D1*
X-22504D2*
X-21890D1*
X-19942D2*
X-19125D1*
X-46575Y5948D2*
X-44613D1*
X-43973D2*
X-43531D1*
X-43227D2*
X-43102D1*
X-40586D2*
X-38507D1*
X-36430D2*
X-35777D1*
X-34618D2*
X-34011D1*
X-33371D2*
X-33050D1*
X-32075D2*
X-31898D1*
X-31477D2*
X-31050D1*
X-29368D2*
X-27800D1*
X-26825D2*
X-25894D1*
X-22254D2*
X-21640D1*
X-46379Y5699D2*
X-44613D1*
X-43973D2*
X-43823D1*
X-40336D2*
X-38507D1*
X-36430D2*
X-35777D1*
X-34618D2*
X-34152D1*
X-33231D2*
X-33052D1*
X-32075D2*
X-30863D1*
X-29219D2*
X-27800D1*
X-26203D2*
X-25925D1*
X-22008D2*
X-21390D1*
X-46317Y5451D2*
X-44613D1*
X-43973D2*
X-43865D1*
X-40086D2*
X-38507D1*
X-36430D2*
X-35718D1*
X-34618D2*
X-34171D1*
X-33211D2*
X-33052D1*
X-32075D2*
X-30863D1*
X-29211D2*
X-27800D1*
X-26078D2*
X-25804D1*
X-21758D2*
X-21144D1*
X-46368Y5202D2*
X-44613D1*
X-43973D2*
X-43761D1*
X-39840D2*
X-38507D1*
X-34618D2*
X-34195D1*
X-32075D2*
X-30863D1*
X-29368D2*
X-27800D1*
X-26106D2*
X-25949D1*
X-25121D2*
X-24832D1*
X-21508D2*
X-20894D1*
X-47493Y4953D2*
X-47317D1*
X-46567D2*
X-44613D1*
X-43973D2*
X-43699D1*
X-42465D2*
X-42207D1*
X-41321D2*
X-41183D1*
X-39450D2*
X-38507D1*
X-34618D2*
X-34242D1*
X-32075D2*
X-30863D1*
X-29887D2*
X-28218D1*
X-25121D2*
X-24902D1*
X-21262D2*
X-20644D1*
X-47493Y4705D2*
X-44613D1*
X-43973D2*
X-43699D1*
X-42215D2*
X-41957D1*
X-41075D2*
X-40933D1*
X-39200D2*
X-38507D1*
X-34618D2*
X-34136D1*
X-33368D2*
X-33050D1*
X-32075D2*
X-30863D1*
X-29887D2*
X-28300D1*
X-21012D2*
X-20398D1*
X-47493Y4456D2*
X-44632D1*
X-43973D2*
X-43699D1*
X-42930D2*
X-42852D1*
X-38821D2*
X-38507D1*
X-36430D2*
X-36289D1*
X-34618D2*
X-34238D1*
X-33262D2*
X-31175D1*
X-30200D2*
X-28242D1*
X-47493Y4207D2*
X-44836D1*
X-43907D2*
X-43699D1*
X-42723D2*
X-42601D1*
X-41543D2*
X-41458D1*
X-36430D2*
X-35968D1*
X-34618D2*
X-34238D1*
X-33262D2*
X-31175D1*
X-29926D2*
X-26882D1*
X-47493Y3959D2*
X-44851D1*
X-43891D2*
X-43668D1*
X-42707D2*
X-42488D1*
X-41528D2*
X-41347D1*
X-40387D2*
X-40187D1*
X-36430D2*
X-35968D1*
X-34618D2*
X-34238D1*
X-33262D2*
X-31175D1*
X-29676D2*
X-26882D1*
X-47493Y3710D2*
X-44707D1*
X-44036D2*
X-43527D1*
X-42852D2*
X-42343D1*
X-41672D2*
X-41203D1*
X-40532D2*
X-40058D1*
X-38551D2*
X-38460D1*
X-36328D2*
X-35968D1*
X-34618D2*
X-34238D1*
X-33157D2*
X-31175D1*
X-29215D2*
X-26882D1*
X-47493Y3461D2*
X-38320D1*
X-34618D2*
X-34238D1*
X-32809D2*
X-31175D1*
X-30200D2*
X-30121D1*
X-29082D2*
X-26882D1*
X-47493Y3212D2*
X-40574D1*
X-40051D2*
X-39324D1*
X-38801D2*
X-38320D1*
X-34618D2*
X-34238D1*
X-32743D2*
X-31175D1*
X-30200D2*
X-30023D1*
X-29102D2*
X-26882D1*
X-47493Y2964D2*
X-40777D1*
X-39848D2*
X-39527D1*
X-38598D2*
X-38462D1*
X-36680D2*
X-36468D1*
X-34618D2*
X-34238D1*
X-32493D2*
X-31175D1*
X-30200D2*
X-29902D1*
X-29223D2*
X-26882D1*
X-47493Y2715D2*
X-44683D1*
X-44133D2*
X-40793D1*
X-39832D2*
X-39543D1*
X-38582D2*
X-38479D1*
X-36680D2*
X-36316D1*
X-34586D2*
X-33187D1*
X-32246D2*
X-29902D1*
X-29223D2*
X-26867D1*
X-47493Y2466D2*
X-44878D1*
X-43086D2*
X-40648D1*
X-39977D2*
X-39476D1*
X-38727D2*
X-38336D1*
X-36680D2*
X-36568D1*
X-34125D2*
X-32937D1*
X-29223D2*
X-26660D1*
X-47493Y2218D2*
X-44886D1*
X-42836D2*
X-40632D1*
X-39993D2*
X-39726D1*
X-38840D2*
X-38320D1*
X-35875D2*
X-35675D1*
X-34075D2*
X-32687D1*
X-29313D2*
X-26410D1*
X-47493Y1969D2*
X-44738D1*
X-44082D2*
X-43472D1*
X-42590D2*
X-40796D1*
X-39090D2*
X-38320D1*
X-36121D2*
X-35441D1*
X-34168D2*
X-32875D1*
X-29559D2*
X-28750D1*
X-28250D2*
X-27250D1*
X-26750D2*
X-25839D1*
X-25161D2*
X-24035D1*
X-47493Y1720D2*
X-43226D1*
X-42340D2*
X-41257D1*
X-39254D2*
X-38320D1*
X-36348D2*
X-35191D1*
X-32184D2*
X-28961D1*
X-28039D2*
X-27461D1*
X-26539D2*
X-25980D1*
X-25020D2*
X-23789D1*
X-47493Y1472D2*
X-47011D1*
X-46625D2*
X-42976D1*
X-42090D2*
X-41316D1*
X-40336D2*
X-40177D1*
X-39200D2*
X-38336D1*
X-36496D2*
X-34941D1*
X-32434D2*
X-28980D1*
X-24840D2*
X-23539D1*
X-47493Y1223D2*
X-47325D1*
X-46309D2*
X-42726D1*
X-36743D2*
X-28843D1*
X-24594D2*
X-23289D1*
X-47493Y974D2*
X-47401D1*
X-46235D2*
X-42480D1*
X-36993D2*
X-28839D1*
X-24344D2*
X-23043D1*
X-47493Y726D2*
X-47363D1*
X-39848D2*
X-38261D1*
X-37243D2*
X-28839D1*
X-24098D2*
X-22793D1*
X-47493Y477D2*
X-47160D1*
X-39844D2*
X-38429D1*
X-37489D2*
X-35117D1*
X-34258D2*
X-28839D1*
X-23848D2*
X-22543D1*
X-47493Y228D2*
X-46601D1*
X-39844D2*
X-38679D1*
X-37739D2*
X-35175D1*
X-34200D2*
X-28839D1*
X-23598D2*
X-22296D1*
X-47493Y-20D2*
X-46601D1*
X-39844D2*
X-38929D1*
X-37989D2*
X-35089D1*
X-34071D2*
X-33386D1*
X-32739D2*
X-28839D1*
X-28161D2*
X-28011D1*
X-23352D2*
X-22046D1*
X-47493Y-269D2*
X-46601D1*
X-39844D2*
X-39175D1*
X-38235D2*
X-34765D1*
X-33825D2*
X-33539D1*
X-32586D2*
X-28988D1*
X-28161D2*
X-27765D1*
X-23102D2*
X-21796D1*
X-47493Y-518D2*
X-46601D1*
X-39844D2*
X-39425D1*
X-38485D2*
X-34515D1*
X-32594D2*
X-29238D1*
X-28297D2*
X-27515D1*
X-22852D2*
X-21550D1*
X-47493Y-767D2*
X-46601D1*
X-38735D2*
X-34265D1*
X-28547D2*
X-27265D1*
X-47383Y-1015D2*
X-46601D1*
X-38981D2*
X-33675D1*
X-28793D2*
X-27109D1*
X-47133Y-1264D2*
X-46601D1*
X-39161D2*
X-33675D1*
X-32700D2*
X-26980D1*
X-46887Y-1513D2*
X-46601D1*
X-39161D2*
X-33675D1*
X-32700D2*
X-26582D1*
X-39161Y-1761D2*
X-33675D1*
X-32700D2*
X-26336D1*
X-20528D2*
X-19125D1*
X-47748Y-2010D2*
X-47464D1*
X-39161D2*
X-33675D1*
X-32700D2*
X-26086D1*
X-47748Y-2259D2*
X-47218D1*
X-39844D2*
X-25836D1*
X-47748Y-2507D2*
X-46968D1*
X-39844D2*
X-25589D1*
X-47748Y-2756D2*
X-46718D1*
X-39844D2*
X-25339D1*
X-47748Y-3005D2*
X-46601D1*
X-39844D2*
X-25089D1*
X-47748Y-3253D2*
X-46589D1*
X-39856D2*
X-24843D1*
X-47748Y-3502D2*
X-45918D1*
X-44957D2*
X-43871D1*
X-42911D2*
X-41824D1*
X-40864D2*
X-39777D1*
X-38813D2*
X-37730D1*
X-36766D2*
X-35683D1*
X-34719D2*
X-33632D1*
X-32672D2*
X-31586D1*
X-30625D2*
X-29539D1*
X-28578D2*
X-27492D1*
X-26532D2*
X-24593D1*
X-47748Y-3751D2*
X-46082D1*
X-44793D2*
X-44035D1*
X-42746D2*
X-41984D1*
X-40700D2*
X-39937D1*
X-38653D2*
X-37890D1*
X-36606D2*
X-35843D1*
X-34559D2*
X-33796D1*
X-32512D2*
X-31750D1*
X-30461D2*
X-29703D1*
X-28414D2*
X-27656D1*
X-26368D2*
X-24343D1*
X-47748Y-3999D2*
X-46121D1*
X-44754D2*
X-44074D1*
X-42707D2*
X-42027D1*
X-40661D2*
X-39980D1*
X-38614D2*
X-37933D1*
X-36567D2*
X-35882D1*
X-34516D2*
X-33836D1*
X-32469D2*
X-31789D1*
X-30422D2*
X-29742D1*
X-28375D2*
X-27695D1*
X-26328D2*
X-24093D1*
X-47748Y-4248D2*
X-46062D1*
X-44813D2*
X-44015D1*
X-42766D2*
X-41968D1*
X-40715D2*
X-39921D1*
X-38668D2*
X-37875D1*
X-36621D2*
X-35828D1*
X-34575D2*
X-33781D1*
X-32528D2*
X-31730D1*
X-30481D2*
X-29683D1*
X-28434D2*
X-27636D1*
X-26387D2*
X-18863D1*
X-47748Y-4497D2*
X-45871D1*
X-45004D2*
X-43824D1*
X-42957D2*
X-41777D1*
X-40911D2*
X-39730D1*
X-38864D2*
X-37679D1*
X-36817D2*
X-35632D1*
X-34766D2*
X-33586D1*
X-32719D2*
X-31539D1*
X-30672D2*
X-29492D1*
X-28625D2*
X-27445D1*
X-26578D2*
X-17054D1*
X-47748Y-4746D2*
X-45968D1*
X-44903D2*
X-43921D1*
X-42856D2*
X-41875D1*
X-40809D2*
X-39828D1*
X-38762D2*
X-37781D1*
X-36715D2*
X-35734D1*
X-34668D2*
X-33687D1*
X-32621D2*
X-31640D1*
X-30575D2*
X-29593D1*
X-28528D2*
X-27543D1*
X-26481D2*
X-17054D1*
X-47748Y-4994D2*
X-45937D1*
X-44938D2*
X-43890D1*
X-42891D2*
X-41843D1*
X-40844D2*
X-39796D1*
X-38797D2*
X-37746D1*
X-36750D2*
X-35699D1*
X-34700D2*
X-33652D1*
X-32653D2*
X-31605D1*
X-30606D2*
X-29558D1*
X-28559D2*
X-27511D1*
X-26512D2*
X-17058D1*
X-47748Y-5243D2*
X-45836D1*
X-45039D2*
X-43789D1*
X-42993D2*
X-41742D1*
X-40946D2*
X-39695D1*
X-38899D2*
X-37648D1*
X-36848D2*
X-35597D1*
X-34801D2*
X-33550D1*
X-32754D2*
X-31503D1*
X-30707D2*
X-29457D1*
X-28661D2*
X-27410D1*
X-26614D2*
X-17058D1*
X-47748Y-5492D2*
X-45964D1*
X-44911D2*
X-43918D1*
X-42864D2*
X-41867D1*
X-40817D2*
X-39820D1*
X-38770D2*
X-37773D1*
X-36723D2*
X-35726D1*
X-34676D2*
X-33679D1*
X-32629D2*
X-31632D1*
X-30578D2*
X-29586D1*
X-28532D2*
X-27539D1*
X-26485D2*
X-17058D1*
X-47748Y-5740D2*
X-45953D1*
X-44922D2*
X-43902D1*
X-42875D2*
X-41855D1*
X-40828D2*
X-39808D1*
X-38782D2*
X-37761D1*
X-36735D2*
X-35714D1*
X-34688D2*
X-33668D1*
X-32641D2*
X-31621D1*
X-30594D2*
X-29574D1*
X-28543D2*
X-27527D1*
X-26496D2*
X-17062D1*
X-47748Y-5989D2*
X-47503D1*
X-46875D2*
X-45793D1*
X-45082D2*
X-43746D1*
X-43036D2*
X-41699D1*
X-40989D2*
X-39652D1*
X-38942D2*
X-37601D1*
X-36895D2*
X-35554D1*
X-34844D2*
X-33507D1*
X-32797D2*
X-31461D1*
X-30750D2*
X-29414D1*
X-28703D2*
X-27367D1*
X-26657D2*
X-17062D1*
X-46411Y-6238D2*
X-45953D1*
X-44922D2*
X-43906D1*
X-42875D2*
X-41859D1*
X-40828D2*
X-39812D1*
X-38778D2*
X-37765D1*
X-36731D2*
X-35718D1*
X-34684D2*
X-33668D1*
X-32637D2*
X-31621D1*
X-30590D2*
X-29574D1*
X-28543D2*
X-27527D1*
X-26496D2*
X-17062D1*
X-46203Y-6486D2*
X-45961D1*
X-44911D2*
X-43914D1*
X-42864D2*
X-41867D1*
X-40817D2*
X-39820D1*
X-38770D2*
X-37773D1*
X-36723D2*
X-35726D1*
X-34676D2*
X-33679D1*
X-32629D2*
X-31632D1*
X-30582D2*
X-29586D1*
X-28536D2*
X-27535D1*
X-26489D2*
X-17386D1*
X-46090Y-6735D2*
X-45921D1*
X-44953D2*
X-43875D1*
X-42903D2*
X-41828D1*
X-40856D2*
X-39781D1*
X-38809D2*
X-37734D1*
X-36762D2*
X-35687D1*
X-34715D2*
X-33640D1*
X-32668D2*
X-31593D1*
X-30621D2*
X-29543D1*
X-28575D2*
X-27496D1*
X-26528D2*
X-17753D1*
X-44793Y-6984D2*
X-44035D1*
X-42746D2*
X-41988D1*
X-40696D2*
X-39941D1*
X-38649D2*
X-37894D1*
X-36602D2*
X-35847D1*
X-34555D2*
X-33800D1*
X-32508D2*
X-31750D1*
X-30461D2*
X-29703D1*
X-28414D2*
X-27656D1*
X-26368D2*
X-18121D1*
X-44754Y-7232D2*
X-44074D1*
X-42707D2*
X-42027D1*
X-40661D2*
X-39980D1*
X-38614D2*
X-37929D1*
X-36567D2*
X-35882D1*
X-34516D2*
X-33836D1*
X-32469D2*
X-31789D1*
X-30422D2*
X-29742D1*
X-28375D2*
X-27695D1*
X-26328D2*
X-18488D1*
X-44813Y-7481D2*
X-44011D1*
X-42766D2*
X-41964D1*
X-40719D2*
X-39918D1*
X-38672D2*
X-37871D1*
X-36625D2*
X-35824D1*
X-34578D2*
X-33777D1*
X-32532D2*
X-31730D1*
X-30485D2*
X-29683D1*
X-28434D2*
X-27636D1*
X-26387D2*
X-18855D1*
X-46168Y-7730D2*
X-45863D1*
X-45012D2*
X-43812D1*
X-42965D2*
X-41765D1*
X-40918D2*
X-39718D1*
X-38871D2*
X-37671D1*
X-36825D2*
X-35625D1*
X-34778D2*
X-33578D1*
X-32731D2*
X-31531D1*
X-30684D2*
X-29484D1*
X-28633D2*
X-27437D1*
X-26586D2*
X-19226D1*
X-45786Y-7978D2*
X-19593D1*
X-45403Y-8227D2*
X-35207D1*
X-32726Y-1249D2*
X-32730Y-1419D1*
X-32726Y-1500D1*
Y-2088D1*
X-33649D1*
Y-939D1*
X-33937Y-940D1*
X-34059Y-916D1*
X-34160Y-848D1*
X-34809Y-199D1*
X-34942Y-139D1*
X-35036Y-57D1*
X-35106Y46D1*
X-35145Y165D1*
X-35151Y289D1*
X-35124Y411D1*
X-35065Y521D1*
X-34980Y612D1*
X-34873Y676D1*
X-34754Y710D1*
X-34629Y711D1*
X-34509Y679D1*
X-34401Y616D1*
X-34314Y527D1*
X-34254Y418D1*
X-34225Y297D1*
X-34223Y250D1*
X-34241Y123D1*
X-33805Y-312D1*
X-33521Y-310D1*
X-33499Y-214D1*
X-33440Y-104D1*
X-33355Y-13D1*
X-33248Y51D1*
X-33129Y85D1*
X-33004Y86D1*
X-32884Y54D1*
X-32776Y-9D1*
X-32689Y-98D1*
X-32629Y-207D1*
X-32600Y-328D1*
X-32598Y-375D1*
X-32614Y-499D1*
X-32670Y-622D1*
X-29316D1*
X-28816Y-121D1*
X-28815Y1223D1*
X-28849Y1255D1*
X-28918Y1359D1*
X-28957Y1477D1*
X-28963Y1602D1*
X-28936Y1723D1*
X-28878Y1833D1*
X-28792Y1924D1*
X-28686Y1989D1*
X-28566Y2023D1*
X-28441Y2024D1*
X-28321Y1992D1*
X-28213Y1929D1*
X-28126Y1839D1*
X-28066Y1730D1*
X-28036Y1587D1*
X-27941Y1586D1*
X-27821Y1554D1*
X-27717Y1493D1*
X-27623Y1551D1*
X-27504Y1585D1*
X-27461Y1586D1*
X-27436Y1723D1*
X-27378Y1833D1*
X-27292Y1924D1*
X-27186Y1989D1*
X-27066Y2023D1*
X-26941Y2024D1*
X-26821Y1992D1*
X-26713Y1929D1*
X-26626Y1839D1*
X-26566Y1730D1*
X-26537Y1609D1*
X-26544Y1497D1*
X-26441Y1523D1*
X-26316Y1524D1*
X-26172Y1478D1*
X-26105Y1549D1*
X-25998Y1614D1*
X-25965Y1623D1*
X-25936Y1786D1*
X-25878Y1896D1*
X-25792Y1987D1*
X-25686Y2051D1*
X-25566Y2085D1*
X-25441Y2086D1*
X-25321Y2054D1*
X-25213Y1991D1*
X-25126Y1902D1*
X-25066Y1793D1*
X-25036Y1641D1*
X-22813Y-580D1*
X-21465D1*
X-22976Y934D1*
X-24188Y2143D1*
X-26188D1*
X-26312Y2171D1*
X-26396Y2229D1*
X-26771Y2604D1*
X-26839Y2712D1*
X-26857Y2812D1*
Y4395D1*
X-27391Y4392D1*
X-27491Y4352D1*
X-27591Y4278D1*
X-27708Y4234D1*
X-27832Y4223D1*
X-27955Y4245D1*
X-28067Y4298D1*
X-28161Y4380D1*
X-28231Y4484D1*
X-28270Y4602D1*
X-28276Y4727D1*
X-28249Y4848D1*
X-28190Y4958D1*
X-28105Y5049D1*
X-27998Y5114D1*
X-27879Y5148D1*
X-27773Y5149D1*
X-27774Y6026D1*
X-26851D1*
Y5739D1*
X-26748Y5801D1*
X-26629Y5835D1*
X-26504Y5836D1*
X-26384Y5804D1*
X-26276Y5741D1*
X-26189Y5652D1*
X-26129Y5543D1*
X-26100Y5422D1*
X-26097Y5375D1*
X-26114Y5251D1*
X-26163Y5137D1*
X-26241Y5039D1*
X-26269Y5019D1*
X-26267Y4848D1*
X-26249Y4911D1*
X-26190Y5021D1*
X-26105Y5112D1*
X-25998Y5176D1*
X-25879Y5210D1*
X-25735Y5206D1*
Y5411D1*
X-25789Y5461D1*
X-25858Y5565D1*
X-25897Y5683D1*
X-25904Y5807D1*
X-25876Y5929D1*
X-25805Y6053D1*
X-25942Y6111D1*
X-26036Y6193D1*
X-26106Y6296D1*
X-26145Y6415D1*
X-26151Y6539D1*
X-26138Y6596D1*
X-26267Y6620D1*
X-26380Y6673D1*
X-26474Y6755D1*
X-26543Y6859D1*
X-26582Y6977D1*
X-26588Y7102D1*
X-26561Y7223D1*
X-26503Y7333D1*
X-26420Y7421D1*
Y7443D1*
X-26505Y7486D1*
X-26599Y7568D1*
X-26668Y7671D1*
X-26707Y7790D1*
X-26713Y7914D1*
X-26686Y8036D1*
X-26628Y8146D1*
X-26542Y8237D1*
X-26512Y8255D1*
X-26526Y8414D1*
X-26499Y8536D1*
X-26440Y8646D1*
X-26355Y8737D1*
X-26248Y8801D1*
X-26129Y8835D1*
X-26078Y8836D1*
X-26088Y8977D1*
X-26061Y9098D1*
X-26003Y9208D1*
X-25917Y9299D1*
X-25811Y9364D1*
X-25777Y9373D1*
X-25856Y9484D1*
X-25871Y9532D1*
X-26633Y8766D1*
X-27920Y7479D1*
X-28028Y7411D1*
X-28129Y7392D1*
X-30211D1*
X-30191Y7355D1*
X-30162Y7234D1*
X-30160Y7188D1*
X-30177Y7064D1*
X-30226Y6949D1*
X-30313Y6845D1*
X-30307Y6837D1*
X-29393D1*
Y5923D1*
X-29314Y5839D1*
X-29254Y5730D1*
X-29225Y5609D1*
X-29223Y5563D1*
X-29239Y5439D1*
X-29288Y5324D1*
X-29366Y5227D1*
X-29466Y5153D1*
X-29583Y5109D1*
X-29707Y5098D1*
X-29830Y5120D1*
X-29911Y5158D1*
X-29917Y5143D1*
X-29913Y5062D1*
Y4474D1*
X-30226D1*
Y4314D1*
X-30188Y4315D1*
X-30066Y4291D1*
X-29965Y4223D1*
X-29581Y3839D1*
X-29504Y3836D1*
X-29384Y3804D1*
X-29276Y3741D1*
X-29189Y3652D1*
X-29129Y3543D1*
X-29100Y3422D1*
X-29098Y3375D1*
X-29114Y3251D1*
X-29163Y3137D1*
X-29250Y3032D1*
X-29248Y2437D1*
X-29272Y2316D1*
X-29340Y2215D1*
X-29590Y1965D1*
X-29693Y1896D1*
X-29813Y1872D1*
X-32059D1*
X-32527Y1402D1*
X-32631Y1333D1*
X-32750Y1310D1*
X-34625D1*
X-34747Y1334D1*
X-34848Y1402D1*
X-35601Y2156D1*
X-35670Y2259D1*
X-35694Y2379D1*
Y2422D1*
X-36373Y1742D1*
X-36400Y1621D1*
X-36465Y1527D1*
X-39185Y-1193D1*
X-39188Y-1584D1*
X-39184Y-1665D1*
Y-2253D1*
X-39871D1*
X-39870Y-3188D1*
X-39909Y-3305D1*
X-40013Y-3376D1*
X-40192Y-3384D1*
X-41055D1*
X-40970Y-3434D1*
X-40874Y-3514D1*
X-40795Y-3611D1*
X-40736Y-3721D1*
X-40698Y-3840D1*
X-40684Y-3978D1*
X-40696Y-4102D1*
X-40731Y-4222D1*
X-40788Y-4333D1*
X-40865Y-4431D1*
X-40938Y-4495D1*
X-40874Y-4599D1*
X-40839Y-4719D1*
X-40831Y-4804D1*
X-40847Y-4928D1*
X-40891Y-5045D1*
X-40963Y-5147D1*
X-41019Y-5195D1*
X-40938Y-5279D1*
X-40874Y-5387D1*
X-40839Y-5506D1*
X-40831Y-5592D1*
X-40847Y-5716D1*
X-40891Y-5832D1*
X-40963Y-5934D1*
X-41019Y-5983D1*
X-40938Y-6067D1*
X-40874Y-6174D1*
X-40839Y-6294D1*
X-40832Y-6404D1*
X-40853Y-6527D1*
X-40904Y-6641D1*
X-40936Y-6688D1*
X-40874Y-6743D1*
X-40795Y-6839D1*
X-40736Y-6949D1*
X-40698Y-7068D1*
X-40684Y-7206D1*
X-40696Y-7330D1*
X-40731Y-7450D1*
X-40788Y-7561D1*
X-40865Y-7659D1*
X-40959Y-7741D1*
X-41067Y-7804D1*
X-41184Y-7845D1*
X-41308Y-7864D1*
X-41433Y-7859D1*
X-41554Y-7830D1*
X-41668Y-7779D1*
X-41770Y-7707D1*
X-41857Y-7617D1*
X-41925Y-7513D1*
X-41973Y-7398D1*
X-41998Y-7275D1*
X-41999Y-7150D1*
X-41977Y-7028D1*
X-41932Y-6911D1*
X-41865Y-6805D1*
X-41746Y-6689D1*
X-41778Y-6646D1*
X-41830Y-6532D1*
X-41853Y-6410D1*
X-41845Y-6285D1*
X-41807Y-6166D1*
X-41742Y-6060D1*
X-41668Y-5985D1*
X-41735Y-5919D1*
X-41802Y-5815D1*
X-41843Y-5697D1*
X-41853Y-5572D1*
X-41833Y-5449D1*
X-41784Y-5335D1*
X-41709Y-5235D1*
X-41663Y-5199D1*
X-41735Y-5132D1*
X-41802Y-5027D1*
X-41843Y-4909D1*
X-41853Y-4785D1*
X-41833Y-4662D1*
X-41784Y-4547D1*
X-41749Y-4501D1*
X-41857Y-4389D1*
X-41925Y-4285D1*
X-41973Y-4169D1*
X-41998Y-4047D1*
X-41999Y-3922D1*
X-41977Y-3799D1*
X-41932Y-3683D1*
X-41865Y-3577D1*
X-41780Y-3486D1*
X-41680Y-3412D1*
X-41620Y-3383D1*
X-43102Y-3384D1*
X-43017Y-3434D1*
X-42921Y-3514D1*
X-42842Y-3611D1*
X-42783Y-3721D1*
X-42746Y-3840D1*
X-42731Y-3978D1*
X-42743Y-4102D1*
X-42778Y-4222D1*
X-42835Y-4333D1*
X-42912Y-4431D1*
X-42985Y-4495D1*
X-42922Y-4599D1*
X-42886Y-4719D1*
X-42879Y-4804D1*
X-42894Y-4928D1*
X-42939Y-5045D1*
X-43010Y-5147D1*
X-43066Y-5195D1*
X-42985Y-5279D1*
X-42922Y-5387D1*
X-42886Y-5506D1*
X-42879Y-5592D1*
X-42894Y-5716D1*
X-42939Y-5832D1*
X-43010Y-5934D1*
X-43066Y-5983D1*
X-42985Y-6067D1*
X-42922Y-6174D1*
X-42886Y-6294D1*
X-42879Y-6404D1*
X-42901Y-6527D1*
X-42951Y-6641D1*
X-42983Y-6688D1*
X-42921Y-6743D1*
X-42842Y-6839D1*
X-42783Y-6949D1*
X-42746Y-7068D1*
X-42731Y-7206D1*
X-42743Y-7330D1*
X-42778Y-7450D1*
X-42835Y-7561D1*
X-42912Y-7659D1*
X-43006Y-7741D1*
X-43114Y-7804D1*
X-43232Y-7845D1*
X-43355Y-7864D1*
X-43480Y-7859D1*
X-43601Y-7830D1*
X-43715Y-7779D1*
X-43817Y-7707D1*
X-43904Y-7617D1*
X-43973Y-7513D1*
X-44020Y-7398D1*
X-44045Y-7275D1*
X-44046Y-7150D1*
X-44024Y-7028D1*
X-43979Y-6911D1*
X-43913Y-6805D1*
X-43793Y-6689D1*
X-43826Y-6646D1*
X-43877Y-6532D1*
X-43900Y-6410D1*
X-43892Y-6285D1*
X-43854Y-6166D1*
X-43789Y-6060D1*
X-43715Y-5985D1*
X-43782Y-5919D1*
X-43850Y-5815D1*
X-43890Y-5697D1*
X-43900Y-5572D1*
X-43881Y-5449D1*
X-43831Y-5335D1*
X-43756Y-5235D1*
X-43710Y-5199D1*
X-43782Y-5132D1*
X-43850Y-5027D1*
X-43890Y-4909D1*
X-43900Y-4785D1*
X-43881Y-4662D1*
X-43831Y-4547D1*
X-43796Y-4501D1*
X-43904Y-4389D1*
X-43973Y-4285D1*
X-44020Y-4169D1*
X-44045Y-4047D1*
X-44046Y-3922D1*
X-44024Y-3799D1*
X-43979Y-3683D1*
X-43913Y-3577D1*
X-43828Y-3486D1*
X-43727Y-3412D1*
X-43667Y-3383D1*
X-45149Y-3384D1*
X-45064Y-3434D1*
X-44969Y-3514D1*
X-44890Y-3611D1*
X-44830Y-3721D1*
X-44793Y-3840D1*
X-44778Y-3978D1*
X-44790Y-4102D1*
X-44825Y-4222D1*
X-44882Y-4333D1*
X-44959Y-4431D1*
X-45033Y-4495D1*
X-44969Y-4599D1*
X-44933Y-4719D1*
X-44926Y-4804D1*
X-44941Y-4928D1*
X-44986Y-5045D1*
X-45057Y-5147D1*
X-45113Y-5195D1*
X-45033Y-5279D1*
X-44969Y-5387D1*
X-44933Y-5506D1*
X-44926Y-5592D1*
X-44941Y-5716D1*
X-44986Y-5832D1*
X-45057Y-5934D1*
X-45113Y-5983D1*
X-45033Y-6067D1*
X-44969Y-6174D1*
X-44933Y-6294D1*
X-44927Y-6404D1*
X-44948Y-6527D1*
X-44998Y-6641D1*
X-45030Y-6688D1*
X-44969Y-6743D1*
X-44890Y-6839D1*
X-44830Y-6949D1*
X-44793Y-7068D1*
X-44778Y-7206D1*
X-44790Y-7330D1*
X-44825Y-7450D1*
X-44882Y-7561D1*
X-44959Y-7659D1*
X-45053Y-7741D1*
X-45161Y-7804D1*
X-45279Y-7845D1*
X-45402Y-7864D1*
X-45527Y-7859D1*
X-45649Y-7830D1*
X-45762Y-7779D1*
X-45865Y-7707D1*
X-45951Y-7617D1*
X-46020Y-7513D1*
X-46067Y-7398D1*
X-46085Y-7310D1*
X-46123Y-7446D1*
X-46171Y-7561D1*
X-46246Y-7693D1*
X-45383Y-8257D1*
X-19865Y-8180D1*
X-17040Y-6270D1*
X-17029Y-4348D1*
X-17452Y-4350D1*
X-18101D1*
Y-4196D1*
X-18199Y-4268D1*
X-18313Y-4320D1*
X-18435Y-4346D1*
X-18560Y-4347D1*
X-18682Y-4322D1*
X-18797Y-4273D1*
X-18898Y-4200D1*
X-18983Y-4109D1*
X-19009Y-4065D1*
X-23875D1*
X-23996Y-4041D1*
X-24097Y-3973D1*
X-26669Y-1402D1*
X-26767Y-1380D1*
X-26880Y-1327D1*
X-26974Y-1245D1*
X-27043Y-1141D1*
X-27082Y-1023D1*
X-27087Y-918D1*
X-28187Y179D1*
X-28185Y-250D1*
X-28209Y-372D1*
X-28277Y-473D1*
X-28965Y-1160D1*
X-29068Y-1229D1*
X-29187Y-1252D1*
X-32723D1*
X-32726Y-1425D1*
X-39869Y-621D2*
X-39502D1*
X-38185Y698D1*
X-38255Y736D1*
X-38293Y769D1*
X-39887Y767D1*
X-39870Y688D1*
Y-621D1*
X-30226Y3593D2*
X-30230Y3518D1*
X-30226Y3437D1*
Y2849D1*
X-31149D1*
Y4482D1*
X-30833D1*
X-30837Y4599D1*
Y5913D1*
X-31026D1*
X-31029Y6278D1*
X-31145Y6234D1*
X-31250Y6225D1*
X-31288Y6137D1*
X-31366Y6039D1*
X-31466Y5966D1*
X-31583Y5922D1*
X-31707Y5910D1*
X-31830Y5932D1*
X-31942Y5986D1*
X-32036Y6068D1*
X-32106Y6171D1*
X-32145Y6290D1*
X-32151Y6414D1*
X-32115Y6553D1*
X-32270Y6535D1*
X-32392Y6557D1*
X-32505Y6611D1*
X-32531Y6634D1*
X-32591Y6591D1*
X-32708Y6547D1*
X-32832Y6535D1*
X-32955Y6557D1*
X-33067Y6611D1*
X-33161Y6693D1*
X-33207Y6761D1*
X-33398Y6564D1*
X-33396Y5903D1*
X-33318Y5818D1*
X-33257Y5709D1*
X-33228Y5588D1*
X-33226Y5541D1*
X-33243Y5418D1*
X-33299Y5294D1*
X-33023Y5295D1*
X-33024Y5900D1*
Y6088D1*
X-32101D1*
Y4456D1*
X-33024D1*
Y4702D1*
X-33395Y4705D1*
X-33431Y4664D1*
X-33532Y4591D1*
X-33649Y4547D1*
X-33773Y4535D1*
X-33895Y4557D1*
X-34008Y4611D1*
X-34102Y4693D1*
X-34171Y4796D1*
X-34210Y4915D1*
X-34216Y5039D1*
X-34189Y5161D1*
X-34131Y5271D1*
X-34096Y5308D1*
X-34148Y5456D1*
X-34154Y5580D1*
X-34127Y5702D1*
X-34069Y5812D1*
X-33986Y5900D1*
Y6688D1*
X-33958Y6813D1*
X-33900Y6897D1*
X-31962Y8835D1*
X-31854Y8902D1*
X-31753Y8921D1*
X-31311Y8923D1*
X-30922Y9312D1*
X-31060Y9314D1*
Y9935D1*
X-31843Y9153D1*
X-31947Y9084D1*
X-32066Y9061D1*
X-32351D1*
X-32470Y8967D1*
X-32586Y8923D1*
X-32711Y8911D1*
X-32833Y8933D1*
X-32946Y8987D1*
X-33031Y9061D1*
X-35382D1*
X-35466Y8956D1*
X-35507Y8926D1*
X-34729Y8146D1*
X-34661Y8038D1*
X-34642Y7938D1*
X-34641Y2745D1*
X-34610Y2715D1*
X-34504Y2711D1*
X-34384Y2679D1*
X-34276Y2616D1*
X-34189Y2527D1*
X-34129Y2418D1*
X-34100Y2297D1*
X-34097Y2250D1*
X-34114Y2126D1*
X-34163Y2012D1*
X-34219Y1942D1*
X-32879Y1940D1*
X-32633Y2187D1*
X-33231Y2785D1*
X-33392Y2807D1*
X-33505Y2861D1*
X-33543Y2894D1*
X-34212Y2893D1*
X-34208Y3857D1*
X-34212Y3938D1*
Y4526D1*
X-33288D1*
Y3712D1*
X-33191Y3711D1*
X-33071Y3679D1*
X-32963Y3616D1*
X-32876Y3527D1*
X-32816Y3418D1*
X-32787Y3297D1*
X-32788Y3231D1*
X-32058Y2503D1*
X-29941Y2502D1*
X-29878Y2566D1*
X-29879Y3040D1*
X-29911Y3068D1*
X-29981Y3171D1*
X-30020Y3290D1*
X-30026Y3393D1*
X-30226Y3587D1*
Y3512D1*
X-33667Y10980D2*
Y10145D1*
X-34590D1*
Y11777D1*
X-34446D1*
X-34444Y12549D1*
X-34531Y12624D1*
X-35375D1*
X-35510Y12487D1*
X-35512Y9690D1*
X-33063Y9691D1*
X-33060Y10631D1*
X-32759D1*
X-32756Y10969D1*
X-33060Y10968D1*
Y10979D1*
X-33666Y10980D1*
X-33671Y10814D1*
X-33813Y11777D2*
X-33667D1*
Y11609D1*
X-33062Y11610D1*
X-33060Y12285D1*
X-31822D1*
Y10968D1*
X-32122D1*
X-32126Y10630D1*
X-31822Y10631D1*
Y10065D1*
X-31163Y10724D1*
X-31060Y10793D1*
X-30941Y10816D1*
X-28906D1*
X-28858Y10863D1*
X-28751Y10927D1*
X-28632Y10961D1*
X-28507Y10962D1*
X-28387Y10930D1*
X-28279Y10867D1*
X-28192Y10778D1*
X-28132Y10669D1*
X-28103Y10548D1*
X-28100Y10501D1*
X-28117Y10378D1*
X-28166Y10263D1*
X-28188Y10236D1*
X-27653Y10234D1*
X-27648Y11188D1*
X-27652Y11270D1*
Y11858D1*
X-26923D1*
X-26925Y12506D1*
X-27378Y12956D1*
X-31538D1*
X-31542Y12770D1*
X-32465D1*
X-32461Y13733D1*
X-32465Y13814D1*
Y14402D1*
X-32297D1*
X-32298Y16122D1*
X-32270Y16246D1*
X-32212Y16330D1*
X-32148Y16394D1*
X-32151Y16477D1*
X-32124Y16598D1*
X-32065Y16708D1*
X-31980Y16799D1*
X-31873Y16864D1*
X-31754Y16898D1*
X-31629Y16899D1*
X-31509Y16867D1*
X-31401Y16804D1*
X-31312Y16711D1*
X-31230Y16799D1*
X-31123Y16864D1*
X-31004Y16898D1*
X-30879Y16899D1*
X-30759Y16867D1*
X-30651Y16804D1*
X-30626Y16779D1*
X-30498Y16864D1*
X-30379Y16898D1*
X-30254Y16899D1*
X-30134Y16867D1*
X-30026Y16804D1*
X-29939Y16714D1*
X-29879Y16605D1*
X-29850Y16484D1*
X-29853Y16395D1*
X-29666Y16209D1*
X-29599Y16101D1*
X-29584Y16050D1*
X-29462Y16026D1*
X-29413D1*
Y15204D1*
X-29264Y15213D1*
X-29147Y15333D1*
X-29149Y15857D1*
Y16526D1*
X-28864D1*
X-28918Y16609D1*
X-28957Y16727D1*
X-28963Y16852D1*
X-28936Y16973D1*
X-28878Y17083D1*
X-28792Y17174D1*
X-28686Y17239D1*
X-28566Y17273D1*
X-28441Y17274D1*
X-28321Y17242D1*
X-28213Y17179D1*
X-28156Y17120D1*
X-28105Y17174D1*
X-27998Y17239D1*
X-27879Y17273D1*
X-27754Y17274D1*
X-27634Y17242D1*
X-27526Y17179D1*
X-27501Y17154D1*
X-27373Y17239D1*
X-27254Y17273D1*
X-27129Y17274D1*
X-27009Y17242D1*
X-26901Y17179D1*
X-26814Y17089D1*
X-26754Y16980D1*
X-26725Y16859D1*
X-26723Y16812D1*
X-26739Y16689D1*
X-26788Y16574D1*
X-26824Y16529D1*
X-26476Y16526D1*
X-26480Y15563D1*
X-26476Y15482D1*
Y15392D1*
X-26360Y15277D1*
X-26254Y15274D1*
X-26134Y15242D1*
X-26026Y15179D1*
X-25939Y15089D1*
X-25900Y15018D1*
X-25895Y15312D1*
X-25899Y15393D1*
Y15982D1*
X-25731D1*
X-25733Y16098D1*
X-25849Y16193D1*
X-25918Y16296D1*
X-25957Y16415D1*
X-25963Y16539D1*
X-25936Y16661D1*
X-25878Y16771D1*
X-25792Y16862D1*
X-25686Y16926D1*
X-25566Y16960D1*
X-25441Y16961D1*
X-25321Y16929D1*
X-25217Y16868D1*
X-25123Y16926D1*
X-25004Y16960D1*
X-24879Y16961D1*
X-24759Y16929D1*
X-24651Y16866D1*
X-24626Y16841D1*
X-24498Y16926D1*
X-24379Y16960D1*
X-24254Y16961D1*
X-24134Y16929D1*
X-24026Y16866D1*
X-23958Y16796D1*
X-23688Y16795D1*
X-23563Y16767D1*
X-23479Y16709D1*
X-22752Y15982D1*
X-22226D1*
X-22230Y15018D1*
X-22226Y14937D1*
Y14349D1*
X-22394D1*
X-22393Y13129D1*
X-22421Y13004D1*
X-22479Y12920D1*
X-24730Y10669D1*
X-24651Y10616D1*
X-24583Y10546D1*
X-24437Y10545D1*
X-24313Y10517D1*
X-24229Y10459D1*
X-19850Y6082D1*
X-19080D1*
X-19101Y6241D1*
X-19090Y6365D1*
X-19054Y6484D1*
X-18993Y6593D1*
X-18911Y6688D1*
X-18834Y6746D1*
X-18898Y6800D1*
X-18983Y6891D1*
X-19046Y6999D1*
X-19087Y7117D1*
X-19101Y7241D1*
X-19090Y7365D1*
X-19054Y7484D1*
X-18993Y7593D1*
X-18911Y7688D1*
X-18834Y7746D1*
X-18898Y7800D1*
X-18983Y7891D1*
X-19046Y7999D1*
X-19087Y8117D1*
X-19101Y8241D1*
X-19090Y8365D1*
X-19054Y8484D1*
X-18993Y8593D1*
X-18911Y8688D1*
X-18834Y8746D1*
X-18898Y8800D1*
X-18983Y8891D1*
X-19046Y8999D1*
X-19087Y9117D1*
X-19101Y9241D1*
X-19090Y9365D1*
X-19054Y9484D1*
X-18993Y9593D1*
X-18911Y9688D1*
X-18834Y9746D1*
X-18898Y9800D1*
X-18983Y9891D1*
X-19046Y9999D1*
X-19087Y10117D1*
X-19101Y10241D1*
X-19090Y10365D1*
X-19054Y10484D1*
X-18993Y10593D1*
X-18911Y10688D1*
X-18834Y10746D1*
X-18898Y10800D1*
X-18983Y10891D1*
X-19046Y10999D1*
X-19087Y11117D1*
X-19101Y11241D1*
X-19090Y11365D1*
X-19054Y11484D1*
X-18993Y11593D1*
X-18911Y11688D1*
X-18834Y11746D1*
X-18898Y11800D1*
X-18983Y11891D1*
X-19046Y11999D1*
X-19087Y12117D1*
X-19101Y12241D1*
X-19090Y12365D1*
X-19054Y12484D1*
X-18993Y12593D1*
X-18911Y12688D1*
X-18834Y12746D1*
X-18898Y12800D1*
X-18983Y12891D1*
X-19046Y12999D1*
X-19087Y13117D1*
X-19101Y13241D1*
X-19090Y13365D1*
X-19054Y13484D1*
X-18993Y13593D1*
X-18911Y13688D1*
X-18834Y13746D1*
X-18898Y13800D1*
X-18983Y13891D1*
X-19046Y13999D1*
X-19087Y14117D1*
X-19101Y14241D1*
X-19090Y14365D1*
X-19054Y14484D1*
X-18993Y14593D1*
X-18911Y14688D1*
X-18834Y14746D1*
X-18898Y14800D1*
X-18983Y14891D1*
X-19046Y14999D1*
X-19087Y15117D1*
X-19101Y15241D1*
X-19090Y15365D1*
X-19054Y15484D1*
X-18993Y15593D1*
X-18911Y15688D1*
X-18815Y15761D1*
X-18817Y16873D1*
X-18792Y16995D1*
X-18725Y17096D1*
X-17523Y18297D1*
X-17924Y18880D1*
X-36455Y18878D1*
X-36130Y18555D1*
X-36062Y18447D1*
X-36044Y18346D1*
Y18241D1*
X-35778Y18237D1*
Y18194D1*
X-35696Y18216D1*
X-35571Y18217D1*
X-35451Y18185D1*
X-35330Y18108D1*
X-35191Y18247D1*
X-35188Y18307D1*
X-35161Y18428D1*
X-35102Y18539D1*
X-35017Y18629D1*
X-34910Y18694D1*
X-34790Y18728D1*
X-34666Y18729D1*
X-34545Y18697D1*
X-34438Y18634D1*
X-34351Y18545D1*
X-34291Y18436D1*
X-34262Y18314D1*
X-34259Y18268D1*
X-34276Y18144D1*
X-34325Y18030D1*
X-34403Y17932D1*
X-34503Y17859D1*
X-34620Y17815D1*
X-34740Y17803D1*
X-35013Y17533D1*
X-35117Y17464D1*
X-35236Y17441D1*
X-35287D1*
X-35409Y17347D1*
X-35525Y17303D1*
X-35650Y17291D1*
X-35776Y17315D1*
X-35782Y17196D1*
X-35778Y16943D1*
Y16526D1*
X-36376D1*
X-36396Y16502D1*
Y16381D1*
X-36320Y16398D1*
X-36195Y16399D1*
X-36075Y16367D1*
X-35967Y16304D1*
X-35880Y16214D1*
X-35820Y16105D1*
X-35791Y15984D1*
X-35789Y15938D1*
X-35806Y15814D1*
X-35854Y15699D1*
X-35932Y15602D1*
X-35960Y15581D1*
X-35959Y12926D1*
X-35726Y13162D1*
X-35623Y13230D1*
X-35504Y13254D1*
X-34531D1*
X-34484Y13300D1*
X-34377Y13365D1*
X-34257Y13399D1*
X-34133Y13400D1*
X-34012Y13368D1*
X-33905Y13305D1*
X-33818Y13216D1*
X-33757Y13107D1*
X-33728Y12985D1*
X-33726Y12939D1*
X-33743Y12815D1*
X-33792Y12701D1*
X-33814Y12673D1*
Y11779D1*
X-31035Y12285D2*
X-29822D1*
Y10968D1*
X-31060D1*
Y12285D1*
X-31035D1*
X-29822Y9643D2*
Y9314D1*
X-30154D1*
X-30174Y9252D1*
X-30232Y9167D1*
X-30666Y8734D1*
X-28561Y8735D1*
X-27652Y9644D1*
X-29819D1*
X-45742Y16811D2*
X-45616D1*
Y14942D1*
X-45893D1*
X-45890Y14189D1*
X-45911Y14066D1*
X-45982Y13947D1*
X-46469Y13459D1*
X-46468Y12777D1*
X-46620D1*
X-46527Y12635D1*
X-46485Y12518D1*
X-46468Y12376D1*
X-46481Y12252D1*
X-46519Y12134D1*
X-46581Y12025D1*
X-46664Y11932D1*
X-46765Y11859D1*
X-46879Y11807D1*
X-47001Y11780D1*
X-47125D1*
X-47248Y11804D1*
X-47362Y11854D1*
X-47464Y11926D1*
X-47548Y12018D1*
X-47612Y12126D1*
X-47652Y12244D1*
X-47667Y12368D1*
X-47656Y12492D1*
X-47619Y12611D1*
X-47559Y12720D1*
X-47510Y12776D1*
X-47667Y12777D1*
Y13976D1*
X-46983D1*
X-46621Y14339D1*
X-46620Y14943D1*
X-46894Y14942D1*
Y16509D1*
X-47150Y16507D1*
X-47151Y14942D1*
X-47772D1*
X-47773Y9780D1*
X-47673Y9683D1*
X-47483Y9698D1*
X-47434Y9782D1*
X-47385Y9838D1*
X-47542Y9839D1*
Y11038D1*
X-46343D1*
Y9839D1*
X-46495D1*
X-46402Y9697D1*
X-46360Y9580D1*
X-46343Y9439D1*
X-46356Y9315D1*
X-46394Y9196D1*
X-46456Y9088D1*
X-46539Y8995D1*
X-46612Y8942D1*
X-46499Y8842D1*
X-46425Y8742D1*
X-46386Y8662D1*
X-46300Y8751D1*
Y11574D1*
X-46271Y11698D1*
X-46213Y11783D1*
X-45112Y12887D1*
Y16867D1*
X-45149Y16979D1*
X-45156Y17103D1*
X-45133Y17206D1*
X-45197Y17238D1*
X-45291Y17319D1*
X-45360Y17423D1*
X-45399Y17541D1*
X-45406Y17666D1*
X-45388Y17746D1*
X-45465Y17718D1*
X-45589Y17704D1*
X-45712Y17723D1*
X-45826Y17773D1*
X-45923Y17852D1*
X-45996Y17953D1*
X-46040Y18070D1*
X-46052Y18176D1*
X-46048Y18255D1*
X-46030Y18395D1*
X-45978Y18508D1*
X-45897Y18604D1*
X-45795Y18675D1*
X-45677Y18716D1*
X-45553Y18725D1*
X-45430Y18702D1*
X-45319Y18647D1*
X-45225Y18565D1*
X-45156Y18461D1*
X-45117Y18343D1*
X-45108Y18176D1*
X-45124Y18056D1*
X-45008Y18087D1*
X-44884Y18088D1*
X-44763Y18056D1*
X-44656Y17993D1*
X-44588Y17923D1*
X-44443Y17893D1*
X-44359Y17835D1*
X-44278Y17755D1*
X-44235Y17801D1*
X-44128Y17866D1*
X-44042Y17890D1*
X-44086Y17953D1*
X-44130Y18070D1*
X-44142Y18176D1*
X-44138Y18255D1*
X-44121Y18396D1*
X-44068Y18509D1*
X-43988Y18604D1*
X-43885Y18675D1*
X-43768Y18716D1*
X-43643Y18725D1*
X-43521Y18702D1*
X-43409Y18647D1*
X-43315Y18565D1*
X-43247Y18461D1*
X-43207Y18343D1*
X-43199Y18176D1*
X-43215Y18052D1*
X-43264Y17937D1*
X-43340Y17839D1*
X-43440Y17764D1*
X-43567Y17717D1*
X-43508Y17607D1*
X-43479Y17486D1*
X-43477Y17439D1*
X-43494Y17316D1*
X-43543Y17201D1*
X-43630Y17097D1*
X-43627Y16189D1*
Y15256D1*
X-43219Y14849D1*
X-43151Y14746D1*
X-43127Y14627D1*
Y14154D1*
X-43069Y14091D1*
X-43008Y13982D1*
X-42979Y13861D1*
X-42977Y13814D1*
X-42994Y13690D1*
X-43043Y13576D1*
X-43120Y13478D1*
X-43221Y13405D1*
X-43338Y13361D1*
X-43462Y13349D1*
X-43588Y13373D1*
X-43585Y12689D1*
X-43613Y12563D1*
X-43671Y12480D1*
X-43796Y12355D1*
X-43894Y12291D1*
X-44005Y12269D1*
X-44197Y12267D1*
X-44216Y12247D1*
X-44084Y12177D1*
X-43997Y12088D1*
X-43936Y11979D1*
X-43907Y11858D1*
X-43911Y11769D1*
X-43612Y11470D1*
Y11622D1*
X-43646Y11726D1*
X-43652Y11850D1*
X-43625Y11972D1*
X-43567Y12082D1*
X-43481Y12173D1*
X-43375Y12237D1*
X-43255Y12271D1*
X-43130Y12272D1*
X-43010Y12240D1*
X-42967Y12220D1*
X-42919Y12334D1*
X-42709Y12551D1*
X-42215Y13045D1*
X-42357Y13157D1*
X-42426Y13261D1*
X-42465Y13379D1*
X-42471Y13504D1*
X-42444Y13625D1*
X-42386Y13735D1*
X-42340Y13784D1*
X-42465Y13970D1*
X-42504Y14088D1*
X-42510Y14216D1*
X-42965Y14673D1*
X-43032Y14781D1*
X-43051Y14882D1*
Y16214D1*
X-43316Y16211D1*
X-43312Y17253D1*
X-43316Y17506D1*
Y17861D1*
X-43273Y17922D1*
X-42290D1*
X-42286Y18020D1*
X-42254Y18141D1*
X-42198Y18252D1*
X-42120Y18350D1*
X-42024Y18429D1*
X-41913Y18487D1*
X-41793Y18520D1*
X-41669Y18528D1*
X-41545Y18510D1*
X-41428Y18467D1*
X-41323Y18401D1*
X-41233Y18314D1*
X-41192Y18259D1*
X-41102Y18367D1*
X-41003Y18442D1*
X-40890Y18495D1*
X-40768Y18524D1*
X-40644Y18527D1*
X-40521Y18504D1*
X-40406Y18456D1*
X-40303Y18385D1*
X-40217Y18294D1*
X-40195Y18258D1*
X-40102Y18367D1*
X-40003Y18442D1*
X-39890Y18495D1*
X-39768Y18524D1*
X-39644Y18527D1*
X-39533Y18506D1*
X-39164Y18875D1*
X-40483Y18878D1*
X-42580D1*
X-42579Y18757D1*
X-43896D1*
Y18878D1*
X-45354Y18877D1*
Y18757D1*
X-46335D1*
X-46268Y18629D1*
X-46225Y18511D1*
X-46196Y18390D1*
X-46178Y18189D1*
X-46185Y18064D1*
X-46206Y17941D1*
X-46240Y17821D1*
X-46287Y17705D1*
X-46347Y17596D1*
X-46419Y17493D1*
X-46501Y17399D1*
X-46594Y17315D1*
X-46712Y17232D1*
X-46570Y17304D1*
X-46422Y17426D1*
X-46316Y17491D1*
X-46196Y17525D1*
X-46071Y17526D1*
X-45951Y17493D1*
X-45843Y17431D1*
X-45756Y17341D1*
X-45696Y17232D1*
X-45667Y17111D1*
X-45665Y17064D1*
X-45682Y16941D1*
X-45743Y16811D1*
X-36774Y18237D2*
X-36645D1*
X-36857Y18445D1*
X-37384Y18443D1*
X-37285Y18368D1*
X-37203Y18274D1*
X-37142Y18165D1*
X-37105Y18046D1*
X-37093Y17929D1*
X-37106Y17805D1*
X-37145Y17686D1*
X-37207Y17578D1*
X-37290Y17485D1*
X-37362Y17429D1*
X-37303Y17385D1*
X-37217Y17294D1*
X-37152Y17188D1*
X-37110Y17070D1*
X-37093Y16929D1*
X-37106Y16805D1*
X-37145Y16686D1*
X-37207Y16578D1*
X-37290Y16485D1*
X-37391Y16411D1*
X-37504Y16360D1*
X-37561Y16347D1*
X-37565Y15958D1*
X-37569Y15417D1*
X-37565Y15164D1*
X-37563Y15105D1*
X-37383Y14925D1*
X-36986Y15323D1*
Y16627D1*
X-36958Y16751D1*
X-36897Y16838D1*
X-36899Y17568D1*
Y18237D1*
X-36774D1*
X-42196Y16327D2*
Y16211D1*
X-42457D1*
X-42461Y15357D1*
X-42459Y15002D1*
X-42092Y14635D1*
X-41989D1*
X-41910Y14613D1*
X-41909Y16326D1*
X-42199Y16329D1*
X-38685Y16171D2*
Y16327D1*
X-38873Y16357D1*
X-38988Y16407D1*
X-39089Y16479D1*
X-39192Y16601D1*
X-39290Y16485D1*
X-39401Y16406D1*
X-39398Y15429D1*
X-39396Y15251D1*
X-39139Y14994D1*
X-39165Y15073D1*
X-39170Y15375D1*
Y15562D1*
X-39142Y15687D1*
X-39084Y15771D1*
X-38705Y16148D1*
X-38037Y14747D2*
X-38084D1*
X-38022Y14614D1*
X-38018Y14313D1*
X-38013Y12930D1*
X-37905Y12868D1*
X-37818Y12778D1*
X-37794Y12734D1*
X-37795Y14504D1*
X-38037Y14745D1*
X-38036Y14663D1*
X-47773Y-6117D2*
X-47610Y-6033D1*
X-47491Y-5993D1*
X-47369Y-5966D1*
X-47245Y-5953D1*
X-47120D1*
X-46996Y-5968D1*
X-46874Y-5996D1*
X-46757Y-6037D1*
X-46644Y-6091D1*
X-46538Y-6157D1*
X-46440Y-6235D1*
X-46351Y-6323D1*
X-46273Y-6420D1*
X-46206Y-6525D1*
X-46151Y-6638D1*
X-46108Y-6755D1*
X-46079Y-6877D1*
X-46064Y-7003D1*
X-46026Y-6911D1*
X-45960Y-6805D1*
X-45840Y-6689D1*
X-45873Y-6646D1*
X-45925Y-6532D1*
X-45947Y-6410D1*
X-45939Y-6285D1*
X-45902Y-6166D1*
X-45836Y-6060D1*
X-45762Y-5985D1*
X-45829Y-5919D1*
X-45897Y-5815D1*
X-45937Y-5697D1*
X-45948Y-5572D1*
X-45928Y-5449D1*
X-45879Y-5335D1*
X-45803Y-5235D1*
X-45758Y-5199D1*
X-45829Y-5132D1*
X-45897Y-5027D1*
X-45937Y-4909D1*
X-45948Y-4785D1*
X-45928Y-4662D1*
X-45879Y-4547D1*
X-45843Y-4501D1*
X-45951Y-4389D1*
X-46020Y-4285D1*
X-46067Y-4169D1*
X-46092Y-4047D1*
X-46093Y-3922D1*
X-46071Y-3799D1*
X-46026Y-3683D1*
X-45960Y-3577D1*
X-45875Y-3486D1*
X-45774Y-3412D1*
X-45714Y-3383D1*
X-46380Y-3384D1*
X-46497Y-3346D1*
X-46568Y-3242D1*
X-46576Y-3063D1*
Y-2871D1*
X-47772Y-1679D1*
X-47773Y-6118D1*
X-19100Y-1771D2*
X-19090Y-1635D1*
X-19062Y-1542D1*
X-19752Y-1545D1*
X-20319Y-1547D1*
X-20527Y-1745D1*
X-20562Y-1768D1*
X-19097D1*
X-18002Y15580D2*
X-17929Y15670D1*
X-17833Y15750D1*
X-17722Y15807D1*
X-17602Y15841D1*
X-17478Y15849D1*
X-17354Y15831D1*
X-17237Y15788D1*
X-17131Y15721D1*
X-17042Y15634D1*
X-16972Y15531D1*
X-16928Y15422D1*
X-16917Y17425D1*
X-17155Y17770D1*
X-17633Y17296D1*
X-18189Y16741D1*
X-18187Y15760D1*
X-18112Y15705D1*
X-18026Y15615D1*
X-18004Y15578D1*
X-41093Y16486D2*
Y16329D1*
X-41316D1*
X-41319Y15804D1*
Y13228D1*
X-41348Y13104D1*
X-41406Y13020D1*
X-42182Y12244D1*
X-42074Y12271D1*
X-41949Y12272D1*
X-41829Y12240D1*
X-41721Y12177D1*
X-41634Y12088D1*
X-41574Y11979D1*
X-41545Y11858D1*
X-41543Y11811D1*
X-41560Y11688D1*
X-41608Y11573D1*
X-41686Y11475D1*
X-41787Y11402D1*
X-41903Y11358D1*
X-42031Y11347D1*
X-42028Y11031D1*
X-41996Y11092D1*
X-41786Y11308D1*
X-41292Y11803D1*
X-41290Y11890D1*
X-41263Y12011D1*
X-41205Y12121D1*
X-41119Y12212D1*
X-41013Y12277D1*
X-40893Y12311D1*
X-40768Y12312D1*
X-40648Y12280D1*
X-40540Y12217D1*
X-40510Y12186D1*
X-40512Y13085D1*
X-40630Y12996D1*
X-40747Y12952D1*
X-40871Y12941D1*
X-40994Y12963D1*
X-41106Y13016D1*
X-41200Y13098D1*
X-41269Y13202D1*
X-41308Y13320D1*
X-41315Y13445D1*
X-41288Y13566D1*
X-41229Y13676D1*
X-41146Y13764D1*
Y13839D1*
X-41176Y13866D1*
X-41245Y13970D1*
X-41284Y14088D1*
X-41290Y14212D1*
X-41263Y14334D1*
X-41205Y14444D1*
X-41119Y14535D1*
X-41013Y14599D1*
X-40893Y14634D1*
X-40768Y14635D1*
X-40648Y14602D1*
X-40577Y14561D1*
X-40535Y14641D1*
X-40450Y14732D1*
X-40343Y14796D1*
X-40224Y14830D1*
X-40099Y14831D1*
X-39978Y14799D1*
X-39871Y14736D1*
X-39784Y14647D1*
X-39724Y14538D1*
X-39695Y14417D1*
X-39692Y14370D1*
X-39709Y14247D1*
X-39758Y14132D1*
X-39824Y14050D1*
X-39823Y13694D1*
X-39705Y13584D1*
X-39645Y13475D1*
X-39616Y13354D1*
X-39614Y13307D1*
X-39630Y13184D1*
X-39679Y13069D1*
X-39757Y12971D1*
X-39858Y12898D1*
X-39920Y12875D1*
X-39922Y11870D1*
X-39950Y11746D1*
X-40008Y11661D1*
X-40532Y11135D1*
Y10912D1*
X-40453Y10828D1*
X-40393Y10719D1*
X-40364Y10598D1*
X-40362Y10551D1*
X-40378Y10428D1*
X-40427Y10313D1*
X-40505Y10216D1*
X-40606Y10142D1*
X-40722Y10098D1*
X-40846Y10087D1*
X-40969Y10108D1*
X-41081Y10162D1*
X-41176Y10244D1*
X-41245Y10347D1*
X-41284Y10466D1*
X-41290Y10590D1*
X-41263Y10712D1*
X-41205Y10822D1*
X-41122Y10910D1*
Y11141D1*
X-41372Y10888D1*
X-41321Y10794D1*
X-41292Y10673D1*
X-41289Y10626D1*
X-41306Y10503D1*
X-41355Y10388D1*
X-41433Y10290D1*
X-41533Y10217D1*
X-41650Y10173D1*
X-41774Y10162D1*
X-41897Y10183D1*
X-41992Y10229D1*
X-42102Y10142D1*
X-42218Y10098D1*
X-42342Y10087D1*
X-42385Y10094D1*
X-42380Y9845D1*
X-41332Y8799D1*
X-39724D1*
X-39600Y8771D1*
X-39516Y8713D1*
X-38292Y7489D1*
X-38295Y8687D1*
X-38297Y9505D1*
X-39521Y10729D1*
X-39589Y10837D1*
X-39608Y10938D1*
X-39609Y14630D1*
X-39902Y14922D1*
X-39969Y15030D1*
X-39988Y15130D1*
Y16408D1*
X-40089Y16479D1*
X-40192Y16601D1*
X-40290Y16485D1*
X-40391Y16411D1*
X-40504Y16360D1*
X-40626Y16333D1*
X-40751Y16332D1*
X-40873Y16357D1*
X-40988Y16407D1*
X-41092Y16482D1*
X-46364Y7289D2*
X-46394Y7196D1*
X-46456Y7088D1*
X-46539Y6995D1*
X-46612Y6942D1*
X-46553Y6894D1*
X-46467Y6804D1*
X-46424Y6734D1*
X-45060Y6736D1*
X-44260Y7534D1*
X-44447Y7540D1*
X-46113Y7538D1*
X-46364Y7287D1*
X-46423Y6145D2*
X-46456Y6088D1*
X-46539Y5995D1*
X-46612Y5942D1*
X-46553Y5894D1*
X-46467Y5804D1*
X-46402Y5697D1*
X-46360Y5580D1*
X-46343Y5439D1*
X-46356Y5315D1*
X-46394Y5196D1*
X-46456Y5088D1*
X-46539Y4995D1*
X-46640Y4921D1*
X-46754Y4869D1*
X-46876Y4843D1*
X-47000Y4842D1*
X-47123Y4867D1*
X-47237Y4916D1*
X-47339Y4989D1*
X-47423Y5080D1*
X-47487Y5188D1*
X-47516Y5273D1*
X-47517Y-909D1*
X-46576Y-1847D1*
Y433D1*
X-46664Y399D1*
X-46787Y378D1*
X-46912Y385D1*
X-47032Y420D1*
X-47141Y480D1*
X-47234Y563D1*
X-47307Y665D1*
X-47355Y780D1*
X-47377Y902D1*
X-47370Y1027D1*
X-47337Y1147D1*
X-47278Y1257D1*
X-47196Y1351D1*
X-47095Y1424D1*
X-46980Y1474D1*
X-46858Y1496D1*
X-46733Y1491D1*
X-46613Y1459D1*
X-46502Y1401D1*
X-46408Y1320D1*
X-46333Y1219D1*
X-46283Y1105D1*
X-46259Y983D1*
X-46260Y884D1*
X-42360D1*
X-43508Y2028D1*
X-44053D1*
X-44088Y1987D1*
X-44188Y1914D1*
X-44305Y1870D1*
X-44429Y1858D1*
X-44552Y1880D1*
X-44664Y1934D1*
X-44758Y2015D1*
X-44827Y2119D1*
X-44867Y2237D1*
X-44873Y2362D1*
X-44846Y2484D1*
X-44787Y2594D1*
X-44702Y2684D1*
X-44595Y2749D1*
X-44475Y2783D1*
X-44351Y2784D1*
X-44230Y2752D1*
X-44123Y2689D1*
X-44055Y2619D1*
X-43385Y2618D1*
X-43261Y2589D1*
X-43177Y2531D1*
X-42000Y1357D1*
X-41270D1*
X-41284Y1411D1*
X-41290Y1535D1*
X-41263Y1657D1*
X-41205Y1767D1*
X-41119Y1858D1*
X-41013Y1922D1*
X-40893Y1956D1*
X-40780Y1957D1*
X-40608Y2135D1*
Y2452D1*
X-40661Y2505D1*
X-40731Y2609D1*
X-40770Y2727D1*
X-40776Y2852D1*
X-40749Y2973D1*
X-40690Y3083D1*
X-40605Y3174D1*
X-40498Y3239D1*
X-40379Y3273D1*
X-40254Y3274D1*
X-40134Y3242D1*
X-40026Y3179D1*
X-39939Y3089D1*
X-39879Y2980D1*
X-39850Y2859D1*
X-39848Y2812D1*
X-39864Y2689D1*
X-39913Y2574D1*
X-39991Y2477D1*
X-40019Y2456D1*
X-40018Y2010D1*
X-40046Y1886D1*
X-40104Y1802D1*
X-40366Y1539D1*
X-40362Y1496D1*
X-40386Y1355D1*
X-40129Y1357D1*
X-40145Y1415D1*
X-40151Y1539D1*
X-40124Y1661D1*
X-40065Y1771D1*
X-39977Y1867D1*
X-39929Y1981D1*
X-39719Y2198D1*
X-39413Y2504D1*
X-39481Y2609D1*
X-39520Y2727D1*
X-39526Y2852D1*
X-39499Y2973D1*
X-39440Y3083D1*
X-39355Y3174D1*
X-39248Y3239D1*
X-39129Y3273D1*
X-39004Y3274D1*
X-38884Y3242D1*
X-38776Y3179D1*
X-38689Y3089D1*
X-38629Y2980D1*
X-38600Y2859D1*
X-38597Y2812D1*
X-38614Y2689D1*
X-38663Y2574D1*
X-38741Y2477D1*
X-38769Y2456D1*
X-38794Y2316D1*
X-38854Y2229D1*
X-39310Y1773D1*
X-39254Y1668D1*
X-39225Y1547D1*
X-39222Y1500D1*
X-39247Y1359D1*
X-38402Y1357D1*
X-38378Y1396D1*
X-38295Y1484D1*
Y2457D1*
X-38349Y2505D1*
X-38418Y2609D1*
X-38457Y2727D1*
X-38463Y2852D1*
X-38436Y2973D1*
X-38378Y3083D1*
X-38295Y3171D1*
X-38297Y3567D1*
X-38396Y3666D1*
X-38464Y3774D1*
X-38482Y3875D1*
Y3902D1*
X-38538Y3762D1*
X-38616Y3664D1*
X-38716Y3591D1*
X-38833Y3547D1*
X-38957Y3535D1*
X-39080Y3557D1*
X-39192Y3611D1*
X-39286Y3693D1*
X-39314Y3735D1*
X-39363Y3680D1*
X-39464Y3607D1*
X-39581Y3563D1*
X-39705Y3551D1*
X-39827Y3573D1*
X-39940Y3627D1*
X-40034Y3708D1*
X-40103Y3812D1*
X-40142Y3934D1*
X-40434Y4230D1*
X-40403Y4102D1*
X-40401Y4055D1*
X-40418Y3932D1*
X-40467Y3817D1*
X-40544Y3719D1*
X-40645Y3646D1*
X-40762Y3602D1*
X-40886Y3591D1*
X-41008Y3612D1*
X-41121Y3666D1*
X-41215Y3748D1*
X-41284Y3851D1*
X-41323Y3970D1*
X-41329Y4098D1*
X-42315Y5087D1*
X-42465Y5108D1*
X-42539Y5144D1*
X-42538Y5002D1*
X-42054Y4519D1*
X-41949Y4516D1*
X-41829Y4484D1*
X-41721Y4421D1*
X-41634Y4332D1*
X-41574Y4223D1*
X-41545Y4102D1*
X-41543Y4055D1*
X-41560Y3932D1*
X-41608Y3817D1*
X-41686Y3719D1*
X-41787Y3646D1*
X-41903Y3602D1*
X-42027Y3591D1*
X-42150Y3612D1*
X-42263Y3666D1*
X-42357Y3748D1*
X-42426Y3851D1*
X-42465Y3970D1*
X-42470Y4098D1*
X-43045Y4677D1*
X-43080Y4719D1*
X-43085Y4504D1*
X-43010Y4484D1*
X-42902Y4421D1*
X-42815Y4332D1*
X-42755Y4223D1*
X-42726Y4102D1*
X-42724Y4055D1*
X-42741Y3932D1*
X-42790Y3817D1*
X-42867Y3719D1*
X-42968Y3646D1*
X-43084Y3602D1*
X-43209Y3591D1*
X-43331Y3612D1*
X-43444Y3666D1*
X-43538Y3748D1*
X-43607Y3851D1*
X-43646Y3970D1*
Y4121D1*
X-43670Y4194D1*
X-43675Y4496D1*
Y5140D1*
X-43728Y5193D1*
X-43798Y5297D1*
X-43837Y5415D1*
X-43843Y5540D1*
X-43816Y5661D1*
X-43758Y5771D1*
X-43672Y5862D1*
X-43565Y5927D1*
X-43446Y5961D1*
X-43321Y5962D1*
X-43201Y5930D1*
X-43143Y5896D1*
X-43021Y5977D1*
X-42901Y6011D1*
X-42776Y6012D1*
X-42656Y5980D1*
X-42585Y5939D1*
X-42509Y5977D1*
X-42389Y6011D1*
X-42264Y6012D1*
X-42144Y5980D1*
X-42073Y5939D1*
X-41997Y5977D1*
X-41877Y6011D1*
X-41752Y6012D1*
X-41632Y5980D1*
X-41524Y5917D1*
X-41457Y5848D1*
X-41342Y5846D1*
X-41547Y6051D1*
X-41615Y6159D1*
X-41634Y6260D1*
Y6647D1*
X-41687Y6700D1*
X-41757Y6804D1*
X-41796Y6923D1*
X-41801Y7028D1*
X-43935Y7026D1*
X-44059Y6902D1*
X-44005Y6862D1*
X-43918Y6773D1*
X-43858Y6664D1*
X-43829Y6543D1*
X-43826Y6496D1*
X-43843Y6373D1*
X-43892Y6258D1*
X-43970Y6160D1*
X-43998Y6140D1*
X-43996Y4328D1*
X-43936Y4223D1*
X-43907Y4102D1*
X-43905Y4055D1*
X-43922Y3932D1*
X-43971Y3817D1*
X-44048Y3719D1*
X-44149Y3646D1*
X-44266Y3602D1*
X-44390Y3591D1*
X-44512Y3612D1*
X-44625Y3666D1*
X-44719Y3748D1*
X-44788Y3851D1*
X-44827Y3970D1*
X-44833Y4094D1*
X-44806Y4216D1*
X-44748Y4326D1*
X-44663Y4417D1*
X-44586Y4463D1*
Y6138D1*
X-44640Y6189D1*
X-44694Y6270D1*
X-44731Y6230D1*
X-44839Y6162D1*
X-44939Y6144D1*
X-46420D1*
X-20380Y17227D2*
X-20399Y17104D1*
X-20446Y16988D1*
X-20516Y16885D1*
X-20608Y16800D1*
X-20716Y16738D1*
X-20835Y16701D1*
X-20960Y16692D1*
X-21083Y16710D1*
X-21199Y16755D1*
X-21303Y16825D1*
X-21388Y16916D1*
X-21451Y17023D1*
X-21489Y17142D1*
X-21500Y17267D1*
X-21483Y17390D1*
X-21439Y17507D1*
X-21370Y17611D1*
X-21280Y17697D1*
X-21173Y17761D1*
X-21054Y17800D1*
X-20930Y17812D1*
X-20806Y17796D1*
X-20689Y17753D1*
X-20584Y17685D1*
X-20497Y17596D1*
X-20432Y17489D1*
X-20392Y17371D1*
X-20379Y17252D1*
X-20380Y17227D1*
X-30337Y14835D2*
X-30333Y15357D1*
X-30337Y15438D1*
Y15974D1*
X-30455Y15995D1*
X-30567Y16048D1*
X-30623Y16097D1*
X-30643Y16062D1*
X-30641Y15058D1*
X-30442Y14850D1*
X-30399Y14838D1*
X-30333D1*
X-31149Y13546D2*
X-31145Y14169D1*
X-31149Y14250D1*
Y14731D1*
X-31181Y14771D1*
X-31228Y14886D1*
X-31233Y15188D1*
Y16082D1*
X-31286Y16130D1*
X-31310Y16166D1*
X-31366Y16102D1*
X-31466Y16028D1*
X-31583Y15984D1*
X-31711Y15974D1*
X-31708Y14399D1*
X-31542Y14402D1*
Y13547D1*
X-31148Y13546D1*
X-23540Y15312D2*
X-23538Y14349D1*
X-23706D1*
X-23705Y12527D1*
X-22983Y13254D1*
X-22980Y14349D1*
X-23149D1*
X-23145Y15312D1*
X-23149Y15393D1*
Y15546D1*
X-23813Y16205D1*
X-23957D1*
X-23991Y16164D1*
X-24091Y16091D1*
X-24153Y16068D1*
X-24063Y15980D1*
X-23585Y15982D1*
X-23538Y15931D1*
X-23542Y15018D1*
X-24292Y14349D2*
X-24462D1*
X-24458Y15312D1*
X-24462Y15393D1*
Y15546D1*
X-24957Y16035D1*
X-25080Y16057D1*
X-25140Y16086D1*
X-25143Y15980D1*
X-24976Y15982D1*
X-24980Y15018D1*
X-24976Y14937D1*
Y14349D1*
X-25394D1*
X-25395Y11301D1*
X-25317Y11216D1*
X-25300Y11185D1*
X-24295Y12191D1*
Y14351D1*
X-26808Y14893D2*
X-27399Y14897D1*
X-27351Y14893D1*
X-27472D1*
X-27508Y14831D1*
X-27729Y14604D1*
X-27837Y14536D1*
X-27937Y14518D1*
X-28332D1*
X-28250Y14484D1*
X-27628D1*
X-27503Y14456D1*
X-27419Y14398D1*
X-26009Y12980D1*
X-25985Y12939D1*
X-25991Y14477D1*
X-26091Y14403D1*
X-26208Y14359D1*
X-26332Y14348D1*
X-26455Y14370D1*
X-26567Y14423D1*
X-26661Y14505D1*
X-26731Y14609D1*
X-26770Y14727D1*
X-26775Y14855D1*
X-26811Y14894D1*
X-24610Y4099D2*
X-24614Y4064D1*
X-24649Y3982D1*
X-24090D1*
X-24318Y4214D1*
X-24404Y4153D1*
X-24520Y4109D1*
X-24602Y4102D1*
X-25147Y4642D2*
X-25086Y4648D1*
X-25061Y4723D1*
X-25003Y4833D1*
X-24917Y4924D1*
X-24811Y4989D1*
X-24691Y5023D1*
X-24625D1*
X-25081Y5476D1*
X-25147Y5412D1*
X-25145Y4647D1*
X-40006Y7021D2*
X-40033Y6987D1*
X-40133Y6914D1*
X-40250Y6870D1*
X-40374Y6858D1*
X-40497Y6880D1*
X-40609Y6934D1*
X-40710Y7025D1*
X-40874Y7028D1*
X-40890Y6884D1*
X-40939Y6770D1*
X-41017Y6672D1*
X-41045Y6652D1*
X-41042Y6380D1*
X-39801Y5140D1*
X-39687Y5123D1*
X-39611Y5084D1*
X-39395Y4874D1*
X-38983Y4463D1*
X-38879Y4461D1*
X-38759Y4429D1*
X-38651Y4366D1*
X-38564Y4277D1*
X-38504Y4168D1*
X-38483Y4081D1*
X-38484Y6847D1*
X-39849Y8209D1*
X-41457D1*
X-41581Y8237D1*
X-41665Y8295D1*
X-42886Y9516D1*
X-42954Y9624D1*
X-42972Y9724D1*
Y10314D1*
X-43096Y10217D1*
X-43213Y10173D1*
X-43337Y10162D1*
X-43477Y10192D1*
X-43598Y10103D1*
X-43714Y10059D1*
X-43838Y10047D1*
X-43961Y10069D1*
X-44074Y10123D1*
X-44168Y10204D1*
X-44237Y10308D1*
X-44276Y10426D1*
X-44282Y10551D1*
X-44255Y10673D1*
X-44197Y10783D1*
X-44114Y10871D1*
X-44116Y11140D1*
X-44323Y11347D1*
X-44390Y11346D1*
X-44512Y11368D1*
X-44625Y11422D1*
X-44719Y11504D1*
X-44788Y11607D1*
X-44804Y11655D1*
X-45169Y11295D1*
X-45460Y11001D1*
Y9279D1*
X-45403Y9383D1*
X-45320Y9477D1*
X-45220Y9550D1*
X-45105Y9600D1*
X-44982Y9622D1*
X-44858Y9617D1*
X-44737Y9585D1*
X-44627Y9527D1*
X-44532Y9445D1*
X-44458Y9345D1*
X-44408Y9231D1*
X-44384Y9109D1*
X-44387Y8989D1*
X-44417Y8868D1*
X-44474Y8756D1*
X-44553Y8660D1*
X-44652Y8584D1*
X-44765Y8532D1*
X-44887Y8506D1*
X-45012Y8508D1*
X-45133Y8537D1*
X-45245Y8592D1*
X-45342Y8671D1*
X-45419Y8769D1*
X-45460Y8850D1*
Y8313D1*
X-45488Y8189D1*
X-45514Y8143D1*
X-45484Y8130D1*
X-40197D1*
X-40072Y8101D1*
X-39988Y8043D1*
X-39847Y7902D1*
X-39745D1*
X-39624Y7870D1*
X-39517Y7807D1*
X-39430Y7718D1*
X-39369Y7609D1*
X-39340Y7488D1*
X-39338Y7441D1*
X-39355Y7317D1*
X-39404Y7203D1*
X-39481Y7105D1*
X-39582Y7032D1*
X-39699Y6988D1*
X-39823Y6976D1*
X-39945Y6998D1*
X-39998Y7023D1*
X-24647Y8954D2*
X-24678Y8914D1*
X-24779Y8841D1*
X-24895Y8797D1*
X-25020Y8785D1*
X-25138Y8807D1*
X-24010Y7678D1*
X-23999Y7723D1*
X-23940Y7833D1*
X-23855Y7924D1*
X-23748Y7989D1*
X-23677Y8009D1*
X-24625Y8955D1*
X-24645D1*
X-20552Y15376D2*
X-20601Y15262D1*
X-20678Y15164D1*
X-20779Y15091D1*
X-20895Y15047D1*
X-21020Y15035D1*
X-21142Y15057D1*
X-21255Y15111D1*
X-21349Y15193D1*
X-21418Y15296D1*
X-21457Y15415D1*
X-21463Y15539D1*
X-21436Y15661D1*
X-21378Y15771D1*
X-21292Y15862D1*
X-21186Y15926D1*
X-21066Y15960D1*
X-20941Y15961D1*
X-20821Y15929D1*
X-20713Y15866D1*
X-20626Y15777D1*
X-20566Y15668D1*
X-20537Y15547D1*
X-20535Y15500D1*
X-20552Y15376D1*
X-40913Y4516D2*
X-40808D1*
X-40691Y4485D1*
X-41456Y5252D1*
X-41489Y5216D1*
X-41562Y5163D1*
X-41181Y4788D1*
X-40913Y4520D1*
X-37795Y12260D2*
X-37870Y12166D1*
X-37970Y12092D1*
X-38087Y12048D1*
X-38211Y12037D1*
X-38334Y12059D1*
X-38446Y12112D1*
X-38540Y12194D1*
X-38610Y12298D1*
X-38649Y12416D1*
X-38655Y12540D1*
X-38628Y12662D1*
X-38608Y12700D1*
X-38609Y14442D1*
X-39049Y14881D1*
X-39022Y14802D1*
X-39018Y14500D1*
X-39016Y11058D1*
X-37794Y9836D1*
X-37795Y12262D1*
X-23114Y7443D2*
X-23163Y7324D1*
X-23241Y7227D1*
X-23341Y7153D1*
X-23447Y7114D1*
X-20877Y4547D1*
X-20217D1*
X-23112Y7445D1*
X-26516Y-4928D2*
X-26561Y-5045D1*
X-26632Y-5147D1*
X-26688Y-5195D1*
X-26607Y-5279D1*
X-26544Y-5387D1*
X-26508Y-5506D1*
X-26501Y-5592D1*
X-26516Y-5716D1*
X-26561Y-5832D1*
X-26632Y-5934D1*
X-26688Y-5983D1*
X-26607Y-6067D1*
X-26544Y-6174D1*
X-26508Y-6294D1*
X-26501Y-6404D1*
X-26523Y-6527D1*
X-26573Y-6641D1*
X-26605Y-6688D1*
X-26544Y-6743D1*
X-26465Y-6839D1*
X-26405Y-6949D1*
X-26368Y-7068D1*
X-26353Y-7206D1*
X-26365Y-7330D1*
X-26400Y-7450D1*
X-26457Y-7561D1*
X-26534Y-7659D1*
X-26628Y-7741D1*
X-26736Y-7804D1*
X-26854Y-7845D1*
X-26977Y-7864D1*
X-27102Y-7859D1*
X-27223Y-7830D1*
X-27337Y-7779D1*
X-27439Y-7707D1*
X-27526Y-7617D1*
X-27595Y-7513D1*
X-27642Y-7398D1*
X-27667Y-7275D1*
X-27668Y-7150D1*
X-27646Y-7028D1*
X-27601Y-6911D1*
X-27535Y-6805D1*
X-27415Y-6689D1*
X-27448Y-6646D1*
X-27499Y-6532D1*
X-27522Y-6410D1*
X-27514Y-6285D1*
X-27476Y-6166D1*
X-27411Y-6060D1*
X-27337Y-5985D1*
X-27404Y-5919D1*
X-27472Y-5815D1*
X-27512Y-5697D1*
X-27523Y-5572D1*
X-27503Y-5449D1*
X-27453Y-5335D1*
X-27378Y-5235D1*
X-27332Y-5199D1*
X-27404Y-5132D1*
X-27472Y-5027D1*
X-27512Y-4909D1*
X-27523Y-4785D1*
X-27503Y-4662D1*
X-27453Y-4547D1*
X-27418Y-4501D1*
X-27526Y-4389D1*
X-27595Y-4285D1*
X-27642Y-4169D1*
X-27667Y-4047D1*
X-27668Y-3922D1*
X-27646Y-3799D1*
X-27601Y-3683D1*
X-27535Y-3577D1*
X-27450Y-3486D1*
X-27349Y-3412D1*
X-27236Y-3358D1*
X-27115Y-3327D1*
X-26991Y-3319D1*
X-26867Y-3335D1*
X-26748Y-3374D1*
X-26639Y-3434D1*
X-26544Y-3514D1*
X-26465Y-3611D1*
X-26405Y-3721D1*
X-26368Y-3840D1*
X-26353Y-3978D1*
X-26365Y-4102D1*
X-26400Y-4222D1*
X-26457Y-4333D1*
X-26534Y-4431D1*
X-26607Y-4495D1*
X-26544Y-4599D1*
X-26508Y-4719D1*
X-26501Y-4804D1*
X-26516Y-4928D1*
X-28563D2*
X-28608Y-5045D1*
X-28680Y-5147D1*
X-28735Y-5195D1*
X-28655Y-5279D1*
X-28591Y-5387D1*
X-28555Y-5506D1*
X-28548Y-5592D1*
X-28563Y-5716D1*
X-28608Y-5832D1*
X-28680Y-5934D1*
X-28735Y-5983D1*
X-28655Y-6067D1*
X-28591Y-6174D1*
X-28555Y-6294D1*
X-28549Y-6404D1*
X-28570Y-6527D1*
X-28620Y-6641D1*
X-28652Y-6688D1*
X-28591Y-6743D1*
X-28512Y-6839D1*
X-28452Y-6949D1*
X-28415Y-7068D1*
X-28400Y-7206D1*
X-28412Y-7330D1*
X-28447Y-7450D1*
X-28504Y-7561D1*
X-28581Y-7659D1*
X-28675Y-7741D1*
X-28783Y-7804D1*
X-28901Y-7845D1*
X-29024Y-7864D1*
X-29149Y-7859D1*
X-29271Y-7830D1*
X-29384Y-7779D1*
X-29487Y-7707D1*
X-29573Y-7617D1*
X-29642Y-7513D1*
X-29689Y-7398D1*
X-29714Y-7275D1*
X-29715Y-7150D1*
X-29693Y-7028D1*
X-29648Y-6911D1*
X-29582Y-6805D1*
X-29462Y-6689D1*
X-29495Y-6646D1*
X-29547Y-6532D1*
X-29569Y-6410D1*
X-29561Y-6285D1*
X-29524Y-6166D1*
X-29458Y-6060D1*
X-29384Y-5985D1*
X-29451Y-5919D1*
X-29519Y-5815D1*
X-29559Y-5697D1*
X-29570Y-5572D1*
X-29550Y-5449D1*
X-29501Y-5335D1*
X-29425Y-5235D1*
X-29380Y-5199D1*
X-29451Y-5132D1*
X-29519Y-5027D1*
X-29559Y-4909D1*
X-29570Y-4785D1*
X-29550Y-4662D1*
X-29501Y-4547D1*
X-29465Y-4501D1*
X-29573Y-4389D1*
X-29642Y-4285D1*
X-29689Y-4169D1*
X-29714Y-4047D1*
X-29715Y-3922D1*
X-29693Y-3799D1*
X-29648Y-3683D1*
X-29582Y-3577D1*
X-29497Y-3486D1*
X-29396Y-3412D1*
X-29284Y-3358D1*
X-29163Y-3327D1*
X-29038Y-3319D1*
X-28914Y-3335D1*
X-28796Y-3374D1*
X-28687Y-3434D1*
X-28591Y-3514D1*
X-28512Y-3611D1*
X-28452Y-3721D1*
X-28415Y-3840D1*
X-28400Y-3978D1*
X-28412Y-4102D1*
X-28447Y-4222D1*
X-28504Y-4333D1*
X-28581Y-4431D1*
X-28655Y-4495D1*
X-28591Y-4599D1*
X-28555Y-4719D1*
X-28548Y-4804D1*
X-28563Y-4928D1*
X-30610D2*
X-30655Y-5045D1*
X-30727Y-5147D1*
X-30783Y-5195D1*
X-30702Y-5279D1*
X-30638Y-5387D1*
X-30602Y-5506D1*
X-30595Y-5592D1*
X-30610Y-5716D1*
X-30655Y-5832D1*
X-30727Y-5934D1*
X-30783Y-5983D1*
X-30702Y-6067D1*
X-30638Y-6174D1*
X-30602Y-6294D1*
X-30596Y-6404D1*
X-30617Y-6527D1*
X-30667Y-6641D1*
X-30699Y-6688D1*
X-30638Y-6743D1*
X-30559Y-6839D1*
X-30500Y-6949D1*
X-30462Y-7068D1*
X-30448Y-7206D1*
X-30459Y-7330D1*
X-30494Y-7450D1*
X-30551Y-7561D1*
X-30628Y-7659D1*
X-30723Y-7741D1*
X-30830Y-7804D1*
X-30948Y-7845D1*
X-31072Y-7864D1*
X-31196Y-7859D1*
X-31318Y-7830D1*
X-31432Y-7779D1*
X-31534Y-7707D1*
X-31621Y-7617D1*
X-31689Y-7513D1*
X-31737Y-7398D1*
X-31761Y-7275D1*
X-31763Y-7150D1*
X-31740Y-7028D1*
X-31695Y-6911D1*
X-31629Y-6805D1*
X-31510Y-6689D1*
X-31542Y-6646D1*
X-31594Y-6532D1*
X-31616Y-6410D1*
X-31609Y-6285D1*
X-31571Y-6166D1*
X-31506Y-6060D1*
X-31432Y-5985D1*
X-31499Y-5919D1*
X-31566Y-5815D1*
X-31606Y-5697D1*
X-31617Y-5572D1*
X-31597Y-5449D1*
X-31548Y-5335D1*
X-31473Y-5235D1*
X-31427Y-5199D1*
X-31499Y-5132D1*
X-31566Y-5027D1*
X-31606Y-4909D1*
X-31617Y-4785D1*
X-31597Y-4662D1*
X-31548Y-4547D1*
X-31513Y-4501D1*
X-31621Y-4389D1*
X-31689Y-4285D1*
X-31737Y-4169D1*
X-31761Y-4047D1*
X-31763Y-3922D1*
X-31740Y-3799D1*
X-31695Y-3683D1*
X-31629Y-3577D1*
X-31544Y-3486D1*
X-31444Y-3412D1*
X-31331Y-3358D1*
X-31210Y-3327D1*
X-31085Y-3319D1*
X-30962Y-3335D1*
X-30843Y-3374D1*
X-30734Y-3434D1*
X-30638Y-3514D1*
X-30559Y-3611D1*
X-30500Y-3721D1*
X-30462Y-3840D1*
X-30448Y-3978D1*
X-30459Y-4102D1*
X-30494Y-4222D1*
X-30551Y-4333D1*
X-30628Y-4431D1*
X-30702Y-4495D1*
X-30638Y-4599D1*
X-30602Y-4719D1*
X-30595Y-4804D1*
X-30610Y-4928D1*
X-32658D2*
X-32702Y-5045D1*
X-32774Y-5147D1*
X-32830Y-5195D1*
X-32749Y-5279D1*
X-32685Y-5387D1*
X-32650Y-5506D1*
X-32642Y-5592D1*
X-32658Y-5716D1*
X-32702Y-5832D1*
X-32774Y-5934D1*
X-32830Y-5983D1*
X-32749Y-6067D1*
X-32685Y-6174D1*
X-32650Y-6294D1*
X-32643Y-6404D1*
X-32664Y-6527D1*
X-32715Y-6641D1*
X-32747Y-6688D1*
X-32685Y-6743D1*
X-32606Y-6839D1*
X-32547Y-6949D1*
X-32509Y-7068D1*
X-32495Y-7206D1*
X-32507Y-7330D1*
X-32542Y-7450D1*
X-32599Y-7561D1*
X-32676Y-7659D1*
X-32770Y-7741D1*
X-32878Y-7804D1*
X-32995Y-7845D1*
X-33119Y-7864D1*
X-33244Y-7859D1*
X-33365Y-7830D1*
X-33479Y-7779D1*
X-33581Y-7707D1*
X-33668Y-7617D1*
X-33736Y-7513D1*
X-33784Y-7398D1*
X-33809Y-7275D1*
X-33810Y-7150D1*
X-33788Y-7028D1*
X-33743Y-6911D1*
X-33676Y-6805D1*
X-33557Y-6689D1*
X-33590Y-6646D1*
X-33641Y-6532D1*
X-33664Y-6410D1*
X-33656Y-6285D1*
X-33618Y-6166D1*
X-33553Y-6060D1*
X-33479Y-5985D1*
X-33546Y-5919D1*
X-33613Y-5815D1*
X-33654Y-5697D1*
X-33664Y-5572D1*
X-33644Y-5449D1*
X-33595Y-5335D1*
X-33520Y-5235D1*
X-33474Y-5199D1*
X-33546Y-5132D1*
X-33613Y-5027D1*
X-33654Y-4909D1*
X-33664Y-4785D1*
X-33644Y-4662D1*
X-33595Y-4547D1*
X-33560Y-4501D1*
X-33668Y-4389D1*
X-33736Y-4285D1*
X-33784Y-4169D1*
X-33809Y-4047D1*
X-33810Y-3922D1*
X-33788Y-3799D1*
X-33743Y-3683D1*
X-33676Y-3577D1*
X-33591Y-3486D1*
X-33491Y-3412D1*
X-33378Y-3358D1*
X-33257Y-3327D1*
X-33133Y-3319D1*
X-33009Y-3335D1*
X-32890Y-3374D1*
X-32781Y-3434D1*
X-32685Y-3514D1*
X-32606Y-3611D1*
X-32547Y-3721D1*
X-32509Y-3840D1*
X-32495Y-3978D1*
X-32507Y-4102D1*
X-32542Y-4222D1*
X-32599Y-4333D1*
X-32676Y-4431D1*
X-32749Y-4495D1*
X-32685Y-4599D1*
X-32650Y-4719D1*
X-32642Y-4804D1*
X-32658Y-4928D1*
X-34705D2*
X-34750Y-5045D1*
X-34821Y-5147D1*
X-34877Y-5195D1*
X-34796Y-5279D1*
X-34733Y-5387D1*
X-34697Y-5506D1*
X-34690Y-5592D1*
X-34705Y-5716D1*
X-34750Y-5832D1*
X-34821Y-5934D1*
X-34877Y-5983D1*
X-34796Y-6067D1*
X-34733Y-6174D1*
X-34697Y-6294D1*
X-34690Y-6404D1*
X-34712Y-6527D1*
X-34762Y-6641D1*
X-34794Y-6688D1*
X-34732Y-6743D1*
X-34654Y-6839D1*
X-34594Y-6949D1*
X-34557Y-7068D1*
X-34542Y-7206D1*
X-34554Y-7330D1*
X-34589Y-7450D1*
X-34646Y-7561D1*
X-34723Y-7659D1*
X-34817Y-7741D1*
X-34925Y-7804D1*
X-35043Y-7845D1*
X-35166Y-7864D1*
X-35291Y-7859D1*
X-35412Y-7830D1*
X-35526Y-7779D1*
X-35628Y-7707D1*
X-35715Y-7617D1*
X-35784Y-7513D1*
X-35831Y-7398D1*
X-35856Y-7275D1*
X-35857Y-7150D1*
X-35835Y-7028D1*
X-35790Y-6911D1*
X-35724Y-6805D1*
X-35604Y-6689D1*
X-35637Y-6646D1*
X-35688Y-6532D1*
X-35711Y-6410D1*
X-35703Y-6285D1*
X-35665Y-6166D1*
X-35600Y-6060D1*
X-35526Y-5985D1*
X-35593Y-5919D1*
X-35661Y-5815D1*
X-35701Y-5697D1*
X-35711Y-5572D1*
X-35692Y-5449D1*
X-35642Y-5335D1*
X-35567Y-5235D1*
X-35521Y-5199D1*
X-35593Y-5132D1*
X-35661Y-5027D1*
X-35701Y-4909D1*
X-35711Y-4785D1*
X-35692Y-4662D1*
X-35642Y-4547D1*
X-35607Y-4501D1*
X-35715Y-4389D1*
X-35784Y-4285D1*
X-35831Y-4169D1*
X-35856Y-4047D1*
X-35857Y-3922D1*
X-35835Y-3799D1*
X-35790Y-3683D1*
X-35724Y-3577D1*
X-35639Y-3486D1*
X-35538Y-3412D1*
X-35425Y-3358D1*
X-35304Y-3327D1*
X-35180Y-3319D1*
X-35056Y-3335D1*
X-34937Y-3374D1*
X-34828Y-3434D1*
X-34732Y-3514D1*
X-34654Y-3611D1*
X-34594Y-3721D1*
X-34557Y-3840D1*
X-34542Y-3978D1*
X-34554Y-4102D1*
X-34589Y-4222D1*
X-34646Y-4333D1*
X-34723Y-4431D1*
X-34796Y-4495D1*
X-34733Y-4599D1*
X-34697Y-4719D1*
X-34690Y-4804D1*
X-34705Y-4928D1*
X-36752D2*
X-36797Y-5045D1*
X-36868Y-5147D1*
X-36924Y-5195D1*
X-36844Y-5279D1*
X-36780Y-5387D1*
X-36744Y-5506D1*
X-36737Y-5592D1*
X-36752Y-5716D1*
X-36797Y-5832D1*
X-36868Y-5934D1*
X-36924Y-5983D1*
X-36844Y-6067D1*
X-36780Y-6174D1*
X-36744Y-6294D1*
X-36738Y-6404D1*
X-36759Y-6527D1*
X-36809Y-6641D1*
X-36841Y-6688D1*
X-36780Y-6743D1*
X-36701Y-6839D1*
X-36641Y-6949D1*
X-36604Y-7068D1*
X-36589Y-7206D1*
X-36601Y-7330D1*
X-36636Y-7450D1*
X-36693Y-7561D1*
X-36770Y-7659D1*
X-36864Y-7741D1*
X-36972Y-7804D1*
X-37090Y-7845D1*
X-37213Y-7864D1*
X-37338Y-7859D1*
X-37460Y-7830D1*
X-37573Y-7779D1*
X-37676Y-7707D1*
X-37762Y-7617D1*
X-37831Y-7513D1*
X-37878Y-7398D1*
X-37903Y-7275D1*
X-37904Y-7150D1*
X-37882Y-7028D1*
X-37837Y-6911D1*
X-37771Y-6805D1*
X-37651Y-6689D1*
X-37684Y-6646D1*
X-37736Y-6532D1*
X-37758Y-6410D1*
X-37750Y-6285D1*
X-37713Y-6166D1*
X-37647Y-6060D1*
X-37573Y-5985D1*
X-37640Y-5919D1*
X-37708Y-5815D1*
X-37748Y-5697D1*
X-37759Y-5572D1*
X-37739Y-5449D1*
X-37690Y-5335D1*
X-37614Y-5235D1*
X-37569Y-5199D1*
X-37640Y-5132D1*
X-37708Y-5027D1*
X-37748Y-4909D1*
X-37759Y-4785D1*
X-37739Y-4662D1*
X-37690Y-4547D1*
X-37654Y-4501D1*
X-37762Y-4389D1*
X-37831Y-4285D1*
X-37878Y-4169D1*
X-37903Y-4047D1*
X-37904Y-3922D1*
X-37882Y-3799D1*
X-37837Y-3683D1*
X-37771Y-3577D1*
X-37686Y-3486D1*
X-37585Y-3412D1*
X-37472Y-3358D1*
X-37352Y-3327D1*
X-37227Y-3319D1*
X-37103Y-3335D1*
X-36985Y-3374D1*
X-36875Y-3434D1*
X-36780Y-3514D1*
X-36701Y-3611D1*
X-36641Y-3721D1*
X-36604Y-3840D1*
X-36589Y-3978D1*
X-36601Y-4102D1*
X-36636Y-4222D1*
X-36693Y-4333D1*
X-36770Y-4431D1*
X-36844Y-4495D1*
X-36780Y-4599D1*
X-36744Y-4719D1*
X-36737Y-4804D1*
X-36752Y-4928D1*
X-38799D2*
X-38844Y-5045D1*
X-38916Y-5147D1*
X-38972Y-5195D1*
X-38891Y-5279D1*
X-38827Y-5387D1*
X-38791Y-5506D1*
X-38784Y-5592D1*
X-38799Y-5716D1*
X-38844Y-5832D1*
X-38916Y-5934D1*
X-38972Y-5983D1*
X-38891Y-6067D1*
X-38827Y-6174D1*
X-38791Y-6294D1*
X-38785Y-6404D1*
X-38806Y-6527D1*
X-38856Y-6641D1*
X-38888Y-6688D1*
X-38827Y-6743D1*
X-38748Y-6839D1*
X-38689Y-6949D1*
X-38651Y-7068D1*
X-38637Y-7206D1*
X-38648Y-7330D1*
X-38683Y-7450D1*
X-38740Y-7561D1*
X-38817Y-7659D1*
X-38911Y-7741D1*
X-39019Y-7804D1*
X-39137Y-7845D1*
X-39261Y-7864D1*
X-39385Y-7859D1*
X-39507Y-7830D1*
X-39621Y-7779D1*
X-39723Y-7707D1*
X-39810Y-7617D1*
X-39878Y-7513D1*
X-39926Y-7398D1*
X-39950Y-7275D1*
X-39952Y-7150D1*
X-39929Y-7028D1*
X-39884Y-6911D1*
X-39818Y-6805D1*
X-39699Y-6689D1*
X-39731Y-6646D1*
X-39783Y-6532D1*
X-39805Y-6410D1*
X-39798Y-6285D1*
X-39760Y-6166D1*
X-39695Y-6060D1*
X-39621Y-5985D1*
X-39688Y-5919D1*
X-39755Y-5815D1*
X-39795Y-5697D1*
X-39806Y-5572D1*
X-39786Y-5449D1*
X-39737Y-5335D1*
X-39662Y-5235D1*
X-39616Y-5199D1*
X-39688Y-5132D1*
X-39755Y-5027D1*
X-39795Y-4909D1*
X-39806Y-4785D1*
X-39786Y-4662D1*
X-39737Y-4547D1*
X-39702Y-4501D1*
X-39810Y-4389D1*
X-39878Y-4285D1*
X-39926Y-4169D1*
X-39950Y-4047D1*
X-39952Y-3922D1*
X-39929Y-3799D1*
X-39884Y-3683D1*
X-39818Y-3577D1*
X-39733Y-3486D1*
X-39633Y-3412D1*
X-39520Y-3358D1*
X-39399Y-3327D1*
X-39274Y-3319D1*
X-39151Y-3335D1*
X-39032Y-3374D1*
X-38923Y-3434D1*
X-38827Y-3514D1*
X-38748Y-3611D1*
X-38689Y-3721D1*
X-38651Y-3840D1*
X-38637Y-3978D1*
X-38648Y-4102D1*
X-38683Y-4222D1*
X-38740Y-4333D1*
X-38817Y-4431D1*
X-38891Y-4495D1*
X-38827Y-4599D1*
X-38791Y-4719D1*
X-38784Y-4804D1*
X-38799Y-4928D1*
X-35944Y3649D2*
Y4422D1*
X-36082Y4410D1*
X-36205Y4432D1*
X-36317Y4486D1*
X-36411Y4568D1*
X-36457Y4636D1*
X-36453Y3808D1*
X-36235Y3589D1*
X-36186Y3614D1*
X-36066Y3648D1*
X-35945Y3649D1*
X-36703Y2305D2*
X-36228Y2780D1*
X-36349Y2880D1*
X-36377Y2922D1*
X-36459Y2979D1*
X-36704Y3225D1*
X-36705Y2301D1*
X-36457Y5115D2*
X-36440Y5146D1*
X-36355Y5237D1*
X-36248Y5301D1*
X-36129Y5335D1*
X-36004Y5336D1*
X-35884Y5304D1*
X-35776Y5241D1*
X-35692Y5155D1*
X-35696Y5507D1*
X-35742Y5607D1*
X-35752Y5687D1*
Y6285D1*
X-35786Y6318D1*
X-35856Y6421D1*
X-35895Y6540D1*
X-35900Y6645D1*
X-35973Y6715D1*
X-36042Y6818D1*
X-36065Y6938D1*
Y7785D1*
X-36099Y7818D1*
X-36168Y7921D1*
X-36207Y8040D1*
X-36213Y8164D1*
X-36186Y8286D1*
X-36128Y8396D1*
X-36042Y8487D1*
X-35959Y8537D1*
X-36455Y9038D1*
Y5127D1*
X-33289Y3711D2*
X-33191D1*
X-33071Y3679D1*
X-32963Y3616D1*
X-32876Y3527D1*
X-32816Y3418D1*
X-32787Y3297D1*
X-32788Y3231D1*
X-35435Y7785D2*
Y7090D1*
X-35379Y7086D1*
X-35235Y7040D1*
X-35234Y7817D1*
X-35337Y7920D1*
X-35351Y7887D1*
X-35438Y7782D1*
X-32352Y9062D2*
X-32470Y8967D1*
X-32586Y8923D1*
X-32711Y8911D1*
X-32833Y8933D1*
X-32946Y8987D1*
X-33031Y9061D1*
X-32352Y9062D2*
X-32470Y8967D1*
X-32586Y8923D1*
X-32711Y8911D1*
X-32833Y8933D1*
X-32946Y8987D1*
X-33031Y9061D1*
X-25952Y744D2*
X-23437Y-1768D1*
X-23371D1*
X-23459Y-1709D1*
X-25898Y730D1*
X-25375Y1042D2*
X-23125Y-1205D1*
X-20965D1*
X-21002Y-1170D1*
X-22938D1*
X-23062Y-1142D1*
X-23146Y-1084D1*
X-25353Y1123D1*
X-25375Y1039D1*
X-21289Y1706D2*
X-21125Y1545D1*
X-20145D1*
X-20313Y1705D1*
X-21285D1*
X-36955Y14519D2*
Y14386D1*
X-36882Y14399D1*
X-36758Y14400D1*
X-36637Y14368D1*
X-36547Y14315D1*
X-36549Y14922D1*
X-36955Y14517D1*
X-40513Y13091D2*
X-40630Y12996D1*
X-40747Y12952D1*
X-40871Y12941D1*
X-40994Y12963D1*
X-41106Y13016D1*
X-41200Y13098D1*
X-41269Y13202D1*
X-41308Y13320D1*
X-41315Y13445D1*
X-41288Y13566D1*
X-41229Y13676D1*
X-41146Y13764D1*
X-33649Y-1126D2*
D18*
X-32726Y-2088D1*
X-33188Y-1607D2*
X-33649Y-2088D1*
X-39646Y-1772D2*
X-39184Y-2253D1*
Y-1290D2*
X-39646Y-1772D1*
X-31149Y3812D2*
X-30226Y2850D1*
X-30688Y3331D2*
X-31149Y2850D1*
X-30356Y6837D2*
X-29394Y5913D1*
Y6837D2*
X-29875Y6375D1*
X-34212Y4525D2*
X-33750Y4044D1*
X-33288Y4525D2*
X-34212Y3563D1*
X-33024Y6088D2*
X-32101Y5126D1*
Y6088D2*
X-32562Y5607D1*
X-27774Y6025D2*
X-27313Y5544D1*
X-26851Y6025D2*
X-27774Y5063D1*
X-30837Y5437D2*
X-29913Y4475D1*
X-30375Y4956D2*
X-30837Y4475D1*
X-34590Y11107D2*
X-33667Y10145D1*
X-34129Y10626D2*
X-34590Y10145D1*
X-27652Y11857D2*
X-27190Y11376D1*
X-27652Y10895D1*
X-31060Y12285D2*
X-29822Y10968D1*
Y12285D2*
X-31060Y10968D1*
X-17502Y-3750D2*
X-18101Y-4350D1*
X-17926Y15673D2*
X-17502Y15250D1*
X-17078Y15673D2*
X-17502Y15250D1*
X-42117Y18353D2*
X-41693Y17929D1*
X-41269Y18353D2*
X-41693Y17929D1*
X-37693D2*
X-37269Y17505D1*
Y18353D2*
X-37693Y17929D1*
X-46519Y8862D2*
X-46942Y8439D1*
X-47213Y1333D2*
X-46817Y938D1*
X-46422Y1333D2*
X-47213Y542D1*
X-21336Y17648D2*
X-20544Y16856D1*
Y17648D2*
X-21336Y16856D1*
X-27373Y-6018D2*
X-26651Y-6740D1*
Y-6018D2*
X-27373Y-6740D1*
X-29420Y-6018D2*
X-28698Y-6740D1*
Y-6018D2*
X-29420Y-6740D1*
X-31467Y-6018D2*
X-30745Y-6740D1*
Y-6018D2*
X-31467Y-6740D1*
X-33515Y-6018D2*
X-32793Y-6740D1*
Y-6018D2*
X-33515Y-6740D1*
X-35562Y-6018D2*
X-34840Y-6740D1*
Y-6018D2*
X-35562Y-6740D1*
X-37609Y-6018D2*
X-36887Y-6740D1*
Y-6018D2*
X-37609Y-6740D1*
X-39656Y-6018D2*
X-38934Y-6740D1*
Y-6018D2*
X-39656Y-6740D1*
X-41704Y-6018D2*
X-40981Y-6740D1*
Y-6018D2*
X-41704Y-6740D1*
X-43751Y-6018D2*
X-43029Y-6740D1*
Y-6018D2*
X-43751Y-6740D1*
X-45798Y-6018D2*
X-45076Y-6740D1*
Y-6018D2*
X-45798Y-6740D1*
X-45338Y9459D2*
X-44546Y8668D1*
Y9459D2*
X-45338Y8668D1*
X-46102Y214D2*
D19*
X-42785D1*
X-41003D2*
X-40407D1*
X-46102Y65D2*
X-42697D1*
X-40669D2*
X-40407D1*
X-46102Y-84D2*
X-42008D1*
X-40669D2*
X-40407D1*
X-46102Y-232D2*
X-42008D1*
X-40669D2*
X-40407D1*
X-46102Y-381D2*
X-44291D1*
X-42953D2*
X-42008D1*
X-40669D2*
X-40407D1*
X-46102Y-530D2*
X-44291D1*
X-42953D2*
X-42008D1*
X-40669D2*
X-40407D1*
X-46102Y-678D2*
X-44291D1*
X-42953D2*
X-42008D1*
X-40669D2*
X-40407D1*
X-46102Y-827D2*
X-44291D1*
X-42953D2*
X-42008D1*
X-40669D2*
X-40407D1*
X-46102Y-976D2*
X-44291D1*
X-42953D2*
X-42008D1*
X-40669D2*
X-40407D1*
X-46102Y-1124D2*
X-44291D1*
X-42953D2*
X-42008D1*
X-40669D2*
X-40407D1*
X-46102Y-1273D2*
X-44291D1*
X-42953D2*
X-42008D1*
X-40669D2*
X-40407D1*
X-46102Y-1422D2*
X-44291D1*
X-42953D2*
X-42008D1*
X-40669D2*
X-40407D1*
X-46102Y-1570D2*
X-44291D1*
X-42953D2*
X-42008D1*
X-40669D2*
X-40407D1*
X-46102Y-1719D2*
X-44291D1*
X-42953D2*
X-42008D1*
X-40669D2*
X-40407D1*
X-46102Y-1868D2*
X-44291D1*
X-42953D2*
X-42008D1*
X-40669D2*
X-40407D1*
X-46102Y-2016D2*
X-44291D1*
X-42953D2*
X-42008D1*
X-40669D2*
X-40407D1*
X-46102Y-2165D2*
X-42008D1*
X-40669D2*
X-40407D1*
X-46102Y-2314D2*
X-42008D1*
X-40669D2*
X-40407D1*
X-40669Y-2463D2*
X-40407D1*
X-41343Y-2611D2*
X-40407D1*
X-41492Y-2760D2*
X-40407D1*
X-40984Y103D2*
X-40684D1*
Y-733D1*
X-41993D1*
Y23D1*
X-42086D1*
X-42137Y-13D1*
X-42197Y-44D1*
X-42262Y-65D1*
X-42328Y-75D1*
X-42396D1*
X-42463Y-65D1*
X-42527Y-44D1*
X-42587Y-13D1*
X-42642Y27D1*
X-42690Y74D1*
X-42730Y129D1*
X-42760Y189D1*
X-42781Y254D1*
X-42792Y321D1*
X-42793Y363D1*
X-46117D1*
Y-2354D1*
X-46045Y-2426D1*
X-42105D1*
X-41993Y-2314D1*
Y-1708D1*
X-40684D1*
Y-2544D1*
X-41291D1*
X-41547Y-2800D1*
X-40392D1*
Y362D1*
X-41144Y363D1*
X-41061Y277D1*
X-41030Y235D1*
X-41007Y189D1*
X-40991Y140D1*
X-40986Y114D1*
X-41978Y-802D2*
X-40684D1*
Y-1638D1*
X-41993D1*
Y-802D1*
X-41978D1*
X-44201Y-350D2*
X-42968D1*
Y-2091D1*
X-44276D1*
Y-350D1*
X-44201D1*
X-41993Y-803D2*
D18*
X-40685Y-1638D1*
Y-803D2*
X-41993Y-1638D1*
D21*
X-33188Y-937D3*
Y-1607D3*
X-39646Y-1102D3*
Y-1772D3*
X-30688Y4000D3*
Y3331D3*
D22*
X-30544Y6375D3*
X-29875D3*
D21*
X-33750Y3375D3*
Y4044D3*
X-32562Y4937D3*
Y5607D3*
X-27313Y4875D3*
Y5544D3*
X-30375Y5625D3*
Y4956D3*
X-34129Y10626D3*
Y11295D3*
X-27190Y11376D3*
Y10707D3*
D23*
X-32441Y11626D3*
X-30441D3*
Y9973D3*
X-32441D3*
D25*
X-14564Y-3813D3*
D26*
X-13564D3*
X-12564D3*
X-11564D3*
X-10564D3*
Y-813D3*
X-11564D3*
X-12564D3*
X-13564D3*
X-14564D3*
D27*
X-46255Y15877D3*
X-47790D3*
D28*
X-36339Y17717D3*
Y17047D3*
X-42756Y17402D3*
Y16732D3*
X-38125Y15938D3*
Y15268D3*
D29*
X-17502Y-3750D3*
D30*
X-18502D3*
X-17502Y-2750D3*
X-18502D3*
X-17502Y-1750D3*
X-18502D3*
X-17502Y-750D3*
X-18502D3*
X-17502Y250D3*
X-18502D3*
X-17502Y1250D3*
X-18502D3*
X-17502Y2250D3*
X-18502D3*
X-17502Y3250D3*
X-18502D3*
X-17502Y4250D3*
X-18502D3*
X-17502Y5250D3*
X-18502D3*
X-17502Y6250D3*
X-18502D3*
X-17502Y7250D3*
X-18502D3*
X-17502Y8250D3*
X-18502D3*
X-17502Y9250D3*
X-18502D3*
X-17502Y10250D3*
X-18502D3*
X-17502Y11250D3*
X-18502D3*
X-17502Y12250D3*
X-18502D3*
X-17502Y13250D3*
X-18502D3*
X-17502Y14250D3*
X-18502D3*
X-17502Y15250D3*
X-18502D3*
D29*
X-47067Y13376D3*
D30*
Y12376D3*
D29*
X-41693Y16929D3*
D30*
Y17929D3*
X-40693Y16929D3*
Y17929D3*
X-39693Y16929D3*
Y17929D3*
X-38693Y16929D3*
Y17929D3*
X-37693Y16929D3*
Y17929D3*
D29*
X-46942Y10439D3*
D30*
Y9439D3*
Y8439D3*
Y7439D3*
Y6439D3*
Y5439D3*
D32*
X-43671Y18215D3*
X-45580D3*
D33*
X-43238Y19396D3*
X-46013D3*
D29*
X-16000Y19375D3*
D30*
X-15000D3*
X-14000D3*
X-13000D3*
D29*
X-16000Y17250D3*
D30*
X-15000D3*
X-14000D3*
X-13000D3*
D29*
X-12875Y-8375D3*
D30*
X-13875D3*
X-14875D3*
X-15875D3*
D36*
X-46817Y938D3*
X-20940Y17252D3*
X-44942Y9063D3*
D21*
X-29875Y14875D3*
Y15544D3*
X-30688Y13687D3*
Y14357D3*
X-32003Y13251D3*
Y13921D3*
X-22688Y14831D3*
Y15500D3*
X-24000Y14831D3*
Y15500D3*
X-25438Y14831D3*
Y15500D3*
X-26938Y15375D3*
Y16044D3*
X-27813Y15375D3*
Y16044D3*
X-28687Y15375D3*
Y16044D3*
X-11689Y1063D3*
Y393D3*
X-13564Y1063D3*
Y393D3*
X-10439Y1063D3*
Y393D3*
X-14752Y-5001D3*
Y-5670D3*
X-13501Y-5001D3*
Y-5670D3*
X-12376Y-5001D3*
Y-5670D3*
X-11251Y-2688D3*
Y-2018D3*
X-10501Y-4750D3*
Y-5420D3*
X-14564Y-2188D3*
Y-2857D3*
X-13001Y-2688D3*
Y-2018D3*
D37*
X-27012Y-4804D3*
Y-5592D3*
Y-6379D3*
D38*
Y-3978D3*
Y-7206D3*
D37*
X-29059Y-4804D3*
Y-5592D3*
Y-6379D3*
D38*
Y-3978D3*
Y-7206D3*
D37*
X-31106Y-4804D3*
Y-5592D3*
Y-6379D3*
D38*
Y-3978D3*
Y-7206D3*
D37*
X-33154Y-4804D3*
Y-5592D3*
Y-6379D3*
D38*
Y-3978D3*
Y-7206D3*
D37*
X-35201Y-4804D3*
Y-5592D3*
Y-6379D3*
D38*
Y-3978D3*
Y-7206D3*
D37*
X-37248Y-4804D3*
Y-5592D3*
Y-6379D3*
D38*
Y-3978D3*
Y-7206D3*
D37*
X-39295Y-4804D3*
Y-5592D3*
Y-6379D3*
D38*
Y-3978D3*
Y-7206D3*
D37*
X-41343Y-4804D3*
Y-5592D3*
Y-6379D3*
D38*
Y-3978D3*
Y-7206D3*
D37*
X-43390Y-4804D3*
Y-5592D3*
Y-6379D3*
D38*
Y-3978D3*
Y-7206D3*
D37*
X-45437Y-4804D3*
Y-5592D3*
Y-6379D3*
D38*
Y-3978D3*
Y-7206D3*
D45*
X-41339Y-315D3*
Y-1220D3*
Y-2126D3*
D46*
X-43622Y-1220D3*
M02*
