G04 DipTrace 2.4.0.2*
%INBottomMask.gbr*%
%MOIN*%
%ADD51C,0.133*%
%ADD64R,0.0926X0.136*%
%ADD66R,0.0926X0.0454*%
%ADD76C,0.0867*%
%ADD78C,0.0572*%
%ADD80C,0.0671*%
%ADD86R,0.0867X0.0828*%
%ADD88O,0.0493X0.0572*%
%ADD90C,0.0749*%
%ADD92R,0.0749X0.0749*%
%ADD94R,0.0671X0.0592*%
%ADD96R,0.0828X0.1419*%
%ADD98C,0.056*%
%ADD100R,0.056X0.056*%
%ADD104R,0.0789X0.0867*%
%ADD106R,0.0513X0.0474*%
%ADD108R,0.0474X0.0513*%
%FSLAX44Y44*%
G04*
G70*
G90*
G75*
G01*
%LNBotMask*%
%LPD*%
D108*
X-33188Y-937D3*
Y-1607D3*
X-39646Y-1102D3*
Y-1772D3*
X-30688Y4000D3*
Y3331D3*
D106*
X-30544Y6375D3*
X-29875D3*
D108*
X-33750Y3375D3*
Y4044D3*
X-32562Y4937D3*
Y5607D3*
X-27313Y4875D3*
Y5544D3*
X-30375Y5625D3*
Y4956D3*
X-34129Y10626D3*
Y11295D3*
X-27190Y11376D3*
Y10707D3*
D104*
X-32441Y11626D3*
X-30441D3*
Y9973D3*
X-32441D3*
D100*
X-14564Y-3813D3*
D98*
X-13564D3*
X-12564D3*
X-11564D3*
X-10564D3*
Y-813D3*
X-11564D3*
X-12564D3*
X-13564D3*
X-14564D3*
D96*
X-46255Y15877D3*
X-47790D3*
D94*
X-36339Y17717D3*
Y17047D3*
X-42756Y17402D3*
Y16732D3*
X-38125Y15938D3*
Y15268D3*
D51*
X-11125Y18500D3*
X-11000Y-7250D3*
X-47188Y-7077D3*
X-47304Y18189D3*
D92*
X-17502Y-3750D3*
D90*
X-18502D3*
X-17502Y-2750D3*
X-18502D3*
X-17502Y-1750D3*
X-18502D3*
X-17502Y-750D3*
X-18502D3*
X-17502Y250D3*
X-18502D3*
X-17502Y1250D3*
X-18502D3*
X-17502Y2250D3*
X-18502D3*
X-17502Y3250D3*
X-18502D3*
X-17502Y4250D3*
X-18502D3*
X-17502Y5250D3*
X-18502D3*
X-17502Y6250D3*
X-18502D3*
X-17502Y7250D3*
X-18502D3*
X-17502Y8250D3*
X-18502D3*
X-17502Y9250D3*
X-18502D3*
X-17502Y10250D3*
X-18502D3*
X-17502Y11250D3*
X-18502D3*
X-17502Y12250D3*
X-18502D3*
X-17502Y13250D3*
X-18502D3*
X-17502Y14250D3*
X-18502D3*
X-17502Y15250D3*
X-18502D3*
D92*
X-47067Y13376D3*
D90*
Y12376D3*
D92*
X-41693Y16929D3*
D90*
Y17929D3*
X-40693Y16929D3*
Y17929D3*
X-39693Y16929D3*
Y17929D3*
X-38693Y16929D3*
Y17929D3*
X-37693Y16929D3*
Y17929D3*
D92*
X-46942Y10439D3*
D90*
Y9439D3*
Y8439D3*
Y7439D3*
Y6439D3*
Y5439D3*
D88*
X-43671Y18215D3*
X-45580D3*
D86*
X-43238Y19396D3*
X-46013D3*
D92*
X-16000Y19375D3*
D90*
X-15000D3*
X-14000D3*
X-13000D3*
D92*
X-16000Y17250D3*
D90*
X-15000D3*
X-14000D3*
X-13000D3*
D92*
X-12875Y-8375D3*
D90*
X-13875D3*
X-14875D3*
X-15875D3*
D80*
X-46817Y938D3*
X-20940Y17252D3*
X-44942Y9063D3*
D108*
X-29875Y14875D3*
Y15544D3*
X-30688Y13687D3*
Y14357D3*
X-32003Y13251D3*
Y13921D3*
X-22688Y14831D3*
Y15500D3*
X-24000Y14831D3*
Y15500D3*
X-25438Y14831D3*
Y15500D3*
X-26938Y15375D3*
Y16044D3*
X-27813Y15375D3*
Y16044D3*
X-28687Y15375D3*
Y16044D3*
X-11689Y1063D3*
Y393D3*
X-13564Y1063D3*
Y393D3*
X-10439Y1063D3*
Y393D3*
X-14752Y-5001D3*
Y-5670D3*
X-13501Y-5001D3*
Y-5670D3*
X-12376Y-5001D3*
Y-5670D3*
X-11251Y-2688D3*
Y-2018D3*
X-10501Y-4750D3*
Y-5420D3*
X-14564Y-2188D3*
Y-2857D3*
X-13001Y-2688D3*
Y-2018D3*
D78*
X-27012Y-4804D3*
Y-5592D3*
Y-6379D3*
D76*
Y-3978D3*
Y-7206D3*
D78*
X-29059Y-4804D3*
Y-5592D3*
Y-6379D3*
D76*
Y-3978D3*
Y-7206D3*
D78*
X-31106Y-4804D3*
Y-5592D3*
Y-6379D3*
D76*
Y-3978D3*
Y-7206D3*
D78*
X-33154Y-4804D3*
Y-5592D3*
Y-6379D3*
D76*
Y-3978D3*
Y-7206D3*
D78*
X-35201Y-4804D3*
Y-5592D3*
Y-6379D3*
D76*
Y-3978D3*
Y-7206D3*
D78*
X-37248Y-4804D3*
Y-5592D3*
Y-6379D3*
D76*
Y-3978D3*
Y-7206D3*
D78*
X-39295Y-4804D3*
Y-5592D3*
Y-6379D3*
D76*
Y-3978D3*
Y-7206D3*
D78*
X-41343Y-4804D3*
Y-5592D3*
Y-6379D3*
D76*
Y-3978D3*
Y-7206D3*
D78*
X-43390Y-4804D3*
Y-5592D3*
Y-6379D3*
D76*
Y-3978D3*
Y-7206D3*
D78*
X-45437Y-4804D3*
Y-5592D3*
Y-6379D3*
D76*
Y-3978D3*
Y-7206D3*
D66*
X-41339Y-315D3*
Y-1220D3*
Y-2126D3*
D64*
X-43622Y-1220D3*
M02*
