G04 DipTrace 2.4.0.2*
%INBottomSilk.gbr*%
%MOIN*%
%ADD10C,0.0098*%
%ADD42C,0.0154*%
%ADD110C,0.0077*%
%ADD111C,0.0124*%
%FSLAX44Y44*%
G04*
G70*
G90*
G75*
G01*
%LNBotSilk*%
%LPD*%
X-46861Y15246D2*
D10*
Y16507D1*
X-46786Y15246D2*
Y16507D1*
Y15246D2*
X-47259Y15247D1*
X-46786Y16507D2*
X-47259D1*
D42*
X-41037Y68D3*
X-41929Y79D2*
D10*
Y-2520D1*
X-43031Y79D2*
Y-2520D1*
X-41929D2*
X-43031D1*
X-41929Y79D2*
X-43031D1*
X-33997Y-1195D2*
D110*
X-34045Y-1171D1*
X-34093Y-1123D1*
X-34117Y-1076D1*
Y-980D1*
X-34093Y-932D1*
X-34045Y-884D1*
X-33997Y-860D1*
X-33925Y-836D1*
X-33805D1*
X-33734Y-860D1*
X-33686Y-884D1*
X-33639Y-932D1*
X-33614Y-980D1*
Y-1076D1*
X-33639Y-1123D1*
X-33686Y-1171D1*
X-33734Y-1195D1*
X-33614Y-1589D2*
X-34116D1*
X-33782Y-1349D1*
Y-1708D1*
X-40455Y-1384D2*
X-40503Y-1360D1*
X-40551Y-1312D1*
X-40575Y-1264D1*
Y-1169D1*
X-40551Y-1121D1*
X-40503Y-1073D1*
X-40455Y-1049D1*
X-40384Y-1025D1*
X-40264D1*
X-40192Y-1049D1*
X-40144Y-1073D1*
X-40097Y-1121D1*
X-40072Y-1169D1*
Y-1264D1*
X-40097Y-1312D1*
X-40144Y-1360D1*
X-40192Y-1384D1*
X-40503Y-1825D2*
X-40550Y-1801D1*
X-40574Y-1729D1*
Y-1682D1*
X-40550Y-1610D1*
X-40479Y-1562D1*
X-40359Y-1538D1*
X-40240D1*
X-40144Y-1562D1*
X-40096Y-1610D1*
X-40072Y-1682D1*
Y-1706D1*
X-40096Y-1777D1*
X-40144Y-1825D1*
X-40216Y-1849D1*
X-40240D1*
X-40312Y-1825D1*
X-40359Y-1777D1*
X-40383Y-1706D1*
Y-1682D1*
X-40359Y-1610D1*
X-40312Y-1562D1*
X-40240Y-1538D1*
X-31497Y3760D2*
X-31545Y3784D1*
X-31593Y3832D1*
X-31617Y3880D1*
Y3975D1*
X-31593Y4023D1*
X-31545Y4071D1*
X-31497Y4095D1*
X-31425Y4119D1*
X-31305D1*
X-31234Y4095D1*
X-31186Y4071D1*
X-31139Y4023D1*
X-31114Y3975D1*
Y3880D1*
X-31139Y3832D1*
X-31186Y3784D1*
X-31234Y3760D1*
X-31520Y3606D2*
X-31545Y3558D1*
X-31616Y3486D1*
X-31114D1*
X-31520Y3332D2*
X-31545Y3284D1*
X-31616Y3212D1*
X-31114D1*
X-30007Y7185D2*
X-29983Y7232D1*
X-29935Y7280D1*
X-29888Y7304D1*
X-29792D1*
X-29744Y7280D1*
X-29697Y7232D1*
X-29672Y7185D1*
X-29648Y7113D1*
Y6993D1*
X-29672Y6922D1*
X-29697Y6874D1*
X-29744Y6826D1*
X-29792Y6802D1*
X-29888D1*
X-29935Y6826D1*
X-29983Y6874D1*
X-30007Y6922D1*
X-30162Y7208D2*
X-30210Y7232D1*
X-30281Y7304D1*
Y6802D1*
X-30460Y7184D2*
Y7208D1*
X-30484Y7256D1*
X-30508Y7280D1*
X-30556Y7304D1*
X-30651D1*
X-30699Y7280D1*
X-30723Y7256D1*
X-30747Y7208D1*
Y7160D1*
X-30723Y7112D1*
X-30675Y7041D1*
X-30436Y6802D1*
X-30771D1*
X-34560Y3912D2*
X-34607Y3936D1*
X-34655Y3984D1*
X-34679Y4032D1*
Y4127D1*
X-34655Y4175D1*
X-34607Y4223D1*
X-34560Y4247D1*
X-34488Y4271D1*
X-34368D1*
X-34297Y4247D1*
X-34249Y4223D1*
X-34201Y4175D1*
X-34177Y4127D1*
Y4032D1*
X-34201Y3984D1*
X-34249Y3936D1*
X-34297Y3912D1*
X-34583Y3758D2*
X-34607Y3710D1*
X-34679Y3638D1*
X-34177D1*
X-34679Y3435D2*
Y3173D1*
X-34487Y3316D1*
Y3244D1*
X-34464Y3197D1*
X-34440Y3173D1*
X-34368Y3148D1*
X-34320D1*
X-34249Y3173D1*
X-34200Y3220D1*
X-34177Y3292D1*
Y3364D1*
X-34200Y3435D1*
X-34225Y3459D1*
X-34272Y3483D1*
X-33372Y5486D2*
X-33420Y5510D1*
X-33468Y5558D1*
X-33492Y5606D1*
Y5701D1*
X-33468Y5750D1*
X-33420Y5797D1*
X-33372Y5821D1*
X-33300Y5845D1*
X-33180D1*
X-33109Y5821D1*
X-33061Y5797D1*
X-33013Y5750D1*
X-32989Y5701D1*
Y5606D1*
X-33013Y5558D1*
X-33061Y5510D1*
X-33109Y5486D1*
X-33395Y5332D2*
X-33420Y5284D1*
X-33491Y5212D1*
X-32989D1*
Y4818D2*
X-33491D1*
X-33157Y5058D1*
Y4699D1*
X-28122Y5412D2*
X-28170Y5436D1*
X-28218Y5484D1*
X-28242Y5532D1*
Y5627D1*
X-28218Y5675D1*
X-28170Y5723D1*
X-28122Y5747D1*
X-28050Y5771D1*
X-27930D1*
X-27859Y5747D1*
X-27811Y5723D1*
X-27764Y5675D1*
X-27739Y5627D1*
Y5532D1*
X-27764Y5484D1*
X-27811Y5436D1*
X-27859Y5412D1*
X-28145Y5258D2*
X-28170Y5210D1*
X-28241Y5138D1*
X-27739D1*
X-28241Y4697D2*
Y4935D1*
X-28026Y4959D1*
X-28050Y4935D1*
X-28074Y4863D1*
Y4792D1*
X-28050Y4720D1*
X-28002Y4672D1*
X-27930Y4648D1*
X-27883D1*
X-27811Y4672D1*
X-27763Y4720D1*
X-27739Y4792D1*
Y4863D1*
X-27763Y4935D1*
X-27787Y4959D1*
X-27835Y4983D1*
X-31185Y5493D2*
X-31232Y5517D1*
X-31280Y5565D1*
X-31304Y5612D1*
Y5708D1*
X-31280Y5756D1*
X-31232Y5803D1*
X-31185Y5828D1*
X-31113Y5852D1*
X-30993D1*
X-30922Y5828D1*
X-30874Y5803D1*
X-30826Y5756D1*
X-30802Y5708D1*
Y5612D1*
X-30826Y5565D1*
X-30874Y5517D1*
X-30922Y5493D1*
X-31208Y5338D2*
X-31232Y5290D1*
X-31304Y5219D1*
X-30802D1*
Y4968D2*
X-31304Y4729D1*
Y5064D1*
X-34938Y11151D2*
X-34986Y11175D1*
X-35034Y11223D1*
X-35058Y11271D1*
Y11366D1*
X-35034Y11414D1*
X-34986Y11462D1*
X-34938Y11486D1*
X-34866Y11510D1*
X-34746D1*
X-34675Y11486D1*
X-34627Y11462D1*
X-34580Y11414D1*
X-34555Y11366D1*
Y11271D1*
X-34580Y11223D1*
X-34627Y11175D1*
X-34675Y11151D1*
X-34961Y10997D2*
X-34986Y10949D1*
X-35057Y10877D1*
X-34555D1*
X-34890Y10411D2*
X-34818Y10436D1*
X-34770Y10483D1*
X-34746Y10555D1*
Y10579D1*
X-34770Y10651D1*
X-34818Y10698D1*
X-34890Y10723D1*
X-34914D1*
X-34986Y10698D1*
X-35033Y10651D1*
X-35057Y10579D1*
Y10555D1*
X-35033Y10483D1*
X-34986Y10436D1*
X-34890Y10411D1*
X-34770D1*
X-34651Y10436D1*
X-34579Y10483D1*
X-34555Y10555D1*
Y10603D1*
X-34579Y10675D1*
X-34627Y10698D1*
X-28000Y11352D2*
X-28048Y11375D1*
X-28096Y11423D1*
X-28119Y11471D1*
Y11567D1*
X-28096Y11615D1*
X-28048Y11662D1*
X-28000Y11686D1*
X-27928Y11710D1*
X-27808D1*
X-27737Y11686D1*
X-27689Y11662D1*
X-27641Y11615D1*
X-27617Y11567D1*
Y11471D1*
X-27641Y11423D1*
X-27689Y11375D1*
X-27737Y11352D1*
X-27999Y11173D2*
X-28023D1*
X-28071Y11149D1*
X-28095Y11125D1*
X-28119Y11077D1*
Y10982D1*
X-28095Y10934D1*
X-28071Y10910D1*
X-28023Y10886D1*
X-27976D1*
X-27928Y10910D1*
X-27856Y10958D1*
X-27617Y11197D1*
Y10862D1*
X-28119Y10564D2*
X-28095Y10636D1*
X-28023Y10684D1*
X-27904Y10708D1*
X-27832D1*
X-27713Y10684D1*
X-27641Y10636D1*
X-27617Y10564D1*
Y10517D1*
X-27641Y10445D1*
X-27713Y10397D1*
X-27832Y10373D1*
X-27904D1*
X-28023Y10397D1*
X-28095Y10445D1*
X-28119Y10517D1*
Y10564D1*
X-28023Y10397D2*
X-27713Y10684D1*
X-30970Y12633D2*
X-30946Y12680D1*
X-30898Y12728D1*
X-30851Y12752D1*
X-30755D1*
X-30707Y12728D1*
X-30659Y12680D1*
X-30635Y12633D1*
X-30611Y12561D1*
Y12441D1*
X-30635Y12370D1*
X-30659Y12322D1*
X-30707Y12274D1*
X-30755Y12250D1*
X-30851D1*
X-30898Y12274D1*
X-30946Y12322D1*
X-30970Y12370D1*
X-31124Y12513D2*
X-31339D1*
X-31411Y12537D1*
X-31436Y12561D1*
X-31459Y12608D1*
Y12657D1*
X-31436Y12704D1*
X-31411Y12728D1*
X-31339Y12752D1*
X-31124D1*
Y12250D1*
X-31292Y12513D2*
X-31459Y12250D1*
X-31614Y12752D2*
X-31805Y12513D1*
Y12250D1*
X-31996Y12752D2*
X-31805Y12513D1*
X-32151Y12656D2*
X-32199Y12680D1*
X-32271Y12752D1*
Y12250D1*
X-46456Y17278D2*
X-46145D1*
Y16776D1*
Y17039D2*
X-46336D1*
X-46611Y17278D2*
Y16919D1*
X-46634Y16848D1*
X-46683Y16800D1*
X-46754Y16776D1*
X-46802D1*
X-46874Y16800D1*
X-46922Y16848D1*
X-46946Y16919D1*
Y17278D1*
X-47435Y17206D2*
X-47387Y17254D1*
X-47316Y17278D1*
X-47220D1*
X-47148Y17254D1*
X-47100Y17206D1*
Y17159D1*
X-47124Y17111D1*
X-47148Y17087D1*
X-47196Y17063D1*
X-47339Y17015D1*
X-47387Y16991D1*
X-47411Y16967D1*
X-47435Y16919D1*
Y16848D1*
X-47387Y16800D1*
X-47316Y16776D1*
X-47220D1*
X-47148Y16800D1*
X-47100Y16848D1*
X-47900Y17278D2*
X-47589D1*
Y16776D1*
X-47900D1*
X-47589Y17039D2*
X-47781D1*
X-37247Y17584D2*
X-37294Y17608D1*
X-37342Y17656D1*
X-37366Y17704D1*
Y17799D1*
X-37342Y17847D1*
X-37294Y17895D1*
X-37247Y17919D1*
X-37175Y17943D1*
X-37055D1*
X-36984Y17919D1*
X-36936Y17895D1*
X-36888Y17847D1*
X-36864Y17799D1*
Y17704D1*
X-36888Y17656D1*
X-36936Y17608D1*
X-36984Y17584D1*
X-37055D1*
Y17704D1*
X-37294Y17095D2*
X-37342Y17143D1*
X-37366Y17214D1*
Y17310D1*
X-37342Y17382D1*
X-37294Y17430D1*
X-37247D1*
X-37199Y17406D1*
X-37175Y17382D1*
X-37151Y17334D1*
X-37103Y17191D1*
X-37079Y17143D1*
X-37055Y17119D1*
X-37007Y17095D1*
X-36936D1*
X-36888Y17143D1*
X-36864Y17214D1*
Y17310D1*
X-36888Y17382D1*
X-36936Y17430D1*
X-37270Y16941D2*
X-37294Y16893D1*
X-37366Y16821D1*
X-36864D1*
X-43664Y17377D2*
X-43712Y17401D1*
X-43760Y17449D1*
X-43783Y17496D1*
Y17592D1*
X-43760Y17640D1*
X-43712Y17688D1*
X-43664Y17712D1*
X-43592Y17736D1*
X-43472D1*
X-43401Y17712D1*
X-43353Y17688D1*
X-43305Y17640D1*
X-43281Y17592D1*
Y17496D1*
X-43305Y17449D1*
X-43353Y17401D1*
X-43401Y17377D1*
X-43472D1*
Y17496D1*
X-43712Y16888D2*
X-43760Y16935D1*
X-43783Y17007D1*
Y17103D1*
X-43760Y17174D1*
X-43712Y17223D1*
X-43664D1*
X-43616Y17198D1*
X-43592Y17174D1*
X-43568Y17127D1*
X-43520Y16983D1*
X-43497Y16935D1*
X-43472Y16911D1*
X-43425Y16888D1*
X-43353D1*
X-43305Y16935D1*
X-43281Y17007D1*
Y17103D1*
X-43305Y17174D1*
X-43353Y17223D1*
X-43663Y16709D2*
X-43687D1*
X-43735Y16685D1*
X-43759Y16661D1*
X-43783Y16613D1*
Y16518D1*
X-43759Y16470D1*
X-43735Y16446D1*
X-43687Y16422D1*
X-43640D1*
X-43592Y16446D1*
X-43520Y16494D1*
X-43281Y16733D1*
Y16398D1*
X-39033Y15913D2*
X-39081Y15937D1*
X-39129Y15985D1*
X-39153Y16032D1*
Y16128D1*
X-39129Y16176D1*
X-39081Y16223D1*
X-39033Y16248D1*
X-38961Y16272D1*
X-38841D1*
X-38770Y16248D1*
X-38722Y16223D1*
X-38674Y16176D1*
X-38650Y16128D1*
Y16032D1*
X-38674Y15985D1*
X-38722Y15937D1*
X-38770Y15913D1*
X-38841D1*
Y16032D1*
X-39081Y15424D2*
X-39129Y15471D1*
X-39153Y15543D1*
Y15639D1*
X-39129Y15710D1*
X-39081Y15758D1*
X-39033D1*
X-38985Y15734D1*
X-38961Y15710D1*
X-38938Y15663D1*
X-38889Y15519D1*
X-38866Y15471D1*
X-38841Y15447D1*
X-38794Y15424D1*
X-38722D1*
X-38674Y15471D1*
X-38650Y15543D1*
Y15639D1*
X-38674Y15710D1*
X-38722Y15758D1*
X-39152Y15221D2*
Y14959D1*
X-38961Y15102D1*
Y15030D1*
X-38937Y14982D1*
X-38913Y14959D1*
X-38841Y14934D1*
X-38794D1*
X-38722Y14959D1*
X-38674Y15006D1*
X-38650Y15078D1*
Y15150D1*
X-38674Y15221D1*
X-38698Y15245D1*
X-38746Y15269D1*
X-30565Y15514D2*
Y15299D1*
X-30589Y15227D1*
X-30613Y15203D1*
X-30660Y15179D1*
X-30708D1*
X-30756Y15203D1*
X-30780Y15227D1*
X-30804Y15299D1*
Y15514D1*
X-30302D1*
X-30565Y15347D2*
X-30302Y15179D1*
X-30708Y15025D2*
X-30732Y14977D1*
X-30804Y14905D1*
X-30302D1*
X-31377Y14434D2*
Y14219D1*
X-31402Y14147D1*
X-31425Y14123D1*
X-31473Y14099D1*
X-31521D1*
X-31569Y14123D1*
X-31593Y14147D1*
X-31617Y14219D1*
Y14434D1*
X-31114D1*
X-31377Y14267D2*
X-31114Y14099D1*
X-31497Y13921D2*
X-31520D1*
X-31569Y13897D1*
X-31592Y13873D1*
X-31616Y13825D1*
Y13729D1*
X-31592Y13682D1*
X-31569Y13658D1*
X-31520Y13634D1*
X-31473D1*
X-31425Y13658D1*
X-31354Y13706D1*
X-31114Y13945D1*
Y13610D1*
X-32693Y13998D2*
Y13783D1*
X-32717Y13711D1*
X-32741Y13687D1*
X-32789Y13663D1*
X-32837D1*
X-32884Y13687D1*
X-32909Y13711D1*
X-32932Y13783D1*
Y13998D1*
X-32430D1*
X-32693Y13831D2*
X-32430Y13663D1*
X-32932Y13461D2*
Y13198D1*
X-32741Y13341D1*
Y13270D1*
X-32717Y13222D1*
X-32693Y13198D1*
X-32621Y13174D1*
X-32574D1*
X-32502Y13198D1*
X-32454Y13246D1*
X-32430Y13318D1*
Y13389D1*
X-32454Y13461D1*
X-32478Y13485D1*
X-32526Y13509D1*
X-23377Y15589D2*
Y15374D1*
X-23402Y15303D1*
X-23425Y15278D1*
X-23473Y15254D1*
X-23521D1*
X-23569Y15278D1*
X-23593Y15303D1*
X-23617Y15374D1*
Y15589D1*
X-23114D1*
X-23377Y15422D2*
X-23114Y15254D1*
Y14861D2*
X-23616D1*
X-23282Y15100D1*
Y14741D1*
X-24690Y15577D2*
Y15362D1*
X-24714Y15291D1*
X-24738Y15266D1*
X-24785Y15243D1*
X-24833D1*
X-24881Y15266D1*
X-24905Y15291D1*
X-24929Y15362D1*
Y15577D1*
X-24427D1*
X-24690Y15410D2*
X-24427Y15243D1*
X-24929Y14801D2*
Y15040D1*
X-24714Y15064D1*
X-24737Y15040D1*
X-24762Y14968D1*
Y14897D1*
X-24737Y14825D1*
X-24690Y14777D1*
X-24618Y14753D1*
X-24570D1*
X-24499Y14777D1*
X-24450Y14825D1*
X-24427Y14897D1*
Y14968D1*
X-24450Y15040D1*
X-24475Y15064D1*
X-24522Y15088D1*
X-26127Y15565D2*
Y15350D1*
X-26152Y15278D1*
X-26175Y15254D1*
X-26223Y15230D1*
X-26271D1*
X-26319Y15254D1*
X-26343Y15278D1*
X-26367Y15350D1*
Y15565D1*
X-25864D1*
X-26127Y15398D2*
X-25864Y15230D1*
X-26295Y14789D2*
X-26342Y14813D1*
X-26366Y14885D1*
Y14932D1*
X-26342Y15004D1*
X-26270Y15052D1*
X-26151Y15076D1*
X-26032D1*
X-25936Y15052D1*
X-25888Y15004D1*
X-25864Y14932D1*
Y14909D1*
X-25888Y14837D1*
X-25936Y14789D1*
X-26008Y14765D1*
X-26032D1*
X-26104Y14789D1*
X-26151Y14837D1*
X-26175Y14909D1*
Y14932D1*
X-26151Y15004D1*
X-26104Y15052D1*
X-26032Y15076D1*
X-26525Y14750D2*
X-26740D1*
X-26812Y14774D1*
X-26837Y14798D1*
X-26860Y14845D1*
Y14893D1*
X-26837Y14941D1*
X-26812Y14965D1*
X-26740Y14989D1*
X-26525D1*
Y14486D1*
X-26693Y14750D2*
X-26860Y14486D1*
X-27110D2*
X-27350Y14988D1*
X-27015D1*
X-27401Y14750D2*
X-27616D1*
X-27688Y14774D1*
X-27712Y14798D1*
X-27736Y14845D1*
Y14893D1*
X-27712Y14941D1*
X-27688Y14965D1*
X-27616Y14989D1*
X-27401D1*
Y14486D1*
X-27568Y14750D2*
X-27736Y14486D1*
X-28009Y14988D2*
X-27938Y14965D1*
X-27914Y14917D1*
Y14869D1*
X-27938Y14821D1*
X-27986Y14797D1*
X-28081Y14773D1*
X-28153Y14750D1*
X-28201Y14701D1*
X-28224Y14654D1*
Y14582D1*
X-28201Y14535D1*
X-28177Y14510D1*
X-28105Y14486D1*
X-28009D1*
X-27938Y14510D1*
X-27914Y14535D1*
X-27890Y14582D1*
Y14654D1*
X-27914Y14701D1*
X-27962Y14750D1*
X-28033Y14773D1*
X-28129Y14797D1*
X-28177Y14821D1*
X-28201Y14869D1*
Y14917D1*
X-28177Y14965D1*
X-28105Y14988D1*
X-28009D1*
X-28287Y14750D2*
X-28502D1*
X-28574Y14774D1*
X-28598Y14798D1*
X-28622Y14845D1*
Y14893D1*
X-28598Y14941D1*
X-28574Y14965D1*
X-28502Y14989D1*
X-28287D1*
Y14486D1*
X-28455Y14750D2*
X-28622Y14486D1*
X-29088Y14821D2*
X-29063Y14750D1*
X-29016Y14701D1*
X-28944Y14678D1*
X-28920D1*
X-28848Y14701D1*
X-28801Y14750D1*
X-28777Y14821D1*
Y14845D1*
X-28801Y14917D1*
X-28848Y14965D1*
X-28920Y14988D1*
X-28944D1*
X-29016Y14965D1*
X-29063Y14917D1*
X-29088Y14821D1*
Y14701D1*
X-29063Y14582D1*
X-29016Y14510D1*
X-28944Y14486D1*
X-28897D1*
X-28825Y14510D1*
X-28801Y14558D1*
X-12378Y1277D2*
Y1062D1*
X-12403Y990D1*
X-12427Y966D1*
X-12474Y942D1*
X-12522D1*
X-12570Y966D1*
X-12594Y990D1*
X-12618Y1062D1*
Y1277D1*
X-12115D1*
X-12378Y1110D2*
X-12115Y942D1*
X-12522Y788D2*
X-12546Y740D1*
X-12617Y668D1*
X-12115D1*
X-12617Y370D2*
X-12593Y442D1*
X-12522Y490D1*
X-12402Y514D1*
X-12330D1*
X-12211Y490D1*
X-12139Y442D1*
X-12115Y370D1*
Y322D1*
X-12139Y251D1*
X-12211Y203D1*
X-12330Y179D1*
X-12402D1*
X-12522Y203D1*
X-12593Y251D1*
X-12617Y322D1*
Y370D1*
X-12522Y203D2*
X-12211Y490D1*
X-14254Y1385D2*
Y1170D1*
X-14278Y1098D1*
X-14302Y1074D1*
X-14349Y1050D1*
X-14397D1*
X-14445Y1074D1*
X-14469Y1098D1*
X-14493Y1170D1*
Y1385D1*
X-13991D1*
X-14254Y1217D2*
X-13991Y1050D1*
X-14373Y871D2*
X-14397D1*
X-14445Y847D1*
X-14469Y824D1*
X-14492Y775D1*
Y680D1*
X-14469Y632D1*
X-14445Y609D1*
X-14397Y584D1*
X-14349D1*
X-14301Y609D1*
X-14230Y656D1*
X-13991Y895D1*
Y560D1*
X-14492Y358D2*
Y95D1*
X-14301Y239D1*
Y167D1*
X-14277Y119D1*
X-14254Y95D1*
X-14182Y71D1*
X-14134D1*
X-14062Y95D1*
X-14014Y143D1*
X-13991Y215D1*
Y287D1*
X-14014Y358D1*
X-14039Y382D1*
X-14086Y406D1*
X-11128Y1397D2*
Y1182D1*
X-11153Y1110D1*
X-11176Y1085D1*
X-11224Y1062D1*
X-11272D1*
X-11320Y1085D1*
X-11344Y1110D1*
X-11368Y1182D1*
Y1397D1*
X-10865D1*
X-11128Y1229D2*
X-10865Y1062D1*
X-11248Y883D2*
X-11272D1*
X-11320Y859D1*
X-11343Y835D1*
X-11367Y787D1*
Y692D1*
X-11343Y644D1*
X-11320Y620D1*
X-11272Y596D1*
X-11224D1*
X-11176Y620D1*
X-11105Y668D1*
X-10865Y907D1*
Y572D1*
Y179D2*
X-11367D1*
X-11033Y418D1*
Y59D1*
X-15441Y-4786D2*
Y-5001D1*
X-15466Y-5073D1*
X-15489Y-5097D1*
X-15537Y-5121D1*
X-15585D1*
X-15633Y-5097D1*
X-15657Y-5073D1*
X-15681Y-5001D1*
Y-4786D1*
X-15178D1*
X-15441Y-4953D2*
X-15178Y-5121D1*
X-15680Y-5562D2*
Y-5323D1*
X-15465Y-5300D1*
X-15489Y-5323D1*
X-15513Y-5395D1*
Y-5466D1*
X-15489Y-5538D1*
X-15441Y-5586D1*
X-15369Y-5610D1*
X-15322D1*
X-15250Y-5586D1*
X-15202Y-5538D1*
X-15178Y-5466D1*
Y-5395D1*
X-15202Y-5323D1*
X-15226Y-5300D1*
X-15274Y-5275D1*
X-15584Y-5765D2*
X-15609Y-5813D1*
X-15680Y-5884D1*
X-15178D1*
X-14191Y-4678D2*
Y-4893D1*
X-14215Y-4965D1*
X-14239Y-4990D1*
X-14287Y-5013D1*
X-14335D1*
X-14382Y-4990D1*
X-14407Y-4965D1*
X-14430Y-4893D1*
Y-4678D1*
X-13928D1*
X-14191Y-4846D2*
X-13928Y-5013D1*
X-14430Y-5455D2*
Y-5216D1*
X-14215Y-5192D1*
X-14239Y-5216D1*
X-14263Y-5288D1*
Y-5359D1*
X-14239Y-5431D1*
X-14191Y-5479D1*
X-14119Y-5503D1*
X-14072D1*
X-14000Y-5479D1*
X-13952Y-5431D1*
X-13928Y-5359D1*
Y-5288D1*
X-13952Y-5216D1*
X-13976Y-5192D1*
X-14024Y-5168D1*
X-14311Y-5681D2*
X-14334D1*
X-14382Y-5705D1*
X-14406Y-5729D1*
X-14430Y-5777D1*
Y-5873D1*
X-14406Y-5920D1*
X-14382Y-5944D1*
X-14334Y-5968D1*
X-14287D1*
X-14239Y-5944D1*
X-14167Y-5896D1*
X-13928Y-5657D1*
Y-5992D1*
X-13066Y-4678D2*
Y-4893D1*
X-13090Y-4965D1*
X-13114Y-4990D1*
X-13162Y-5013D1*
X-13210D1*
X-13257Y-4990D1*
X-13282Y-4965D1*
X-13305Y-4893D1*
Y-4678D1*
X-12803D1*
X-13066Y-4846D2*
X-12803Y-5013D1*
X-13305Y-5455D2*
Y-5216D1*
X-13090Y-5192D1*
X-13114Y-5216D1*
X-13138Y-5288D1*
Y-5359D1*
X-13114Y-5431D1*
X-13066Y-5479D1*
X-12994Y-5503D1*
X-12947D1*
X-12875Y-5479D1*
X-12827Y-5431D1*
X-12803Y-5359D1*
Y-5288D1*
X-12827Y-5216D1*
X-12851Y-5192D1*
X-12899Y-5168D1*
X-13305Y-5705D2*
Y-5968D1*
X-13114Y-5824D1*
Y-5896D1*
X-13090Y-5944D1*
X-13066Y-5968D1*
X-12994Y-5992D1*
X-12947D1*
X-12875Y-5968D1*
X-12827Y-5920D1*
X-12803Y-5848D1*
Y-5776D1*
X-12827Y-5705D1*
X-12851Y-5681D1*
X-12899Y-5657D1*
X-11941Y-1684D2*
Y-1899D1*
X-11965Y-1971D1*
X-11989Y-1996D1*
X-12037Y-2019D1*
X-12085D1*
X-12132Y-1996D1*
X-12156Y-1971D1*
X-12180Y-1899D1*
Y-1684D1*
X-11678D1*
X-11941Y-1852D2*
X-11678Y-2019D1*
X-12180Y-2461D2*
Y-2222D1*
X-11965Y-2198D1*
X-11988Y-2222D1*
X-12013Y-2294D1*
Y-2365D1*
X-11988Y-2437D1*
X-11941Y-2485D1*
X-11869Y-2509D1*
X-11822D1*
X-11750Y-2485D1*
X-11702Y-2437D1*
X-11678Y-2365D1*
Y-2294D1*
X-11702Y-2222D1*
X-11726Y-2198D1*
X-11773Y-2174D1*
X-11678Y-2902D2*
X-12180D1*
X-11845Y-2663D1*
Y-3022D1*
X-11191Y-4428D2*
Y-4643D1*
X-11215Y-4715D1*
X-11239Y-4740D1*
X-11286Y-4763D1*
X-11335D1*
X-11382Y-4740D1*
X-11406Y-4715D1*
X-11430Y-4643D1*
Y-4428D1*
X-10928D1*
X-11191Y-4596D2*
X-10928Y-4763D1*
X-11430Y-5205D2*
Y-4966D1*
X-11215Y-4942D1*
X-11238Y-4966D1*
X-11263Y-5038D1*
Y-5109D1*
X-11238Y-5181D1*
X-11191Y-5229D1*
X-11119Y-5253D1*
X-11071D1*
X-11000Y-5229D1*
X-10952Y-5181D1*
X-10928Y-5109D1*
Y-5038D1*
X-10952Y-4966D1*
X-10976Y-4942D1*
X-11023Y-4918D1*
X-11430Y-5694D2*
Y-5455D1*
X-11215Y-5431D1*
X-11238Y-5455D1*
X-11263Y-5527D1*
Y-5598D1*
X-11238Y-5670D1*
X-11191Y-5718D1*
X-11119Y-5742D1*
X-11071D1*
X-11000Y-5718D1*
X-10952Y-5670D1*
X-10928Y-5598D1*
Y-5527D1*
X-10952Y-5455D1*
X-10976Y-5431D1*
X-11023Y-5407D1*
X-15254Y-1878D2*
Y-2093D1*
X-15278Y-2165D1*
X-15302Y-2189D1*
X-15349Y-2213D1*
X-15397D1*
X-15445Y-2189D1*
X-15469Y-2165D1*
X-15493Y-2093D1*
Y-1878D1*
X-14991D1*
X-15254Y-2045D2*
X-14991Y-2213D1*
X-15493Y-2654D2*
Y-2415D1*
X-15278Y-2391D1*
X-15301Y-2415D1*
X-15326Y-2487D1*
Y-2558D1*
X-15301Y-2630D1*
X-15254Y-2678D1*
X-15182Y-2702D1*
X-15134D1*
X-15063Y-2678D1*
X-15014Y-2630D1*
X-14991Y-2558D1*
Y-2487D1*
X-15014Y-2415D1*
X-15039Y-2391D1*
X-15086Y-2367D1*
X-15421Y-3143D2*
X-15469Y-3119D1*
X-15493Y-3048D1*
Y-3000D1*
X-15469Y-2928D1*
X-15397Y-2880D1*
X-15278Y-2856D1*
X-15158D1*
X-15063Y-2880D1*
X-15014Y-2928D1*
X-14991Y-3000D1*
Y-3024D1*
X-15014Y-3095D1*
X-15063Y-3143D1*
X-15134Y-3167D1*
X-15158D1*
X-15230Y-3143D1*
X-15278Y-3095D1*
X-15301Y-3024D1*
Y-3000D1*
X-15278Y-2928D1*
X-15230Y-2880D1*
X-15158Y-2856D1*
X-13691Y-1696D2*
Y-1911D1*
X-13715Y-1983D1*
X-13739Y-2008D1*
X-13787Y-2031D1*
X-13835D1*
X-13882Y-2008D1*
X-13907Y-1983D1*
X-13930Y-1911D1*
Y-1696D1*
X-13428D1*
X-13691Y-1864D2*
X-13428Y-2031D1*
X-13930Y-2473D2*
Y-2234D1*
X-13715Y-2210D1*
X-13739Y-2234D1*
X-13763Y-2306D1*
Y-2377D1*
X-13739Y-2449D1*
X-13691Y-2497D1*
X-13619Y-2521D1*
X-13572D1*
X-13500Y-2497D1*
X-13452Y-2449D1*
X-13428Y-2377D1*
Y-2306D1*
X-13452Y-2234D1*
X-13476Y-2210D1*
X-13524Y-2186D1*
X-13428Y-2771D2*
X-13930Y-3010D1*
Y-2675D1*
X-41919Y878D2*
Y519D1*
X-41943Y447D1*
X-41991Y399D1*
X-42063Y375D1*
X-42110D1*
X-42182Y399D1*
X-42230Y447D1*
X-42254Y519D1*
Y878D1*
X-42408Y781D2*
X-42457Y806D1*
X-42528Y877D1*
Y375D1*
X-42922D2*
Y877D1*
X-42683Y543D1*
X-43041D1*
X-20354Y-1960D2*
D111*
X-20285Y-1998D1*
X-20217Y-2075D1*
X-20182Y-2151D1*
X-20147Y-2266D1*
Y-2457D1*
X-20182Y-2572D1*
X-20217Y-2648D1*
X-20285Y-2725D1*
X-20354Y-2763D1*
X-20492D1*
X-20560Y-2725D1*
X-20630Y-2648D1*
X-20664Y-2572D1*
X-20698Y-2457D1*
Y-2266D1*
X-20664Y-2151D1*
X-20630Y-2075D1*
X-20560Y-1998D1*
X-20492Y-1960D1*
X-20354D1*
X-20920Y-2228D2*
Y-2763D1*
Y-2457D2*
X-20956Y-2342D1*
X-21024Y-2266D1*
X-21093Y-2228D1*
X-21197D1*
X-21419Y-2457D2*
X-21832D1*
Y-2381D1*
X-21798Y-2304D1*
X-21764Y-2266D1*
X-21694Y-2228D1*
X-21591D1*
X-21522Y-2266D1*
X-21453Y-2342D1*
X-21419Y-2457D1*
Y-2533D1*
X-21453Y-2648D1*
X-21522Y-2725D1*
X-21591Y-2763D1*
X-21694D1*
X-21764Y-2725D1*
X-21832Y-2648D1*
X-22467Y-2266D2*
Y-2878D1*
X-22433Y-2992D1*
X-22399Y-3031D1*
X-22330Y-3069D1*
X-22226D1*
X-22158Y-3031D1*
X-22467Y-2381D2*
X-22399Y-2304D1*
X-22330Y-2266D1*
X-22226D1*
X-22158Y-2304D1*
X-22089Y-2381D1*
X-22054Y-2495D1*
Y-2572D1*
X-22089Y-2686D1*
X-22158Y-2763D1*
X-22226Y-2801D1*
X-22330D1*
X-22399Y-2763D1*
X-22467Y-2686D1*
X-22862Y-2228D2*
X-22793Y-2266D1*
X-22724Y-2342D1*
X-22690Y-2457D1*
Y-2533D1*
X-22724Y-2648D1*
X-22793Y-2725D1*
X-22862Y-2763D1*
X-22965D1*
X-23034Y-2725D1*
X-23103Y-2648D1*
X-23138Y-2533D1*
Y-2457D1*
X-23103Y-2342D1*
X-23034Y-2266D1*
X-22965Y-2228D1*
X-22862D1*
X-23360D2*
Y-2763D1*
Y-2381D2*
X-23464Y-2266D1*
X-23533Y-2228D1*
X-23636D1*
X-23705Y-2266D1*
X-23739Y-2381D1*
Y-2763D1*
X-24661Y-1960D2*
Y-2763D1*
X-24884Y-2228D2*
Y-2763D1*
Y-2381D2*
X-24987Y-2266D1*
X-25056Y-2228D1*
X-25159D1*
X-25228Y-2266D1*
X-25262Y-2381D1*
Y-2763D1*
X-25864Y-2342D2*
X-25829Y-2266D1*
X-25726Y-2228D1*
X-25622D1*
X-25519Y-2266D1*
X-25485Y-2342D1*
X-25519Y-2419D1*
X-25588Y-2457D1*
X-25760Y-2495D1*
X-25829Y-2533D1*
X-25864Y-2610D1*
Y-2648D1*
X-25829Y-2725D1*
X-25726Y-2763D1*
X-25622D1*
X-25519Y-2725D1*
X-25485Y-2648D1*
X-26189Y-1960D2*
Y-2610D1*
X-26224Y-2725D1*
X-26293Y-2763D1*
X-26361D1*
X-26086Y-2228D2*
X-26327D1*
X-26584Y-1960D2*
X-26618Y-1998D1*
X-26653Y-1960D1*
X-26618Y-1921D1*
X-26584Y-1960D1*
X-26618Y-2228D2*
Y-2763D1*
X-26979Y-1960D2*
Y-2610D1*
X-27013Y-2725D1*
X-27082Y-2763D1*
X-27150D1*
X-26875Y-2228D2*
X-27116D1*
X-27373D2*
Y-2610D1*
X-27407Y-2725D1*
X-27476Y-2763D1*
X-27580D1*
X-27648Y-2725D1*
X-27752Y-2610D1*
Y-2228D2*
Y-2763D1*
X-28077Y-1960D2*
Y-2610D1*
X-28112Y-2725D1*
X-28181Y-2763D1*
X-28249D1*
X-27974Y-2228D2*
X-28215D1*
X-28472Y-2457D2*
X-28885D1*
Y-2381D1*
X-28851Y-2304D1*
X-28816Y-2266D1*
X-28747Y-2228D1*
X-28644D1*
X-28575Y-2266D1*
X-28506Y-2342D1*
X-28472Y-2457D1*
Y-2533D1*
X-28506Y-2648D1*
X-28575Y-2725D1*
X-28644Y-2763D1*
X-28747D1*
X-28816Y-2725D1*
X-28885Y-2648D1*
X-29979Y-2228D2*
X-29910Y-2266D1*
X-29841Y-2342D1*
X-29807Y-2457D1*
Y-2533D1*
X-29841Y-2648D1*
X-29910Y-2725D1*
X-29979Y-2763D1*
X-30082D1*
X-30152Y-2725D1*
X-30220Y-2648D1*
X-30255Y-2533D1*
Y-2457D1*
X-30220Y-2342D1*
X-30152Y-2266D1*
X-30082Y-2228D1*
X-29979D1*
X-30753Y-1960D2*
X-30684D1*
X-30615Y-1998D1*
X-30581Y-2113D1*
Y-2763D1*
X-30477Y-2228D2*
X-30718D1*
X-31916Y-1960D2*
Y-2763D1*
X-31675Y-1960D2*
X-32157D1*
X-32379Y-2457D2*
X-32793D1*
Y-2381D1*
X-32758Y-2304D1*
X-32724Y-2266D1*
X-32655Y-2228D1*
X-32551D1*
X-32483Y-2266D1*
X-32414Y-2342D1*
X-32379Y-2457D1*
Y-2533D1*
X-32414Y-2648D1*
X-32483Y-2725D1*
X-32551Y-2763D1*
X-32655D1*
X-32724Y-2725D1*
X-32793Y-2648D1*
X-33429Y-2342D2*
X-33359Y-2266D1*
X-33290Y-2228D1*
X-33188D1*
X-33118Y-2266D1*
X-33050Y-2342D1*
X-33015Y-2457D1*
Y-2533D1*
X-33050Y-2648D1*
X-33118Y-2725D1*
X-33188Y-2763D1*
X-33290D1*
X-33359Y-2725D1*
X-33429Y-2648D1*
X-33651Y-1960D2*
Y-2763D1*
Y-2381D2*
X-33755Y-2266D1*
X-33824Y-2228D1*
X-33927D1*
X-33996Y-2266D1*
X-34030Y-2381D1*
Y-2763D1*
X-34252Y-2228D2*
Y-2763D1*
Y-2381D2*
X-34356Y-2266D1*
X-34425Y-2228D1*
X-34528D1*
X-34597Y-2266D1*
X-34631Y-2381D1*
Y-2763D1*
X-35025Y-2228D2*
X-34957Y-2266D1*
X-34888Y-2342D1*
X-34853Y-2457D1*
Y-2533D1*
X-34888Y-2648D1*
X-34957Y-2725D1*
X-35025Y-2763D1*
X-35129D1*
X-35198Y-2725D1*
X-35266Y-2648D1*
X-35301Y-2533D1*
Y-2457D1*
X-35266Y-2342D1*
X-35198Y-2266D1*
X-35129Y-2228D1*
X-35025D1*
X-35524Y-1960D2*
Y-2763D1*
X-35918Y-2228D2*
X-35850Y-2266D1*
X-35780Y-2342D1*
X-35746Y-2457D1*
Y-2533D1*
X-35780Y-2648D1*
X-35850Y-2725D1*
X-35918Y-2763D1*
X-36022D1*
X-36091Y-2725D1*
X-36159Y-2648D1*
X-36194Y-2533D1*
Y-2457D1*
X-36159Y-2342D1*
X-36091Y-2266D1*
X-36022Y-2228D1*
X-35918D1*
X-36830Y-2266D2*
Y-2878D1*
X-36795Y-2992D1*
X-36761Y-3031D1*
X-36692Y-3069D1*
X-36588D1*
X-36520Y-3031D1*
X-36830Y-2381D2*
X-36761Y-2304D1*
X-36692Y-2266D1*
X-36588D1*
X-36520Y-2304D1*
X-36451Y-2381D1*
X-36417Y-2495D1*
Y-2572D1*
X-36451Y-2686D1*
X-36520Y-2763D1*
X-36588Y-2801D1*
X-36692D1*
X-36761Y-2763D1*
X-36830Y-2686D1*
X-37087Y-2228D2*
X-37293Y-2763D1*
X-37225Y-2916D1*
X-37155Y-2993D1*
X-37087Y-3031D1*
X-37052D1*
X-37500Y-2228D2*
X-37293Y-2763D1*
X-16358Y15434D2*
D42*
X-16311Y15520D1*
X-16215Y15606D1*
X-16120Y15649D1*
X-15976Y15692D1*
X-15736D1*
X-15594Y15649D1*
X-15497Y15606D1*
X-15402Y15520D1*
X-15354Y15434D1*
Y15261D1*
X-15402Y15176D1*
X-15497Y15089D1*
X-15594Y15047D1*
X-15736Y15004D1*
X-15976D1*
X-16120Y15047D1*
X-16215Y15089D1*
X-16311Y15176D1*
X-16358Y15261D1*
Y15434D1*
X-16024Y14726D2*
X-15354D1*
X-15736D2*
X-15880Y14682D1*
X-15976Y14597D1*
X-16024Y14510D1*
Y14381D1*
X-15736Y14103D2*
Y13586D1*
X-15832D1*
X-15928Y13629D1*
X-15976Y13672D1*
X-16024Y13759D1*
Y13888D1*
X-15976Y13973D1*
X-15880Y14060D1*
X-15736Y14103D1*
X-15641D1*
X-15497Y14060D1*
X-15402Y13973D1*
X-15354Y13888D1*
Y13759D1*
X-15402Y13672D1*
X-15497Y13586D1*
X-15976Y12792D2*
X-15210D1*
X-15067Y12835D1*
X-15019Y12878D1*
X-14971Y12964D1*
Y13094D1*
X-15019Y13179D1*
X-15832Y12792D2*
X-15927Y12878D1*
X-15976Y12964D1*
Y13094D1*
X-15927Y13179D1*
X-15832Y13266D1*
X-15689Y13309D1*
X-15592D1*
X-15450Y13266D1*
X-15354Y13179D1*
X-15306Y13094D1*
Y12964D1*
X-15354Y12878D1*
X-15450Y12792D1*
X-16024Y12299D2*
X-15976Y12385D1*
X-15880Y12472D1*
X-15736Y12514D1*
X-15641D1*
X-15497Y12472D1*
X-15402Y12385D1*
X-15354Y12299D1*
Y12170D1*
X-15402Y12084D1*
X-15497Y11998D1*
X-15641Y11954D1*
X-15736D1*
X-15880Y11998D1*
X-15976Y12084D1*
X-16024Y12170D1*
Y12299D1*
Y11676D2*
X-15354D1*
X-15832D2*
X-15976Y11547D1*
X-16024Y11460D1*
Y11332D1*
X-15976Y11246D1*
X-15832Y11203D1*
X-15354D1*
X-16358Y9749D2*
X-15354D1*
X-16358Y10050D2*
Y9447D1*
X-15736Y9169D2*
Y8653D1*
X-15832D1*
X-15928Y8696D1*
X-15976Y8738D1*
X-16024Y8825D1*
Y8954D1*
X-15976Y9040D1*
X-15880Y9126D1*
X-15736Y9169D1*
X-15641D1*
X-15497Y9126D1*
X-15402Y9040D1*
X-15354Y8954D1*
Y8825D1*
X-15402Y8738D1*
X-15497Y8653D1*
X-15880Y7858D2*
X-15976Y7944D1*
X-16024Y8031D1*
Y8159D1*
X-15976Y8246D1*
X-15880Y8331D1*
X-15736Y8375D1*
X-15641D1*
X-15497Y8331D1*
X-15402Y8246D1*
X-15354Y8159D1*
Y8031D1*
X-15402Y7944D1*
X-15497Y7858D1*
X-16358Y7580D2*
X-15354D1*
X-15832D2*
X-15976Y7450D1*
X-16024Y7364D1*
Y7235D1*
X-15976Y7149D1*
X-15832Y7106D1*
X-15354D1*
X-23909Y-840D2*
D111*
X-23879Y-764D1*
X-23817Y-687D1*
X-23756Y-649D1*
X-23634D1*
X-23573Y-687D1*
X-23512Y-764D1*
X-23481Y-840D1*
X-23450Y-955D1*
Y-1147D1*
X-23481Y-1261D1*
X-23512Y-1338D1*
X-23573Y-1414D1*
X-23634Y-1453D1*
X-23756D1*
X-23817Y-1414D1*
X-23879Y-1338D1*
X-23909Y-1261D1*
X-24536Y-764D2*
X-24475Y-687D1*
X-24383Y-649D1*
X-24260D1*
X-24168Y-687D1*
X-24107Y-764D1*
Y-840D1*
X-24138Y-917D1*
X-24168Y-955D1*
X-24229Y-993D1*
X-24413Y-1070D1*
X-24475Y-1108D1*
X-24505Y-1147D1*
X-24536Y-1223D1*
Y-1338D1*
X-24475Y-1414D1*
X-24383Y-1453D1*
X-24260D1*
X-24168Y-1414D1*
X-24107Y-1338D1*
X-25131Y-649D2*
X-24733D1*
Y-1453D1*
X-25131D1*
X-24733Y-1032D2*
X-24978D1*
X-25543Y-649D2*
Y-1453D1*
X-25328Y-649D2*
X-25757D1*
X-26577D2*
Y-1453D1*
X-26791D1*
X-26883Y-1414D1*
X-26945Y-1338D1*
X-26975Y-1261D1*
X-27006Y-1147D1*
Y-955D1*
X-26975Y-840D1*
X-26945Y-764D1*
X-26883Y-687D1*
X-26791Y-649D1*
X-26577D1*
X-27203Y-1147D2*
X-27570D1*
Y-1070D1*
X-27540Y-993D1*
X-27510Y-955D1*
X-27448Y-917D1*
X-27356D1*
X-27295Y-955D1*
X-27234Y-1032D1*
X-27203Y-1147D1*
Y-1223D1*
X-27234Y-1338D1*
X-27295Y-1414D1*
X-27356Y-1453D1*
X-27448D1*
X-27510Y-1414D1*
X-27570Y-1338D1*
X-27768Y-917D2*
Y-1721D1*
Y-1032D2*
X-27830Y-956D1*
X-27890Y-917D1*
X-27982D1*
X-28044Y-956D1*
X-28105Y-1032D1*
X-28136Y-1147D1*
Y-1224D1*
X-28105Y-1338D1*
X-28044Y-1415D1*
X-27982Y-1453D1*
X-27890D1*
X-27830Y-1415D1*
X-27768Y-1338D1*
X-28701Y-917D2*
Y-1453D1*
Y-1032D2*
X-28640Y-955D1*
X-28578Y-917D1*
X-28487D1*
X-28425Y-955D1*
X-28365Y-1032D1*
X-28334Y-1147D1*
Y-1223D1*
X-28365Y-1338D1*
X-28425Y-1414D1*
X-28487Y-1453D1*
X-28578D1*
X-28640Y-1414D1*
X-28701Y-1338D1*
X-28898Y-917D2*
Y-1453D1*
Y-1147D2*
X-28929Y-1032D1*
X-28990Y-955D1*
X-29052Y-917D1*
X-29144D1*
X-29433Y-649D2*
Y-1300D1*
X-29464Y-1414D1*
X-29525Y-1453D1*
X-29586D1*
X-29341Y-917D2*
X-29556D1*
X-29784D2*
Y-1453D1*
Y-1070D2*
X-29876Y-955D1*
X-29937Y-917D1*
X-30029D1*
X-30090Y-955D1*
X-30121Y-1070D1*
Y-1453D1*
Y-1070D2*
X-30213Y-955D1*
X-30274Y-917D1*
X-30365D1*
X-30427Y-955D1*
X-30458Y-1070D1*
Y-1453D1*
X-30656Y-1147D2*
X-31023D1*
Y-1070D1*
X-30992Y-993D1*
X-30962Y-955D1*
X-30900Y-917D1*
X-30808D1*
X-30748Y-955D1*
X-30686Y-1032D1*
X-30656Y-1147D1*
Y-1223D1*
X-30686Y-1338D1*
X-30748Y-1414D1*
X-30808Y-1453D1*
X-30900D1*
X-30962Y-1414D1*
X-31023Y-1338D1*
X-31220Y-917D2*
Y-1453D1*
Y-1070D2*
X-31312Y-955D1*
X-31374Y-917D1*
X-31465D1*
X-31527Y-955D1*
X-31557Y-1070D1*
Y-1453D1*
X-31847Y-649D2*
Y-1300D1*
X-31877Y-1414D1*
X-31939Y-1453D1*
X-32000D1*
X-31755Y-917D2*
X-31969D1*
X-14065Y15174D2*
X-14141Y15208D1*
X-14218Y15277D1*
X-14256Y15346D1*
Y15483D1*
X-14218Y15553D1*
X-14141Y15621D1*
X-14065Y15656D1*
X-13950Y15690D1*
X-13758D1*
X-13644Y15656D1*
X-13567Y15621D1*
X-13491Y15553D1*
X-13452Y15483D1*
Y15346D1*
X-13491Y15277D1*
X-13567Y15208D1*
X-13644Y15174D1*
X-14141Y14469D2*
X-14218Y14538D1*
X-14256Y14641D1*
Y14779D1*
X-14218Y14882D1*
X-14141Y14951D1*
X-14065D1*
X-13988Y14916D1*
X-13950Y14882D1*
X-13912Y14814D1*
X-13835Y14607D1*
X-13797Y14538D1*
X-13758Y14503D1*
X-13682Y14469D1*
X-13567D1*
X-13491Y14538D1*
X-13452Y14641D1*
Y14779D1*
X-13491Y14882D1*
X-13567Y14951D1*
X-14256Y13799D2*
Y14247D1*
X-13452D1*
Y13799D1*
X-13873Y14247D2*
Y13971D1*
X-14256Y13336D2*
X-13452D1*
X-14256Y13577D2*
Y13095D1*
X-12189Y15686D2*
X-12227D1*
X-12304Y15652D1*
X-12342Y15618D1*
X-12380Y15549D1*
Y15411D1*
X-12342Y15343D1*
X-12304Y15308D1*
X-12227Y15273D1*
X-12151D1*
X-12074Y15308D1*
X-11960Y15377D1*
X-11577Y15721D1*
Y15239D1*
X-12380Y14810D2*
X-12342Y14913D1*
X-12227Y14983D1*
X-12036Y15017D1*
X-11921D1*
X-11730Y14983D1*
X-11615Y14913D1*
X-11577Y14810D1*
Y14741D1*
X-11615Y14638D1*
X-11730Y14570D1*
X-11921Y14535D1*
X-12036D1*
X-12227Y14570D1*
X-12342Y14638D1*
X-12380Y14741D1*
Y14810D1*
X-12227Y14570D2*
X-11730Y14983D1*
X-12227Y14312D2*
X-12266Y14243D1*
X-12380Y14139D1*
X-11577D1*
X-12266Y13504D2*
X-12342Y13538D1*
X-12380Y13642D1*
Y13710D1*
X-12342Y13814D1*
X-12227Y13883D1*
X-12036Y13917D1*
X-11845D1*
X-11692Y13883D1*
X-11615Y13814D1*
X-11577Y13710D1*
Y13676D1*
X-11615Y13573D1*
X-11692Y13504D1*
X-11807Y13470D1*
X-11845D1*
X-11960Y13504D1*
X-12036Y13573D1*
X-12074Y13676D1*
Y13710D1*
X-12036Y13814D1*
X-11960Y13883D1*
X-11845Y13917D1*
X-44654Y-989D2*
X-44716Y-950D1*
X-44807Y-836D1*
Y-1638D1*
X-45036Y-1562D2*
X-45005Y-1600D1*
X-45036Y-1638D1*
X-45067Y-1600D1*
X-45036Y-1562D1*
X-45417Y-836D2*
X-45326Y-874D1*
X-45295Y-950D1*
Y-1027D1*
X-45326Y-1103D1*
X-45387Y-1142D1*
X-45509Y-1180D1*
X-45601Y-1218D1*
X-45662Y-1294D1*
X-45692Y-1371D1*
Y-1486D1*
X-45662Y-1562D1*
X-45631Y-1600D1*
X-45539Y-1638D1*
X-45417D1*
X-45326Y-1600D1*
X-45295Y-1562D1*
X-45264Y-1486D1*
Y-1371D1*
X-45295Y-1294D1*
X-45356Y-1218D1*
X-45448Y-1180D1*
X-45570Y-1142D1*
X-45631Y-1103D1*
X-45662Y-1027D1*
Y-950D1*
X-45631Y-874D1*
X-45539Y-836D1*
X-45417D1*
M02*
