M48
INCH
T01C0.0191
T02C0.0256
T03C0.0315
T04C0.032
T05C0.0335
T06C0.0354
T07C0.0433
T08C0.0492
T09C0.133
%
T01
X-025062Y+004188
X-024625Y+004562
X-025438Y+003687
X-026187Y+003188
X-026187Y+004250
X-025812Y+004750
X-026562Y+005375
X-025440Y+005768
X-025687Y+006500
X-026125Y+007063
X-026250Y+007875
X-026062Y+008375
X-025625Y+008937
X-025000Y+009250
X-025438Y+009688
X-024937Y+010250
X-025690Y+010939
X-027815Y+011126
X-028565Y+010501
X-029938Y+007188
X-030625Y+007188
X-031250Y+006688
X-031688Y+006375
X-032250Y+007000
X-031878Y+007313
X-032812Y+007000
X-033188Y+005625
X-033691Y+005541
X-033753Y+005000
X-032312Y+003938
X-033250Y+003250
X-034562Y+002250
X-036000Y+003188
X-037062Y+003563
X-037625Y+003750
X-038000Y+002813
X-037625Y+002000
X-037313Y+001625
X-038000Y+001125
X-037480Y+000394
X-035938Y+001063
X-034688Y+000250
X-033063Y-000375
X-032625Y-001625
X-035875Y-001750
X-039687Y+001500
X-040827Y+001496
X-040313Y+002812
X-039062Y+002812
X-038938Y+004000
X-039685Y+004016
X-040866Y+004055
X-042008Y+004055
X-043189Y+004055
X-044370Y+004055
X-044409Y+002323
X-042362Y+000354
X-042323Y+005551
X-042835Y+005551
X-043380Y+005501
X-044291Y+006496
X-041811Y+005551
X-041339Y+007008
X-040354Y+007323
X-039803Y+007441
X-037625Y+005687
X-037250Y+004875
X-036062Y+004875
X-036254Y+006438
X-035437Y+006625
X-035750Y+008125
X-035787Y+009291
X-034441Y+010189
X-032691Y+009376
X-034191Y+012939
X-036816Y+013939
X-035879Y+015314
X-036254Y+015938
X-035630Y+017756
X-034724Y+018268
X-033583Y+017520
X-031688Y+016437
X-030938Y+016437
X-030313Y+016437
X-028500Y+016813
X-027813Y+016812
X-027188Y+016812
X-025500Y+016500
X-024938Y+016500
X-024313Y+016500
X-026313Y+014813
X-028687Y+014813
X-029311Y+014752
X-032566Y+015314
X-038192Y+012501
X-038192Y+011001
X-040827Y+010551
X-041754Y+010626
X-042323Y+010551
X-043317Y+010626
X-043819Y+010512
X-044370Y+011811
X-043189Y+011811
X-042008Y+011811
X-040827Y+011850
X-040851Y+013406
X-040827Y+014173
X-040157Y+014370
X-040079Y+013307
X-038938Y+014250
X-042047Y+014173
X-042008Y+013465
X-043442Y+013814
X-044409Y+013425
X-044442Y+014189
X-045317Y+015814
X-044692Y+017064
X-044942Y+017627
X-045505Y+017377
X-046130Y+017064
X-043942Y+017439
X-043192Y+015814
X-046875Y+014794
X-045709Y+012677
X-029688Y+005563
X-029750Y+004938
X-029563Y+003375
X-030128Y+003188
X-028500Y+001562
X-028000Y+001125
X-027437Y+001125
X-027000Y+001562
X-026375Y+001062
X-025812Y+001188
X-025500Y+001625
X-026625Y-000937
X-027813Y+004688
X-028000Y+005625
X-023563Y+007562
X-022437Y+008938
X-021938Y+014688
X-021000Y+015500
X-020565Y-000625
X-020472Y-005197
X-015314Y-005670
X-013814Y-006251
X-012439Y-006376
X-013939Y-003250
X-013751Y-002250
X-012501Y-002750
X-009876Y+000625
T02
X-043671Y+018176G85X-043671Y+018255
X-045580Y+018176G85X-045580Y+018255
T03
X-027012Y-004804
X-027012Y-005592
X-027012Y-006379
X-029059Y-006379
X-029059Y-005592
X-029059Y-004804
X-031106Y-004804
X-031106Y-005592
X-031106Y-006379
X-033154Y-006379
X-033154Y-005592
X-033154Y-004804
X-035201Y-004804
X-035201Y-005592
X-035201Y-006379
X-037248Y-006379
X-037248Y-005592
X-037248Y-004804
X-039295Y-004804
X-039295Y-005592
X-039295Y-006379
X-041343Y-006379
X-041343Y-005592
X-041343Y-004804
X-043390Y-004804
X-043390Y-005592
X-043390Y-006379
X-045437Y-006379
X-045437Y-005592
X-045437Y-004804
T04
X-014564Y-003813
X-013564Y-003813
X-012564Y-003813
X-011564Y-003813
X-010564Y-003813
X-010564Y-000813
X-011564Y-000813
X-012564Y-000813
X-013564Y-000813
X-014564Y-000813
T05
X-043238Y+019268G85X-043238Y+019524
X-046013Y+019268G85X-046013Y+019524
T06
X-046817Y+000938
X-044942Y+009063
X-020940Y+017252
T07
X-017502Y-003750
X-017502Y-002750
X-018502Y-002750
X-018502Y-003750
X-018502Y-001750
X-018502Y-000750
X-017502Y-000750
X-017502Y-001750
X-017502Y+000250
X-017502Y+001250
X-017502Y+002250
X-018502Y+002250
X-018502Y+001250
X-018502Y+000250
X-018502Y+003250
X-018502Y+004250
X-018502Y+005250
X-017502Y+005250
X-017502Y+004250
X-017502Y+003250
X-017502Y+006250
X-017502Y+007250
X-017502Y+008250
X-018502Y+008250
X-018502Y+007250
X-018502Y+006250
X-018502Y+009250
X-017502Y+009250
X-017502Y+010250
X-017502Y+011250
X-018502Y+011250
X-018502Y+010250
X-018502Y+012250
X-018502Y+013250
X-017502Y+013250
X-017502Y+012250
X-017502Y+014250
X-017502Y+015250
X-018502Y+015250
X-018502Y+014250
X-016000Y+017250
X-015000Y+017250
X-014000Y+017250
X-013000Y+017250
X-013000Y+019375
X-014000Y+019375
X-015000Y+019375
X-016000Y+019375
X-037693Y+017929
X-038693Y+017929
X-038693Y+016929
X-037693Y+016929
X-039693Y+016929
X-039693Y+017929
X-040693Y+017929
X-040693Y+016929
X-041693Y+016929
X-041693Y+017929
X-047067Y+013376
X-047067Y+012376
X-046942Y+010439
X-046942Y+009439
X-046942Y+008439
X-046942Y+007439
X-046942Y+006439
X-046942Y+005439
X-015875Y-008375
X-014875Y-008375
X-013875Y-008375
X-012875Y-008375
T08
X-027012Y-003978
X-029059Y-003978
X-031106Y-003978
X-033154Y-003978
X-035201Y-003978
X-037248Y-003978
X-039295Y-003978
X-041343Y-003978
X-043390Y-003978
X-045437Y-003978
X-045437Y-007206
X-043390Y-007206
X-041343Y-007206
X-039295Y-007206
X-037248Y-007206
X-035201Y-007206
X-033154Y-007206
X-031106Y-007206
X-029059Y-007206
X-027012Y-007206
T09
X-011125Y+018500
X-011000Y-007250
X-047188Y-007077
X-047304Y+018189
T00
M30
