G04 DipTrace 2.4.0.2*
%INTop.gbr*%
%MOIN*%
%ADD11C,0.006*%
%ADD13C,0.01*%
%ADD14C,0.008*%
%ADD15C,0.02*%
%ADD16C,0.0197*%
%ADD18C,0.013*%
%ADD19C,0.015*%
%ADD21R,0.0394X0.0433*%
%ADD22R,0.0433X0.0394*%
%ADD24R,0.0394X0.0461*%
%ADD25R,0.048X0.048*%
%ADD26C,0.048*%
%ADD29R,0.0669X0.0669*%
%ADD30C,0.0669*%
%ADD32O,0.0413X0.0492*%
%ADD33R,0.0787X0.0748*%
%ADD34R,0.0157X0.0531*%
%ADD35R,0.0709X0.0748*%
%ADD36C,0.0591*%
%ADD37C,0.0492*%
%ADD38C,0.0787*%
%ADD40R,0.063X0.0118*%
%ADD41R,0.0118X0.063*%
%ADD43R,0.0374X0.0846*%
%ADD44R,0.128X0.0846*%
%ADD47R,0.0236X0.0787*%
%ADD48R,0.0787X0.2165*%
%ADD49C,0.04*%
%FSLAX44Y44*%
G04*
G70*
G90*
G75*
G01*
%LNTop*%
%LPD*%
X-34709Y5344D2*
D13*
X-35593D1*
X-36062Y4875D1*
X-34709Y5344D2*
D14*
X-34097D1*
X-33753Y5000D1*
X-28646Y5344D2*
X-29469D1*
X-29688Y5563D1*
D13*
X-31687D1*
X-32250Y5000D1*
X-33753D1*
X-29563Y3375D2*
X-28500Y2312D1*
Y1562D1*
X-25003Y7608D2*
X-24295D1*
X-24250Y7562D1*
X-23563D1*
X-18502Y-3750D2*
X-20190D1*
X-20937Y-3003D1*
Y6999D1*
X-21440Y7501D1*
X-23501D1*
X-23563Y7562D1*
X-33063Y-375D2*
Y2306D1*
X-33056Y2313D1*
X-36625Y437D2*
X-34875D1*
X-34688Y250D1*
X-36566Y-1063D2*
Y379D1*
X-36625Y437D1*
X-33250Y3250D2*
Y3125D1*
X-33063Y2937D1*
Y2320D1*
X-28646Y4557D2*
X-27943D1*
X-27813Y4688D1*
X-30300Y2313D2*
Y2797D1*
X-30812Y3310D1*
Y4063D1*
X-30375Y4500D1*
X-30318Y4557D1*
X-28646D1*
X-33250Y3250D2*
Y3625D1*
X-32375Y4500D1*
X-30375D1*
X-33784Y14502D2*
Y14768D1*
X-34173Y15157D1*
Y16929D1*
X-28465Y18228D2*
X-27835D1*
X-27205D1*
X-21000Y15500D2*
Y15438D1*
X-20799Y15236D1*
X-18515D1*
X-18502Y15250D1*
X-40693Y17929D2*
Y18008D1*
X-40197Y18504D1*
X-36378D1*
X-35630Y17756D1*
X-34191Y12939D2*
Y14094D1*
X-33784Y14502D1*
X-16000Y19375D2*
X-15000D1*
X-14000D2*
X-15000D1*
X-14000D2*
X-13000D1*
X-14000D2*
D3*
X-36441Y9626D2*
X-36122D1*
X-35787Y9291D1*
X-34724Y18268D2*
Y17160D1*
X-34504Y16939D1*
X-34183D1*
X-34173Y16929D1*
X-33446D1*
X-32138Y18237D1*
X-31635D1*
X-31644Y18228D1*
X-28465D1*
X-27205D2*
X-23916D1*
X-21187Y15500D1*
X-21000D1*
X-32859Y8376D2*
Y9208D1*
X-32691Y9376D1*
X-35787Y9291D2*
Y8162D1*
X-35750Y8125D1*
X-35437Y6625D2*
Y6375D1*
X-35188Y6125D1*
X-34716D1*
X-34709Y6132D1*
X-30103Y8376D2*
Y7710D1*
X-30625Y7188D1*
X-31005Y18237D2*
X-31635D1*
X-31005D2*
X-30375D1*
X-28473D1*
X-28465Y18228D1*
X-27205D2*
X-25581D1*
X-25572Y18237D1*
X-24942D1*
X-24313D1*
X-30103Y8376D2*
Y8964D1*
X-28565Y10501D1*
X-43214Y2828D2*
D11*
Y2692D1*
X-42657Y3248D1*
Y4350D1*
X-42205Y4803D1*
X-41457D1*
X-41004Y5256D1*
X-39547D1*
X-39116Y5687D1*
X-37625D1*
X-39803Y7441D2*
Y6209D1*
X-39831Y6181D1*
X-44942Y17627D2*
X-44909D1*
X-44647Y17888D1*
Y18320D1*
X-44625Y18341D1*
X-40354Y7323D2*
Y7165D1*
X-40394Y7126D1*
Y6244D1*
X-40331Y6181D1*
X-44692Y17064D2*
Y17383D1*
X-44402Y17673D1*
Y18309D1*
X-44369Y18341D1*
X-21531Y5750D2*
D13*
Y4252D1*
X-21496D1*
Y3071D1*
Y1890D1*
Y709D1*
Y-472D1*
Y-1654D1*
Y-2835D1*
Y-4016D1*
Y-5197D1*
Y-6378D1*
Y-7559D1*
Y-5197D2*
X-20472D1*
X-36654Y15315D2*
X-35880D1*
X-35879Y15314D1*
Y15499D1*
X-35551Y15827D1*
Y16575D1*
X-36890Y17913D1*
X-37677D1*
X-37693Y17929D1*
X-41693D2*
Y17913D1*
X-41220Y17441D1*
X-38181D1*
X-37693Y17929D1*
X-32878Y14502D2*
Y14720D1*
X-32402Y15197D1*
X-24447D1*
X-24000Y14750D1*
X-21938D1*
Y14688D1*
X-45317Y15814D2*
X-43192D1*
X-34173Y17598D2*
X-33661D1*
X-33583Y17520D1*
X-17502Y-3750D2*
Y-4313D1*
X-18377Y-5188D1*
X-20464D1*
X-20472Y-5197D1*
X-15875Y-8375D2*
X-14875D1*
X-13875D1*
X-12875D1*
X-16250D2*
X-15875D1*
X-17502Y-3750D2*
Y-6192D1*
X-15875Y-7819D1*
Y-8375D1*
X-32566Y15314D2*
Y15197D1*
X-32402D1*
X-25003Y6938D2*
X-21938D1*
X-21500Y6500D1*
Y5781D1*
X-21531Y5750D1*
X-38192Y11001D2*
X-37147D1*
X-36441Y10295D1*
X-39552Y15269D2*
X-36700D1*
X-36654Y15315D1*
X-39552Y15269D2*
X-39394D1*
X-38938Y14813D1*
Y14250D1*
X-22437Y8938D2*
X-24500D1*
X-25562Y7875D1*
Y7498D1*
X-25003Y6938D1*
X-46924Y16252D2*
Y15377D1*
Y14843D1*
X-46875Y14794D1*
X-45198D1*
X-44616Y15377D1*
X-44380D1*
X-42101D1*
X-42032Y15308D1*
X-40851D1*
X-39592D1*
X-39552Y15269D1*
X-37480Y394D2*
D15*
X-38443D1*
X-38489Y347D1*
X-39670D2*
X-40851D1*
X-42277D1*
X-42283Y354D1*
X-42362D1*
X-36625Y1107D2*
D11*
X-35982D1*
X-35938Y1063D1*
X-29906Y8376D2*
Y7219D1*
X-29938Y7188D1*
X-35875Y-1750D2*
Y-1085D1*
X-35897Y-1063D1*
X-32859Y2313D2*
Y-16D1*
X-32438Y-437D1*
Y-1438D1*
X-32625Y-1625D1*
X-39670Y347D2*
D15*
X-38489D1*
X-36625Y1107D2*
X-36956D1*
X-37313Y750D1*
Y562D1*
X-37480Y394D1*
X-36254Y6438D2*
D11*
Y6934D1*
X-35500Y7687D1*
X-34728D1*
X-34709Y7707D1*
Y5935D2*
Y5751D1*
X-35941D1*
X-36066D1*
X-36504Y6188D1*
X-36254Y6438D1*
X-35929Y5738D2*
X-35941Y5751D1*
X-39331Y6181D2*
X-36511D1*
X-35125Y1437D2*
X-35563D1*
X-35938Y1063D1*
X-34709Y5935D2*
X-33497D1*
X-33188Y5625D1*
X-32662Y8376D2*
Y7838D1*
X-32812Y7687D1*
X-34690D1*
X-34709Y7707D1*
X-28646Y4754D2*
X-29566D1*
X-29750Y4938D1*
X-30128Y3188D2*
Y2338D1*
X-30103Y2313D1*
X-32859D2*
Y3391D1*
X-32312Y3938D1*
X-28646Y5738D2*
X-28113D1*
X-28000Y5625D1*
X-32812Y7687D2*
X-31687D1*
X-30750Y6750D1*
X-30375D1*
X-29938Y7188D1*
X-29906Y8376D2*
Y8910D1*
X-28728Y10089D1*
X-28478D1*
X-28003Y10564D1*
Y10939D1*
X-27815Y11126D1*
X-34441Y10189D2*
Y8746D1*
X-35500Y7687D1*
X-45437Y-6379D2*
X-43390D1*
X-41343D1*
X-39295D1*
X-37248D1*
X-35201D1*
X-33154D1*
X-31106D1*
X-29059D1*
X-27012D2*
X-29059D1*
X-37464Y7460D2*
X-37276D1*
X-36254Y6438D1*
X-45137Y18341D2*
Y17932D1*
X-45505Y17564D1*
Y17377D1*
X-34709Y7510D2*
X-32075D1*
X-31878Y7313D1*
X-32250Y7000D2*
X-32563Y7313D1*
X-34709D1*
X-32812Y7000D2*
X-33812D1*
X-33937Y7125D1*
X-34700D1*
X-34709Y7116D1*
X-31250Y6688D2*
X-33875D1*
X-34125Y6938D1*
X-34728D1*
X-34709Y6919D1*
Y6722D2*
X-34160D1*
X-33937Y6500D1*
X-31813D1*
X-31688Y6375D1*
X-34709Y6525D2*
Y6500D1*
X-34187D1*
X-34000Y6313D1*
X-33375D1*
X-33125Y6062D1*
X-30125D1*
X-29437Y6750D1*
Y7500D1*
X-28999Y7938D1*
X-28691D1*
X-25690Y10939D1*
X-34709Y3770D2*
X-36707D1*
X-36938Y4000D1*
X-37375D1*
X-37625Y3750D1*
Y2000D2*
X-41563D1*
X-44375Y-812D1*
Y-4530D1*
X-45437Y-5592D1*
X-34040Y2313D2*
Y401D1*
X-35129Y-688D1*
Y-1938D1*
X-36191Y-3000D1*
X-39816D1*
X-40129Y-3313D1*
X-41879D1*
X-42379Y-3813D1*
Y-4582D1*
X-43390Y-5592D1*
X-33843Y2313D2*
Y285D1*
X-34941Y-813D1*
Y-2000D1*
X-36128Y-3188D1*
X-39629D1*
X-40317Y-3875D1*
Y-4566D1*
X-41343Y-5592D1*
X-33646Y2313D2*
Y170D1*
X-34754Y-938D1*
Y-2000D1*
X-36128Y-3375D1*
X-37691D1*
X-38379Y-4063D1*
Y-4676D1*
X-39295Y-5592D1*
X-33449Y2313D2*
Y117D1*
X-34566Y-1000D1*
Y-2250D1*
X-36191Y-3875D1*
Y-4535D1*
X-37248Y-5592D1*
X-33253Y2313D2*
Y63D1*
X-34129Y-813D1*
Y-4520D1*
X-35201Y-5592D1*
X-32662Y2313D2*
Y-29D1*
X-32191Y-500D1*
Y-4629D1*
X-33154Y-5592D1*
X-32465Y2313D2*
Y24D1*
X-30128Y-2313D1*
Y-4614D1*
X-31106Y-5592D1*
X-32268Y2313D2*
Y140D1*
X-28315Y-3813D1*
Y-4848D1*
X-29059Y-5592D1*
X-32071Y2313D2*
Y256D1*
X-27940Y-3875D1*
Y-4663D1*
X-27012Y-5592D1*
X-24134Y-7559D2*
X-24569D1*
X-26065Y-6063D1*
Y-3875D1*
X-27003Y-2938D1*
X-28565D1*
X-31878Y375D1*
Y2309D1*
X-31875Y2313D1*
X-24134Y-6378D2*
X-24438D1*
X-25815Y-5001D1*
Y-3813D1*
X-26878Y-2750D1*
X-28440D1*
X-31691Y500D1*
Y2300D1*
X-31678Y2313D1*
X-31481D2*
Y603D1*
X-28378Y-2500D1*
X-26878D1*
X-24190Y-5188D1*
X-24125D1*
X-24134Y-5197D1*
X-31284Y2313D2*
Y718D1*
X-28253Y-2313D1*
X-26815D1*
X-25065Y-4063D1*
X-24181D1*
X-24134Y-4016D1*
X-31087Y2313D2*
Y772D1*
X-28253Y-2063D1*
X-26690D1*
X-25940Y-2813D1*
X-24156D1*
X-24134Y-2835D1*
X-30890Y2313D2*
Y825D1*
X-28315Y-1750D1*
X-24230D1*
X-24134Y-1654D1*
X-30694Y2313D2*
Y878D1*
X-29316Y-500D1*
X-24161D1*
X-24134Y-472D1*
X-30497Y2313D2*
Y1059D1*
X-29125Y-313D1*
X-25155D1*
X-24134Y709D1*
X-29906Y2313D2*
Y781D1*
X-29000Y-125D1*
X-25250D1*
X-24503Y622D1*
Y1521D1*
X-24134Y1890D1*
X-29709Y2313D2*
Y897D1*
X-28937Y125D1*
X-25250D1*
X-24690Y685D1*
Y1622D1*
X-24500Y1812D1*
Y2705D1*
X-24134Y3071D1*
X-29512Y2313D2*
Y1075D1*
X-28813Y375D1*
X-25313D1*
X-24878Y810D1*
Y1688D1*
X-24688Y1878D1*
Y3187D1*
X-24312Y3563D1*
Y4073D1*
X-24134Y4252D1*
X-25440Y5768D2*
X-24188D1*
X-24169Y5750D1*
X-29316Y2313D2*
Y1378D1*
X-28563Y625D1*
X-25562D1*
X-25062Y1125D1*
Y4188D1*
X-28646Y2982D2*
X-28232D1*
X-28000Y2750D1*
Y1125D1*
X-9876Y625D2*
X-9814D1*
Y-1438D1*
X-11626Y-3250D1*
X-13939D1*
X-27437Y1125D2*
X-27375D1*
Y2438D1*
X-28125Y3188D1*
X-28638D1*
X-28646Y3179D1*
Y3376D2*
X-28063D1*
X-26750Y2063D1*
Y1812D1*
X-27000Y1562D1*
X-28646Y3573D2*
X-27948D1*
X-26500Y2125D1*
Y1187D1*
X-26375Y1062D1*
X-28646Y3770D2*
X-27832D1*
X-26188Y2125D1*
Y1563D1*
X-25812Y1188D1*
X-28646Y3966D2*
X-27529D1*
X-25938Y2375D1*
Y2063D1*
X-25500Y1625D1*
X-28646Y4163D2*
X-27163D1*
X-26187Y3188D1*
X-28646Y4360D2*
X-26235D1*
X-26125Y4250D1*
X-26187D1*
X-12439Y-6376D2*
X-12626Y-6563D1*
X-15377D1*
X-15939Y-6001D1*
Y-375D1*
X-16064Y-250D1*
X-18002D1*
X-18502Y250D1*
X-28646Y4951D2*
Y4938D1*
X-28063D1*
X-27938Y5063D1*
X-26250D1*
X-25937Y4750D1*
X-25812D1*
X-17502Y1250D2*
X-16376D1*
X-15689Y563D1*
Y-5938D1*
X-15314Y-6313D1*
X-13876D1*
X-13814Y-6251D1*
X-28646Y5148D2*
X-28040D1*
X-27813Y5375D1*
X-26562D1*
X-20565Y-625D2*
Y1435D1*
X-20245Y1755D1*
X-15926D1*
X-15314Y1143D1*
Y-5670D1*
X-28646Y5935D2*
X-26435D1*
X-25438Y4938D1*
Y3687D1*
X-28646Y6132D2*
X-26319D1*
X-25313Y5125D1*
X-24875D1*
X-24625Y4875D1*
Y4562D1*
X-28646Y6329D2*
X-27546D1*
X-27313Y6563D1*
X-25875D1*
X-25750Y6438D1*
X-25625D1*
X-25687Y6500D1*
X-28646Y6525D2*
X-27787D1*
X-27250Y7063D1*
X-26125D1*
X-28646Y6722D2*
X-27840D1*
X-26687Y7875D1*
X-26250D1*
X-28646Y6919D2*
X-27893D1*
X-26438Y8375D1*
X-26062D1*
X-28646Y7116D2*
X-28009D1*
X-26187Y8937D1*
X-25625D1*
X-28646Y7313D2*
X-28062D1*
X-26125Y9250D1*
X-25000D1*
X-28646Y7510D2*
X-28178D1*
X-26000Y9688D1*
X-25438D1*
X-28646Y7707D2*
X-28293D1*
X-25750Y10250D1*
X-24937D1*
X-29316Y8376D2*
Y8813D1*
X-28801Y9328D1*
X-28676D1*
X-26754Y11250D1*
X-23937D1*
X-20937Y8250D1*
Y8186D1*
X-19252Y6501D1*
X-18753D1*
X-18502Y6250D1*
X-29512Y8376D2*
Y8804D1*
X-28587Y9729D1*
X-28462D1*
X-26692Y11500D1*
X-23876D1*
X-19127Y6751D1*
X-18001D1*
X-17502Y7250D1*
X-29709Y8376D2*
X-29688D1*
Y8879D1*
X-28652Y9914D1*
X-28465D1*
X-26692Y11688D1*
X-23751D1*
X-19313Y7250D1*
X-18502D1*
X-30300Y8376D2*
Y9267D1*
X-27629Y11938D1*
X-23689D1*
X-19502Y7751D1*
X-18001D1*
X-17502Y8250D1*
X-30497Y8376D2*
Y9316D1*
X-27687Y12125D1*
X-22689D1*
X-18813Y8250D1*
X-18502D1*
X-30694Y8376D2*
Y9369D1*
X-27750Y12313D1*
X-22439D1*
X-18877Y8751D1*
X-18001D1*
X-17502Y9250D1*
X-30890Y8376D2*
Y9422D1*
X-27813Y12500D1*
X-22376D1*
X-19126Y9250D1*
X-18502D1*
X-31087Y8376D2*
Y9475D1*
X-27875Y12688D1*
X-22126D1*
X-19190Y9751D1*
X-18000D1*
X-17502Y10250D1*
X-31284Y8376D2*
Y9528D1*
X-27937Y12875D1*
X-22063D1*
X-19438Y10250D1*
X-18502D1*
X-31481Y8376D2*
Y9582D1*
X-28000Y13062D1*
X-21938D1*
X-19627Y10751D1*
X-18000D1*
X-17502Y11250D1*
X-31678Y8376D2*
Y9635D1*
X-28063Y13250D1*
X-21937D1*
X-19937Y11250D1*
X-18502D1*
X-31875Y8376D2*
Y8938D1*
X-31812Y9000D1*
Y9750D1*
X-28125Y13437D1*
X-21812D1*
X-20126Y11751D1*
X-18000D1*
X-17502Y12250D1*
X-32071Y8376D2*
Y8991D1*
X-32000Y9062D1*
Y9812D1*
X-28187Y13625D1*
X-21625D1*
X-20250Y12250D1*
X-18502D1*
X-32268Y8376D2*
Y9107D1*
X-32188Y9187D1*
Y9875D1*
X-28250Y13812D1*
X-21500D1*
X-20439Y12751D1*
X-18000D1*
X-17502Y13250D1*
X-32465Y8376D2*
Y9097D1*
X-32375Y9188D1*
Y9937D1*
X-28312Y14000D1*
X-21250D1*
X-20562Y13312D1*
X-18565D1*
X-18502Y13250D1*
X-33056Y8376D2*
Y9511D1*
X-28379Y14188D1*
X-20500D1*
X-20064Y13751D1*
X-18000D1*
X-17502Y14250D1*
X-33253Y8376D2*
Y9560D1*
X-28437Y14375D1*
X-18627D1*
X-18502Y14250D1*
X-26313Y14813D2*
X-26500D1*
X-26750Y14563D1*
X-28437D1*
X-33438Y9562D1*
Y8388D1*
X-33449Y8376D1*
X-33646D2*
Y9921D1*
X-28755Y14813D1*
X-28687D1*
X-33843Y8376D2*
Y10219D1*
X-29311Y14752D1*
X-40313Y2812D2*
X-40836D1*
X-40851Y2828D1*
X-40827Y1496D2*
Y1041D1*
X-40851Y1017D1*
Y2828D2*
Y2812D1*
X-40375D1*
X-40197Y2991D1*
Y4606D1*
X-39980Y4823D1*
X-37302D1*
X-37250Y4875D1*
X-42008Y13465D2*
Y12970D1*
X-42032Y12946D1*
X-42047Y14173D2*
Y14624D1*
X-42032Y14639D1*
X-23500Y5750D2*
X-22201D1*
X-23465Y4252D2*
X-22165D1*
X-23465Y3071D2*
X-22165D1*
X-34709Y5541D2*
X-33691D1*
X-23465Y1890D2*
X-22165D1*
X-23465Y709D2*
X-22165D1*
X-23465Y-472D2*
X-22165D1*
X-23465Y-1654D2*
X-22165D1*
X-23465Y-2835D2*
X-22165D1*
X-23465Y-4016D2*
X-22165D1*
X-23465Y-7559D2*
X-22165D1*
X-23465Y-6378D2*
X-22165D1*
X-23465Y-5197D2*
X-22165D1*
X-46192Y-938D2*
X-46130D1*
X-45380Y-188D1*
Y6156D1*
X-43661Y7874D1*
X-41457D1*
X-39803Y9528D1*
Y9854D1*
X-39831Y9882D1*
X-46192Y2803D2*
Y5816D1*
X-43819Y8189D1*
X-41535D1*
X-40315Y9409D1*
Y9866D1*
X-40331Y9882D1*
X-40827Y10551D2*
X-40831Y9882D1*
X-40079Y13307D2*
X-39913D1*
X-39552Y12946D1*
X-40157Y14370D2*
X-39781D1*
X-39552Y14599D1*
X-46942Y10439D2*
Y10626D1*
X-46505Y11064D1*
X-41339D1*
X-40827Y10551D1*
X-41754Y10626D2*
Y9958D1*
X-41831Y9882D1*
X-40827Y11850D2*
Y12252D1*
X-40851Y12277D1*
X-43317Y10626D2*
Y9896D1*
X-43331Y9882D1*
X-43189Y11811D2*
Y12252D1*
X-43214Y12277D1*
X-43831Y9882D2*
Y10500D1*
X-43819Y10512D1*
X-44395Y12277D2*
Y11836D1*
X-44370Y11811D1*
X-41331Y6181D2*
Y7000D1*
X-41339Y7008D1*
X-38938Y4000D2*
Y3945D1*
X-38489Y3497D1*
X-41831Y6181D2*
Y5571D1*
X-41811Y5551D1*
X-39685Y4016D2*
Y3512D1*
X-39670Y3497D1*
X-42331Y6181D2*
Y5559D1*
X-42323Y5551D1*
X-40866Y4055D2*
Y3512D1*
X-40851Y3497D1*
X-42831Y6181D2*
X-42835Y5551D1*
X-42008Y4055D2*
Y3522D1*
X-42032Y3497D1*
X-43331Y6181D2*
Y5549D1*
X-43380Y5501D1*
X-43189Y4055D2*
Y3522D1*
X-43214Y3497D1*
X-44291Y6496D2*
X-44146D1*
X-43831Y6181D1*
X-44370Y4055D2*
Y3522D1*
X-44395Y3497D1*
X-42323Y10551D2*
Y9890D1*
X-42331Y9882D1*
X-42008Y11811D2*
Y12252D1*
X-42032Y12277D1*
X-44409Y13425D2*
Y12961D1*
X-44395Y12946D1*
X-44442Y14189D2*
Y14707D1*
X-44380D1*
X-30313Y16437D2*
Y15937D1*
X-30375Y15875D1*
X-30938Y16437D2*
Y15942D1*
X-31005Y15875D1*
X-31688Y16437D2*
Y15928D1*
X-31635Y15875D1*
X-24313D2*
Y16500D1*
X-24942Y15875D2*
Y16495D1*
X-24938Y16500D1*
X-25500D2*
Y15947D1*
X-25572Y15875D1*
X-44114Y18341D2*
D13*
Y17611D1*
D11*
X-43942Y17439D1*
X-43442Y13814D2*
D13*
X-45317D1*
X-46692Y12439D1*
D11*
X-47005D1*
X-47067Y12376D1*
X-40831Y6181D2*
Y7549D1*
X-40379Y8001D1*
X-38442D1*
X-38254Y7813D1*
Y7582D1*
X-37464Y6791D1*
X-27813Y16812D2*
Y15866D1*
X-27835D1*
X-27188Y16812D2*
Y15883D1*
X-27205Y15866D1*
X-28500Y16813D2*
Y15866D1*
X-28465D1*
X-14564Y-813D2*
Y-1438D1*
X-13751Y-2250D1*
X-12564Y-813D2*
Y-2688D1*
X-12501Y-2750D1*
X-44409Y2323D2*
Y2813D1*
X-44395Y2828D1*
X-38000Y2813D2*
X-38474D1*
X-38489Y2828D1*
X-35610D1*
X-35250Y3188D1*
X-34718D1*
X-34709Y3179D1*
X-38000Y1125D2*
X-38381D1*
X-38489Y1017D1*
X-40851Y14639D2*
X-40827D1*
Y14173D1*
X-40851Y13406D2*
Y12946D1*
X-43214D2*
Y13322D1*
X-42717Y13819D1*
X-41265D1*
X-40851Y13406D1*
X-38192Y12501D2*
X-39192Y11501D1*
X-39879D1*
X-40192Y11814D1*
Y12278D1*
X-40859Y12946D1*
X-40851D1*
X-34709Y3376D2*
X-35812D1*
X-36000Y3188D1*
X-36816Y13939D2*
X-36879D1*
X-38192Y12626D1*
Y12501D1*
X-35125Y2107D2*
Y2566D1*
X-34709Y2982D1*
X-40693Y16929D2*
Y16693D1*
X-39938Y15938D1*
X-36254D1*
X-34562Y2250D2*
X-34982D1*
X-35125Y2107D1*
X-42032Y2828D2*
Y2720D1*
X-41625Y2312D1*
X-34919D1*
X-35125Y2107D1*
X-39062Y2812D2*
X-39655D1*
X-39670Y2828D1*
X-39687Y1500D2*
Y1034D1*
X-39670Y1017D1*
X-37062Y3563D2*
X-34720D1*
X-34709Y3573D1*
X-39687Y1500D2*
Y1625D1*
X-37313D1*
X-34689Y14502D2*
D16*
Y14627D1*
X-36556D1*
X-36654Y14724D1*
Y14646D1*
X-46130Y17064D2*
X-45799D1*
X-45297Y16562D1*
X-42823D1*
X-42441Y16944D1*
Y18440D1*
X-41944Y18937D1*
X-35866D1*
X-35587Y18658D1*
X-35157Y18228D1*
Y15394D1*
X-34689Y14926D1*
Y14502D1*
X-46255Y15377D2*
D11*
Y16252D1*
X-13000Y17250D2*
X-14000D1*
X-15000D1*
X-16000D1*
X-35587Y18658D2*
D15*
X-35119Y19125D1*
X-21063D1*
X-19188Y17250D1*
X-16000D1*
X-39552Y12277D2*
D11*
X-39166D1*
X-36879Y14564D1*
X-36735D1*
X-36654Y14646D1*
X-46130Y17064D2*
X-46192D1*
Y16189D1*
X-46255Y16252D1*
X-34689Y14502D2*
X-35379D1*
X-36129Y13751D1*
Y13439D1*
X-37754Y11814D1*
X-38254D1*
X-39129Y10939D1*
X-39192D1*
X-39379Y10751D1*
Y9930D1*
X-39331Y9882D1*
D49*
X-36062Y4875D3*
X-33753Y5000D3*
X-29688Y5563D3*
X-29563Y3375D3*
X-28500Y1562D3*
X-33063Y-375D3*
X-34688Y250D3*
X-33250Y3250D3*
X-27813Y4688D3*
X-33250Y3250D3*
X-32691Y9376D3*
X-35750Y8125D3*
X-35437Y6625D3*
X-30625Y7188D3*
X-32691Y9376D3*
X-28565Y10501D3*
X-32691Y9376D3*
X-32566Y15314D3*
X-38938Y14250D3*
X-22437Y8938D3*
X-29938Y7188D3*
X-35875Y-1750D3*
X-32625Y-1625D3*
X-33188Y5625D3*
X-29750Y4938D3*
X-30128Y3188D3*
X-32312Y3938D3*
D3*
X-28000Y5625D3*
D3*
X-29750Y4938D3*
X-27815Y11126D3*
X-34441Y10189D3*
X-45505Y17377D3*
X-31878Y7313D3*
X-32250Y7000D3*
X-32812D3*
X-31250Y6688D3*
X-31688Y6375D3*
X-25690Y10939D3*
X-37625Y3750D3*
Y2000D3*
X-25440Y5768D3*
X-28000Y1125D3*
X-9876Y625D3*
X-13939Y-3250D3*
X-27437Y1125D3*
X-27000Y1562D3*
X-26375Y1062D3*
X-25812Y1188D3*
X-25500Y1625D3*
X-12439Y-6376D3*
X-13814Y-6251D3*
X-26562Y5375D3*
X-20565Y-625D3*
X-15314Y-5670D3*
X-26313Y14813D3*
X-28687D3*
X-29311Y14752D3*
X-33691Y5541D3*
X-30313Y16437D3*
X-30938D3*
X-31688D3*
X-24313Y16500D3*
X-24938D3*
X-25500D3*
X-43942Y17439D3*
X-43442Y13814D3*
X-13751Y-2250D3*
X-12501Y-2750D3*
X-38000Y1125D3*
X-40827Y14173D3*
X-40851Y13406D3*
D3*
X-36000Y3188D3*
X-36816Y13939D3*
X-36254Y15938D3*
X-34562Y2250D3*
X-37062Y3563D3*
X-37313Y1625D3*
X-25062Y4188D3*
X-25687Y6500D3*
X-24625Y4562D3*
X-25438Y3687D3*
X-25812Y4750D3*
X-40313Y2812D3*
X-44409Y2323D3*
X-40354Y7323D3*
X-39803Y7441D3*
X-42047Y14173D3*
X-42008Y13465D3*
X-39062Y2812D3*
X-38000Y2813D3*
X-26187Y4250D3*
X-40827Y1496D3*
X-39687Y1500D3*
X-43189Y11811D3*
X-26187Y3188D3*
X-44442Y14189D3*
X-26125Y7063D3*
X-26250Y7875D3*
X-26062Y8375D3*
X-25625Y8937D3*
X-25000Y9250D3*
X-25438Y9688D3*
X-46130Y17064D3*
X-43819Y10512D3*
X-24937Y10250D3*
X-37250Y4875D3*
X-37625Y5687D3*
X-21000Y15500D3*
X-20472Y-5197D3*
X-44370Y11811D3*
X-43317Y10626D3*
X-42008Y11811D3*
X-42323Y10551D3*
X-41754Y10626D3*
X-40827Y11850D3*
Y10551D3*
X-44692Y17064D3*
X-44291Y6496D3*
X-40079Y13307D3*
X-44409Y13425D3*
X-40157Y14370D3*
X-44942Y17627D3*
X-44370Y4055D3*
X-27188Y16812D3*
X-43380Y5501D3*
X-43189Y4055D3*
X-42835Y5551D3*
X-42008Y4055D3*
X-42323Y5551D3*
X-40866Y4055D3*
X-41811Y5551D3*
X-39685Y4016D3*
X-41339Y7008D3*
X-38938Y4000D3*
X-38192Y12501D3*
X-27813Y16812D3*
X-28500Y16813D3*
X-37480Y394D3*
X-42362Y354D3*
X-36254Y6438D3*
X-46875Y14794D3*
X-35630Y17756D3*
X-34724Y18268D3*
X-35879Y15314D3*
X-34191Y12939D3*
X-35787Y9291D3*
X-21938Y14688D3*
X-23563Y7562D3*
X-38192Y11001D3*
X-43192Y15814D3*
X-45317D3*
X-33583Y17520D3*
X-26625Y-937D3*
X-45709Y12677D3*
X-35938Y1063D3*
X-42588Y19466D2*
D19*
X-18332D1*
X-46828Y19317D2*
X-46663D1*
X-42588D2*
X-35425D1*
X-20758D2*
X-18231D1*
X-46844Y19169D2*
X-46663D1*
X-42588D2*
X-42208D1*
X-20608D2*
X-18131D1*
X-42588Y19020D2*
X-42356D1*
X-20461D2*
X-18030D1*
X-42588Y18871D2*
X-42506D1*
X-20311D2*
X-17929D1*
X-42844Y18722D2*
X-42653D1*
X-35025D2*
X-21156D1*
X-20163D2*
X-17831D1*
X-42844Y18574D2*
X-42770D1*
X-41812D2*
X-40553D1*
X-34392D2*
X-32088D1*
X-29922D2*
X-28917D1*
X-26751D2*
X-26024D1*
X-23859D2*
X-21009D1*
X-20015D2*
X-17730D1*
X-42844Y18425D2*
X-42794D1*
X-41386D2*
X-41001D1*
X-34298D2*
X-32376D1*
X-23686D2*
X-20859D1*
X-19865D2*
X-17629D1*
X-46216Y18276D2*
X-46042D1*
X-43209D2*
X-42796D1*
X-41219D2*
X-41167D1*
X-34268D2*
X-32526D1*
X-23538D2*
X-20711D1*
X-19718D2*
X-17528D1*
X-46214Y18128D2*
X-46040D1*
X-43212D2*
X-42796D1*
X-37139D2*
X-36428D1*
X-34291D2*
X-32674D1*
X-23388D2*
X-20563D1*
X-19568D2*
X-17427D1*
X-46235Y17979D2*
X-45998D1*
X-43254D2*
X-42796D1*
X-37104D2*
X-36278D1*
X-33719D2*
X-32821D1*
X-23240D2*
X-20413D1*
X-19420D2*
X-17327D1*
X-46275Y17830D2*
X-45881D1*
X-43371D2*
X-42796D1*
X-37111D2*
X-36131D1*
X-33255D2*
X-32971D1*
X-29922D2*
X-28917D1*
X-26751D2*
X-26024D1*
X-23090D2*
X-20266D1*
X-19270D2*
X-17261D1*
X-46340Y17682D2*
X-45395D1*
X-43558D2*
X-42796D1*
X-37158D2*
X-36079D1*
X-32266D2*
X-23795D1*
X-22943D2*
X-21276D1*
X-20604D2*
X-20116D1*
X-19122D2*
X-17261D1*
X-46437Y17533D2*
X-45388D1*
X-43495D2*
X-42796D1*
X-40261D2*
X-40124D1*
X-39260D2*
X-39126D1*
X-38262D2*
X-38125D1*
X-37261D2*
X-36025D1*
X-32416D2*
X-23648D1*
X-22795D2*
X-21412D1*
X-20468D2*
X-19968D1*
X-48187Y17384D2*
X-48035D1*
X-46575D2*
X-46448D1*
X-45670D2*
X-45325D1*
X-43490D2*
X-42796D1*
X-40326D2*
X-40061D1*
X-39326D2*
X-39060D1*
X-38325D2*
X-38060D1*
X-37326D2*
X-35882D1*
X-32564D2*
X-23498D1*
X-22645D2*
X-21475D1*
X-20405D2*
X-19818D1*
X-48187Y17236D2*
X-47819D1*
X-46790D2*
X-46551D1*
X-45476D2*
X-45161D1*
X-43535D2*
X-42796D1*
X-37190D2*
X-35512D1*
X-32714D2*
X-28640D1*
X-28362D2*
X-27951D1*
X-27672D2*
X-27327D1*
X-27049D2*
X-23350D1*
X-22497D2*
X-21492D1*
X-20388D2*
X-19670D1*
X-48187Y17087D2*
X-46586D1*
X-45328D2*
X-45147D1*
X-43662D2*
X-42796D1*
X-37125D2*
X-35512D1*
X-32048D2*
X-28860D1*
X-26826D2*
X-23200D1*
X-22347D2*
X-21466D1*
X-20414D2*
X-19523D1*
X-48187Y16938D2*
X-46567D1*
X-45178D2*
X-45132D1*
X-44255D2*
X-42942D1*
X-37101D2*
X-35512D1*
X-31952D2*
X-28938D1*
X-26749D2*
X-25563D1*
X-25436D2*
X-25000D1*
X-24875D2*
X-24377D1*
X-24248D2*
X-23052D1*
X-22200D2*
X-21388D1*
X-20489D2*
X-19340D1*
X-48187Y16790D2*
X-46490D1*
X-37120D2*
X-35512D1*
X-31406D2*
X-31218D1*
X-30656D2*
X-30592D1*
X-30033D2*
X-28956D1*
X-26733D2*
X-25849D1*
X-23965D2*
X-22902D1*
X-22050D2*
X-21227D1*
X-20653D2*
X-17252D1*
X-48187Y16641D2*
X-47397D1*
X-37179D2*
X-35512D1*
X-29906D2*
X-28921D1*
X-26765D2*
X-25933D1*
X-23880D2*
X-22755D1*
X-21902D2*
X-17249D1*
X-48187Y16492D2*
X-47397D1*
X-45783D2*
X-45720D1*
X-42398D2*
X-42283D1*
X-39305D2*
X-39081D1*
X-38304D2*
X-38083D1*
X-37303D2*
X-35512D1*
X-29859D2*
X-28818D1*
X-26869D2*
X-25956D1*
X-23857D2*
X-22605D1*
X-21752D2*
X-17249D1*
X-48187Y16343D2*
X-47397D1*
X-45783D2*
X-45574D1*
X-42546D2*
X-40741D1*
X-39944D2*
X-36440D1*
X-36068D2*
X-35512D1*
X-29866D2*
X-28785D1*
X-26901D2*
X-26024D1*
X-23859D2*
X-22457D1*
X-21605D2*
X-17247D1*
X-48187Y16195D2*
X-47397D1*
X-45783D2*
X-45555D1*
X-45080D2*
X-43429D1*
X-42954D2*
X-40593D1*
X-35880D2*
X-35512D1*
X-29922D2*
X-28917D1*
X-26751D2*
X-26024D1*
X-23859D2*
X-22310D1*
X-21457D2*
X-17245D1*
X-48187Y16046D2*
X-47397D1*
X-45783D2*
X-45707D1*
X-44927D2*
X-43581D1*
X-42801D2*
X-40443D1*
X-35812D2*
X-35512D1*
X-29922D2*
X-28917D1*
X-26751D2*
X-26024D1*
X-23859D2*
X-22160D1*
X-21307D2*
X-17245D1*
X-48187Y15897D2*
X-47397D1*
X-44869D2*
X-43640D1*
X-42745D2*
X-40295D1*
X-35801D2*
X-35512D1*
X-29922D2*
X-28917D1*
X-26751D2*
X-26024D1*
X-23859D2*
X-22012D1*
X-20794D2*
X-17242D1*
X-48187Y15749D2*
X-47397D1*
X-43926D2*
X-43642D1*
X-42740D2*
X-42485D1*
X-41580D2*
X-41303D1*
X-40399D2*
X-40148D1*
X-35789D2*
X-35512D1*
X-29922D2*
X-28917D1*
X-26751D2*
X-26024D1*
X-23859D2*
X-21862D1*
X-20620D2*
X-18803D1*
X-18201D2*
X-17802D1*
X-48187Y15600D2*
X-47397D1*
X-45783D2*
X-45716D1*
X-44918D2*
X-44833D1*
X-43926D2*
X-43593D1*
X-42792D2*
X-42485D1*
X-41580D2*
X-41303D1*
X-40399D2*
X-40005D1*
X-39101D2*
X-37106D1*
X-29922D2*
X-28917D1*
X-26751D2*
X-26024D1*
X-23859D2*
X-21714D1*
X-20555D2*
X-18974D1*
X-18030D2*
X-17974D1*
X-48187Y15451D2*
X-47397D1*
X-45783D2*
X-45583D1*
X-45051D2*
X-44833D1*
X-43926D2*
X-43457D1*
X-42926D2*
X-42485D1*
X-41580D2*
X-41303D1*
X-40399D2*
X-40005D1*
X-39101D2*
X-37106D1*
X-29922D2*
X-28917D1*
X-26751D2*
X-26024D1*
X-23859D2*
X-21564D1*
X-48185Y15303D2*
X-47397D1*
X-45783D2*
X-44833D1*
X-43926D2*
X-42485D1*
X-41580D2*
X-41303D1*
X-40399D2*
X-40005D1*
X-39101D2*
X-37106D1*
X-31952D2*
X-21417D1*
X-48185Y15154D2*
X-47397D1*
X-45783D2*
X-44833D1*
X-43926D2*
X-42485D1*
X-41580D2*
X-41303D1*
X-40399D2*
X-40005D1*
X-39101D2*
X-37106D1*
X-31952D2*
X-29507D1*
X-29116D2*
X-28982D1*
X-28394D2*
X-26606D1*
X-26018D2*
X-21288D1*
X-48185Y15005D2*
X-47397D1*
X-45783D2*
X-44833D1*
X-43926D2*
X-42485D1*
X-41580D2*
X-41303D1*
X-40399D2*
X-40005D1*
X-39101D2*
X-37106D1*
X-31952D2*
X-29688D1*
X-28275D2*
X-26725D1*
X-25901D2*
X-22258D1*
X-21616D2*
X-20990D1*
X-48185Y14857D2*
X-47327D1*
X-46425D2*
X-44833D1*
X-43926D2*
X-42485D1*
X-41580D2*
X-41303D1*
X-40399D2*
X-40005D1*
X-39101D2*
X-37106D1*
X-31952D2*
X-29753D1*
X-28235D2*
X-26854D1*
X-25858D2*
X-22359D1*
X-21515D2*
X-18937D1*
X-18065D2*
X-17936D1*
X-48185Y14708D2*
X-47322D1*
X-46427D2*
X-44833D1*
X-43926D2*
X-42485D1*
X-41580D2*
X-41303D1*
X-39101D2*
X-37134D1*
X-31952D2*
X-29765D1*
X-25870D2*
X-22394D1*
X-21483D2*
X-18864D1*
X-18138D2*
X-17866D1*
X-48185Y14559D2*
X-47263D1*
X-46488D2*
X-44833D1*
X-43926D2*
X-42485D1*
X-41580D2*
X-41303D1*
X-39101D2*
X-37281D1*
X-31952D2*
X-29901D1*
X-48185Y14410D2*
X-47109D1*
X-46643D2*
X-44838D1*
X-43926D2*
X-42485D1*
X-41580D2*
X-41303D1*
X-39101D2*
X-37431D1*
X-31952D2*
X-30051D1*
X-48185Y14262D2*
X-44892D1*
X-43926D2*
X-42494D1*
X-41580D2*
X-41303D1*
X-39101D2*
X-37579D1*
X-36201D2*
X-36016D1*
X-31952D2*
X-30199D1*
X-48185Y14113D2*
X-44892D1*
X-43992D2*
X-43781D1*
X-43104D2*
X-42499D1*
X-41594D2*
X-41277D1*
X-39682D2*
X-37727D1*
X-36396D2*
X-36166D1*
X-31952D2*
X-30349D1*
X-48185Y13964D2*
X-45592D1*
X-40422D2*
X-40345D1*
X-39970D2*
X-37877D1*
X-36361D2*
X-36313D1*
X-35517D2*
X-35430D1*
X-31952D2*
X-30496D1*
X-48185Y13816D2*
X-47657D1*
X-46476D2*
X-45742D1*
X-40554D2*
X-38024D1*
X-35667D2*
X-35430D1*
X-31952D2*
X-30644D1*
X-48185Y13667D2*
X-47657D1*
X-46476D2*
X-45890D1*
X-40481D2*
X-40349D1*
X-39808D2*
X-38174D1*
X-35815D2*
X-35430D1*
X-31952D2*
X-30794D1*
X-48185Y13518D2*
X-47657D1*
X-46476D2*
X-46040D1*
X-45187D2*
X-44856D1*
X-43964D2*
X-43785D1*
X-42619D2*
X-42461D1*
X-41555D2*
X-41362D1*
X-39677D2*
X-38322D1*
X-36670D2*
X-36447D1*
X-35843D2*
X-35430D1*
X-31952D2*
X-30942D1*
X-48185Y13370D2*
X-47657D1*
X-46476D2*
X-46188D1*
X-45335D2*
X-44861D1*
X-43943D2*
X-43666D1*
X-42762D2*
X-42485D1*
X-41562D2*
X-41306D1*
X-39101D2*
X-38472D1*
X-37050D2*
X-36597D1*
X-35852D2*
X-35430D1*
X-31952D2*
X-31092D1*
X-48185Y13221D2*
X-47657D1*
X-46476D2*
X-46338D1*
X-45485D2*
X-44847D1*
X-43943D2*
X-43666D1*
X-42762D2*
X-42485D1*
X-41580D2*
X-41303D1*
X-39101D2*
X-38620D1*
X-37200D2*
X-36745D1*
X-35948D2*
X-35430D1*
X-31952D2*
X-31239D1*
X-48185Y13072D2*
X-47657D1*
X-45499D2*
X-44847D1*
X-43943D2*
X-43666D1*
X-42762D2*
X-42485D1*
X-41580D2*
X-41303D1*
X-39101D2*
X-38770D1*
X-37347D2*
X-36892D1*
X-36098D2*
X-35430D1*
X-31952D2*
X-31389D1*
X-48183Y12924D2*
X-47657D1*
X-45328D2*
X-44847D1*
X-43943D2*
X-43666D1*
X-42762D2*
X-42485D1*
X-41580D2*
X-41303D1*
X-40399D2*
X-40312D1*
X-39101D2*
X-38917D1*
X-37495D2*
X-37042D1*
X-36246D2*
X-35430D1*
X-31952D2*
X-31537D1*
X-48183Y12775D2*
X-47498D1*
X-45265D2*
X-44847D1*
X-43943D2*
X-43666D1*
X-42762D2*
X-42485D1*
X-41580D2*
X-41303D1*
X-40291D2*
X-40005D1*
X-37645D2*
X-37190D1*
X-36394D2*
X-35430D1*
X-31952D2*
X-31685D1*
X-48183Y12626D2*
X-47601D1*
X-45255D2*
X-44847D1*
X-43943D2*
X-43666D1*
X-42762D2*
X-42485D1*
X-41580D2*
X-41303D1*
X-40141D2*
X-40005D1*
X-37753D2*
X-37340D1*
X-36544D2*
X-35418D1*
X-31964D2*
X-31835D1*
X-48183Y12478D2*
X-47650D1*
X-46228D2*
X-46117D1*
X-45300D2*
X-44847D1*
X-43943D2*
X-43666D1*
X-42762D2*
X-42485D1*
X-41580D2*
X-41303D1*
X-37737D2*
X-37488D1*
X-36691D2*
X-34680D1*
X-32887D2*
X-31982D1*
X-48183Y12329D2*
X-47655D1*
X-46376D2*
X-45993D1*
X-45424D2*
X-44847D1*
X-43943D2*
X-43666D1*
X-42762D2*
X-42485D1*
X-41580D2*
X-41303D1*
X-37772D2*
X-37638D1*
X-36841D2*
X-34680D1*
X-32887D2*
X-32132D1*
X-48183Y12180D2*
X-47624D1*
X-46512D2*
X-44847D1*
X-43943D2*
X-43666D1*
X-42762D2*
X-42485D1*
X-41580D2*
X-41303D1*
X-37875D2*
X-37785D1*
X-36989D2*
X-34680D1*
X-32887D2*
X-32280D1*
X-48183Y12031D2*
X-47542D1*
X-46591D2*
X-44847D1*
X-43943D2*
X-43666D1*
X-42762D2*
X-42485D1*
X-41580D2*
X-41303D1*
X-37139D2*
X-34680D1*
X-32887D2*
X-32430D1*
X-48183Y11883D2*
X-47378D1*
X-46758D2*
X-44847D1*
X-43919D2*
X-43666D1*
X-42738D2*
X-42485D1*
X-41557D2*
X-41303D1*
X-37287D2*
X-34680D1*
X-32887D2*
X-32577D1*
X-48183Y11734D2*
X-44819D1*
X-43922D2*
X-43638D1*
X-42740D2*
X-42456D1*
X-41559D2*
X-41268D1*
X-37437D2*
X-34680D1*
X-32887D2*
X-32727D1*
X-23088D2*
X-22696D1*
X-48183Y11585D2*
X-44765D1*
X-43976D2*
X-43584D1*
X-42794D2*
X-42402D1*
X-41613D2*
X-41193D1*
X-40460D2*
X-40360D1*
X-37594D2*
X-34680D1*
X-27583D2*
X-27192D1*
X-22938D2*
X-22546D1*
X-48183Y11437D2*
X-44617D1*
X-44121D2*
X-43436D1*
X-42942D2*
X-42255D1*
X-41761D2*
X-40994D1*
X-40659D2*
X-40213D1*
X-38109D2*
X-33023D1*
X-27731D2*
X-27339D1*
X-22790D2*
X-22399D1*
X-48183Y11288D2*
X-46670D1*
X-41172D2*
X-40061D1*
X-37842D2*
X-33173D1*
X-27881D2*
X-27489D1*
X-22640D2*
X-22249D1*
X-48183Y11139D2*
X-46827D1*
X-41018D2*
X-39388D1*
X-37758D2*
X-33320D1*
X-28029D2*
X-27637D1*
X-22493D2*
X-22101D1*
X-48183Y10991D2*
X-47533D1*
X-40776D2*
X-39538D1*
X-37737D2*
X-33470D1*
X-28179D2*
X-27787D1*
X-22343D2*
X-21953D1*
X-48183Y10842D2*
X-47533D1*
X-40481D2*
X-39649D1*
X-38829D2*
X-38617D1*
X-37765D2*
X-33618D1*
X-28270D2*
X-27935D1*
X-26763D2*
X-26186D1*
X-25244D2*
X-23927D1*
X-22195D2*
X-21803D1*
X-48183Y10693D2*
X-47533D1*
X-46352D2*
X-44235D1*
X-40394D2*
X-39665D1*
X-39000D2*
X-38521D1*
X-37861D2*
X-36895D1*
X-35988D2*
X-33768D1*
X-28153D2*
X-28085D1*
X-26913D2*
X-26334D1*
X-25310D2*
X-23779D1*
X-22047D2*
X-21656D1*
X-48183Y10545D2*
X-47533D1*
X-46352D2*
X-44273D1*
X-40371D2*
X-39665D1*
X-39094D2*
X-36895D1*
X-35988D2*
X-33916D1*
X-27061D2*
X-26481D1*
X-25476D2*
X-25281D1*
X-24595D2*
X-23629D1*
X-21897D2*
X-21506D1*
X-48180Y10396D2*
X-47533D1*
X-46352D2*
X-44259D1*
X-38958D2*
X-36895D1*
X-35988D2*
X-34063D1*
X-27211D2*
X-26631D1*
X-24506D2*
X-23481D1*
X-21750D2*
X-21358D1*
X-48180Y10247D2*
X-47533D1*
X-46352D2*
X-44205D1*
X-38958D2*
X-36895D1*
X-35988D2*
X-34127D1*
X-27358D2*
X-26779D1*
X-24483D2*
X-23334D1*
X-21600D2*
X-21208D1*
X-48180Y10099D2*
X-47533D1*
X-46352D2*
X-44205D1*
X-38958D2*
X-36895D1*
X-35988D2*
X-34129D1*
X-27508D2*
X-26929D1*
X-24508D2*
X-23184D1*
X-21452D2*
X-21060D1*
X-48180Y9950D2*
X-47533D1*
X-46352D2*
X-44205D1*
X-38958D2*
X-36895D1*
X-35988D2*
X-34129D1*
X-27656D2*
X-27077D1*
X-24600D2*
X-23036D1*
X-21302D2*
X-20913D1*
X-48180Y9801D2*
X-47404D1*
X-46481D2*
X-44205D1*
X-38958D2*
X-36895D1*
X-35871D2*
X-34129D1*
X-27804D2*
X-27227D1*
X-24996D2*
X-22886D1*
X-21155D2*
X-20763D1*
X-48180Y9652D2*
X-47491D1*
X-46392D2*
X-44205D1*
X-38958D2*
X-36895D1*
X-35519D2*
X-34129D1*
X-27954D2*
X-27374D1*
X-24806D2*
X-22738D1*
X-21005D2*
X-20615D1*
X-48180Y9504D2*
X-47528D1*
X-46355D2*
X-45264D1*
X-44622D2*
X-44205D1*
X-38958D2*
X-36895D1*
X-35386D2*
X-34129D1*
X-28101D2*
X-27522D1*
X-24626D2*
X-22588D1*
X-20857D2*
X-20465D1*
X-48180Y9355D2*
X-47526D1*
X-46357D2*
X-45407D1*
X-44477D2*
X-44205D1*
X-38958D2*
X-36895D1*
X-35337D2*
X-34129D1*
X-28251D2*
X-27672D1*
X-24558D2*
X-22441D1*
X-20709D2*
X-20317D1*
X-48180Y9206D2*
X-47484D1*
X-46401D2*
X-45473D1*
X-44412D2*
X-40917D1*
X-39726D2*
X-36895D1*
X-35339D2*
X-34129D1*
X-28399D2*
X-27820D1*
X-24546D2*
X-22293D1*
X-20559D2*
X-20167D1*
X-48180Y9058D2*
X-47390D1*
X-46495D2*
X-45494D1*
X-44390D2*
X-41064D1*
X-39874D2*
X-36175D1*
X-35397D2*
X-34129D1*
X-28638D2*
X-27970D1*
X-24588D2*
X-22143D1*
X-20412D2*
X-20020D1*
X-48180Y8909D2*
X-47289D1*
X-46596D2*
X-45470D1*
X-44414D2*
X-41214D1*
X-40024D2*
X-36093D1*
X-35482D2*
X-34354D1*
X-28821D2*
X-28117D1*
X-24705D2*
X-21995D1*
X-20262D2*
X-19870D1*
X-48180Y8760D2*
X-47435D1*
X-46451D2*
X-45400D1*
X-44484D2*
X-41362D1*
X-40172D2*
X-36093D1*
X-35482D2*
X-34354D1*
X-28971D2*
X-28267D1*
X-25207D2*
X-21845D1*
X-20114D2*
X-19722D1*
X-48180Y8612D2*
X-47507D1*
X-46378D2*
X-45245D1*
X-44639D2*
X-41512D1*
X-40322D2*
X-36093D1*
X-35482D2*
X-34354D1*
X-29001D2*
X-28415D1*
X-25312D2*
X-21698D1*
X-19964D2*
X-19574D1*
X-48180Y8463D2*
X-47533D1*
X-46352D2*
X-41660D1*
X-40469D2*
X-36093D1*
X-35451D2*
X-34354D1*
X-29001D2*
X-28565D1*
X-25615D2*
X-21548D1*
X-19816D2*
X-19424D1*
X-48180Y8314D2*
X-47519D1*
X-46366D2*
X-44092D1*
X-40619D2*
X-36163D1*
X-35337D2*
X-34354D1*
X-29001D2*
X-28713D1*
X-25610D2*
X-21400D1*
X-19669D2*
X-19277D1*
X-48180Y8166D2*
X-47465D1*
X-46420D2*
X-44240D1*
X-40767D2*
X-40612D1*
X-38208D2*
X-36203D1*
X-35297D2*
X-34354D1*
X-25659D2*
X-21250D1*
X-19519D2*
X-19127D1*
X-48178Y8017D2*
X-47350D1*
X-46535D2*
X-44390D1*
X-40915D2*
X-40762D1*
X-38060D2*
X-36192D1*
X-35308D2*
X-34354D1*
X-25790D2*
X-25455D1*
X-24551D2*
X-21163D1*
X-48178Y7868D2*
X-47341D1*
X-46544D2*
X-44538D1*
X-41065D2*
X-40910D1*
X-37973D2*
X-37917D1*
X-37010D2*
X-36124D1*
X-35376D2*
X-35280D1*
X-25795D2*
X-25455D1*
X-24152D2*
X-23896D1*
X-23229D2*
X-21018D1*
X-48178Y7720D2*
X-47460D1*
X-46425D2*
X-44685D1*
X-41212D2*
X-41057D1*
X-39447D2*
X-38559D1*
X-37969D2*
X-37915D1*
X-37010D2*
X-35938D1*
X-35562D2*
X-35280D1*
X-31692D2*
X-30520D1*
X-29798D2*
X-29615D1*
X-25823D2*
X-25455D1*
X-21234D2*
X-20868D1*
X-48178Y7571D2*
X-47517D1*
X-46366D2*
X-44835D1*
X-43565D2*
X-41116D1*
X-39368D2*
X-38540D1*
X-37010D2*
X-35280D1*
X-31505D2*
X-30857D1*
X-29833D2*
X-29713D1*
X-25915D2*
X-25455D1*
X-21084D2*
X-20720D1*
X-48178Y7422D2*
X-47533D1*
X-46352D2*
X-44983D1*
X-43715D2*
X-41505D1*
X-41172D2*
X-41116D1*
X-39347D2*
X-38488D1*
X-37010D2*
X-35280D1*
X-31437D2*
X-31014D1*
X-29965D2*
X-29723D1*
X-26742D2*
X-26395D1*
X-25856D2*
X-25455D1*
X-20934D2*
X-20570D1*
X-48178Y7273D2*
X-47510D1*
X-46376D2*
X-45133D1*
X-43863D2*
X-41706D1*
X-39380D2*
X-38343D1*
X-37010D2*
X-35280D1*
X-31425D2*
X-31073D1*
X-30112D2*
X-29723D1*
X-25722D2*
X-25455D1*
X-24551D2*
X-24297D1*
X-20787D2*
X-20423D1*
X-48178Y7125D2*
X-47439D1*
X-46446D2*
X-45281D1*
X-44013D2*
X-41779D1*
X-39480D2*
X-38195D1*
X-37010D2*
X-35280D1*
X-31465D2*
X-31321D1*
X-31177D2*
X-31077D1*
X-30173D2*
X-29723D1*
X-25673D2*
X-25455D1*
X-24551D2*
X-23631D1*
X-23494D2*
X-21489D1*
X-20660D2*
X-20275D1*
X-48178Y6976D2*
X-47301D1*
X-46584D2*
X-45431D1*
X-44161D2*
X-41793D1*
X-39518D2*
X-38045D1*
X-37010D2*
X-35718D1*
X-30222D2*
X-29723D1*
X-25678D2*
X-25455D1*
X-24551D2*
X-21342D1*
X-20632D2*
X-20125D1*
X-48178Y6827D2*
X-47381D1*
X-46502D2*
X-45578D1*
X-43985D2*
X-41756D1*
X-39518D2*
X-37917D1*
X-37010D2*
X-36475D1*
X-36033D2*
X-35845D1*
X-30356D2*
X-29758D1*
X-24551D2*
X-21243D1*
X-20632D2*
X-19977D1*
X-48178Y6679D2*
X-47481D1*
X-46404D2*
X-45728D1*
X-38958D2*
X-37917D1*
X-37010D2*
X-36639D1*
X-30794D2*
X-29908D1*
X-24551D2*
X-21243D1*
X-20632D2*
X-19827D1*
X-48178Y6530D2*
X-47526D1*
X-46359D2*
X-45876D1*
X-38958D2*
X-37917D1*
X-37010D2*
X-36700D1*
X-30822D2*
X-30056D1*
X-24551D2*
X-21243D1*
X-20632D2*
X-19680D1*
X-48178Y6381D2*
X-47531D1*
X-46355D2*
X-46024D1*
X-38958D2*
X-37917D1*
X-37010D2*
X-36705D1*
X-30919D2*
X-30203D1*
X-29409D2*
X-29217D1*
X-25249D2*
X-21243D1*
X-20632D2*
X-19530D1*
X-48178Y6233D2*
X-47495D1*
X-46390D2*
X-46174D1*
X-44904D2*
X-44660D1*
X-38958D2*
X-36658D1*
X-35850D2*
X-35706D1*
X-29557D2*
X-29217D1*
X-25322D2*
X-21243D1*
X-20632D2*
X-19307D1*
X-48178Y6084D2*
X-47411D1*
X-46474D2*
X-46321D1*
X-45054D2*
X-44463D1*
X-38958D2*
X-37832D1*
X-37418D2*
X-36531D1*
X-35976D2*
X-35573D1*
X-29705D2*
X-29217D1*
X-25118D2*
X-24642D1*
X-23027D2*
X-22673D1*
X-20632D2*
X-19068D1*
X-48178Y5935D2*
X-47247D1*
X-46636D2*
X-46450D1*
X-45094D2*
X-44205D1*
X-37244D2*
X-35425D1*
X-34139D2*
X-33904D1*
X-33478D2*
X-33397D1*
X-29437D2*
X-29217D1*
X-20632D2*
X-18998D1*
X-48178Y5787D2*
X-47416D1*
X-45822D2*
X-45665D1*
X-45094D2*
X-44205D1*
X-37181D2*
X-35280D1*
X-33309D2*
X-31888D1*
X-29292D2*
X-29217D1*
X-20632D2*
X-18860D1*
X-18145D2*
X-17859D1*
X-48178Y5638D2*
X-47498D1*
X-45907D2*
X-45665D1*
X-45094D2*
X-44205D1*
X-37172D2*
X-35280D1*
X-33246D2*
X-32038D1*
X-20632D2*
X-18942D1*
X-18063D2*
X-17941D1*
X-48176Y5489D2*
X-47531D1*
X-45907D2*
X-45665D1*
X-45094D2*
X-43835D1*
X-41360D2*
X-41156D1*
X-37216D2*
X-35875D1*
X-33239D2*
X-32186D1*
X-25085D2*
X-24642D1*
X-20632D2*
X-19040D1*
X-48176Y5341D2*
X-47524D1*
X-45907D2*
X-45665D1*
X-45094D2*
X-43806D1*
X-41409D2*
X-41317D1*
X-39065D2*
X-37912D1*
X-37338D2*
X-36023D1*
X-33283D2*
X-32336D1*
X-24696D2*
X-24641D1*
X-23027D2*
X-22673D1*
X-20632D2*
X-19085D1*
X-48176Y5192D2*
X-47477D1*
X-45907D2*
X-45665D1*
X-45094D2*
X-43710D1*
X-41540D2*
X-41465D1*
X-39213D2*
X-37572D1*
X-36928D2*
X-36384D1*
X-31631D2*
X-29941D1*
X-24544D2*
X-21243D1*
X-20632D2*
X-19089D1*
X-48176Y5043D2*
X-47376D1*
X-45907D2*
X-45665D1*
X-45094D2*
X-42346D1*
X-36827D2*
X-36485D1*
X-35468D2*
X-35280D1*
X-31781D2*
X-29217D1*
X-24398D2*
X-21243D1*
X-20632D2*
X-19054D1*
X-48176Y4894D2*
X-47144D1*
X-46739D2*
X-46478D1*
X-45907D2*
X-45665D1*
X-45094D2*
X-42510D1*
X-40966D2*
X-40307D1*
X-36794D2*
X-36517D1*
X-35606D2*
X-35280D1*
X-31929D2*
X-29217D1*
X-24321D2*
X-21243D1*
X-20632D2*
X-18970D1*
X-18035D2*
X-17971D1*
X-48176Y4746D2*
X-46478D1*
X-45907D2*
X-45665D1*
X-45094D2*
X-42660D1*
X-41116D2*
X-40443D1*
X-36813D2*
X-36499D1*
X-35625D2*
X-35280D1*
X-27361D2*
X-26331D1*
X-24208D2*
X-21243D1*
X-20632D2*
X-18808D1*
X-18194D2*
X-17810D1*
X-48176Y4597D2*
X-46478D1*
X-45907D2*
X-45665D1*
X-45094D2*
X-42808D1*
X-41266D2*
X-40483D1*
X-36893D2*
X-36419D1*
X-35705D2*
X-35280D1*
X-34139D2*
X-33946D1*
X-33560D2*
X-32704D1*
X-22992D2*
X-22638D1*
X-20632D2*
X-18977D1*
X-18028D2*
X-17977D1*
X-48176Y4448D2*
X-46478D1*
X-45907D2*
X-45665D1*
X-45094D2*
X-44585D1*
X-44156D2*
X-43403D1*
X-42975D2*
X-42927D1*
X-41794D2*
X-41081D1*
X-40652D2*
X-40483D1*
X-39912D2*
X-39785D1*
X-39586D2*
X-37377D1*
X-37122D2*
X-36189D1*
X-35937D2*
X-35280D1*
X-34139D2*
X-32854D1*
X-20632D2*
X-19056D1*
X-48176Y4300D2*
X-46478D1*
X-45907D2*
X-45665D1*
X-45094D2*
X-44751D1*
X-43987D2*
X-43570D1*
X-41627D2*
X-41247D1*
X-39333D2*
X-39275D1*
X-38599D2*
X-35280D1*
X-34139D2*
X-33002D1*
X-20632D2*
X-19089D1*
X-48176Y4151D2*
X-46478D1*
X-45907D2*
X-45665D1*
X-45094D2*
X-44817D1*
X-43924D2*
X-43635D1*
X-41562D2*
X-41310D1*
X-38508D2*
X-37823D1*
X-36691D2*
X-35280D1*
X-34139D2*
X-33149D1*
X-32297D2*
X-31106D1*
X-30297D2*
X-29217D1*
X-20632D2*
X-19085D1*
X-48176Y4002D2*
X-46842D1*
X-45094D2*
X-44824D1*
X-43917D2*
X-43642D1*
X-41555D2*
X-41320D1*
X-38482D2*
X-38001D1*
X-34139D2*
X-33299D1*
X-32447D2*
X-31117D1*
X-30445D2*
X-29217D1*
X-25807D2*
X-25761D1*
X-20632D2*
X-19038D1*
X-48176Y3854D2*
X-46842D1*
X-45094D2*
X-44847D1*
X-43943D2*
X-43666D1*
X-41580D2*
X-41303D1*
X-34139D2*
X-33447D1*
X-32594D2*
X-31117D1*
X-30506D2*
X-29217D1*
X-26456D2*
X-26395D1*
X-25980D2*
X-25860D1*
X-24759D2*
X-24606D1*
X-22992D2*
X-22638D1*
X-20632D2*
X-18935D1*
X-18070D2*
X-17934D1*
X-48176Y3705D2*
X-46842D1*
X-45094D2*
X-44847D1*
X-43943D2*
X-43666D1*
X-41580D2*
X-41303D1*
X-34139D2*
X-33545D1*
X-32744D2*
X-31117D1*
X-30506D2*
X-29870D1*
X-26306D2*
X-25893D1*
X-24776D2*
X-24599D1*
X-24026D2*
X-21243D1*
X-20632D2*
X-18869D1*
X-18136D2*
X-17868D1*
X-48176Y3556D2*
X-46842D1*
X-45094D2*
X-44847D1*
X-43943D2*
X-43666D1*
X-41580D2*
X-41303D1*
X-39218D2*
X-38945D1*
X-34139D2*
X-33583D1*
X-32892D2*
X-31117D1*
X-30506D2*
X-29978D1*
X-25931D2*
X-25873D1*
X-24776D2*
X-24718D1*
X-24026D2*
X-21243D1*
X-20632D2*
X-19005D1*
X-48176Y3408D2*
X-46842D1*
X-45094D2*
X-44847D1*
X-43943D2*
X-43666D1*
X-41580D2*
X-41303D1*
X-39218D2*
X-38941D1*
X-38037D2*
X-37919D1*
X-34139D2*
X-33677D1*
X-32824D2*
X-31117D1*
X-30485D2*
X-30018D1*
X-22992D2*
X-22638D1*
X-20632D2*
X-19070D1*
X-48176Y3259D2*
X-46842D1*
X-45094D2*
X-44847D1*
X-43943D2*
X-43666D1*
X-41580D2*
X-41303D1*
X-39218D2*
X-38941D1*
X-38037D2*
X-37396D1*
X-36729D2*
X-36449D1*
X-34139D2*
X-33705D1*
X-32794D2*
X-31115D1*
X-30335D2*
X-30002D1*
X-25737D2*
X-25556D1*
X-20632D2*
X-19092D1*
X-48173Y3110D2*
X-46842D1*
X-45094D2*
X-44847D1*
X-43943D2*
X-43666D1*
X-41580D2*
X-41303D1*
X-37659D2*
X-36449D1*
X-34139D2*
X-33684D1*
X-32812D2*
X-31040D1*
X-30187D2*
X-29929D1*
X-25739D2*
X-25349D1*
X-20632D2*
X-19075D1*
X-48173Y2962D2*
X-46842D1*
X-45094D2*
X-44847D1*
X-43943D2*
X-43666D1*
X-42546D2*
X-42487D1*
X-41580D2*
X-41303D1*
X-34139D2*
X-33599D1*
X-32758D2*
X-30890D1*
X-30044D2*
X-29730D1*
X-25793D2*
X-25349D1*
X-20632D2*
X-19014D1*
X-48173Y2813D2*
X-46842D1*
X-45094D2*
X-44847D1*
X-43943D2*
X-43666D1*
X-42694D2*
X-42485D1*
X-41580D2*
X-41303D1*
X-25940D2*
X-25349D1*
X-20632D2*
X-18892D1*
X-18112D2*
X-17892D1*
X-48173Y2664D2*
X-46842D1*
X-45094D2*
X-44847D1*
X-43943D2*
X-43666D1*
X-42762D2*
X-42485D1*
X-41578D2*
X-41303D1*
X-25828D2*
X-25349D1*
X-22992D2*
X-22638D1*
X-20632D2*
X-18916D1*
X-18087D2*
X-17915D1*
X-48173Y2515D2*
X-46842D1*
X-45094D2*
X-44847D1*
X-43943D2*
X-43666D1*
X-42762D2*
X-42485D1*
X-25692D2*
X-25349D1*
X-24213D2*
X-21243D1*
X-20632D2*
X-19028D1*
X-48173Y2367D2*
X-46842D1*
X-45094D2*
X-44863D1*
X-43957D2*
X-42077D1*
X-25652D2*
X-25349D1*
X-24213D2*
X-21243D1*
X-20632D2*
X-19080D1*
X-48173Y2218D2*
X-46842D1*
X-45094D2*
X-44852D1*
X-43966D2*
X-41929D1*
X-29001D2*
X-28832D1*
X-27715D2*
X-27660D1*
X-25652D2*
X-25349D1*
X-22992D2*
X-22638D1*
X-20632D2*
X-19092D1*
X-48173Y2069D2*
X-46842D1*
X-45094D2*
X-44786D1*
X-44034D2*
X-41892D1*
X-29001D2*
X-28806D1*
X-27715D2*
X-27660D1*
X-25547D2*
X-25349D1*
X-20632D2*
X-19063D1*
X-48173Y1921D2*
X-46842D1*
X-45094D2*
X-44606D1*
X-44215D2*
X-42039D1*
X-36970D2*
X-35577D1*
X-29001D2*
X-28806D1*
X-27715D2*
X-27660D1*
X-20632D2*
X-20477D1*
X-48173Y1772D2*
X-46842D1*
X-45094D2*
X-42189D1*
X-36881D2*
X-35577D1*
X-34673D2*
X-34354D1*
X-29001D2*
X-28902D1*
X-27715D2*
X-27660D1*
X-48173Y1623D2*
X-46842D1*
X-45094D2*
X-42337D1*
X-41540D2*
X-41263D1*
X-40390D2*
X-40127D1*
X-36858D2*
X-35577D1*
X-34673D2*
X-34326D1*
X-29030D2*
X-28953D1*
X-27715D2*
X-27660D1*
X-48173Y1475D2*
X-45665D1*
X-45094D2*
X-42487D1*
X-41690D2*
X-41282D1*
X-40371D2*
X-40143D1*
X-36173D2*
X-36109D1*
X-35765D2*
X-35577D1*
X-34673D2*
X-34326D1*
X-29013D2*
X-28948D1*
X-22992D2*
X-22638D1*
X-20128D2*
X-19047D1*
X-48173Y1326D2*
X-47202D1*
X-46432D2*
X-45665D1*
X-45094D2*
X-42635D1*
X-41838D2*
X-41303D1*
X-40399D2*
X-40122D1*
X-39218D2*
X-38941D1*
X-34673D2*
X-34326D1*
X-24218D2*
X-21243D1*
X-20276D2*
X-19087D1*
X-48173Y1177D2*
X-47313D1*
X-46322D2*
X-45665D1*
X-45094D2*
X-42782D1*
X-41988D2*
X-41303D1*
X-40399D2*
X-40122D1*
X-39218D2*
X-38941D1*
X-37547D2*
X-37077D1*
X-34673D2*
X-34326D1*
X-24218D2*
X-21243D1*
X-20278D2*
X-19087D1*
X-48173Y1029D2*
X-47362D1*
X-46275D2*
X-45665D1*
X-45094D2*
X-42932D1*
X-42136D2*
X-41303D1*
X-40399D2*
X-40122D1*
X-39218D2*
X-38941D1*
X-37554D2*
X-37077D1*
X-34673D2*
X-34326D1*
X-28568D2*
X-28445D1*
X-22992D2*
X-22638D1*
X-20278D2*
X-19049D1*
X-48173Y880D2*
X-47367D1*
X-46270D2*
X-45665D1*
X-45094D2*
X-43080D1*
X-42283D2*
X-41303D1*
X-40399D2*
X-40122D1*
X-39218D2*
X-38941D1*
X-37619D2*
X-37077D1*
X-35522D2*
X-34326D1*
X-20278D2*
X-18958D1*
X-18047D2*
X-17957D1*
X-48173Y731D2*
X-47327D1*
X-46308D2*
X-45665D1*
X-45094D2*
X-43230D1*
X-42119D2*
X-41303D1*
X-40399D2*
X-40122D1*
X-39218D2*
X-38941D1*
X-37181D2*
X-37077D1*
X-35632D2*
X-34326D1*
X-20278D2*
X-18831D1*
X-18171D2*
X-17833D1*
X-48171Y583D2*
X-47235D1*
X-46401D2*
X-45665D1*
X-45094D2*
X-43377D1*
X-41969D2*
X-41303D1*
X-40399D2*
X-40122D1*
X-39218D2*
X-38941D1*
X-38037D2*
X-37893D1*
X-34383D2*
X-34325D1*
X-20278D2*
X-18986D1*
X-48171Y434D2*
X-47015D1*
X-46619D2*
X-45665D1*
X-45094D2*
X-43527D1*
X-41913D2*
X-41303D1*
X-40399D2*
X-40122D1*
X-39218D2*
X-38941D1*
X-38037D2*
X-37935D1*
X-22992D2*
X-22638D1*
X-20278D2*
X-19061D1*
X-48171Y285D2*
X-46842D1*
X-45094D2*
X-43675D1*
X-42879D2*
X-42813D1*
X-41911D2*
X-41303D1*
X-40399D2*
X-40122D1*
X-39218D2*
X-38941D1*
X-38037D2*
X-37924D1*
X-22992D2*
X-22638D1*
X-20278D2*
X-19092D1*
X-48171Y136D2*
X-46842D1*
X-45094D2*
X-43825D1*
X-43029D2*
X-42761D1*
X-41965D2*
X-41303D1*
X-40399D2*
X-40122D1*
X-39218D2*
X-38941D1*
X-38037D2*
X-37853D1*
X-36173D2*
X-35127D1*
X-24307D2*
X-21243D1*
X-20278D2*
X-19082D1*
X-48171Y-12D2*
X-46842D1*
X-45094D2*
X-43973D1*
X-43176D2*
X-42623D1*
X-42103D2*
X-41303D1*
X-40399D2*
X-40122D1*
X-39218D2*
X-38941D1*
X-38037D2*
X-37668D1*
X-37294D2*
X-37077D1*
X-36173D2*
X-35057D1*
X-24457D2*
X-21243D1*
X-20278D2*
X-19028D1*
X-48171Y-161D2*
X-46842D1*
X-45094D2*
X-44120D1*
X-43326D2*
X-36871D1*
X-36260D2*
X-35001D1*
X-22992D2*
X-22638D1*
X-20278D2*
X-18920D1*
X-48171Y-310D2*
X-46842D1*
X-45124D2*
X-44270D1*
X-43474D2*
X-36871D1*
X-36260D2*
X-35149D1*
X-20243D2*
X-18888D1*
X-48171Y-458D2*
X-46842D1*
X-45253D2*
X-44418D1*
X-43622D2*
X-36871D1*
X-36260D2*
X-35299D1*
X-20142D2*
X-19012D1*
X-48171Y-607D2*
X-46842D1*
X-45401D2*
X-44568D1*
X-43772D2*
X-36871D1*
X-36260D2*
X-35402D1*
X-33525D2*
X-33452D1*
X-32672D2*
X-32481D1*
X-20109D2*
X-19075D1*
X-48171Y-756D2*
X-46842D1*
X-45544D2*
X-44655D1*
X-43919D2*
X-37038D1*
X-33672D2*
X-33299D1*
X-32824D2*
X-32477D1*
X-22992D2*
X-22638D1*
X-20128D2*
X-19092D1*
X-48171Y-904D2*
X-46842D1*
X-45544D2*
X-44662D1*
X-44069D2*
X-37038D1*
X-33822D2*
X-32477D1*
X-28762D2*
X-27079D1*
X-26170D2*
X-24606D1*
X-22992D2*
X-22638D1*
X-20208D2*
X-19070D1*
X-48171Y-1053D2*
X-46842D1*
X-45544D2*
X-44662D1*
X-44088D2*
X-37038D1*
X-33844D2*
X-32477D1*
X-31905D2*
X-31785D1*
X-28615D2*
X-27065D1*
X-26184D2*
X-21243D1*
X-20444D2*
X-19007D1*
X-48171Y-1202D2*
X-46842D1*
X-45544D2*
X-44662D1*
X-44088D2*
X-37038D1*
X-33844D2*
X-32477D1*
X-31905D2*
X-31638D1*
X-28467D2*
X-26992D1*
X-26257D2*
X-21243D1*
X-20632D2*
X-18874D1*
X-18129D2*
X-17873D1*
X-48171Y-1350D2*
X-46842D1*
X-45544D2*
X-44662D1*
X-44088D2*
X-37038D1*
X-33844D2*
X-32477D1*
X-31905D2*
X-31488D1*
X-28317D2*
X-26795D1*
X-26456D2*
X-24606D1*
X-22992D2*
X-22638D1*
X-20632D2*
X-18930D1*
X-18072D2*
X-17931D1*
X-48171Y-1499D2*
X-46842D1*
X-45544D2*
X-44662D1*
X-44088D2*
X-37038D1*
X-33844D2*
X-32477D1*
X-31905D2*
X-31340D1*
X-20632D2*
X-19035D1*
X-48171Y-1648D2*
X-46842D1*
X-45544D2*
X-44662D1*
X-44088D2*
X-35413D1*
X-33844D2*
X-32477D1*
X-31905D2*
X-31192D1*
X-20632D2*
X-19082D1*
X-48169Y-1796D2*
X-46842D1*
X-45544D2*
X-44662D1*
X-44088D2*
X-35413D1*
X-33844D2*
X-32477D1*
X-31905D2*
X-31042D1*
X-20632D2*
X-19092D1*
X-48169Y-1945D2*
X-46842D1*
X-45544D2*
X-44662D1*
X-44088D2*
X-35535D1*
X-33844D2*
X-32477D1*
X-31905D2*
X-30895D1*
X-22992D2*
X-22638D1*
X-20632D2*
X-19059D1*
X-48169Y-2094D2*
X-46842D1*
X-45544D2*
X-44662D1*
X-44088D2*
X-35683D1*
X-33844D2*
X-32477D1*
X-31905D2*
X-30745D1*
X-26262D2*
X-21243D1*
X-20632D2*
X-18979D1*
X-48169Y-2243D2*
X-46842D1*
X-45544D2*
X-44662D1*
X-44088D2*
X-35831D1*
X-33844D2*
X-32477D1*
X-31905D2*
X-30597D1*
X-26112D2*
X-21243D1*
X-20632D2*
X-18815D1*
X-18187D2*
X-17814D1*
X-48169Y-2391D2*
X-44662D1*
X-44088D2*
X-35981D1*
X-33844D2*
X-32477D1*
X-31905D2*
X-30447D1*
X-25964D2*
X-21243D1*
X-20632D2*
X-18967D1*
X-18037D2*
X-17967D1*
X-48169Y-2540D2*
X-44662D1*
X-44088D2*
X-36128D1*
X-33844D2*
X-32477D1*
X-31905D2*
X-30414D1*
X-25814D2*
X-24606D1*
X-22992D2*
X-22638D1*
X-20632D2*
X-19052D1*
X-48169Y-2689D2*
X-44662D1*
X-44088D2*
X-36278D1*
X-34605D2*
X-34415D1*
X-33844D2*
X-32477D1*
X-31905D2*
X-30414D1*
X-20632D2*
X-19089D1*
X-48169Y-2837D2*
X-44662D1*
X-44088D2*
X-40052D1*
X-34755D2*
X-34415D1*
X-33844D2*
X-32477D1*
X-31905D2*
X-30414D1*
X-29843D2*
X-29690D1*
X-20632D2*
X-19087D1*
X-48169Y-2986D2*
X-44662D1*
X-44088D2*
X-40199D1*
X-34903D2*
X-34415D1*
X-33844D2*
X-32477D1*
X-31905D2*
X-30414D1*
X-29843D2*
X-29540D1*
X-20529D2*
X-19042D1*
X-48169Y-3135D2*
X-44662D1*
X-44088D2*
X-42100D1*
X-35053D2*
X-34415D1*
X-33844D2*
X-32477D1*
X-31905D2*
X-30414D1*
X-29843D2*
X-29392D1*
X-25596D2*
X-24606D1*
X-22992D2*
X-22638D1*
X-20379D2*
X-18946D1*
X-48169Y-3283D2*
X-44662D1*
X-44088D2*
X-42248D1*
X-35201D2*
X-34415D1*
X-33844D2*
X-32477D1*
X-31905D2*
X-30414D1*
X-29843D2*
X-29242D1*
X-28134D2*
X-27056D1*
X-25446D2*
X-21084D1*
X-20231D2*
X-18852D1*
X-48169Y-3432D2*
X-45775D1*
X-45098D2*
X-44662D1*
X-44088D2*
X-43729D1*
X-43050D2*
X-42398D1*
X-34861D2*
X-34415D1*
X-33844D2*
X-33492D1*
X-32815D2*
X-32477D1*
X-31905D2*
X-31445D1*
X-30766D2*
X-30414D1*
X-29843D2*
X-29397D1*
X-27987D2*
X-27351D1*
X-25298D2*
X-20934D1*
X-20081D2*
X-18995D1*
X-48169Y-3581D2*
X-45946D1*
X-44927D2*
X-44662D1*
X-44088D2*
X-43900D1*
X-42879D2*
X-42545D1*
X-38784D2*
X-38294D1*
X-34690D2*
X-34415D1*
X-33844D2*
X-33663D1*
X-32644D2*
X-32477D1*
X-31905D2*
X-31617D1*
X-30595D2*
X-30414D1*
X-29843D2*
X-29568D1*
X-27837D2*
X-27522D1*
X-25148D2*
X-24606D1*
X-22992D2*
X-22638D1*
X-21023D2*
X-20786D1*
X-48169Y-3729D2*
X-46035D1*
X-44838D2*
X-44662D1*
X-44088D2*
X-43989D1*
X-42790D2*
X-42653D1*
X-40744D2*
X-40560D1*
X-38695D2*
X-38444D1*
X-36649D2*
X-36435D1*
X-34603D2*
X-34415D1*
X-33844D2*
X-33754D1*
X-32555D2*
X-32478D1*
X-31905D2*
X-31706D1*
X-30508D2*
X-30414D1*
X-29843D2*
X-29657D1*
X-27698D2*
X-27612D1*
X-25001D2*
X-24606D1*
X-22992D2*
X-22638D1*
X-21023D2*
X-20636D1*
X-48169Y-3878D2*
X-46080D1*
X-44796D2*
X-44662D1*
X-44088D2*
X-44033D1*
X-42747D2*
X-42665D1*
X-42047D2*
X-41985D1*
X-40701D2*
X-40602D1*
X-38653D2*
X-38594D1*
X-36607D2*
X-36477D1*
X-34558D2*
X-34415D1*
X-33844D2*
X-33794D1*
X-31905D2*
X-31748D1*
X-30464D2*
X-30414D1*
X-29843D2*
X-29702D1*
X-21023D2*
X-20488D1*
X-48169Y-4027D2*
X-46085D1*
X-44789D2*
X-44662D1*
X-44088D2*
X-44039D1*
X-42743D2*
X-42665D1*
X-42094D2*
X-41990D1*
X-40694D2*
X-40602D1*
X-40031D2*
X-39944D1*
X-37945D2*
X-37897D1*
X-36600D2*
X-36477D1*
X-35906D2*
X-35848D1*
X-34554D2*
X-34415D1*
X-31905D2*
X-31755D1*
X-29843D2*
X-29706D1*
X-21023D2*
X-20296D1*
X-48169Y-4175D2*
X-46054D1*
X-44819D2*
X-44662D1*
X-44088D2*
X-44008D1*
X-42771D2*
X-42665D1*
X-42094D2*
X-41960D1*
X-40725D2*
X-40602D1*
X-40031D2*
X-39913D1*
X-38093D2*
X-37865D1*
X-36630D2*
X-36477D1*
X-35906D2*
X-35819D1*
X-34582D2*
X-34415D1*
X-33844D2*
X-33770D1*
X-32536D2*
X-32476D1*
X-31905D2*
X-31724D1*
X-30487D2*
X-30413D1*
X-29843D2*
X-29676D1*
X-21023D2*
X-18904D1*
X-48166Y-4324D2*
X-45984D1*
X-44890D2*
X-44662D1*
X-44088D2*
X-43935D1*
X-42844D2*
X-42665D1*
X-42094D2*
X-41889D1*
X-40795D2*
X-40602D1*
X-40031D2*
X-39841D1*
X-38749D2*
X-38664D1*
X-38093D2*
X-37795D1*
X-36701D2*
X-36477D1*
X-35906D2*
X-35749D1*
X-34655D2*
X-34415D1*
X-33844D2*
X-33700D1*
X-32606D2*
X-32477D1*
X-31905D2*
X-31654D1*
X-30560D2*
X-30414D1*
X-29843D2*
X-29606D1*
X-27654D2*
X-27560D1*
X-26465D2*
X-26350D1*
X-25530D2*
X-25452D1*
X-22992D2*
X-22638D1*
X-21023D2*
X-18562D1*
X-18441D2*
X-18093D1*
X-48166Y-4473D2*
X-45848D1*
X-45026D2*
X-44716D1*
X-44088D2*
X-43802D1*
X-42977D2*
X-42670D1*
X-42094D2*
X-41753D1*
X-40931D2*
X-40621D1*
X-40031D2*
X-39707D1*
X-38883D2*
X-38664D1*
X-38093D2*
X-37659D1*
X-36837D2*
X-36527D1*
X-35906D2*
X-35613D1*
X-34788D2*
X-34481D1*
X-33844D2*
X-33567D1*
X-32742D2*
X-32477D1*
X-31905D2*
X-31518D1*
X-30694D2*
X-30414D1*
X-29843D2*
X-29472D1*
X-27654D2*
X-27424D1*
X-26599D2*
X-26350D1*
X-25530D2*
X-25302D1*
X-24506D2*
X-17048D1*
X-48166Y-4622D2*
X-45904D1*
X-44972D2*
X-44866D1*
X-44105D2*
X-43856D1*
X-42923D2*
X-42817D1*
X-42096D2*
X-41810D1*
X-40877D2*
X-40771D1*
X-40036D2*
X-39761D1*
X-38829D2*
X-38723D1*
X-38093D2*
X-37715D1*
X-36783D2*
X-36675D1*
X-35920D2*
X-35667D1*
X-34734D2*
X-34628D1*
X-33862D2*
X-33620D1*
X-32688D2*
X-32582D1*
X-31905D2*
X-31572D1*
X-30640D2*
X-30534D1*
X-29843D2*
X-29526D1*
X-27583D2*
X-27477D1*
X-26545D2*
X-26350D1*
X-25530D2*
X-25155D1*
X-24358D2*
X-17045D1*
X-48166Y-4770D2*
X-45937D1*
X-44217D2*
X-43891D1*
X-42171D2*
X-41842D1*
X-40122D2*
X-39796D1*
X-38109D2*
X-37748D1*
X-36028D2*
X-35702D1*
X-33982D2*
X-33653D1*
X-31945D2*
X-31607D1*
X-29892D2*
X-29559D1*
X-26510D2*
X-26350D1*
X-25530D2*
X-25005D1*
X-22992D2*
X-22638D1*
X-21023D2*
X-20599D1*
X-20346D2*
X-17043D1*
X-48166Y-4919D2*
X-45925D1*
X-44367D2*
X-43879D1*
X-42319D2*
X-41831D1*
X-40272D2*
X-39785D1*
X-38224D2*
X-37736D1*
X-36178D2*
X-35690D1*
X-34130D2*
X-33642D1*
X-32083D2*
X-31595D1*
X-30035D2*
X-29547D1*
X-26524D2*
X-26350D1*
X-25500D2*
X-24857D1*
X-22992D2*
X-22638D1*
X-21023D2*
X-20831D1*
X-20116D2*
X-17043D1*
X-48166Y-5068D2*
X-45862D1*
X-44515D2*
X-43813D1*
X-42469D2*
X-41767D1*
X-40420D2*
X-39719D1*
X-38374D2*
X-37673D1*
X-36326D2*
X-35624D1*
X-34280D2*
X-33578D1*
X-32231D2*
X-31532D1*
X-30185D2*
X-29484D1*
X-28137D2*
X-27935D1*
X-26587D2*
X-26350D1*
X-25350D2*
X-24710D1*
X-21023D2*
X-20908D1*
X-20037D2*
X-17041D1*
X-48166Y-5216D2*
X-45761D1*
X-44662D2*
X-43715D1*
X-42616D2*
X-41667D1*
X-40568D2*
X-39620D1*
X-38522D2*
X-37572D1*
X-36473D2*
X-35526D1*
X-34427D2*
X-33477D1*
X-32379D2*
X-31431D1*
X-30333D2*
X-29383D1*
X-28287D2*
X-27785D1*
X-26686D2*
X-26350D1*
X-25202D2*
X-24606D1*
X-21023D2*
X-20929D1*
X-20018D2*
X-17041D1*
X-48166Y-5365D2*
X-45883D1*
X-44812D2*
X-43835D1*
X-42764D2*
X-41788D1*
X-40718D2*
X-39740D1*
X-38669D2*
X-37694D1*
X-36623D2*
X-35645D1*
X-34575D2*
X-33599D1*
X-32529D2*
X-31553D1*
X-30480D2*
X-29505D1*
X-28434D2*
X-27637D1*
X-26566D2*
X-26350D1*
X-25052D2*
X-24606D1*
X-21023D2*
X-20894D1*
X-20051D2*
X-17038D1*
X-48166Y-5514D2*
X-45932D1*
X-44941D2*
X-43886D1*
X-42895D2*
X-41838D1*
X-40847D2*
X-39792D1*
X-38801D2*
X-37743D1*
X-36752D2*
X-35697D1*
X-34706D2*
X-33649D1*
X-32658D2*
X-31602D1*
X-30612D2*
X-29554D1*
X-28563D2*
X-27508D1*
X-26517D2*
X-26350D1*
X-25779D2*
X-25701D1*
X-24905D2*
X-24606D1*
X-22992D2*
X-22638D1*
X-21023D2*
X-20793D1*
X-20151D2*
X-17036D1*
X-48166Y-5662D2*
X-45935D1*
X-44941D2*
X-43886D1*
X-42893D2*
X-41840D1*
X-40847D2*
X-39792D1*
X-38798D2*
X-37745D1*
X-36752D2*
X-35697D1*
X-34704D2*
X-33651D1*
X-32658D2*
X-31602D1*
X-30609D2*
X-29556D1*
X-28563D2*
X-27508D1*
X-26515D2*
X-26350D1*
X-25779D2*
X-25551D1*
X-24755D2*
X-17036D1*
X-48166Y-5811D2*
X-45888D1*
X-44988D2*
X-43839D1*
X-42940D2*
X-41793D1*
X-40894D2*
X-39745D1*
X-38845D2*
X-37699D1*
X-36799D2*
X-35650D1*
X-34751D2*
X-33604D1*
X-32705D2*
X-31556D1*
X-30656D2*
X-29510D1*
X-28610D2*
X-27461D1*
X-26562D2*
X-26350D1*
X-25779D2*
X-25403D1*
X-24607D2*
X-17034D1*
X-48166Y-5960D2*
X-45770D1*
X-45103D2*
X-43724D1*
X-43057D2*
X-41676D1*
X-41008D2*
X-39630D1*
X-38962D2*
X-37581D1*
X-36914D2*
X-35535D1*
X-34868D2*
X-33487D1*
X-32819D2*
X-31441D1*
X-30773D2*
X-29392D1*
X-28725D2*
X-27346D1*
X-26679D2*
X-26350D1*
X-25772D2*
X-25253D1*
X-22992D2*
X-22638D1*
X-21023D2*
X-17034D1*
X-48166Y-6108D2*
X-47671D1*
X-46704D2*
X-45857D1*
X-45016D2*
X-43809D1*
X-42970D2*
X-41763D1*
X-40924D2*
X-39714D1*
X-38876D2*
X-37668D1*
X-36830D2*
X-35620D1*
X-34781D2*
X-33574D1*
X-32735D2*
X-31525D1*
X-30687D2*
X-29479D1*
X-28640D2*
X-27431D1*
X-26592D2*
X-26348D1*
X-25622D2*
X-25106D1*
X-21023D2*
X-17031D1*
X-48166Y-6257D2*
X-47899D1*
X-46476D2*
X-45923D1*
X-44951D2*
X-43877D1*
X-42905D2*
X-41828D1*
X-40856D2*
X-39782D1*
X-38810D2*
X-37734D1*
X-36762D2*
X-35688D1*
X-34715D2*
X-33639D1*
X-32667D2*
X-31593D1*
X-30621D2*
X-29545D1*
X-28572D2*
X-27499D1*
X-26526D2*
X-26270D1*
X-25474D2*
X-24956D1*
X-21023D2*
X-17029D1*
X-48166Y-6406D2*
X-48044D1*
X-46331D2*
X-45939D1*
X-44937D2*
X-43891D1*
X-42888D2*
X-41845D1*
X-40842D2*
X-39796D1*
X-38794D2*
X-37750D1*
X-36747D2*
X-35702D1*
X-34699D2*
X-33656D1*
X-32653D2*
X-31607D1*
X-30605D2*
X-29561D1*
X-28558D2*
X-27513D1*
X-26510D2*
X-26120D1*
X-25324D2*
X-24808D1*
X-21023D2*
X-17231D1*
X-46233Y-6554D2*
X-45906D1*
X-44967D2*
X-43858D1*
X-42921D2*
X-41812D1*
X-40872D2*
X-39766D1*
X-38826D2*
X-37717D1*
X-36778D2*
X-35671D1*
X-34732D2*
X-33623D1*
X-32683D2*
X-31577D1*
X-30637D2*
X-29528D1*
X-28589D2*
X-27482D1*
X-26543D2*
X-25973D1*
X-25176D2*
X-24660D1*
X-21023D2*
X-17456D1*
X-46165Y-6703D2*
X-45838D1*
X-45035D2*
X-43792D1*
X-42989D2*
X-41744D1*
X-40940D2*
X-39698D1*
X-38894D2*
X-37649D1*
X-36846D2*
X-35603D1*
X-34800D2*
X-33555D1*
X-32751D2*
X-31509D1*
X-30705D2*
X-29460D1*
X-28657D2*
X-27414D1*
X-26611D2*
X-25823D1*
X-25026D2*
X-24606D1*
X-22992D2*
X-22638D1*
X-21023D2*
X-17681D1*
X-46120Y-6852D2*
X-45979D1*
X-44894D2*
X-43931D1*
X-42848D2*
X-41885D1*
X-40800D2*
X-39836D1*
X-38754D2*
X-37790D1*
X-36708D2*
X-35742D1*
X-34659D2*
X-33695D1*
X-32613D2*
X-31647D1*
X-30565D2*
X-29601D1*
X-28519D2*
X-27552D1*
X-26470D2*
X-25675D1*
X-24879D2*
X-17906D1*
X-46099Y-7001D2*
X-46053D1*
X-44822D2*
X-44006D1*
X-42773D2*
X-41957D1*
X-40727D2*
X-39911D1*
X-38679D2*
X-37863D1*
X-36633D2*
X-35817D1*
X-34587D2*
X-33768D1*
X-32538D2*
X-31722D1*
X-30492D2*
X-29674D1*
X-28444D2*
X-27627D1*
X-26397D2*
X-25525D1*
X-24729D2*
X-18131D1*
X-44789Y-7149D2*
X-44036D1*
X-42743D2*
X-41990D1*
X-40694D2*
X-39942D1*
X-38648D2*
X-37895D1*
X-36602D2*
X-35847D1*
X-34554D2*
X-33801D1*
X-32508D2*
X-31752D1*
X-30459D2*
X-29706D1*
X-28413D2*
X-27658D1*
X-26365D2*
X-25377D1*
X-22992D2*
X-22638D1*
X-21023D2*
X-18356D1*
X-44794Y-7298D2*
X-44034D1*
X-42747D2*
X-41985D1*
X-40699D2*
X-39939D1*
X-38653D2*
X-37891D1*
X-36605D2*
X-35845D1*
X-34558D2*
X-33796D1*
X-32510D2*
X-31750D1*
X-30464D2*
X-29702D1*
X-28415D2*
X-27656D1*
X-26369D2*
X-25227D1*
X-21023D2*
X-18581D1*
X-46162Y-7447D2*
X-46040D1*
X-44836D2*
X-43992D1*
X-42787D2*
X-41945D1*
X-40741D2*
X-39897D1*
X-38693D2*
X-37851D1*
X-36647D2*
X-35802D1*
X-34598D2*
X-33756D1*
X-32552D2*
X-31708D1*
X-30504D2*
X-29662D1*
X-28458D2*
X-27613D1*
X-26409D2*
X-25080D1*
X-21023D2*
X-18806D1*
X-46230Y-7595D2*
X-45953D1*
X-44920D2*
X-43905D1*
X-42874D2*
X-41859D1*
X-40826D2*
X-39810D1*
X-38780D2*
X-37764D1*
X-36731D2*
X-35718D1*
X-34685D2*
X-33670D1*
X-32637D2*
X-31624D1*
X-30590D2*
X-29575D1*
X-28542D2*
X-27529D1*
X-26496D2*
X-24932D1*
X-21023D2*
X-19033D1*
X-46329Y-7744D2*
X-45789D1*
X-45087D2*
X-43741D1*
X-43038D2*
X-41695D1*
X-40992D2*
X-39646D1*
X-38944D2*
X-37600D1*
X-36897D2*
X-35552D1*
X-34849D2*
X-33506D1*
X-32803D2*
X-31457D1*
X-30755D2*
X-29411D1*
X-28708D2*
X-27363D1*
X-26660D2*
X-24782D1*
X-21023D2*
X-19258D1*
X-46469Y-7893D2*
X-24606D1*
X-22992D2*
X-22638D1*
X-21023D2*
X-19483D1*
X-46594Y-8041D2*
X-19708D1*
X-46446Y-8190D2*
X-19933D1*
X-46296Y-8339D2*
X-20158D1*
X-25365Y8065D2*
X-24565D1*
Y7899D1*
X-24295D1*
X-24221Y7889D1*
X-24139Y7853D1*
X-23891D1*
X-23823Y7919D1*
X-23759Y7958D1*
X-23689Y7985D1*
X-23616Y8000D1*
X-23541Y8003D1*
X-23466Y7993D1*
X-23395Y7970D1*
X-23328Y7936D1*
X-23268Y7891D1*
X-23217Y7837D1*
X-23187Y7792D1*
X-21440D1*
X-21366Y7782D1*
X-21296Y7754D1*
X-21234Y7707D1*
X-20732Y7204D1*
X-20686Y7145D1*
X-20657Y7076D1*
X-20646Y6999D1*
Y1737D1*
X-20436Y1947D1*
X-20377Y1992D1*
X-20305Y2019D1*
X-20245Y2026D1*
X-19033D1*
X-19056Y2093D1*
X-19071Y2166D1*
X-19077Y2241D1*
X-19074Y2316D1*
X-19060Y2390D1*
X-19037Y2461D1*
X-19005Y2529D1*
X-18965Y2592D1*
X-18916Y2649D1*
X-18861Y2700D1*
X-18785Y2750D1*
X-18848Y2789D1*
X-18904Y2838D1*
X-18954Y2894D1*
X-18997Y2956D1*
X-19031Y3023D1*
X-19056Y3093D1*
X-19071Y3166D1*
X-19077Y3241D1*
X-19074Y3316D1*
X-19060Y3390D1*
X-19037Y3461D1*
X-19005Y3529D1*
X-18965Y3592D1*
X-18916Y3649D1*
X-18861Y3700D1*
X-18785Y3750D1*
X-18848Y3789D1*
X-18904Y3838D1*
X-18954Y3894D1*
X-18997Y3956D1*
X-19031Y4023D1*
X-19056Y4093D1*
X-19071Y4166D1*
X-19077Y4241D1*
X-19074Y4316D1*
X-19060Y4390D1*
X-19037Y4461D1*
X-19005Y4529D1*
X-18965Y4592D1*
X-18916Y4649D1*
X-18861Y4700D1*
X-18785Y4750D1*
X-18848Y4789D1*
X-18904Y4838D1*
X-18954Y4894D1*
X-18997Y4956D1*
X-19031Y5023D1*
X-19056Y5093D1*
X-19071Y5166D1*
X-19077Y5241D1*
X-19074Y5316D1*
X-19060Y5390D1*
X-19037Y5461D1*
X-19005Y5529D1*
X-18965Y5592D1*
X-18916Y5649D1*
X-18861Y5700D1*
X-18785Y5750D1*
X-18848Y5789D1*
X-18904Y5838D1*
X-18954Y5894D1*
X-18997Y5956D1*
X-19031Y6023D1*
X-19056Y6093D1*
X-19071Y6166D1*
X-19076Y6229D1*
X-19252Y6230D1*
X-19326Y6240D1*
X-19396Y6272D1*
X-19444Y6309D1*
X-21129Y7995D1*
X-21174Y8054D1*
X-21201Y8126D1*
X-21196Y8104D1*
X-21235Y8164D1*
X-24051Y10980D1*
X-25252Y10979D1*
X-25249Y10939D1*
X-25256Y10864D1*
X-25274Y10792D1*
X-25305Y10723D1*
X-25347Y10661D1*
X-25399Y10607D1*
X-25460Y10563D1*
X-25556Y10520D1*
X-25284Y10521D1*
X-25254Y10557D1*
X-25198Y10606D1*
X-25134Y10645D1*
X-25064Y10673D1*
X-24991Y10688D1*
X-24916Y10690D1*
X-24841Y10680D1*
X-24770Y10658D1*
X-24703Y10624D1*
X-24643Y10579D1*
X-24592Y10524D1*
X-24551Y10462D1*
X-24520Y10393D1*
X-24502Y10321D1*
X-24496Y10250D1*
X-24503Y10175D1*
X-24522Y10103D1*
X-24553Y10035D1*
X-24595Y9973D1*
X-24647Y9919D1*
X-24707Y9874D1*
X-24774Y9841D1*
X-24845Y9819D1*
X-24920Y9809D1*
X-25015Y9817D1*
X-25002Y9758D1*
X-24997Y9690D1*
X-24904Y9680D1*
X-24832Y9658D1*
X-24766Y9624D1*
X-24706Y9579D1*
X-24655Y9524D1*
X-24613Y9462D1*
X-24583Y9393D1*
X-24565Y9321D1*
X-24559Y9250D1*
X-24565Y9175D1*
X-24584Y9103D1*
X-24615Y9035D1*
X-24657Y8973D1*
X-24709Y8919D1*
X-24769Y8874D1*
X-24836Y8841D1*
X-24908Y8819D1*
X-24982Y8809D1*
X-25057Y8813D1*
X-25130Y8829D1*
X-25193Y8854D1*
X-25209Y8790D1*
X-25240Y8722D1*
X-25282Y8660D1*
X-25334Y8606D1*
X-25394Y8562D1*
X-25461Y8528D1*
X-25533Y8506D1*
X-25638Y8498D1*
X-25621Y8375D1*
X-25628Y8300D1*
X-25647Y8228D1*
X-25678Y8160D1*
X-25720Y8098D1*
X-25772Y8044D1*
X-25826Y8003D1*
X-25809Y7875D1*
X-25815Y7800D1*
X-25834Y7728D1*
X-25865Y7660D1*
X-25907Y7598D1*
X-25959Y7544D1*
X-26029Y7493D1*
X-25957Y7470D1*
X-25891Y7436D1*
X-25831Y7391D1*
X-25780Y7337D1*
X-25738Y7274D1*
X-25708Y7206D1*
X-25690Y7133D1*
X-25684Y7063D1*
X-25690Y6988D1*
X-25703Y6940D1*
X-25591Y6930D1*
X-25520Y6908D1*
X-25440Y6864D1*
Y8065D1*
X-25365D1*
X-24565Y7317D2*
X-24567Y7150D1*
X-24565Y7141D1*
Y6481D1*
X-25247D1*
X-25253Y6425D1*
X-25272Y6353D1*
X-25303Y6285D1*
X-25362Y6204D1*
X-25273Y6176D1*
X-25206Y6142D1*
X-25146Y6097D1*
X-25093Y6041D1*
X-24627Y6039D1*
Y6188D1*
X-23712Y6186D1*
X-23658Y6188D1*
X-23042D1*
Y6021D1*
X-22659D1*
X-22658Y6188D1*
X-21743Y6186D1*
X-21734Y6188D1*
X-21228D1*
Y6876D1*
X-21559Y7209D1*
X-23298Y7210D1*
X-23399Y7153D1*
X-23470Y7131D1*
X-23545Y7122D1*
X-23620Y7125D1*
X-23693Y7141D1*
X-23762Y7169D1*
X-23826Y7209D1*
X-23892Y7271D1*
X-24250D1*
X-24324Y7281D1*
X-24406Y7317D1*
X-24565D1*
Y7156D1*
X-36216Y14285D2*
Y14188D1*
X-36452D1*
X-36399Y14082D1*
X-36381Y14010D1*
X-36375Y13939D1*
X-36382Y13864D1*
X-36401Y13792D1*
X-36432Y13724D1*
X-36474Y13662D1*
X-36525Y13608D1*
X-36586Y13563D1*
X-36653Y13529D1*
X-36724Y13508D1*
X-36799Y13498D1*
X-36873Y13502D1*
X-36922Y13512D1*
X-37779Y12655D1*
X-37756Y12572D1*
X-37751Y12501D1*
X-37757Y12427D1*
X-37776Y12354D1*
X-37807Y12286D1*
X-37849Y12224D1*
X-37901Y12170D1*
X-37961Y12125D1*
X-38052Y12084D1*
X-37867Y12085D1*
X-36399Y13552D1*
X-36400Y13751D1*
X-36389Y13825D1*
X-36358Y13896D1*
X-36320Y13943D1*
X-35977Y14286D1*
X-36215Y14287D1*
X-37091Y14734D2*
X-37089Y15103D1*
X-37091Y15112D1*
Y15667D1*
X-39114Y15666D1*
Y14142D1*
X-39637D1*
X-39722Y14106D1*
X-39781Y14099D1*
X-39812D1*
X-39867Y14039D1*
X-39927Y13994D1*
X-39994Y13961D1*
X-40065Y13939D1*
X-40140Y13929D1*
X-40215Y13933D1*
X-40288Y13949D1*
X-40357Y13977D1*
X-40415Y14013D1*
X-40442Y13958D1*
X-40484Y13896D1*
X-40536Y13842D1*
X-40623Y13784D1*
X-40557Y13734D1*
X-40506Y13680D1*
X-40465Y13617D1*
X-40439Y13559D1*
X-40395Y13614D1*
X-40339Y13663D1*
X-40275Y13702D1*
X-40205Y13730D1*
X-40132Y13745D1*
X-40057Y13748D1*
X-39983Y13737D1*
X-39911Y13715D1*
X-39845Y13681D1*
X-39785Y13636D1*
X-39733Y13581D1*
X-39692Y13519D1*
X-39658Y13434D1*
X-39615Y13403D1*
X-39114D1*
Y12713D1*
X-37092Y14734D1*
X-45798Y15814D2*
X-45797Y14939D1*
X-46458Y14937D1*
X-46440Y14865D1*
X-46435Y14779D1*
X-46443Y14705D1*
X-46465Y14633D1*
X-46498Y14566D1*
X-46542Y14505D1*
X-46596Y14453D1*
X-46658Y14410D1*
X-46726Y14379D1*
X-46798Y14360D1*
X-46873Y14353D1*
X-46947Y14359D1*
X-47020Y14377D1*
X-47088Y14408D1*
X-47151Y14449D1*
X-47205Y14501D1*
X-47250Y14561D1*
X-47284Y14628D1*
X-47306Y14699D1*
X-47316Y14774D1*
X-47313Y14848D1*
X-47297Y14922D1*
X-47292Y14939D1*
X-47382D1*
Y16690D1*
X-46462D1*
X-46463Y16777D1*
X-46496Y16819D1*
X-46532Y16884D1*
X-46557Y16955D1*
X-46569Y17029D1*
Y17104D1*
X-46556Y17178D1*
X-46531Y17248D1*
X-46494Y17313D1*
X-46446Y17371D1*
X-46390Y17420D1*
X-46326Y17459D1*
X-46256Y17487D1*
X-46183Y17502D1*
X-46108Y17505D1*
X-46034Y17495D1*
X-45962Y17472D1*
X-45896Y17438D1*
X-45849Y17403D1*
X-45799Y17404D1*
X-45725Y17395D1*
X-45654Y17371D1*
X-45571Y17316D1*
X-45156Y16902D1*
X-45102Y16901D1*
X-45119Y16955D1*
X-45132Y17029D1*
X-45131Y17104D1*
X-45118Y17178D1*
X-45105Y17215D1*
X-45206Y17273D1*
X-45262Y17323D1*
X-45309Y17381D1*
X-45345Y17447D1*
X-45369Y17518D1*
X-45382Y17591D1*
X-45381Y17666D1*
X-45368Y17740D1*
X-45350Y17791D1*
X-45406Y17763D1*
X-45478Y17740D1*
X-45552Y17729D1*
X-45627Y17731D1*
X-45700Y17745D1*
X-45771Y17771D1*
X-45835Y17808D1*
X-45893Y17856D1*
X-45942Y17912D1*
X-45981Y17977D1*
X-46009Y18046D1*
X-46024Y18119D1*
X-46028Y18255D1*
X-46027Y18273D1*
X-46018Y18347D1*
X-46008Y18381D1*
X-46245Y18379D1*
X-46232Y18277D1*
X-46231Y18114D1*
X-46252Y17966D1*
X-46293Y17822D1*
X-46354Y17685D1*
X-46433Y17557D1*
X-46529Y17442D1*
X-46640Y17342D1*
X-46764Y17258D1*
X-46899Y17192D1*
X-47041Y17145D1*
X-47189Y17119D1*
X-47339Y17113D1*
X-47488Y17128D1*
X-47633Y17164D1*
X-47773Y17220D1*
X-47903Y17294D1*
X-48021Y17386D1*
X-48126Y17493D1*
X-48203Y17597D1*
X-48180Y-6472D1*
X-48118Y-6532D1*
X-48017Y-6392D1*
X-47914Y-6283D1*
X-47796Y-6190D1*
X-47667Y-6114D1*
X-47529Y-6057D1*
X-47384Y-6019D1*
X-47235Y-6002D1*
X-47085Y-6006D1*
X-46937Y-6031D1*
X-46794Y-6076D1*
X-46659Y-6140D1*
X-46534Y-6223D1*
X-46421Y-6322D1*
X-46324Y-6436D1*
X-46243Y-6562D1*
X-46180Y-6698D1*
X-46137Y-6842D1*
X-46115Y-6990D1*
X-46114Y-7152D1*
X-46135Y-7301D1*
X-46176Y-7445D1*
X-46237Y-7582D1*
X-46316Y-7709D1*
X-46412Y-7824D1*
X-46524Y-7924D1*
X-46646Y-8007D1*
X-46399Y-8251D1*
X-46224Y-8425D1*
X-20274Y-8426D1*
X-17015Y-6273D1*
X-17033Y-4324D1*
X-17166Y-4326D1*
X-18077D1*
Y-4139D1*
X-18149Y-4206D1*
X-18212Y-4248D1*
X-18279Y-4281D1*
X-18349Y-4305D1*
X-18423Y-4321D1*
X-18498Y-4326D1*
X-18572Y-4322D1*
X-18646Y-4308D1*
X-18717Y-4284D1*
X-18785Y-4252D1*
X-18848Y-4211D1*
X-18904Y-4162D1*
X-18954Y-4106D1*
X-18998Y-4042D1*
X-20190Y-4041D1*
X-20264Y-4032D1*
X-20333Y-4004D1*
X-20395Y-3956D1*
X-21084Y-3272D1*
X-22623D1*
Y-3106D1*
X-23007D1*
Y-3272D1*
X-23922Y-3270D1*
X-23976Y-3272D1*
X-24591D1*
Y-3083D1*
X-25663Y-3084D1*
X-24951Y-3793D1*
X-24589Y-3792D1*
X-24591Y-3578D1*
X-23676Y-3580D1*
X-23622Y-3578D1*
X-23007D1*
Y-3744D1*
X-22623Y-3745D1*
Y-3578D1*
X-21708Y-3580D1*
X-21699Y-3578D1*
X-21039D1*
Y-4454D1*
X-22623D1*
Y-4287D1*
X-23007D1*
Y-4454D1*
X-23922Y-4451D1*
X-23976Y-4454D1*
X-24541D1*
X-24235Y-4760D1*
X-23676Y-4759D1*
X-23007D1*
Y-4925D1*
X-22623Y-4926D1*
Y-4759D1*
X-21708Y-4761D1*
X-21699Y-4759D1*
X-21039D1*
Y-5635D1*
X-22623D1*
Y-5468D1*
X-23007D1*
Y-5635D1*
X-23922Y-5632D1*
X-23976Y-5635D1*
X-24591D1*
X-24594Y-5168D1*
X-25543Y-4218D1*
X-25544Y-4889D1*
X-24492Y-5941D1*
X-23676Y-5940D1*
X-23007D1*
Y-6107D1*
X-22623D1*
Y-5940D1*
X-21708Y-5942D1*
X-21699Y-5940D1*
X-21039D1*
Y-6816D1*
X-22623D1*
Y-6649D1*
X-23007D1*
Y-6816D1*
X-23922Y-6813D1*
X-23976Y-6816D1*
X-24591D1*
Y-6603D1*
X-24682Y-6517D1*
X-25794Y-5405D1*
Y-5950D1*
X-24593Y-7153D1*
X-24591Y-7121D1*
X-23676Y-7124D1*
X-23622Y-7121D1*
X-23007D1*
Y-7288D1*
X-22623D1*
Y-7121D1*
X-21708Y-7124D1*
X-21699Y-7121D1*
X-21039D1*
Y-7997D1*
X-22623D1*
Y-7830D1*
X-23007D1*
Y-7997D1*
X-23922Y-7995D1*
X-23976Y-7997D1*
X-24591D1*
Y-7830D1*
X-24678Y-7807D1*
X-24761Y-7751D1*
X-26257Y-6255D1*
X-26302Y-6195D1*
X-26329Y-6123D1*
X-26336Y-6063D1*
Y-3989D1*
X-26378Y-3946D1*
X-26382Y-4053D1*
X-26395Y-4126D1*
X-26417Y-4198D1*
X-26447Y-4267D1*
X-26485Y-4331D1*
X-26530Y-4391D1*
X-26582Y-4445D1*
X-26638Y-4491D1*
X-26606Y-4535D1*
X-26569Y-4601D1*
X-26543Y-4671D1*
X-26528Y-4744D1*
X-26525Y-4804D1*
X-26531Y-4879D1*
X-26548Y-4952D1*
X-26576Y-5022D1*
X-26614Y-5086D1*
X-26662Y-5143D1*
X-26724Y-5197D1*
X-26652Y-5264D1*
X-26606Y-5323D1*
X-26569Y-5388D1*
X-26543Y-5458D1*
X-26528Y-5532D1*
X-26525Y-5592D1*
X-26531Y-5667D1*
X-26548Y-5740D1*
X-26576Y-5809D1*
X-26614Y-5873D1*
X-26662Y-5931D1*
X-26724Y-5984D1*
X-26652Y-6051D1*
X-26598Y-6123D1*
X-26558Y-6203D1*
X-26533Y-6289D1*
X-26525Y-6379D1*
X-26533Y-6469D1*
X-26558Y-6555D1*
X-26598Y-6636D1*
X-26639Y-6693D1*
X-26592Y-6730D1*
X-26539Y-6783D1*
X-26492Y-6842D1*
X-26453Y-6906D1*
X-26421Y-6974D1*
X-26398Y-7045D1*
X-26383Y-7118D1*
X-26377Y-7206D1*
X-26382Y-7281D1*
X-26395Y-7355D1*
X-26417Y-7426D1*
X-26447Y-7495D1*
X-26485Y-7560D1*
X-26530Y-7619D1*
X-26582Y-7673D1*
X-26640Y-7721D1*
X-26703Y-7761D1*
X-26771Y-7793D1*
X-26842Y-7818D1*
X-26915Y-7833D1*
X-26990Y-7840D1*
X-27065Y-7839D1*
X-27139Y-7828D1*
X-27211Y-7809D1*
X-27281Y-7781D1*
X-27347Y-7745D1*
X-27408Y-7702D1*
X-27464Y-7652D1*
X-27513Y-7595D1*
X-27556Y-7533D1*
X-27590Y-7467D1*
X-27617Y-7397D1*
X-27635Y-7324D1*
X-27645Y-7250D1*
X-27646Y-7175D1*
X-27638Y-7100D1*
X-27621Y-7027D1*
X-27596Y-6957D1*
X-27562Y-6890D1*
X-27521Y-6827D1*
X-27473Y-6770D1*
X-27382Y-6692D1*
X-27409Y-6661D1*
X-27454Y-6583D1*
X-27484Y-6498D1*
X-27498Y-6409D1*
X-27495Y-6320D1*
X-27476Y-6232D1*
X-27441Y-6149D1*
X-27391Y-6074D1*
X-27329Y-6010D1*
X-27298Y-5985D1*
X-27340Y-5952D1*
X-27391Y-5897D1*
X-27434Y-5836D1*
X-27466Y-5768D1*
X-27488Y-5696D1*
X-27498Y-5622D1*
X-27497Y-5547D1*
X-27489Y-5499D1*
X-28057Y-4930D1*
X-28067Y-4957D1*
X-28124Y-5040D1*
X-28583Y-5499D1*
X-28572Y-5592D1*
X-28578Y-5667D1*
X-28595Y-5740D1*
X-28623Y-5809D1*
X-28661Y-5873D1*
X-28709Y-5931D1*
X-28771Y-5984D1*
X-28699Y-6051D1*
X-28645Y-6123D1*
X-28605Y-6203D1*
X-28580Y-6289D1*
X-28572Y-6379D1*
X-28580Y-6469D1*
X-28605Y-6555D1*
X-28645Y-6636D1*
X-28686Y-6693D1*
X-28639Y-6730D1*
X-28586Y-6783D1*
X-28539Y-6842D1*
X-28500Y-6906D1*
X-28468Y-6974D1*
X-28445Y-7045D1*
X-28430Y-7118D1*
X-28424Y-7206D1*
X-28429Y-7281D1*
X-28442Y-7355D1*
X-28464Y-7426D1*
X-28494Y-7495D1*
X-28532Y-7560D1*
X-28577Y-7619D1*
X-28629Y-7673D1*
X-28687Y-7721D1*
X-28751Y-7761D1*
X-28818Y-7793D1*
X-28889Y-7818D1*
X-28962Y-7833D1*
X-29037Y-7840D1*
X-29112Y-7839D1*
X-29186Y-7828D1*
X-29259Y-7809D1*
X-29328Y-7781D1*
X-29394Y-7745D1*
X-29455Y-7702D1*
X-29511Y-7652D1*
X-29560Y-7595D1*
X-29603Y-7533D1*
X-29638Y-7467D1*
X-29664Y-7397D1*
X-29683Y-7324D1*
X-29692Y-7250D1*
X-29693Y-7175D1*
X-29685Y-7100D1*
X-29668Y-7027D1*
X-29643Y-6957D1*
X-29609Y-6890D1*
X-29568Y-6827D1*
X-29520Y-6770D1*
X-29430Y-6692D1*
X-29457Y-6661D1*
X-29501Y-6583D1*
X-29531Y-6498D1*
X-29545Y-6409D1*
X-29542Y-6320D1*
X-29523Y-6232D1*
X-29488Y-6149D1*
X-29439Y-6074D1*
X-29376Y-6010D1*
X-29346Y-5985D1*
X-29387Y-5952D1*
X-29438Y-5897D1*
X-29481Y-5836D1*
X-29513Y-5768D1*
X-29535Y-5696D1*
X-29545Y-5622D1*
X-29544Y-5547D1*
X-29531Y-5473D1*
X-29508Y-5402D1*
X-29473Y-5336D1*
X-29429Y-5275D1*
X-29376Y-5222D1*
X-29344Y-5199D1*
X-29387Y-5164D1*
X-29438Y-5110D1*
X-29481Y-5048D1*
X-29513Y-4981D1*
X-29535Y-4909D1*
X-29545Y-4835D1*
X-29544Y-4760D1*
X-29531Y-4686D1*
X-29508Y-4615D1*
X-29473Y-4548D1*
X-29430Y-4490D1*
X-29511Y-4423D1*
X-29560Y-4367D1*
X-29603Y-4305D1*
X-29638Y-4239D1*
X-29664Y-4169D1*
X-29683Y-4096D1*
X-29692Y-4022D1*
X-29693Y-3947D1*
X-29685Y-3872D1*
X-29668Y-3799D1*
X-29643Y-3729D1*
X-29609Y-3661D1*
X-29568Y-3599D1*
X-29520Y-3541D1*
X-29465Y-3490D1*
X-29405Y-3446D1*
X-29340Y-3409D1*
X-29271Y-3379D1*
X-29160Y-3352D1*
X-29858Y-2654D1*
X-29857Y-4614D1*
X-29867Y-4688D1*
X-29899Y-4758D1*
X-29937Y-4805D1*
X-30628Y-5496D1*
X-30619Y-5592D1*
X-30625Y-5667D1*
X-30642Y-5740D1*
X-30670Y-5809D1*
X-30709Y-5873D1*
X-30757Y-5931D1*
X-30819Y-5984D1*
X-30747Y-6051D1*
X-30692Y-6123D1*
X-30652Y-6203D1*
X-30628Y-6289D1*
X-30619Y-6379D1*
X-30628Y-6469D1*
X-30652Y-6555D1*
X-30692Y-6636D1*
X-30734Y-6693D1*
X-30686Y-6730D1*
X-30633Y-6783D1*
X-30587Y-6842D1*
X-30547Y-6906D1*
X-30516Y-6974D1*
X-30492Y-7045D1*
X-30478Y-7118D1*
X-30472Y-7206D1*
X-30476Y-7281D1*
X-30489Y-7355D1*
X-30511Y-7426D1*
X-30541Y-7495D1*
X-30579Y-7560D1*
X-30625Y-7619D1*
X-30677Y-7673D1*
X-30735Y-7721D1*
X-30798Y-7761D1*
X-30865Y-7793D1*
X-30936Y-7818D1*
X-31010Y-7833D1*
X-31084Y-7840D1*
X-31159Y-7839D1*
X-31233Y-7828D1*
X-31306Y-7809D1*
X-31376Y-7781D1*
X-31441Y-7745D1*
X-31503Y-7702D1*
X-31558Y-7652D1*
X-31608Y-7595D1*
X-31650Y-7533D1*
X-31685Y-7467D1*
X-31712Y-7397D1*
X-31730Y-7324D1*
X-31739Y-7250D1*
X-31740Y-7175D1*
X-31732Y-7100D1*
X-31715Y-7027D1*
X-31690Y-6957D1*
X-31657Y-6890D1*
X-31615Y-6827D1*
X-31567Y-6770D1*
X-31477Y-6692D1*
X-31504Y-6661D1*
X-31549Y-6583D1*
X-31579Y-6498D1*
X-31592Y-6409D1*
X-31590Y-6320D1*
X-31570Y-6232D1*
X-31535Y-6149D1*
X-31486Y-6074D1*
X-31423Y-6010D1*
X-31393Y-5985D1*
X-31434Y-5952D1*
X-31486Y-5897D1*
X-31528Y-5836D1*
X-31560Y-5768D1*
X-31582Y-5696D1*
X-31592Y-5622D1*
X-31591Y-5547D1*
X-31579Y-5473D1*
X-31555Y-5402D1*
X-31520Y-5336D1*
X-31476Y-5275D1*
X-31423Y-5222D1*
X-31391Y-5199D1*
X-31434Y-5164D1*
X-31486Y-5110D1*
X-31528Y-5048D1*
X-31560Y-4981D1*
X-31582Y-4909D1*
X-31592Y-4835D1*
X-31591Y-4760D1*
X-31579Y-4686D1*
X-31555Y-4615D1*
X-31520Y-4548D1*
X-31478Y-4490D1*
X-31558Y-4423D1*
X-31608Y-4367D1*
X-31650Y-4305D1*
X-31685Y-4239D1*
X-31712Y-4169D1*
X-31730Y-4096D1*
X-31739Y-4022D1*
X-31740Y-3947D1*
X-31732Y-3872D1*
X-31715Y-3799D1*
X-31690Y-3729D1*
X-31657Y-3661D1*
X-31615Y-3599D1*
X-31567Y-3541D1*
X-31513Y-3490D1*
X-31452Y-3446D1*
X-31387Y-3409D1*
X-31318Y-3379D1*
X-31246Y-3359D1*
X-31172Y-3346D1*
X-31097Y-3343D1*
X-31023Y-3349D1*
X-30949Y-3363D1*
X-30878Y-3386D1*
X-30809Y-3417D1*
X-30745Y-3456D1*
X-30686Y-3502D1*
X-30633Y-3555D1*
X-30587Y-3613D1*
X-30547Y-3677D1*
X-30516Y-3745D1*
X-30492Y-3817D1*
X-30478Y-3890D1*
X-30472Y-3978D1*
X-30476Y-4053D1*
X-30489Y-4126D1*
X-30511Y-4198D1*
X-30541Y-4267D1*
X-30579Y-4331D1*
X-30625Y-4391D1*
X-30677Y-4445D1*
X-30733Y-4491D1*
X-30700Y-4535D1*
X-30664Y-4601D1*
X-30638Y-4671D1*
X-30626Y-4728D1*
X-30398Y-4500D1*
X-30399Y-2514D1*
Y-2427D1*
X-31115Y-1709D1*
X-31919Y-905D1*
X-31920Y-4629D1*
X-31930Y-4703D1*
X-31962Y-4773D1*
X-31999Y-4821D1*
X-32677Y-5499D1*
X-32666Y-5592D1*
X-32672Y-5667D1*
X-32689Y-5740D1*
X-32718Y-5809D1*
X-32756Y-5873D1*
X-32804Y-5931D1*
X-32866Y-5984D1*
X-32794Y-6051D1*
X-32740Y-6123D1*
X-32699Y-6203D1*
X-32675Y-6289D1*
X-32666Y-6379D1*
X-32675Y-6469D1*
X-32699Y-6555D1*
X-32739Y-6636D1*
X-32781Y-6693D1*
X-32733Y-6730D1*
X-32680Y-6783D1*
X-32634Y-6842D1*
X-32594Y-6906D1*
X-32563Y-6974D1*
X-32540Y-7045D1*
X-32525Y-7118D1*
X-32519Y-7206D1*
X-32523Y-7281D1*
X-32536Y-7355D1*
X-32558Y-7426D1*
X-32588Y-7495D1*
X-32626Y-7560D1*
X-32672Y-7619D1*
X-32724Y-7673D1*
X-32782Y-7721D1*
X-32845Y-7761D1*
X-32913Y-7793D1*
X-32984Y-7818D1*
X-33057Y-7833D1*
X-33132Y-7840D1*
X-33206Y-7839D1*
X-33281Y-7828D1*
X-33353Y-7809D1*
X-33423Y-7781D1*
X-33489Y-7745D1*
X-33550Y-7702D1*
X-33606Y-7652D1*
X-33655Y-7595D1*
X-33697Y-7533D1*
X-33732Y-7467D1*
X-33759Y-7397D1*
X-33777Y-7324D1*
X-33787Y-7250D1*
Y-7175D1*
X-33779Y-7100D1*
X-33763Y-7027D1*
X-33737Y-6957D1*
X-33704Y-6890D1*
X-33663Y-6827D1*
X-33615Y-6770D1*
X-33524Y-6692D1*
X-33551Y-6661D1*
X-33596Y-6583D1*
X-33626Y-6498D1*
X-33640Y-6409D1*
X-33637Y-6320D1*
X-33618Y-6232D1*
X-33583Y-6149D1*
X-33533Y-6074D1*
X-33471Y-6010D1*
X-33440Y-5985D1*
X-33482Y-5952D1*
X-33533Y-5897D1*
X-33575Y-5836D1*
X-33608Y-5768D1*
X-33629Y-5696D1*
X-33640Y-5622D1*
X-33639Y-5547D1*
X-33626Y-5473D1*
X-33602Y-5402D1*
X-33568Y-5336D1*
X-33524Y-5275D1*
X-33471Y-5222D1*
X-33438Y-5199D1*
X-33482Y-5164D1*
X-33533Y-5110D1*
X-33575Y-5048D1*
X-33608Y-4981D1*
X-33629Y-4909D1*
X-33640Y-4835D1*
X-33639Y-4760D1*
X-33626Y-4686D1*
X-33602Y-4615D1*
X-33568Y-4548D1*
X-33525Y-4490D1*
X-33606Y-4423D1*
X-33655Y-4367D1*
X-33697Y-4305D1*
X-33732Y-4239D1*
X-33759Y-4169D1*
X-33777Y-4096D1*
X-33787Y-4022D1*
Y-3947D1*
X-33779Y-3872D1*
X-33763Y-3799D1*
X-33737Y-3729D1*
X-33704Y-3661D1*
X-33663Y-3599D1*
X-33615Y-3541D1*
X-33560Y-3490D1*
X-33500Y-3446D1*
X-33434Y-3409D1*
X-33365Y-3379D1*
X-33293Y-3359D1*
X-33219Y-3346D1*
X-33145Y-3343D1*
X-33070Y-3349D1*
X-32996Y-3363D1*
X-32925Y-3386D1*
X-32857Y-3417D1*
X-32793Y-3456D1*
X-32733Y-3502D1*
X-32680Y-3555D1*
X-32634Y-3613D1*
X-32594Y-3677D1*
X-32563Y-3745D1*
X-32540Y-3817D1*
X-32525Y-3890D1*
X-32519Y-3978D1*
X-32523Y-4053D1*
X-32536Y-4126D1*
X-32558Y-4198D1*
X-32588Y-4267D1*
X-32626Y-4331D1*
X-32672Y-4391D1*
X-32724Y-4445D1*
X-32780Y-4491D1*
X-32748Y-4535D1*
X-32711Y-4601D1*
X-32685Y-4671D1*
X-32673Y-4728D1*
X-32462Y-4517D1*
Y-614D1*
X-32626Y-448D1*
X-32647Y-522D1*
X-32678Y-590D1*
X-32720Y-652D1*
X-32772Y-706D1*
X-32832Y-751D1*
X-32899Y-784D1*
X-32970Y-806D1*
X-33045Y-816D1*
X-33120Y-812D1*
X-33193Y-796D1*
X-33262Y-768D1*
X-33326Y-729D1*
X-33382Y-679D1*
X-33429Y-621D1*
X-33470Y-540D1*
X-33858Y-925D1*
Y-4520D1*
X-33868Y-4594D1*
X-33900Y-4664D1*
X-33937Y-4711D1*
X-34724Y-5498D1*
X-34714Y-5592D1*
X-34719Y-5667D1*
X-34737Y-5740D1*
X-34765Y-5809D1*
X-34803Y-5873D1*
X-34851Y-5931D1*
X-34913Y-5984D1*
X-34841Y-6051D1*
X-34787Y-6123D1*
X-34747Y-6203D1*
X-34722Y-6289D1*
X-34714Y-6379D1*
X-34722Y-6469D1*
X-34747Y-6555D1*
X-34787Y-6636D1*
X-34828Y-6693D1*
X-34781Y-6730D1*
X-34728Y-6783D1*
X-34681Y-6842D1*
X-34642Y-6906D1*
X-34610Y-6974D1*
X-34587Y-7045D1*
X-34572Y-7118D1*
X-34566Y-7206D1*
X-34571Y-7281D1*
X-34584Y-7355D1*
X-34606Y-7426D1*
X-34636Y-7495D1*
X-34674Y-7560D1*
X-34719Y-7619D1*
X-34771Y-7673D1*
X-34829Y-7721D1*
X-34892Y-7761D1*
X-34960Y-7793D1*
X-35031Y-7818D1*
X-35104Y-7833D1*
X-35179Y-7840D1*
X-35254Y-7839D1*
X-35328Y-7828D1*
X-35400Y-7809D1*
X-35470Y-7781D1*
X-35536Y-7745D1*
X-35597Y-7702D1*
X-35653Y-7652D1*
X-35702Y-7595D1*
X-35745Y-7533D1*
X-35779Y-7467D1*
X-35806Y-7397D1*
X-35824Y-7324D1*
X-35834Y-7250D1*
X-35835Y-7175D1*
X-35827Y-7100D1*
X-35810Y-7027D1*
X-35785Y-6957D1*
X-35751Y-6890D1*
X-35710Y-6827D1*
X-35662Y-6770D1*
X-35571Y-6692D1*
X-35598Y-6661D1*
X-35643Y-6583D1*
X-35673Y-6498D1*
X-35687Y-6409D1*
X-35684Y-6320D1*
X-35665Y-6232D1*
X-35630Y-6149D1*
X-35580Y-6074D1*
X-35518Y-6010D1*
X-35487Y-5985D1*
X-35529Y-5952D1*
X-35580Y-5897D1*
X-35623Y-5836D1*
X-35655Y-5768D1*
X-35677Y-5696D1*
X-35687Y-5622D1*
X-35686Y-5547D1*
X-35673Y-5473D1*
X-35649Y-5402D1*
X-35615Y-5336D1*
X-35571Y-5275D1*
X-35518Y-5222D1*
X-35486Y-5199D1*
X-35529Y-5164D1*
X-35580Y-5110D1*
X-35623Y-5048D1*
X-35655Y-4981D1*
X-35677Y-4909D1*
X-35687Y-4835D1*
X-35686Y-4760D1*
X-35673Y-4686D1*
X-35649Y-4615D1*
X-35615Y-4548D1*
X-35572Y-4490D1*
X-35653Y-4423D1*
X-35702Y-4367D1*
X-35745Y-4305D1*
X-35779Y-4239D1*
X-35806Y-4169D1*
X-35824Y-4096D1*
X-35834Y-4022D1*
X-35829Y-3898D1*
X-35921Y-3988D1*
X-35920Y-4535D1*
X-35931Y-4609D1*
X-35962Y-4679D1*
X-36000Y-4727D1*
X-36770Y-5497D1*
X-36761Y-5592D1*
X-36767Y-5667D1*
X-36784Y-5740D1*
X-36812Y-5809D1*
X-36850Y-5873D1*
X-36898Y-5931D1*
X-36960Y-5984D1*
X-36888Y-6051D1*
X-36834Y-6123D1*
X-36794Y-6203D1*
X-36769Y-6289D1*
X-36761Y-6379D1*
X-36769Y-6469D1*
X-36794Y-6555D1*
X-36834Y-6636D1*
X-36875Y-6693D1*
X-36828Y-6730D1*
X-36775Y-6783D1*
X-36728Y-6842D1*
X-36689Y-6906D1*
X-36657Y-6974D1*
X-36634Y-7045D1*
X-36619Y-7118D1*
X-36613Y-7206D1*
X-36618Y-7281D1*
X-36631Y-7355D1*
X-36653Y-7426D1*
X-36683Y-7495D1*
X-36721Y-7560D1*
X-36766Y-7619D1*
X-36818Y-7673D1*
X-36876Y-7721D1*
X-36940Y-7761D1*
X-37007Y-7793D1*
X-37078Y-7818D1*
X-37151Y-7833D1*
X-37226Y-7840D1*
X-37301Y-7839D1*
X-37375Y-7828D1*
X-37448Y-7809D1*
X-37517Y-7781D1*
X-37583Y-7745D1*
X-37644Y-7702D1*
X-37700Y-7652D1*
X-37749Y-7595D1*
X-37792Y-7533D1*
X-37827Y-7467D1*
X-37853Y-7397D1*
X-37872Y-7324D1*
X-37881Y-7250D1*
X-37882Y-7175D1*
X-37874Y-7100D1*
X-37857Y-7027D1*
X-37832Y-6957D1*
X-37798Y-6890D1*
X-37757Y-6827D1*
X-37709Y-6770D1*
X-37619Y-6692D1*
X-37645Y-6661D1*
X-37690Y-6583D1*
X-37720Y-6498D1*
X-37734Y-6409D1*
X-37731Y-6320D1*
X-37712Y-6232D1*
X-37677Y-6149D1*
X-37628Y-6074D1*
X-37565Y-6010D1*
X-37535Y-5985D1*
X-37576Y-5952D1*
X-37627Y-5897D1*
X-37670Y-5836D1*
X-37702Y-5768D1*
X-37724Y-5696D1*
X-37734Y-5622D1*
X-37733Y-5547D1*
X-37720Y-5473D1*
X-37697Y-5402D1*
X-37662Y-5336D1*
X-37618Y-5275D1*
X-37565Y-5222D1*
X-37533Y-5199D1*
X-37576Y-5164D1*
X-37627Y-5110D1*
X-37670Y-5048D1*
X-37702Y-4981D1*
X-37724Y-4909D1*
X-37734Y-4835D1*
X-37733Y-4760D1*
X-37720Y-4686D1*
X-37697Y-4615D1*
X-37662Y-4548D1*
X-37619Y-4490D1*
X-37700Y-4423D1*
X-37749Y-4367D1*
X-37792Y-4305D1*
X-37827Y-4239D1*
X-37853Y-4169D1*
X-37872Y-4096D1*
X-37881Y-4022D1*
X-37882Y-3949D1*
X-38108Y-4175D1*
Y-4676D1*
X-38118Y-4750D1*
X-38150Y-4820D1*
X-38187Y-4867D1*
X-38819Y-5499D1*
X-38808Y-5592D1*
X-38814Y-5667D1*
X-38831Y-5740D1*
X-38859Y-5809D1*
X-38898Y-5873D1*
X-38946Y-5931D1*
X-39008Y-5984D1*
X-38936Y-6051D1*
X-38881Y-6123D1*
X-38841Y-6203D1*
X-38817Y-6289D1*
X-38808Y-6379D1*
X-38817Y-6469D1*
X-38841Y-6555D1*
X-38881Y-6636D1*
X-38923Y-6693D1*
X-38875Y-6730D1*
X-38822Y-6783D1*
X-38775Y-6842D1*
X-38736Y-6906D1*
X-38705Y-6974D1*
X-38681Y-7045D1*
X-38667Y-7118D1*
X-38661Y-7206D1*
X-38665Y-7281D1*
X-38678Y-7355D1*
X-38700Y-7426D1*
X-38730Y-7495D1*
X-38768Y-7560D1*
X-38814Y-7619D1*
X-38866Y-7673D1*
X-38924Y-7721D1*
X-38987Y-7761D1*
X-39054Y-7793D1*
X-39125Y-7818D1*
X-39199Y-7833D1*
X-39273Y-7840D1*
X-39348Y-7839D1*
X-39422Y-7828D1*
X-39495Y-7809D1*
X-39564Y-7781D1*
X-39630Y-7745D1*
X-39692Y-7702D1*
X-39747Y-7652D1*
X-39797Y-7595D1*
X-39839Y-7533D1*
X-39874Y-7467D1*
X-39901Y-7397D1*
X-39919Y-7324D1*
X-39928Y-7250D1*
X-39929Y-7175D1*
X-39921Y-7100D1*
X-39904Y-7027D1*
X-39879Y-6957D1*
X-39846Y-6890D1*
X-39804Y-6827D1*
X-39756Y-6770D1*
X-39666Y-6692D1*
X-39693Y-6661D1*
X-39738Y-6583D1*
X-39768Y-6498D1*
X-39781Y-6409D1*
X-39779Y-6320D1*
X-39759Y-6232D1*
X-39724Y-6149D1*
X-39675Y-6074D1*
X-39612Y-6010D1*
X-39582Y-5985D1*
X-39623Y-5952D1*
X-39675Y-5897D1*
X-39717Y-5836D1*
X-39749Y-5768D1*
X-39771Y-5696D1*
X-39781Y-5622D1*
X-39780Y-5547D1*
X-39768Y-5473D1*
X-39744Y-5402D1*
X-39709Y-5336D1*
X-39665Y-5275D1*
X-39612Y-5222D1*
X-39580Y-5199D1*
X-39623Y-5164D1*
X-39675Y-5110D1*
X-39717Y-5048D1*
X-39749Y-4981D1*
X-39771Y-4909D1*
X-39781Y-4835D1*
X-39780Y-4760D1*
X-39768Y-4686D1*
X-39744Y-4615D1*
X-39709Y-4548D1*
X-39667Y-4490D1*
X-39747Y-4423D1*
X-39797Y-4367D1*
X-39839Y-4305D1*
X-39874Y-4239D1*
X-39901Y-4169D1*
X-39919Y-4096D1*
X-39928Y-4022D1*
X-39929Y-3947D1*
X-39919Y-3861D1*
X-40045Y-3987D1*
X-40046Y-4566D1*
X-40056Y-4640D1*
X-40088Y-4710D1*
X-40125Y-4758D1*
X-40866Y-5499D1*
X-40855Y-5592D1*
X-40861Y-5667D1*
X-40878Y-5740D1*
X-40907Y-5809D1*
X-40945Y-5873D1*
X-40993Y-5931D1*
X-41055Y-5984D1*
X-40983Y-6051D1*
X-40929Y-6123D1*
X-40888Y-6203D1*
X-40864Y-6289D1*
X-40855Y-6379D1*
X-40864Y-6469D1*
X-40888Y-6555D1*
X-40928Y-6636D1*
X-40970Y-6693D1*
X-40922Y-6730D1*
X-40869Y-6783D1*
X-40823Y-6842D1*
X-40783Y-6906D1*
X-40752Y-6974D1*
X-40729Y-7045D1*
X-40714Y-7118D1*
X-40708Y-7206D1*
X-40712Y-7281D1*
X-40725Y-7355D1*
X-40747Y-7426D1*
X-40777Y-7495D1*
X-40815Y-7560D1*
X-40861Y-7619D1*
X-40913Y-7673D1*
X-40971Y-7721D1*
X-41034Y-7761D1*
X-41102Y-7793D1*
X-41173Y-7818D1*
X-41246Y-7833D1*
X-41321Y-7840D1*
X-41395Y-7839D1*
X-41470Y-7828D1*
X-41542Y-7809D1*
X-41612Y-7781D1*
X-41678Y-7745D1*
X-41739Y-7702D1*
X-41795Y-7652D1*
X-41844Y-7595D1*
X-41886Y-7533D1*
X-41921Y-7467D1*
X-41948Y-7397D1*
X-41966Y-7324D1*
X-41976Y-7250D1*
Y-7175D1*
X-41968Y-7100D1*
X-41952Y-7027D1*
X-41926Y-6957D1*
X-41893Y-6890D1*
X-41852Y-6827D1*
X-41804Y-6770D1*
X-41713Y-6692D1*
X-41740Y-6661D1*
X-41785Y-6583D1*
X-41815Y-6498D1*
X-41829Y-6409D1*
X-41826Y-6320D1*
X-41807Y-6232D1*
X-41772Y-6149D1*
X-41722Y-6074D1*
X-41660Y-6010D1*
X-41629Y-5985D1*
X-41671Y-5952D1*
X-41722Y-5897D1*
X-41764Y-5836D1*
X-41797Y-5768D1*
X-41818Y-5696D1*
X-41829Y-5622D1*
X-41828Y-5547D1*
X-41815Y-5473D1*
X-41791Y-5402D1*
X-41757Y-5336D1*
X-41713Y-5275D1*
X-41660Y-5222D1*
X-41627Y-5199D1*
X-41671Y-5164D1*
X-41722Y-5110D1*
X-41764Y-5048D1*
X-41797Y-4981D1*
X-41818Y-4909D1*
X-41829Y-4835D1*
X-41828Y-4760D1*
X-41815Y-4686D1*
X-41791Y-4615D1*
X-41757Y-4548D1*
X-41714Y-4490D1*
X-41795Y-4423D1*
X-41844Y-4367D1*
X-41886Y-4305D1*
X-41921Y-4239D1*
X-41948Y-4169D1*
X-41966Y-4096D1*
X-41976Y-4022D1*
Y-3947D1*
X-41968Y-3872D1*
X-41935Y-3753D1*
X-42107Y-3924D1*
X-42108Y-4582D1*
X-42119Y-4656D1*
X-42150Y-4726D1*
X-42188Y-4773D1*
X-42912Y-5497D1*
X-42903Y-5592D1*
X-42908Y-5667D1*
X-42926Y-5740D1*
X-42954Y-5809D1*
X-42992Y-5873D1*
X-43040Y-5931D1*
X-43102Y-5984D1*
X-43030Y-6051D1*
X-42976Y-6123D1*
X-42936Y-6203D1*
X-42911Y-6289D1*
X-42903Y-6379D1*
X-42911Y-6469D1*
X-42936Y-6555D1*
X-42976Y-6636D1*
X-43017Y-6693D1*
X-42970Y-6730D1*
X-42917Y-6783D1*
X-42870Y-6842D1*
X-42831Y-6906D1*
X-42799Y-6974D1*
X-42776Y-7045D1*
X-42761Y-7118D1*
X-42755Y-7206D1*
X-42759Y-7281D1*
X-42773Y-7355D1*
X-42795Y-7426D1*
X-42825Y-7495D1*
X-42863Y-7560D1*
X-42908Y-7619D1*
X-42960Y-7673D1*
X-43018Y-7721D1*
X-43081Y-7761D1*
X-43149Y-7793D1*
X-43220Y-7818D1*
X-43293Y-7833D1*
X-43368Y-7840D1*
X-43443Y-7839D1*
X-43517Y-7828D1*
X-43589Y-7809D1*
X-43659Y-7781D1*
X-43725Y-7745D1*
X-43786Y-7702D1*
X-43842Y-7652D1*
X-43891Y-7595D1*
X-43934Y-7533D1*
X-43968Y-7467D1*
X-43995Y-7397D1*
X-44013Y-7324D1*
X-44023Y-7250D1*
X-44024Y-7175D1*
X-44016Y-7100D1*
X-43999Y-7027D1*
X-43974Y-6957D1*
X-43940Y-6890D1*
X-43899Y-6827D1*
X-43851Y-6770D1*
X-43760Y-6692D1*
X-43787Y-6661D1*
X-43832Y-6583D1*
X-43862Y-6498D1*
X-43876Y-6409D1*
X-43873Y-6320D1*
X-43854Y-6232D1*
X-43819Y-6149D1*
X-43769Y-6074D1*
X-43707Y-6010D1*
X-43676Y-5985D1*
X-43718Y-5952D1*
X-43769Y-5897D1*
X-43812Y-5836D1*
X-43844Y-5768D1*
X-43866Y-5696D1*
X-43876Y-5622D1*
X-43875Y-5547D1*
X-43862Y-5473D1*
X-43838Y-5402D1*
X-43804Y-5336D1*
X-43760Y-5275D1*
X-43707Y-5222D1*
X-43675Y-5199D1*
X-43718Y-5164D1*
X-43769Y-5110D1*
X-43812Y-5048D1*
X-43844Y-4981D1*
X-43866Y-4909D1*
X-43876Y-4835D1*
X-43875Y-4760D1*
X-43862Y-4686D1*
X-43838Y-4615D1*
X-43804Y-4548D1*
X-43761Y-4490D1*
X-43842Y-4423D1*
X-43891Y-4367D1*
X-43934Y-4305D1*
X-43968Y-4239D1*
X-43995Y-4169D1*
X-44013Y-4096D1*
X-44023Y-4022D1*
X-44024Y-3947D1*
X-44016Y-3872D1*
X-43999Y-3799D1*
X-43974Y-3729D1*
X-43940Y-3661D1*
X-43899Y-3599D1*
X-43851Y-3541D1*
X-43796Y-3490D1*
X-43736Y-3446D1*
X-43671Y-3409D1*
X-43602Y-3379D1*
X-43530Y-3359D1*
X-43456Y-3346D1*
X-43381Y-3343D1*
X-43306Y-3349D1*
X-43232Y-3363D1*
X-43161Y-3386D1*
X-43093Y-3417D1*
X-43029Y-3456D1*
X-42970Y-3502D1*
X-42917Y-3555D1*
X-42870Y-3613D1*
X-42831Y-3677D1*
X-42799Y-3745D1*
X-42776Y-3817D1*
X-42761Y-3890D1*
X-42755Y-3978D1*
X-42759Y-4053D1*
X-42773Y-4126D1*
X-42795Y-4198D1*
X-42825Y-4267D1*
X-42863Y-4331D1*
X-42908Y-4391D1*
X-42960Y-4445D1*
X-43016Y-4491D1*
X-42984Y-4535D1*
X-42947Y-4601D1*
X-42921Y-4671D1*
X-42910Y-4728D1*
X-42652Y-4470D1*
X-42650Y-3813D1*
X-42640Y-3739D1*
X-42608Y-3669D1*
X-42571Y-3621D1*
X-42071Y-3121D1*
X-42011Y-3076D1*
X-41939Y-3049D1*
X-41879Y-3042D1*
X-40241D1*
X-40008Y-2808D1*
X-39948Y-2763D1*
X-39876Y-2736D1*
X-39816Y-2729D1*
X-36303D1*
X-35400Y-1826D1*
Y-688D1*
X-35389Y-614D1*
X-35358Y-543D1*
X-35320Y-496D1*
X-34937Y-113D1*
X-35007Y-54D1*
X-35054Y4D1*
X-35090Y70D1*
X-35116Y148D1*
X-36185Y146D1*
X-36187Y-20D1*
X-36274D1*
X-36275Y-627D1*
X-36109Y-625D1*
X-35440D1*
Y-1500D1*
X-37024D1*
Y-625D1*
X-36857D1*
Y-20D1*
X-37063D1*
X-37065Y247D1*
X-37095Y178D1*
X-37137Y116D1*
X-37189Y62D1*
X-37250Y18D1*
X-37317Y-16D1*
X-37388Y-38D1*
X-37463Y-47D1*
X-37537Y-44D1*
X-37611Y-28D1*
X-37680Y1D1*
X-37744Y40D1*
X-37800Y90D1*
X-37847Y148D1*
X-37883Y214D1*
X-37908Y284D1*
X-37920Y358D1*
Y433D1*
X-37907Y507D1*
X-37881Y577D1*
X-37844Y643D1*
X-37797Y701D1*
X-37740Y750D1*
X-37676Y789D1*
X-37607Y816D1*
X-37533Y831D1*
X-37458Y834D1*
X-37384Y824D1*
X-37313Y802D1*
X-37246Y767D1*
X-37186Y722D1*
X-37135Y668D1*
X-37093Y605D1*
X-37063Y536D1*
X-37061Y895D1*
X-37063Y904D1*
Y1262D1*
X-37149Y1216D1*
X-37220Y1194D1*
X-37295Y1184D1*
X-37370Y1188D1*
X-37443Y1204D1*
X-37512Y1232D1*
X-37588Y1282D1*
X-37565Y1196D1*
X-37559Y1125D1*
X-37565Y1050D1*
X-37584Y978D1*
X-37615Y910D1*
X-37657Y848D1*
X-37709Y794D1*
X-37769Y749D1*
X-37836Y716D1*
X-37908Y694D1*
X-37982Y684D1*
X-38051Y685D1*
Y-110D1*
X-38927D1*
Y1354D1*
X-39232D1*
X-39235Y559D1*
X-39232Y550D1*
Y-110D1*
X-40108D1*
Y1368D1*
X-40127Y1465D1*
Y1540D1*
X-40114Y1613D1*
X-40088Y1684D1*
X-40062Y1731D1*
X-40454Y1729D1*
X-40410Y1639D1*
X-40391Y1567D1*
X-40386Y1496D1*
X-40392Y1421D1*
X-40414Y1343D1*
X-40416Y559D1*
X-40414Y550D1*
Y-110D1*
X-41289D1*
Y1474D1*
X-41268D1*
X-41266Y1536D1*
X-41253Y1609D1*
X-41228Y1680D1*
X-41199Y1731D1*
X-41452Y1729D1*
X-42060Y1119D1*
X-42383Y796D1*
X-42296Y790D1*
X-42223Y773D1*
X-42154Y743D1*
X-42091Y702D1*
X-42036Y651D1*
X-41991Y592D1*
X-41956Y526D1*
X-41933Y454D1*
X-41922Y380D1*
X-41925Y295D1*
X-41942Y221D1*
X-41970Y152D1*
X-42010Y89D1*
X-42060Y33D1*
X-42119Y-13D1*
X-42185Y-49D1*
X-42256Y-74D1*
X-42330Y-85D1*
X-42404D1*
X-42478Y-71D1*
X-42548Y-45D1*
X-42613Y-8D1*
X-42671Y40D1*
X-42720Y96D1*
X-42758Y161D1*
X-42785Y231D1*
X-42800Y304D1*
X-42803Y376D1*
X-44104Y-924D1*
Y-4530D1*
X-44114Y-4604D1*
X-44146Y-4674D1*
X-44183Y-4721D1*
X-44961Y-5499D1*
X-44950Y-5592D1*
X-44956Y-5667D1*
X-44973Y-5740D1*
X-45001Y-5809D1*
X-45039Y-5873D1*
X-45087Y-5931D1*
X-45149Y-5984D1*
X-45077Y-6051D1*
X-45023Y-6123D1*
X-44983Y-6203D1*
X-44958Y-6289D1*
X-44950Y-6379D1*
X-44958Y-6469D1*
X-44983Y-6555D1*
X-45023Y-6636D1*
X-45064Y-6693D1*
X-45017Y-6730D1*
X-44964Y-6783D1*
X-44917Y-6842D1*
X-44878Y-6906D1*
X-44846Y-6974D1*
X-44823Y-7045D1*
X-44808Y-7118D1*
X-44802Y-7206D1*
X-44807Y-7281D1*
X-44820Y-7355D1*
X-44842Y-7426D1*
X-44872Y-7495D1*
X-44910Y-7560D1*
X-44955Y-7619D1*
X-45007Y-7673D1*
X-45065Y-7721D1*
X-45129Y-7761D1*
X-45196Y-7793D1*
X-45267Y-7818D1*
X-45340Y-7833D1*
X-45415Y-7840D1*
X-45490Y-7839D1*
X-45564Y-7828D1*
X-45637Y-7809D1*
X-45706Y-7781D1*
X-45772Y-7745D1*
X-45833Y-7702D1*
X-45889Y-7652D1*
X-45938Y-7595D1*
X-45981Y-7533D1*
X-46016Y-7467D1*
X-46042Y-7397D1*
X-46061Y-7324D1*
X-46070Y-7250D1*
X-46071Y-7175D1*
X-46063Y-7100D1*
X-46046Y-7027D1*
X-46021Y-6957D1*
X-45987Y-6890D1*
X-45946Y-6827D1*
X-45898Y-6770D1*
X-45808Y-6692D1*
X-45834Y-6661D1*
X-45879Y-6583D1*
X-45909Y-6498D1*
X-45923Y-6409D1*
X-45920Y-6320D1*
X-45901Y-6232D1*
X-45866Y-6149D1*
X-45817Y-6074D1*
X-45754Y-6010D1*
X-45724Y-5985D1*
X-45765Y-5952D1*
X-45816Y-5897D1*
X-45859Y-5836D1*
X-45891Y-5768D1*
X-45913Y-5696D1*
X-45923Y-5622D1*
X-45922Y-5547D1*
X-45909Y-5473D1*
X-45886Y-5402D1*
X-45851Y-5336D1*
X-45807Y-5275D1*
X-45754Y-5222D1*
X-45722Y-5199D1*
X-45765Y-5164D1*
X-45816Y-5110D1*
X-45859Y-5048D1*
X-45891Y-4981D1*
X-45913Y-4909D1*
X-45923Y-4835D1*
X-45922Y-4760D1*
X-45909Y-4686D1*
X-45886Y-4615D1*
X-45851Y-4548D1*
X-45808Y-4490D1*
X-45889Y-4423D1*
X-45938Y-4367D1*
X-45981Y-4305D1*
X-46016Y-4239D1*
X-46042Y-4169D1*
X-46061Y-4096D1*
X-46070Y-4022D1*
X-46071Y-3947D1*
X-46063Y-3872D1*
X-46046Y-3799D1*
X-46021Y-3729D1*
X-45987Y-3661D1*
X-45946Y-3599D1*
X-45898Y-3541D1*
X-45843Y-3490D1*
X-45783Y-3446D1*
X-45718Y-3409D1*
X-45649Y-3379D1*
X-45577Y-3359D1*
X-45503Y-3346D1*
X-45428Y-3343D1*
X-45353Y-3349D1*
X-45280Y-3363D1*
X-45208Y-3386D1*
X-45140Y-3417D1*
X-45076Y-3456D1*
X-45017Y-3502D1*
X-44964Y-3555D1*
X-44917Y-3613D1*
X-44878Y-3677D1*
X-44846Y-3745D1*
X-44823Y-3817D1*
X-44808Y-3890D1*
X-44802Y-3978D1*
X-44807Y-4053D1*
X-44820Y-4126D1*
X-44842Y-4198D1*
X-44872Y-4267D1*
X-44910Y-4331D1*
X-44955Y-4391D1*
X-45007Y-4445D1*
X-45064Y-4491D1*
X-45031Y-4535D1*
X-44995Y-4601D1*
X-44969Y-4671D1*
X-44957Y-4728D1*
X-44646Y-4417D1*
Y-812D1*
X-44636Y-738D1*
X-44604Y-668D1*
X-44567Y-621D1*
X-41821Y2125D1*
X-42067Y2371D1*
X-42470Y2370D1*
Y3051D1*
X-42776Y2746D1*
Y2370D1*
X-43651D1*
X-43649Y3285D1*
X-43651Y3340D1*
Y3955D1*
X-43616D1*
X-43629Y4020D1*
X-43628Y4095D1*
X-43615Y4168D1*
X-43590Y4239D1*
X-43553Y4304D1*
X-43506Y4362D1*
X-43449Y4411D1*
X-43385Y4450D1*
X-43315Y4478D1*
X-43242Y4493D1*
X-43167Y4496D1*
X-43093Y4486D1*
X-43021Y4463D1*
X-42955Y4429D1*
X-42923Y4405D1*
X-42887Y4495D1*
X-42849Y4542D1*
X-42396Y4995D1*
X-42337Y5040D1*
X-42265Y5067D1*
X-42205Y5074D1*
X-41570D1*
X-41196Y5448D1*
X-41136Y5493D1*
X-41064Y5520D1*
X-41072Y5546D1*
X-41190Y5549D1*
X-41372Y5546D1*
X-41376Y5477D1*
X-41395Y5404D1*
X-41426Y5336D1*
X-41468Y5274D1*
X-41520Y5220D1*
X-41580Y5175D1*
X-41647Y5142D1*
X-41719Y5120D1*
X-41793Y5111D1*
X-41868Y5114D1*
X-41941Y5130D1*
X-42011Y5158D1*
X-42064Y5191D1*
X-42159Y5142D1*
X-42231Y5120D1*
X-42305Y5111D1*
X-42380Y5114D1*
X-42453Y5130D1*
X-42523Y5158D1*
X-42576Y5191D1*
X-42671Y5142D1*
X-42743Y5120D1*
X-42817Y5111D1*
X-42892Y5114D1*
X-42965Y5130D1*
X-43034Y5158D1*
X-43072Y5181D1*
X-43149Y5125D1*
X-43216Y5091D1*
X-43288Y5069D1*
X-43362Y5060D1*
X-43437Y5063D1*
X-43510Y5079D1*
X-43579Y5107D1*
X-43643Y5147D1*
X-43699Y5197D1*
X-43746Y5255D1*
X-43782Y5321D1*
X-43807Y5391D1*
X-43819Y5465D1*
X-43818Y5547D1*
X-44190Y5546D1*
Y6069D1*
X-44274Y6055D1*
X-44348Y6059D1*
X-44422Y6075D1*
X-44491Y6103D1*
X-44555Y6142D1*
X-44611Y6192D1*
X-44658Y6250D1*
X-44694Y6316D1*
X-44719Y6387D1*
X-44725Y6426D1*
X-45109Y6043D1*
Y-188D1*
X-45119Y-262D1*
X-45151Y-332D1*
X-45188Y-379D1*
X-45558Y-749D1*
Y-2261D1*
X-46827D1*
Y386D1*
X-45653D1*
X-45651Y712D1*
Y1479D1*
X-46827D1*
Y4126D1*
X-46464D1*
X-46463Y5121D1*
X-46534Y5033D1*
X-46590Y4983D1*
X-46652Y4941D1*
X-46719Y4908D1*
X-46790Y4883D1*
X-46863Y4868D1*
X-46938Y4863D1*
X-47013Y4867D1*
X-47087Y4881D1*
X-47158Y4905D1*
X-47225Y4937D1*
X-47288Y4978D1*
X-47345Y5027D1*
X-47395Y5083D1*
X-47437Y5145D1*
X-47471Y5211D1*
X-47496Y5282D1*
X-47512Y5355D1*
X-47518Y5430D1*
X-47514Y5505D1*
X-47501Y5579D1*
X-47478Y5650D1*
X-47446Y5718D1*
X-47405Y5781D1*
X-47357Y5838D1*
X-47301Y5889D1*
X-47225Y5939D1*
X-47288Y5978D1*
X-47345Y6027D1*
X-47395Y6083D1*
X-47437Y6145D1*
X-47471Y6211D1*
X-47496Y6282D1*
X-47512Y6355D1*
X-47518Y6430D1*
X-47514Y6505D1*
X-47501Y6579D1*
X-47478Y6650D1*
X-47446Y6718D1*
X-47405Y6781D1*
X-47357Y6838D1*
X-47301Y6889D1*
X-47225Y6939D1*
X-47288Y6978D1*
X-47345Y7027D1*
X-47395Y7083D1*
X-47437Y7145D1*
X-47471Y7211D1*
X-47496Y7282D1*
X-47512Y7355D1*
X-47518Y7430D1*
X-47514Y7505D1*
X-47501Y7579D1*
X-47478Y7650D1*
X-47446Y7718D1*
X-47405Y7781D1*
X-47357Y7838D1*
X-47301Y7889D1*
X-47225Y7939D1*
X-47276Y7969D1*
X-47345Y8027D1*
X-47404Y8095D1*
X-47452Y8171D1*
X-47488Y8254D1*
X-47510Y8341D1*
X-47518Y8430D1*
X-47512Y8520D1*
X-47493Y8608D1*
X-47460Y8691D1*
X-47414Y8769D1*
X-47357Y8838D1*
X-47290Y8898D1*
X-47227Y8939D1*
X-47288Y8978D1*
X-47345Y9027D1*
X-47395Y9083D1*
X-47437Y9145D1*
X-47471Y9211D1*
X-47496Y9282D1*
X-47512Y9355D1*
X-47518Y9430D1*
X-47514Y9505D1*
X-47501Y9579D1*
X-47478Y9650D1*
X-47446Y9718D1*
X-47405Y9781D1*
X-47331Y9862D1*
X-47518Y9863D1*
Y11014D1*
X-46939D1*
X-46697Y11255D1*
X-46637Y11300D1*
X-46565Y11328D1*
X-46505Y11335D1*
X-41339D1*
X-41265Y11324D1*
X-41195Y11293D1*
X-41148Y11255D1*
X-40880Y10989D1*
X-40805Y10992D1*
X-40731Y10982D1*
X-40659Y10959D1*
X-40593Y10925D1*
X-40533Y10880D1*
X-40481Y10825D1*
X-40440Y10763D1*
X-40410Y10694D1*
X-40391Y10622D1*
X-40386Y10551D1*
X-40389Y10516D1*
X-39972Y10514D1*
X-39815Y10517D1*
X-39648D1*
X-39650Y10751D1*
X-39640Y10825D1*
X-39608Y10895D1*
X-39571Y10943D1*
X-39383Y11130D1*
X-39324Y11175D1*
X-39249Y11203D1*
X-39267Y11230D1*
X-39879D1*
X-39953Y11241D1*
X-40023Y11272D1*
X-40071Y11310D1*
X-40408Y11652D1*
X-40442Y11635D1*
X-40484Y11573D1*
X-40536Y11519D1*
X-40596Y11475D1*
X-40663Y11441D1*
X-40735Y11419D1*
X-40809Y11410D1*
X-40884Y11413D1*
X-40957Y11429D1*
X-41026Y11457D1*
X-41090Y11497D1*
X-41146Y11546D1*
X-41193Y11605D1*
X-41229Y11670D1*
X-41254Y11741D1*
X-41266Y11817D1*
X-41289Y11819D1*
X-41287Y12734D1*
X-41289Y12788D1*
X-41291Y13445D1*
X-41288Y13461D1*
X-41376Y13547D1*
X-41576Y13548D1*
X-41567Y13465D1*
X-41573Y13390D1*
X-41595Y13311D1*
X-41597Y12488D1*
X-41595Y12434D1*
Y11963D1*
X-41573Y11882D1*
X-41567Y11811D1*
X-41573Y11736D1*
X-41592Y11664D1*
X-41623Y11596D1*
X-41665Y11534D1*
X-41717Y11480D1*
X-41777Y11435D1*
X-41844Y11402D1*
X-41916Y11380D1*
X-41990Y11370D1*
X-42065Y11374D1*
X-42138Y11390D1*
X-42208Y11418D1*
X-42271Y11457D1*
X-42327Y11507D1*
X-42374Y11565D1*
X-42410Y11631D1*
X-42435Y11702D1*
X-42447Y11776D1*
Y11820D1*
X-42470Y11819D1*
X-42468Y12734D1*
X-42470Y12788D1*
Y13403D1*
X-42445D1*
X-42447Y13504D1*
X-42439Y13548D1*
X-42603D1*
X-42775Y13377D1*
X-42778Y12488D1*
X-42776Y12434D1*
Y11963D1*
X-42754Y11882D1*
X-42748Y11811D1*
X-42754Y11736D1*
X-42773Y11664D1*
X-42804Y11596D1*
X-42846Y11534D1*
X-42898Y11480D1*
X-42958Y11435D1*
X-43025Y11402D1*
X-43097Y11380D1*
X-43171Y11370D1*
X-43246Y11374D1*
X-43319Y11390D1*
X-43389Y11418D1*
X-43452Y11457D1*
X-43508Y11507D1*
X-43555Y11565D1*
X-43592Y11631D1*
X-43616Y11702D1*
X-43629Y11776D1*
X-43628Y11820D1*
X-43651Y11819D1*
X-43649Y12734D1*
X-43651Y12788D1*
Y13403D1*
X-43602D1*
X-43642Y13421D1*
X-43705Y13460D1*
X-43772Y13523D1*
X-43979D1*
X-43968Y13425D1*
X-43970Y13404D1*
X-43957Y13403D1*
X-43959Y12488D1*
X-43957Y12434D1*
Y11963D1*
X-43935Y11882D1*
X-43929Y11811D1*
X-43935Y11736D1*
X-43954Y11664D1*
X-43985Y11596D1*
X-44027Y11534D1*
X-44079Y11480D1*
X-44139Y11435D1*
X-44206Y11402D1*
X-44278Y11380D1*
X-44352Y11370D1*
X-44427Y11374D1*
X-44500Y11390D1*
X-44570Y11418D1*
X-44633Y11457D1*
X-44690Y11507D1*
X-44736Y11565D1*
X-44773Y11631D1*
X-44797Y11702D1*
X-44810Y11776D1*
X-44809Y11820D1*
X-44833Y11819D1*
X-44830Y12734D1*
X-44833Y12788D1*
Y13302D1*
X-44849Y13390D1*
Y13465D1*
X-44839Y13522D1*
X-45198Y13523D1*
X-45614Y13106D1*
X-45555Y13091D1*
X-45487Y13059D1*
X-45426Y13016D1*
X-45373Y12963D1*
X-45329Y12902D1*
X-45297Y12835D1*
X-45276Y12763D1*
X-45268Y12677D1*
X-45274Y12603D1*
X-45293Y12530D1*
X-45324Y12462D1*
X-45366Y12400D1*
X-45418Y12346D1*
X-45478Y12301D1*
X-45545Y12268D1*
X-45617Y12246D1*
X-45691Y12237D1*
X-45766Y12240D1*
X-45839Y12256D1*
X-45908Y12284D1*
X-45972Y12323D1*
X-46028Y12373D1*
X-46075Y12432D1*
X-46111Y12497D1*
X-46139Y12581D1*
X-46487Y12233D1*
X-46518Y12209D1*
X-46535Y12157D1*
X-46568Y12090D1*
X-46610Y12027D1*
X-46659Y11971D1*
X-46715Y11921D1*
X-46777Y11879D1*
X-46844Y11846D1*
X-46915Y11821D1*
X-46988Y11806D1*
X-47063Y11801D1*
X-47138Y11805D1*
X-47212Y11819D1*
X-47283Y11843D1*
X-47350Y11875D1*
X-47413Y11916D1*
X-47470Y11965D1*
X-47520Y12021D1*
X-47562Y12083D1*
X-47596Y12149D1*
X-47621Y12220D1*
X-47637Y12293D1*
X-47643Y12368D1*
X-47639Y12443D1*
X-47626Y12517D1*
X-47603Y12588D1*
X-47571Y12656D1*
X-47530Y12719D1*
X-47456Y12800D1*
X-47643Y12801D1*
Y13952D1*
X-46492D1*
Y13050D1*
X-45523Y14020D1*
X-45464Y14065D1*
X-45395Y14094D1*
X-45317Y14105D1*
X-44874D1*
X-44882Y14154D1*
X-44881Y14228D1*
X-44868Y14302D1*
X-44843Y14373D1*
X-44817Y14420D1*
X-44818Y15165D1*
Y15834D1*
X-43942D1*
Y14250D1*
X-44005D1*
X-44001Y14189D1*
X-44010Y14103D1*
X-43773Y14105D1*
X-43702Y14170D1*
X-43638Y14209D1*
X-43568Y14236D1*
X-43495Y14252D1*
X-43420Y14254D1*
X-43346Y14244D1*
X-43275Y14222D1*
X-43208Y14188D1*
X-43148Y14143D1*
X-43097Y14088D1*
X-43055Y14026D1*
X-43025Y13957D1*
X-43012Y13905D1*
X-42908Y14011D1*
X-42849Y14056D1*
X-42776Y14083D1*
X-42717Y14090D1*
X-42480D1*
X-42487Y14138D1*
X-42486Y14213D1*
X-42469Y14298D1*
X-42470Y15096D1*
Y15766D1*
X-41595D1*
Y14181D1*
X-41606D1*
X-41614Y14092D1*
X-41262Y14090D1*
X-41266Y14182D1*
X-41289Y14181D1*
X-41287Y15096D1*
X-41289Y15106D1*
Y15766D1*
X-40414D1*
Y14728D1*
X-40354Y14765D1*
X-40284Y14793D1*
X-40211Y14808D1*
X-40136Y14811D1*
X-40061Y14800D1*
X-39988Y14777D1*
X-39990Y15006D1*
Y15671D1*
X-40082Y15708D1*
X-40129Y15746D1*
X-40737Y16354D1*
X-40837Y16372D1*
X-40908Y16395D1*
X-40976Y16428D1*
X-41039Y16469D1*
X-41119Y16544D1*
X-41117Y16353D1*
X-42269D1*
Y16637D1*
X-42583Y16322D1*
X-42641Y16275D1*
X-42709Y16242D1*
X-42807Y16223D1*
X-43025Y16222D1*
X-42958Y16188D1*
X-42898Y16143D1*
X-42847Y16088D1*
X-42805Y16026D1*
X-42775Y15957D1*
X-42757Y15885D1*
X-42751Y15799D1*
X-42760Y15725D1*
X-42782Y15653D1*
X-42815Y15586D1*
X-42859Y15525D1*
X-42913Y15473D1*
X-42974Y15431D1*
X-43042Y15399D1*
X-43115Y15380D1*
X-43189Y15373D1*
X-43264Y15379D1*
X-43337Y15398D1*
X-43405Y15428D1*
X-43467Y15470D1*
X-43522Y15521D1*
X-43566Y15581D1*
X-43600Y15648D1*
X-43623Y15719D1*
X-43633Y15794D1*
X-43630Y15869D1*
X-43614Y15942D1*
X-43586Y16011D1*
X-43547Y16075D1*
X-43498Y16132D1*
X-43440Y16179D1*
X-43375Y16216D1*
X-43359Y16222D1*
X-45150D1*
X-45083Y16188D1*
X-45023Y16143D1*
X-44972Y16088D1*
X-44930Y16026D1*
X-44900Y15957D1*
X-44882Y15885D1*
X-44877Y15799D1*
X-44885Y15725D1*
X-44907Y15653D1*
X-44940Y15586D1*
X-44984Y15525D1*
X-45038Y15473D1*
X-45100Y15431D1*
X-45168Y15399D1*
X-45240Y15380D1*
X-45315Y15373D1*
X-45389Y15379D1*
X-45462Y15398D1*
X-45530Y15428D1*
X-45593Y15470D1*
X-45647Y15521D1*
X-45692Y15581D1*
X-45726Y15648D1*
X-45748Y15719D1*
X-45758Y15794D1*
X-45755Y15869D1*
X-45739Y15942D1*
X-45712Y16011D1*
X-45673Y16075D1*
X-45623Y16132D1*
X-45565Y16179D1*
X-45500Y16216D1*
X-45416Y16244D1*
X-45507Y16296D1*
X-45643Y16428D1*
X-45797Y16582D1*
X-45800Y15814D1*
X-34338Y18056D2*
X-33735D1*
Y17934D1*
X-33651Y17955D1*
X-33576Y17961D1*
X-33501Y17953D1*
X-33429Y17933D1*
X-33361Y17901D1*
X-33300Y17858D1*
X-33247Y17805D1*
X-33203Y17744D1*
X-33171Y17677D1*
X-33156Y17630D1*
X-32344Y18443D1*
X-32284Y18489D1*
X-32215Y18518D1*
X-32138Y18528D1*
X-32075D1*
X-32073Y18709D1*
X-31197Y18706D1*
X-31143Y18709D1*
X-30567Y18706D1*
X-30513Y18709D1*
X-29937D1*
Y18528D1*
X-28901D1*
X-28902Y18700D1*
X-28027Y18697D1*
X-27972Y18700D1*
X-27397Y18697D1*
X-27343Y18700D1*
X-26767D1*
Y18519D1*
X-26012D1*
X-26010Y18709D1*
X-25135Y18706D1*
X-25080Y18709D1*
X-24505Y18706D1*
X-24450Y18709D1*
X-23875D1*
Y18514D1*
X-23852Y18512D1*
X-23782Y18487D1*
X-23710Y18434D1*
X-21179Y15903D1*
X-21126Y15923D1*
X-21053Y15938D1*
X-20978Y15940D1*
X-20904Y15930D1*
X-20832Y15908D1*
X-20766Y15874D1*
X-20706Y15829D1*
X-20655Y15774D1*
X-20613Y15712D1*
X-20583Y15643D1*
X-20565Y15571D1*
X-20561Y15529D1*
X-19299Y15527D1*
X-19005Y15529D1*
X-18965Y15592D1*
X-18916Y15649D1*
X-18861Y15700D1*
X-18799Y15742D1*
X-18733Y15777D1*
X-18662Y15802D1*
X-18589Y15819D1*
X-18515Y15825D1*
X-18440Y15822D1*
X-18366Y15809D1*
X-18294Y15787D1*
X-18226Y15755D1*
X-18163Y15715D1*
X-18105Y15667D1*
X-18055Y15612D1*
X-18001Y15532D1*
X-17973Y15580D1*
X-17916Y15649D1*
X-17849Y15709D1*
X-17773Y15757D1*
X-17691Y15793D1*
X-17604Y15816D1*
X-17515Y15825D1*
X-17425Y15820D1*
X-17337Y15801D1*
X-17253Y15769D1*
X-17227Y15755D1*
X-17238Y16909D1*
X-19188D1*
X-19262Y16917D1*
X-19333Y16941D1*
X-19413Y16994D1*
X-21204Y18784D1*
X-34978D1*
X-35105Y18657D1*
X-35033Y18584D1*
X-34984Y18624D1*
X-34920Y18663D1*
X-34851Y18690D1*
X-34777Y18706D1*
X-34703Y18708D1*
X-34628Y18698D1*
X-34557Y18676D1*
X-34490Y18641D1*
X-34430Y18596D1*
X-34379Y18542D1*
X-34338Y18479D1*
X-34307Y18411D1*
X-34289Y18338D1*
X-34283Y18268D1*
X-34290Y18193D1*
X-34309Y18121D1*
X-34339Y18054D1*
X-36876Y1564D2*
X-36187D1*
X-36185Y1427D1*
X-36120Y1464D1*
X-36049Y1489D1*
X-35976Y1502D1*
X-35901D1*
X-35827Y1489D1*
X-35756Y1465D1*
X-35691Y1428D1*
X-35632Y1381D1*
X-35583Y1325D1*
X-35563Y1295D1*
Y2041D1*
X-37167D1*
X-37078Y1999D1*
X-37018Y1954D1*
X-36967Y1899D1*
X-36926Y1837D1*
X-36895Y1768D1*
X-36877Y1696D1*
X-36872Y1625D1*
X-36877Y1562D1*
X-36005Y10084D2*
X-36003Y9892D1*
X-35927Y9842D1*
X-35815Y9731D1*
X-35766Y9732D1*
X-35691Y9722D1*
X-35620Y9699D1*
X-35553Y9665D1*
X-35493Y9620D1*
X-35442Y9566D1*
X-35401Y9503D1*
X-35370Y9435D1*
X-35352Y9362D1*
X-35346Y9291D1*
X-35353Y9217D1*
X-35372Y9144D1*
X-35403Y9076D1*
X-35445Y9014D1*
X-35498Y8959D1*
X-35496Y8487D1*
X-35405Y8399D1*
X-35363Y8337D1*
X-35333Y8268D1*
X-35315Y8196D1*
X-35309Y8125D1*
X-35315Y8050D1*
X-35334Y7978D1*
X-35365Y7910D1*
X-35407Y7848D1*
X-35459Y7794D1*
X-35519Y7749D1*
X-35586Y7716D1*
X-35658Y7694D1*
X-35732Y7684D1*
X-35807Y7688D1*
X-35880Y7704D1*
X-35950Y7732D1*
X-36013Y7771D1*
X-36069Y7821D1*
X-36116Y7879D1*
X-36153Y7945D1*
X-36177Y8016D1*
X-36190Y8090D1*
X-36189Y8165D1*
X-36176Y8238D1*
X-36151Y8309D1*
X-36114Y8374D1*
X-36077Y8419D1*
X-36078Y8962D1*
X-36107Y8987D1*
X-36154Y9046D1*
X-36190Y9111D1*
X-36209Y9167D1*
X-36603Y9168D1*
X-36879D1*
X-36877Y10084D1*
X-36879Y10093D1*
Y10753D1*
X-36003D1*
Y9898D1*
X-23847Y-2397D2*
X-23007D1*
Y-2563D1*
X-22623Y-2564D1*
Y-2397D1*
X-21708Y-2399D1*
X-21699Y-2397D1*
X-21228D1*
Y-2091D1*
X-22623D1*
Y-1925D1*
X-23007D1*
Y-2091D1*
X-23922Y-2089D1*
X-23976Y-2091D1*
X-24591D1*
Y-2019D1*
X-24755Y-2021D1*
X-26347D1*
X-25827Y-2542D1*
X-24593D1*
X-24591Y-2397D1*
X-23676Y-2399D1*
X-23847Y-1216D2*
X-23007D1*
Y-1382D1*
X-22623Y-1383D1*
Y-1216D1*
X-21708Y-1218D1*
X-21699Y-1216D1*
X-21228D1*
Y-910D1*
X-21954D1*
X-22623D1*
Y-744D1*
X-23007Y-743D1*
Y-910D1*
X-23922Y-908D1*
X-23976Y-910D1*
X-24591D1*
Y-772D1*
X-26217Y-771D1*
X-26190Y-867D1*
X-26184Y-937D1*
X-26190Y-1012D1*
X-26209Y-1085D1*
X-26240Y-1153D1*
X-26282Y-1215D1*
X-26334Y-1269D1*
X-26394Y-1313D1*
X-26461Y-1347D1*
X-26533Y-1369D1*
X-26607Y-1378D1*
X-26682Y-1375D1*
X-26755Y-1359D1*
X-26825Y-1331D1*
X-26888Y-1291D1*
X-26944Y-1242D1*
X-26991Y-1183D1*
X-27028Y-1118D1*
X-27052Y-1047D1*
X-27065Y-973D1*
X-27064Y-898D1*
X-27051Y-824D1*
X-27031Y-769D1*
X-27611Y-771D1*
X-28912D1*
X-28205Y-1478D1*
X-26965Y-1479D1*
X-24591D1*
Y-1216D1*
X-23676Y-1218D1*
X-23847Y-35D2*
X-23007D1*
Y-201D1*
X-22623D1*
Y-35D1*
X-21708Y-37D1*
X-21699Y-35D1*
X-21228D1*
Y272D1*
X-21954Y271D1*
X-22623D1*
Y437D1*
X-23007Y438D1*
Y271D1*
X-23922Y273D1*
X-23976Y271D1*
X-24190D1*
X-24494Y-35D1*
X-23676Y-37D1*
X-23847Y1147D2*
X-23007D1*
Y980D1*
X-22623D1*
Y1147D1*
X-21708Y1144D1*
X-21699Y1147D1*
X-21228D1*
Y1453D1*
X-21714Y1452D1*
X-22623D1*
Y1618D1*
X-23007Y1619D1*
Y1452D1*
X-23922Y1454D1*
X-23976Y1452D1*
X-24190D1*
X-24232Y1408D1*
Y1148D1*
X-23916Y1147D1*
X-23676Y1144D1*
X-23847Y2328D2*
X-23007D1*
Y2161D1*
X-22623D1*
Y2328D1*
X-21708Y2325D1*
X-21699Y2328D1*
X-21228D1*
Y2634D1*
X-21534Y2633D1*
X-22623D1*
Y2799D1*
X-23007Y2800D1*
Y2633D1*
X-23922Y2635D1*
X-23976Y2633D1*
X-24190D1*
X-24229Y2593D1*
Y2327D1*
X-23676Y2325D1*
X-23847Y3509D2*
X-23007D1*
Y3342D1*
X-22623D1*
Y3509D1*
X-21708Y3506D1*
X-21699Y3509D1*
X-21228D1*
Y3815D1*
X-21429Y3814D1*
X-22623D1*
Y3981D1*
X-23007D1*
Y3814D1*
X-23922Y3816D1*
X-23976Y3814D1*
X-24040D1*
X-24042Y3560D1*
X-24045Y3524D1*
X-23991Y3509D1*
X-23676Y3506D1*
X-23847Y4690D2*
X-23007D1*
Y4523D1*
X-22623D1*
Y4690D1*
X-21708Y4687D1*
X-21699Y4690D1*
X-21228D1*
Y5311D1*
X-21494Y5312D1*
X-22658D1*
Y5479D1*
X-23042D1*
Y5312D1*
X-23958Y5314D1*
X-24012Y5312D1*
X-24627D1*
Y5497D1*
X-25095D1*
X-25149Y5437D1*
X-25204Y5397D1*
X-24875Y5396D1*
X-24801Y5386D1*
X-24731Y5354D1*
X-24683Y5317D1*
X-24433Y5067D1*
X-24388Y5007D1*
X-24361Y4935D1*
X-24372Y4972D1*
X-24331Y4891D1*
X-24280Y4837D1*
X-24238Y4774D1*
X-24204Y4690D1*
X-23676Y4687D1*
X-24583Y3814D2*
X-24591D1*
Y4121D1*
X-24628Y4123D1*
X-24647Y4040D1*
X-24678Y3972D1*
X-24720Y3910D1*
X-24792Y3841D1*
X-24791Y3468D1*
X-24582Y3676D1*
X-24583Y3813D1*
X-31197Y17767D2*
X-31797Y17766D1*
X-32073D1*
Y17890D1*
X-32862Y17102D1*
X-32128Y17101D1*
X-32056Y17084D1*
X-31999Y17036D1*
X-31969Y16966D1*
X-31967Y16778D1*
X-31884Y16833D1*
X-31814Y16860D1*
X-31741Y16875D1*
X-31666Y16878D1*
X-31591Y16868D1*
X-31520Y16845D1*
X-31453Y16811D1*
X-31393Y16766D1*
X-31342Y16712D1*
X-31312Y16667D1*
X-31254Y16744D1*
X-31198Y16794D1*
X-31134Y16833D1*
X-31064Y16860D1*
X-30991Y16875D1*
X-30916Y16878D1*
X-30841Y16868D1*
X-30770Y16845D1*
X-30703Y16811D1*
X-30626Y16747D1*
X-30573Y16794D1*
X-30509Y16833D1*
X-30439Y16860D1*
X-30366Y16875D1*
X-30291Y16878D1*
X-30216Y16868D1*
X-30145Y16845D1*
X-30078Y16811D1*
X-30018Y16766D1*
X-29967Y16712D1*
X-29926Y16649D1*
X-29895Y16581D1*
X-29877Y16508D1*
X-29872Y16437D1*
X-29878Y16363D1*
X-29897Y16290D1*
X-29937Y16209D1*
Y15404D1*
X-30813Y15406D1*
X-30867Y15404D1*
X-31443Y15406D1*
X-31497Y15404D1*
X-31968D1*
X-31967Y13939D1*
Y12689D1*
X-31984Y12616D1*
X-32032Y12559D1*
X-32102Y12530D1*
X-32278Y12527D1*
X-32904D1*
X-32903Y11554D1*
X-34665D1*
Y12526D1*
X-35254Y12527D1*
X-35326Y12544D1*
X-35383Y12592D1*
X-35413Y12663D1*
X-35415Y12839D1*
Y14083D1*
X-35858Y13639D1*
Y13439D1*
X-35868Y13365D1*
X-35900Y13295D1*
X-35937Y13247D1*
X-37562Y11622D1*
X-37622Y11577D1*
X-37694Y11550D1*
X-37754Y11543D1*
X-38141D1*
X-38245Y11439D1*
X-38170Y11442D1*
X-38095Y11432D1*
X-38024Y11409D1*
X-37957Y11375D1*
X-37897Y11330D1*
X-37846Y11275D1*
X-37805Y11213D1*
X-37774Y11144D1*
X-37756Y11072D1*
X-37751Y10986D1*
X-37760Y10912D1*
X-37781Y10840D1*
X-37814Y10773D1*
X-37858Y10712D1*
X-37912Y10660D1*
X-37974Y10618D1*
X-38042Y10586D1*
X-38114Y10567D1*
X-38189Y10560D1*
X-38263Y10566D1*
X-38336Y10585D1*
X-38405Y10615D1*
X-38467Y10657D1*
X-38521Y10708D1*
X-38566Y10768D1*
X-38600Y10835D1*
X-38622Y10906D1*
X-38632Y10981D1*
X-38629Y11055D1*
X-38937Y10747D1*
X-38997Y10702D1*
X-39071Y10674D1*
X-39108Y10639D1*
Y10514D1*
X-38972Y10517D1*
Y9247D1*
X-39690Y9250D1*
X-39699Y9247D1*
X-41265Y7682D1*
X-41325Y7637D1*
X-41397Y7610D1*
X-41457Y7603D1*
X-43550D1*
X-44221Y6932D1*
X-44124Y6904D1*
X-44057Y6870D1*
X-43989Y6816D1*
X-43472Y6813D1*
X-43315Y6816D1*
X-42972Y6813D1*
X-42815Y6816D1*
X-42472Y6813D1*
X-42315Y6816D1*
X-41972Y6813D1*
X-41815Y6816D1*
X-41737D1*
X-41766Y6899D1*
X-41778Y6972D1*
Y7047D1*
X-41765Y7121D1*
X-41739Y7192D1*
X-41703Y7257D1*
X-41655Y7315D1*
X-41599Y7364D1*
X-41535Y7403D1*
X-41465Y7430D1*
X-41392Y7446D1*
X-41317Y7448D1*
X-41243Y7438D1*
X-41171Y7416D1*
X-41102Y7381D1*
Y7549D1*
X-41091Y7623D1*
X-41060Y7694D1*
X-41022Y7741D1*
X-40571Y8192D1*
X-40511Y8238D1*
X-40439Y8265D1*
X-40379Y8272D1*
X-38442D1*
X-38367Y8262D1*
X-38297Y8230D1*
X-38250Y8192D1*
X-38062Y8005D1*
X-38017Y7945D1*
X-37990Y7873D1*
X-37983Y7813D1*
Y7694D1*
X-37901Y7612D1*
Y7918D1*
X-37026D1*
Y6334D1*
X-37901D1*
Y6847D1*
X-38446Y7390D1*
X-38491Y7450D1*
X-38518Y7522D1*
X-38525Y7582D1*
Y7701D1*
X-38553Y7729D1*
X-39470Y7730D1*
X-39416Y7653D1*
X-39386Y7584D1*
X-39368Y7512D1*
X-39362Y7441D1*
X-39369Y7366D1*
X-39387Y7294D1*
X-39418Y7226D1*
X-39460Y7164D1*
X-39533Y7094D1*
X-39532Y6815D1*
X-38972Y6816D1*
Y5958D1*
X-37974D1*
X-37885Y6044D1*
X-37821Y6083D1*
X-37751Y6110D1*
X-37678Y6125D1*
X-37603Y6128D1*
X-37529Y6118D1*
X-37457Y6095D1*
X-37391Y6061D1*
X-37331Y6016D1*
X-37280Y5962D1*
X-37238Y5899D1*
X-37208Y5831D1*
X-37190Y5758D1*
X-37184Y5687D1*
X-37190Y5613D1*
X-37209Y5540D1*
X-37240Y5472D1*
X-37282Y5410D1*
X-37334Y5356D1*
X-37394Y5312D1*
X-37461Y5278D1*
X-37533Y5256D1*
X-37607Y5247D1*
X-37682Y5250D1*
X-37755Y5266D1*
X-37825Y5294D1*
X-37888Y5334D1*
X-37944Y5383D1*
X-37972Y5418D1*
X-38525Y5416D1*
X-39005D1*
X-39327Y5093D1*
X-37634Y5094D1*
X-37567Y5182D1*
X-37510Y5231D1*
X-37446Y5270D1*
X-37376Y5298D1*
X-37303Y5313D1*
X-37228Y5315D1*
X-37154Y5305D1*
X-37082Y5283D1*
X-37016Y5249D1*
X-36956Y5204D1*
X-36905Y5149D1*
X-36863Y5087D1*
X-36833Y5018D1*
X-36815Y4946D1*
X-36809Y4875D1*
X-36815Y4800D1*
X-36834Y4728D1*
X-36865Y4660D1*
X-36907Y4598D1*
X-36959Y4544D1*
X-37019Y4499D1*
X-37086Y4466D1*
X-37158Y4444D1*
X-37232Y4434D1*
X-37307Y4438D1*
X-37380Y4454D1*
X-37450Y4482D1*
X-37513Y4521D1*
X-37547Y4551D1*
X-39869Y4552D1*
X-39926Y4494D1*
Y4384D1*
X-39881Y4411D1*
X-39811Y4438D1*
X-39738Y4454D1*
X-39663Y4456D1*
X-39589Y4446D1*
X-39518Y4424D1*
X-39451Y4389D1*
X-39391Y4344D1*
X-39340Y4290D1*
X-39307Y4241D1*
X-39254Y4307D1*
X-39198Y4356D1*
X-39134Y4395D1*
X-39064Y4423D1*
X-38991Y4438D1*
X-38916Y4440D1*
X-38841Y4430D1*
X-38770Y4408D1*
X-38703Y4374D1*
X-38643Y4329D1*
X-38592Y4274D1*
X-38551Y4212D1*
X-38520Y4143D1*
X-38502Y4071D1*
X-38497Y4000D1*
X-38500Y3956D1*
X-38051Y3955D1*
Y3863D1*
X-38026Y3934D1*
X-37989Y3999D1*
X-37942Y4057D1*
X-37885Y4106D1*
X-37821Y4145D1*
X-37751Y4173D1*
X-37678Y4188D1*
X-37573Y4186D1*
X-37507Y4237D1*
X-37435Y4264D1*
X-37375Y4271D1*
X-36938D1*
X-36863Y4261D1*
X-36793Y4229D1*
X-36746Y4192D1*
X-36595Y4041D1*
X-35265D1*
X-35263Y4266D1*
X-35265Y4332D1*
X-35263Y4857D1*
X-35265Y4922D1*
Y5051D1*
X-35471Y5053D1*
X-35621Y4905D1*
X-35628Y4800D1*
X-35647Y4728D1*
X-35678Y4660D1*
X-35720Y4598D1*
X-35772Y4544D1*
X-35832Y4499D1*
X-35899Y4466D1*
X-35970Y4444D1*
X-36045Y4434D1*
X-36120Y4438D1*
X-36193Y4454D1*
X-36262Y4482D1*
X-36326Y4521D1*
X-36382Y4571D1*
X-36429Y4629D1*
X-36465Y4695D1*
X-36490Y4766D1*
X-36502Y4840D1*
Y4915D1*
X-36489Y4988D1*
X-36463Y5059D1*
X-36426Y5124D1*
X-36379Y5182D1*
X-36323Y5231D1*
X-36259Y5270D1*
X-36189Y5298D1*
X-36116Y5313D1*
X-36034Y5315D1*
X-35799Y5550D1*
X-35740Y5596D1*
X-35671Y5625D1*
X-35593Y5635D1*
X-35267D1*
X-35263Y5644D1*
X-35265Y5693D1*
X-35263Y5841D1*
X-35265Y5832D1*
Y5841D1*
X-28027Y17758D2*
X-28627Y17757D1*
X-28902D1*
Y17938D1*
X-29937Y17937D1*
Y17766D1*
X-30813Y17768D1*
X-28827Y16337D2*
X-28769D1*
X-28771Y16464D1*
X-28819Y16508D1*
X-28866Y16567D1*
X-28903Y16632D1*
X-28927Y16703D1*
X-28940Y16777D1*
X-28939Y16852D1*
X-28926Y16926D1*
X-28901Y16996D1*
X-28864Y17061D1*
X-28817Y17119D1*
X-28760Y17169D1*
X-28696Y17208D1*
X-28626Y17235D1*
X-28553Y17250D1*
X-28478Y17253D1*
X-28404Y17243D1*
X-28332Y17220D1*
X-28266Y17186D1*
X-28206Y17141D1*
X-28156Y17088D1*
X-28073Y17169D1*
X-28009Y17208D1*
X-27939Y17235D1*
X-27866Y17250D1*
X-27791Y17253D1*
X-27716Y17243D1*
X-27645Y17220D1*
X-27578Y17186D1*
X-27501Y17122D1*
X-27448Y17169D1*
X-27384Y17208D1*
X-27314Y17235D1*
X-27241Y17250D1*
X-27166Y17253D1*
X-27091Y17243D1*
X-27020Y17220D1*
X-26953Y17186D1*
X-26893Y17141D1*
X-26842Y17087D1*
X-26801Y17024D1*
X-26770Y16956D1*
X-26752Y16883D1*
X-26747Y16812D1*
X-26753Y16738D1*
X-26772Y16665D1*
X-26803Y16597D1*
X-26845Y16535D1*
X-26917Y16466D1*
Y16337D1*
X-26767D1*
Y15395D1*
X-27643Y15397D1*
X-27697Y15395D1*
X-28272Y15397D1*
X-28327Y15395D1*
X-28902D1*
Y16337D1*
X-28827D1*
X-25135Y17767D2*
X-25735Y17766D1*
X-26010D1*
Y17937D1*
X-26767Y17938D1*
Y17757D1*
X-27643Y17759D1*
X-25935Y16346D2*
X-25914D1*
X-25940Y16465D1*
X-25939Y16540D1*
X-25926Y16613D1*
X-25901Y16684D1*
X-25864Y16749D1*
X-25817Y16807D1*
X-25760Y16856D1*
X-25696Y16895D1*
X-25626Y16923D1*
X-25553Y16938D1*
X-25478Y16940D1*
X-25404Y16930D1*
X-25332Y16908D1*
X-25266Y16874D1*
X-25219Y16839D1*
X-25134Y16895D1*
X-25064Y16923D1*
X-24991Y16938D1*
X-24916Y16940D1*
X-24841Y16930D1*
X-24770Y16908D1*
X-24703Y16874D1*
X-24626Y16810D1*
X-24573Y16856D1*
X-24509Y16895D1*
X-24439Y16923D1*
X-24366Y16938D1*
X-24291Y16940D1*
X-24216Y16930D1*
X-24145Y16908D1*
X-24078Y16874D1*
X-24018Y16829D1*
X-23967Y16774D1*
X-23926Y16712D1*
X-23895Y16643D1*
X-23877Y16571D1*
X-23872Y16500D1*
X-23878Y16425D1*
X-23900Y16346D1*
X-23875D1*
Y15404D1*
X-24750Y15406D1*
X-24805Y15404D1*
X-25380Y15406D1*
X-25435Y15404D1*
X-26010D1*
Y16346D1*
X-25935D1*
X-46957Y19207D2*
X-46842Y19161D1*
X-46711Y19087D1*
X-46649Y19042D1*
X-46648Y19506D1*
X-46956Y19205D1*
X-18999Y-3461D2*
X-18965Y-3408D1*
X-18916Y-3351D1*
X-18861Y-3300D1*
X-18785Y-3250D1*
X-18848Y-3211D1*
X-18904Y-3162D1*
X-18954Y-3106D1*
X-18997Y-3044D1*
X-19031Y-2977D1*
X-19056Y-2907D1*
X-19071Y-2834D1*
X-19077Y-2759D1*
X-19074Y-2684D1*
X-19060Y-2610D1*
X-19037Y-2539D1*
X-19005Y-2471D1*
X-18965Y-2408D1*
X-18916Y-2351D1*
X-18861Y-2300D1*
X-18785Y-2250D1*
X-18848Y-2211D1*
X-18904Y-2162D1*
X-18954Y-2106D1*
X-18997Y-2044D1*
X-19031Y-1977D1*
X-19056Y-1907D1*
X-19071Y-1834D1*
X-19077Y-1759D1*
X-19074Y-1684D1*
X-19060Y-1610D1*
X-19037Y-1539D1*
X-19005Y-1471D1*
X-18965Y-1408D1*
X-18916Y-1351D1*
X-18861Y-1300D1*
X-18785Y-1250D1*
X-18848Y-1211D1*
X-18904Y-1162D1*
X-18954Y-1106D1*
X-18997Y-1044D1*
X-19031Y-977D1*
X-19056Y-907D1*
X-19071Y-834D1*
X-19077Y-759D1*
X-19074Y-684D1*
X-19060Y-610D1*
X-19037Y-539D1*
X-19005Y-471D1*
X-18965Y-408D1*
X-18916Y-351D1*
X-18861Y-300D1*
X-18785Y-250D1*
X-18848Y-211D1*
X-18904Y-162D1*
X-18954Y-106D1*
X-18997Y-44D1*
X-19031Y23D1*
X-19056Y93D1*
X-19071Y166D1*
X-19077Y241D1*
X-19074Y316D1*
X-19060Y390D1*
X-19037Y461D1*
X-19005Y529D1*
X-18965Y592D1*
X-18916Y649D1*
X-18861Y700D1*
X-18785Y750D1*
X-18848Y789D1*
X-18904Y838D1*
X-18954Y894D1*
X-18997Y956D1*
X-19031Y1023D1*
X-19056Y1093D1*
X-19071Y1166D1*
X-19077Y1241D1*
X-19074Y1316D1*
X-19060Y1390D1*
X-19026Y1484D1*
X-20133D1*
X-20293Y1323D1*
X-20294Y-278D1*
X-20219Y-351D1*
X-20178Y-413D1*
X-20148Y-482D1*
X-20129Y-554D1*
X-20124Y-625D1*
X-20130Y-700D1*
X-20149Y-772D1*
X-20180Y-840D1*
X-20222Y-902D1*
X-20274Y-956D1*
X-20334Y-1001D1*
X-20401Y-1035D1*
X-20473Y-1056D1*
X-20547Y-1066D1*
X-20647Y-1057D1*
X-20646Y-2880D1*
X-20070Y-3458D1*
X-19065Y-3459D1*
X-18997D1*
X-18001Y-2465D2*
X-17965Y-2408D1*
X-17916Y-2351D1*
X-17861Y-2300D1*
X-17785Y-2250D1*
X-17848Y-2211D1*
X-17904Y-2162D1*
X-17954Y-2106D1*
X-18003Y-2037D1*
X-18044Y-2099D1*
X-18093Y-2156D1*
X-18149Y-2206D1*
X-18218Y-2251D1*
X-18163Y-2285D1*
X-18105Y-2333D1*
X-18055Y-2388D1*
X-18001Y-2468D1*
Y-1465D2*
X-17965Y-1408D1*
X-17916Y-1351D1*
X-17861Y-1300D1*
X-17785Y-1250D1*
X-17848Y-1211D1*
X-17904Y-1162D1*
X-17954Y-1106D1*
X-18003Y-1037D1*
X-18044Y-1099D1*
X-18093Y-1156D1*
X-18149Y-1206D1*
X-18218Y-1251D1*
X-18163Y-1285D1*
X-18105Y-1333D1*
X-18055Y-1388D1*
X-18001Y-1468D1*
Y535D2*
X-17965Y592D1*
X-17916Y649D1*
X-17861Y700D1*
X-17785Y750D1*
X-17848Y789D1*
X-17904Y838D1*
X-17954Y894D1*
X-18003Y963D1*
X-18044Y901D1*
X-18093Y844D1*
X-18149Y794D1*
X-18218Y749D1*
X-18163Y715D1*
X-18105Y667D1*
X-18055Y612D1*
X-18001Y532D1*
Y2535D2*
X-17965Y2592D1*
X-17916Y2649D1*
X-17861Y2700D1*
X-17785Y2750D1*
X-17848Y2789D1*
X-17904Y2838D1*
X-17954Y2894D1*
X-18003Y2963D1*
X-18044Y2901D1*
X-18093Y2844D1*
X-18149Y2794D1*
X-18218Y2749D1*
X-18163Y2715D1*
X-18105Y2667D1*
X-18055Y2612D1*
X-18001Y2532D1*
Y3535D2*
X-17965Y3592D1*
X-17916Y3649D1*
X-17861Y3700D1*
X-17785Y3750D1*
X-17848Y3789D1*
X-17904Y3838D1*
X-17954Y3894D1*
X-18003Y3963D1*
X-18044Y3901D1*
X-18093Y3844D1*
X-18149Y3794D1*
X-18218Y3749D1*
X-18163Y3715D1*
X-18105Y3667D1*
X-18055Y3612D1*
X-18001Y3532D1*
Y4535D2*
X-17965Y4592D1*
X-17916Y4649D1*
X-17861Y4700D1*
X-17785Y4750D1*
X-17848Y4789D1*
X-17904Y4838D1*
X-17954Y4894D1*
X-18003Y4963D1*
X-18044Y4901D1*
X-18093Y4844D1*
X-18149Y4794D1*
X-18218Y4749D1*
X-18163Y4715D1*
X-18105Y4667D1*
X-18055Y4612D1*
X-18001Y4532D1*
Y5535D2*
X-17965Y5592D1*
X-17916Y5649D1*
X-17861Y5700D1*
X-17785Y5750D1*
X-17848Y5789D1*
X-17904Y5838D1*
X-17954Y5894D1*
X-18003Y5963D1*
X-18044Y5901D1*
X-18093Y5844D1*
X-18149Y5794D1*
X-18218Y5749D1*
X-18163Y5715D1*
X-18105Y5667D1*
X-18055Y5612D1*
X-18001Y5532D1*
X-19030Y8020D2*
X-19060Y8114D1*
X-22802Y11855D1*
X-23221Y11854D1*
X-19626Y8258D1*
X-19389Y8021D1*
X-19031Y8022D1*
X-19030Y13020D2*
X-19038Y13042D1*
X-20344Y13041D1*
X-20289Y13022D1*
X-19030D1*
X-18001Y14535D2*
X-17965Y14592D1*
X-17916Y14649D1*
X-17861Y14700D1*
X-17785Y14750D1*
X-17835Y14780D1*
X-17904Y14838D1*
X-17964Y14906D1*
X-18003Y14963D1*
X-18044Y14901D1*
X-18093Y14844D1*
X-18149Y14794D1*
X-18218Y14749D1*
X-18163Y14715D1*
X-18105Y14667D1*
X-18055Y14612D1*
X-18001Y14532D1*
X-19056Y14093D2*
X-19058Y14105D1*
X-20031Y14104D1*
X-19952Y14023D1*
X-19031D1*
X-19056Y14093D1*
X-41966Y18436D2*
X-41882Y18473D1*
X-41795Y18496D1*
X-41706Y18505D1*
X-41616Y18500D1*
X-41528Y18481D1*
X-41444Y18448D1*
X-41366Y18403D1*
X-41296Y18346D1*
X-41236Y18280D1*
X-41193Y18215D1*
X-41156Y18271D1*
X-41107Y18329D1*
X-41052Y18379D1*
X-40990Y18422D1*
X-40924Y18456D1*
X-40853Y18482D1*
X-40780Y18498D1*
X-40706Y18505D1*
X-40615Y18499D1*
X-40516Y18598D1*
X-41803D1*
X-41965Y18437D1*
X-40193Y16645D2*
X-40221Y16602D1*
X-40188Y16635D1*
X-40193Y16646D1*
X-40183Y16566D1*
X-39827Y16210D1*
X-38963Y16209D1*
X-36602D1*
X-36570Y16244D1*
X-36514Y16294D1*
X-36450Y16333D1*
X-36380Y16360D1*
X-36307Y16375D1*
X-36232Y16378D1*
X-36158Y16368D1*
X-36086Y16345D1*
X-36020Y16311D1*
X-35960Y16266D1*
X-35908Y16212D1*
X-35867Y16149D1*
X-35837Y16081D1*
X-35818Y16008D1*
X-35813Y15938D1*
X-35819Y15863D1*
X-35838Y15790D1*
X-35854Y15754D1*
X-35783Y15745D1*
X-35711Y15722D1*
X-35645Y15688D1*
X-35585Y15643D1*
X-35533Y15588D1*
X-35497Y15534D1*
Y17337D1*
X-35538Y17325D1*
X-35612Y17315D1*
X-35687Y17319D1*
X-35760Y17335D1*
X-35830Y17363D1*
X-35893Y17402D1*
X-35949Y17452D1*
X-35996Y17510D1*
X-36033Y17576D1*
X-36057Y17647D1*
X-36070Y17720D1*
X-36069Y17784D1*
X-36500Y18215D1*
X-36978Y18213D1*
X-37191D1*
X-37151Y18122D1*
X-37127Y18035D1*
X-37118Y17946D1*
X-37122Y17854D1*
X-37141Y17766D1*
X-37173Y17682D1*
X-37218Y17604D1*
X-37274Y17534D1*
X-37341Y17474D1*
X-37408Y17429D1*
X-37354Y17394D1*
X-37296Y17346D1*
X-37246Y17291D1*
X-37202Y17230D1*
X-37167Y17164D1*
X-37141Y17094D1*
X-37125Y17021D1*
X-37117Y16929D1*
X-37122Y16854D1*
X-37137Y16781D1*
X-37161Y16710D1*
X-37194Y16643D1*
X-37235Y16580D1*
X-37284Y16524D1*
X-37341Y16474D1*
X-37403Y16432D1*
X-37470Y16399D1*
X-37541Y16374D1*
X-37614Y16359D1*
X-37689Y16354D1*
X-37764Y16358D1*
X-37837Y16372D1*
X-37908Y16395D1*
X-37976Y16428D1*
X-38039Y16469D1*
X-38095Y16518D1*
X-38145Y16573D1*
X-38194Y16643D1*
X-38235Y16580D1*
X-38284Y16524D1*
X-38341Y16474D1*
X-38403Y16432D1*
X-38470Y16399D1*
X-38541Y16374D1*
X-38614Y16359D1*
X-38689Y16354D1*
X-38764Y16358D1*
X-38837Y16372D1*
X-38908Y16395D1*
X-38976Y16428D1*
X-39039Y16469D1*
X-39095Y16518D1*
X-39145Y16573D1*
X-39194Y16643D1*
X-39235Y16580D1*
X-39284Y16524D1*
X-39341Y16474D1*
X-39403Y16432D1*
X-39470Y16399D1*
X-39541Y16374D1*
X-39614Y16359D1*
X-39689Y16354D1*
X-39764Y16358D1*
X-39837Y16372D1*
X-39908Y16395D1*
X-39976Y16428D1*
X-40039Y16469D1*
X-40095Y16518D1*
X-40145Y16573D1*
X-40188Y16635D1*
X-40407Y17428D2*
X-40354Y17394D1*
X-40296Y17346D1*
X-40246Y17291D1*
X-40192Y17212D1*
X-40156Y17271D1*
X-40107Y17329D1*
X-40052Y17379D1*
X-39976Y17429D1*
X-40039Y17469D1*
X-40095Y17518D1*
X-40145Y17573D1*
X-40194Y17643D1*
X-40235Y17580D1*
X-40284Y17524D1*
X-40341Y17474D1*
X-40409Y17429D1*
X-39407Y17428D2*
X-39354Y17394D1*
X-39296Y17346D1*
X-39246Y17291D1*
X-39192Y17212D1*
X-39156Y17271D1*
X-39107Y17329D1*
X-39052Y17379D1*
X-38976Y17429D1*
X-39039Y17469D1*
X-39095Y17518D1*
X-39145Y17573D1*
X-39194Y17643D1*
X-39235Y17580D1*
X-39284Y17524D1*
X-39341Y17474D1*
X-39409Y17429D1*
X-38407Y17428D2*
X-38354Y17394D1*
X-38296Y17346D1*
X-38246Y17291D1*
X-38192Y17212D1*
X-38156Y17271D1*
X-38107Y17329D1*
X-38052Y17379D1*
X-37976Y17429D1*
X-38026Y17460D1*
X-38095Y17518D1*
X-38155Y17585D1*
X-38194Y17643D1*
X-38235Y17580D1*
X-38284Y17524D1*
X-38341Y17474D1*
X-38409Y17429D1*
X-46367Y10792D2*
Y9863D1*
X-46552D1*
X-46495Y9801D1*
X-46452Y9740D1*
X-46417Y9673D1*
X-46391Y9603D1*
X-46374Y9530D1*
X-46367Y9439D1*
X-46372Y9364D1*
X-46386Y9290D1*
X-46410Y9219D1*
X-46443Y9152D1*
X-46485Y9090D1*
X-46534Y9033D1*
X-46590Y8983D1*
X-46658Y8938D1*
X-46604Y8904D1*
X-46535Y8845D1*
X-46477Y8777D1*
X-46430Y8700D1*
X-46395Y8617D1*
X-46374Y8530D1*
X-46367Y8439D1*
X-46374Y8349D1*
X-46395Y8262D1*
X-46429Y8178D1*
X-46476Y8102D1*
X-46534Y8033D1*
X-46602Y7974D1*
X-46657Y7938D1*
X-46604Y7904D1*
X-46546Y7856D1*
X-46495Y7801D1*
X-46452Y7740D1*
X-46417Y7673D1*
X-46391Y7603D1*
X-46374Y7530D1*
X-46367Y7439D1*
X-46372Y7364D1*
X-46386Y7290D1*
X-46410Y7219D1*
X-46443Y7152D1*
X-46485Y7090D1*
X-46534Y7033D1*
X-46590Y6983D1*
X-46658Y6938D1*
X-46604Y6904D1*
X-46546Y6856D1*
X-46495Y6801D1*
X-46452Y6740D1*
X-46417Y6673D1*
X-46391Y6603D1*
X-46374Y6530D1*
X-46367Y6439D1*
X-46372Y6364D1*
X-46386Y6290D1*
X-46410Y6219D1*
X-46443Y6152D1*
X-46485Y6090D1*
X-46534Y6033D1*
X-46590Y5983D1*
X-46658Y5938D1*
X-46604Y5904D1*
X-46546Y5856D1*
X-46495Y5801D1*
X-46464Y5757D1*
X-46463Y5816D1*
X-46453Y5890D1*
X-46421Y5960D1*
X-46384Y6007D1*
X-44011Y8381D1*
X-43951Y8426D1*
X-43879Y8453D1*
X-43819Y8460D1*
X-41646D1*
X-40860Y9247D1*
X-41190Y9250D1*
X-41347Y9247D1*
X-41690Y9250D1*
X-41847Y9247D1*
X-42190Y9250D1*
X-42347Y9247D1*
X-42690Y9250D1*
X-42847Y9247D1*
X-43190Y9250D1*
X-43347Y9247D1*
X-43690Y9250D1*
X-43847Y9247D1*
X-44190D1*
Y10271D1*
X-44221Y10332D1*
X-44246Y10403D1*
X-44258Y10476D1*
Y10551D1*
X-44245Y10625D1*
X-44220Y10696D1*
X-44183Y10761D1*
X-44158Y10792D1*
X-46367Y10793D1*
X-43241Y18377D2*
X-43225Y18292D1*
X-43223Y18176D1*
X-43229Y18101D1*
X-43248Y18029D1*
X-43278Y17960D1*
X-43320Y17898D1*
X-43371Y17843D1*
X-43431Y17798D1*
X-43497Y17763D1*
X-43568Y17740D1*
X-43612Y17734D1*
X-43555Y17651D1*
X-43525Y17583D1*
X-43507Y17510D1*
X-43501Y17439D1*
X-43507Y17365D1*
X-43526Y17292D1*
X-43557Y17224D1*
X-43599Y17162D1*
X-43651Y17108D1*
X-43711Y17063D1*
X-43778Y17030D1*
X-43850Y17008D1*
X-43924Y16999D1*
X-43999Y17002D1*
X-44072Y17018D1*
X-44142Y17046D1*
X-44206Y17086D1*
X-44256Y17131D1*
X-44251Y17064D1*
X-44258Y16990D1*
X-44283Y16902D1*
X-42965Y16901D1*
X-42779Y17085D1*
X-42780Y18440D1*
X-42772Y18515D1*
X-42748Y18586D1*
X-42692Y18669D1*
X-42184Y19177D1*
X-42126Y19224D1*
X-42059Y19257D1*
X-41961Y19276D1*
X-35866D1*
X-35792Y19268D1*
X-35721Y19244D1*
X-35638Y19188D1*
X-35588Y19139D1*
X-35360Y19366D1*
X-35302Y19413D1*
X-35235Y19446D1*
X-35140Y19465D1*
X-21063Y19466D1*
X-20988Y19458D1*
X-20917Y19434D1*
X-20837Y19381D1*
X-19047Y17591D1*
X-17245D1*
X-17247Y17880D1*
X-18418Y19616D1*
X-19502Y19615D1*
X-42604D1*
X-42603Y18781D1*
X-42858D1*
Y18379D1*
X-43240D1*
X-46281Y923D2*
X-46291Y833D1*
X-46316Y747D1*
X-46355Y666D1*
X-46407Y592D1*
X-46470Y529D1*
X-46544Y476D1*
X-46624Y437D1*
X-46711Y412D1*
X-46800Y402D1*
X-46890Y406D1*
X-46978Y426D1*
X-47061Y460D1*
X-47137Y507D1*
X-47205Y567D1*
X-47261Y636D1*
X-47305Y715D1*
X-47336Y799D1*
X-47351Y888D1*
X-47352Y978D1*
X-47338Y1067D1*
X-47309Y1152D1*
X-47266Y1231D1*
X-47211Y1302D1*
X-47145Y1362D1*
X-47069Y1411D1*
X-46987Y1446D1*
X-46899Y1468D1*
X-46810Y1474D1*
X-46720Y1465D1*
X-46633Y1441D1*
X-46552Y1403D1*
X-46478Y1353D1*
X-46413Y1290D1*
X-46360Y1218D1*
X-46320Y1137D1*
X-46293Y1051D1*
X-46282Y962D1*
X-46281Y923D1*
X-20404Y17237D2*
X-20414Y17147D1*
X-20438Y17061D1*
X-20477Y16980D1*
X-20529Y16907D1*
X-20593Y16843D1*
X-20666Y16791D1*
X-20747Y16751D1*
X-20833Y16726D1*
X-20922Y16716D1*
X-21012Y16720D1*
X-21100Y16740D1*
X-21183Y16774D1*
X-21259Y16821D1*
X-21327Y16881D1*
X-21383Y16951D1*
X-21428Y17029D1*
X-21458Y17114D1*
X-21474Y17202D1*
Y17292D1*
X-21460Y17381D1*
X-21431Y17466D1*
X-21389Y17545D1*
X-21333Y17616D1*
X-21267Y17677D1*
X-21192Y17725D1*
X-21109Y17761D1*
X-21022Y17782D1*
X-20932Y17788D1*
X-20842Y17779D1*
X-20756Y17756D1*
X-20674Y17718D1*
X-20600Y17667D1*
X-20535Y17604D1*
X-20482Y17532D1*
X-20442Y17451D1*
X-20416Y17365D1*
X-20404Y17276D1*
Y17237D1*
X-39988Y12488D2*
X-39990Y12875D1*
X-40061Y12866D1*
X-40136Y12870D1*
X-40209Y12886D1*
X-40278Y12914D1*
X-40342Y12953D1*
X-40414Y13023D1*
Y12885D1*
X-39999Y12468D1*
X-39990Y12494D1*
X-39988Y12734D1*
X-38051Y3638D2*
Y3250D1*
X-37978Y3253D1*
X-37904Y3243D1*
X-37832Y3220D1*
X-37766Y3186D1*
X-37706Y3141D1*
X-37664Y3099D1*
X-36434D1*
X-36439Y3227D1*
X-36427Y3294D1*
X-36670Y3292D1*
X-36714D1*
X-36772Y3231D1*
X-36832Y3187D1*
X-36899Y3153D1*
X-36970Y3131D1*
X-37045Y3122D1*
X-37120Y3125D1*
X-37193Y3141D1*
X-37262Y3169D1*
X-37326Y3209D1*
X-37382Y3258D1*
X-37429Y3317D1*
X-37446Y3348D1*
X-37533Y3319D1*
X-37607Y3309D1*
X-37682Y3313D1*
X-37755Y3329D1*
X-37825Y3357D1*
X-37888Y3396D1*
X-37944Y3446D1*
X-37991Y3504D1*
X-38028Y3570D1*
X-38051Y3639D1*
X-38927Y3234D2*
Y3553D1*
X-39068Y3579D1*
X-39137Y3607D1*
X-39201Y3646D1*
X-39234Y3676D1*
X-39232Y3221D1*
X-39116Y3250D1*
X-39041Y3253D1*
X-38966Y3243D1*
X-38928Y3231D1*
X-38925Y3285D1*
X-41288Y3040D2*
X-41289Y3415D1*
Y3932D1*
X-41306Y4020D1*
X-41305Y4095D1*
X-41292Y4168D1*
X-41267Y4239D1*
X-41230Y4304D1*
X-41183Y4362D1*
X-41126Y4411D1*
X-41062Y4450D1*
X-40993Y4478D1*
X-40919Y4493D1*
X-40844Y4496D1*
X-40770Y4486D1*
X-40699Y4463D1*
X-40632Y4429D1*
X-40572Y4384D1*
X-40521Y4329D1*
X-40467Y4239D1*
X-40468Y4606D1*
X-40458Y4680D1*
X-40426Y4751D1*
X-40388Y4798D1*
X-40201Y4985D1*
X-40890D1*
X-41265Y4612D1*
X-41325Y4566D1*
X-41397Y4539D1*
X-41457Y4532D1*
X-42092D1*
X-42154Y4471D1*
X-42061Y4493D1*
X-41986Y4496D1*
X-41912Y4486D1*
X-41840Y4463D1*
X-41774Y4429D1*
X-41714Y4384D1*
X-41662Y4329D1*
X-41621Y4267D1*
X-41591Y4198D1*
X-41573Y4126D1*
X-41567Y4055D1*
X-41573Y3980D1*
X-41595Y3902D1*
X-41597Y3040D1*
X-41595Y2985D1*
Y2664D1*
X-41511Y2582D1*
X-41290Y2583D1*
X-41289Y3285D1*
X-41287D1*
X-43957Y3901D2*
X-43959Y3040D1*
X-43957Y2985D1*
Y2370D1*
X-43973D1*
X-43968Y2323D1*
X-43975Y2248D1*
X-43994Y2176D1*
X-44025Y2107D1*
X-44067Y2045D1*
X-44119Y1991D1*
X-44179Y1947D1*
X-44246Y1913D1*
X-44317Y1892D1*
X-44392Y1882D1*
X-44467Y1886D1*
X-44540Y1902D1*
X-44609Y1930D1*
X-44673Y1969D1*
X-44729Y2019D1*
X-44776Y2077D1*
X-44812Y2143D1*
X-44837Y2214D1*
X-44849Y2287D1*
Y2362D1*
X-44832Y2447D1*
X-44833Y3285D1*
Y3955D1*
X-44797D1*
X-44810Y4020D1*
X-44809Y4095D1*
X-44796Y4168D1*
X-44771Y4239D1*
X-44734Y4304D1*
X-44687Y4362D1*
X-44630Y4411D1*
X-44566Y4450D1*
X-44496Y4478D1*
X-44423Y4493D1*
X-44348Y4496D1*
X-44274Y4486D1*
X-44203Y4463D1*
X-44136Y4429D1*
X-44076Y4384D1*
X-44025Y4329D1*
X-43983Y4267D1*
X-43953Y4198D1*
X-43935Y4126D1*
X-43929Y4055D1*
X-43935Y3980D1*
X-43957Y3902D1*
X-34687Y1827D2*
Y980D1*
X-35504D1*
X-35527Y901D1*
X-35560Y834D1*
X-35604Y774D1*
X-35650Y728D1*
X-34875D1*
X-34801Y719D1*
X-34739Y694D1*
X-34591Y680D1*
X-34520Y658D1*
X-34453Y624D1*
X-34393Y579D1*
X-34325Y499D1*
X-34311Y513D1*
Y1758D1*
X-34340Y1757D1*
Y1867D1*
X-34399Y1841D1*
X-34470Y1819D1*
X-34545Y1809D1*
X-34620Y1813D1*
X-34686Y1827D1*
X-34687Y1649D1*
X-34689D1*
X-25334Y3260D2*
X-25420Y3247D1*
X-25495Y3250D1*
X-25568Y3266D1*
X-25637Y3294D1*
X-25701Y3334D1*
X-25757Y3383D1*
X-25804Y3442D1*
X-25840Y3507D1*
X-25865Y3578D1*
X-25877Y3652D1*
Y3727D1*
X-25864Y3801D1*
X-25838Y3871D1*
X-25802Y3936D1*
X-25754Y3994D1*
X-25710Y4033D1*
X-25709Y4323D1*
X-25751Y4315D1*
X-25746Y4250D1*
X-25753Y4175D1*
X-25772Y4103D1*
X-25803Y4035D1*
X-25845Y3973D1*
X-25897Y3919D1*
X-25957Y3874D1*
X-26024Y3841D1*
X-26095Y3819D1*
X-26170Y3809D1*
X-26245Y3813D1*
X-26318Y3829D1*
X-26387Y3857D1*
X-26451Y3896D1*
X-26507Y3946D1*
X-26554Y4004D1*
X-26597Y4090D1*
X-26706Y4089D1*
X-26241Y3625D1*
X-26166Y3628D1*
X-26091Y3618D1*
X-26020Y3595D1*
X-25953Y3561D1*
X-25893Y3516D1*
X-25842Y3462D1*
X-25801Y3399D1*
X-25770Y3331D1*
X-25752Y3258D1*
X-25746Y3188D1*
X-25753Y3113D1*
X-25772Y3040D1*
X-25803Y2972D1*
X-25845Y2910D1*
X-25897Y2856D1*
X-25980Y2800D1*
X-25746Y2567D1*
X-25701Y2507D1*
X-25674Y2435D1*
X-25667Y2375D1*
Y2176D1*
X-25553Y2063D1*
X-25478Y2065D1*
X-25404Y2055D1*
X-25335Y2034D1*
X-25333Y3260D1*
X-26406Y4632D2*
X-26314Y4673D1*
X-26257Y4684D1*
X-26363Y4792D1*
X-27382D1*
X-27372Y4688D1*
X-27376Y4629D1*
X-27146Y4631D1*
X-26408D1*
X-26470Y7335D2*
X-26442Y7369D1*
X-26385Y7419D1*
X-26343Y7444D1*
X-26450Y7482D1*
X-26513Y7521D1*
X-26586Y7591D1*
X-26846Y7334D1*
X-26474D1*
X-20032Y-5212D2*
X-20041Y-5286D1*
X-20062Y-5358D1*
X-20095Y-5425D1*
X-20139Y-5486D1*
X-20193Y-5538D1*
X-20255Y-5580D1*
X-20323Y-5612D1*
X-20395Y-5631D1*
X-20470Y-5638D1*
X-20544Y-5632D1*
X-20617Y-5613D1*
X-20685Y-5583D1*
X-20748Y-5541D1*
X-20802Y-5490D1*
X-20847Y-5430D1*
X-20881Y-5363D1*
X-20903Y-5292D1*
X-20913Y-5217D1*
X-20910Y-5142D1*
X-20895Y-5069D1*
X-20867Y-5000D1*
X-20828Y-4936D1*
X-20778Y-4879D1*
X-20720Y-4832D1*
X-20655Y-4795D1*
X-20584Y-4770D1*
X-20511Y-4758D1*
X-20436Y-4757D1*
X-20362Y-4770D1*
X-20291Y-4795D1*
X-20226Y-4831D1*
X-20167Y-4878D1*
X-20118Y-4935D1*
X-20079Y-4998D1*
X-20051Y-5068D1*
X-20035Y-5141D1*
X-20032Y-5212D1*
X-27492Y-4730D2*
X-27484Y-4686D1*
X-27460Y-4615D1*
X-27426Y-4548D1*
X-27383Y-4490D1*
X-27464Y-4423D1*
X-27513Y-4367D1*
X-27556Y-4305D1*
X-27590Y-4239D1*
X-27617Y-4169D1*
X-27635Y-4096D1*
X-27645Y-4022D1*
X-27646Y-3947D1*
X-27638Y-3872D1*
X-27621Y-3799D1*
X-27596Y-3729D1*
X-27562Y-3661D1*
X-27521Y-3599D1*
X-27473Y-3541D1*
X-27418Y-3490D1*
X-27358Y-3446D1*
X-27293Y-3409D1*
X-27224Y-3379D1*
X-27152Y-3359D1*
X-27078Y-3346D1*
X-26977Y-3345D1*
X-27114Y-3210D1*
X-28203Y-3209D1*
X-28221Y-3212D1*
X-27749Y-3684D1*
X-27704Y-3743D1*
X-27676Y-3815D1*
X-27669Y-3875D1*
Y-4553D1*
X-27492Y-4728D1*
X-34828Y-4493D2*
X-34795Y-4535D1*
X-34758Y-4601D1*
X-34732Y-4671D1*
X-34721Y-4728D1*
X-34400Y-4408D1*
Y-2469D1*
X-35223Y-3290D1*
X-35281Y-3348D1*
X-35192Y-3343D1*
X-35117Y-3349D1*
X-35043Y-3363D1*
X-34972Y-3386D1*
X-34904Y-3417D1*
X-34840Y-3456D1*
X-34781Y-3502D1*
X-34728Y-3555D1*
X-34681Y-3613D1*
X-34642Y-3677D1*
X-34610Y-3745D1*
X-34587Y-3817D1*
X-34572Y-3890D1*
X-34566Y-3978D1*
X-34571Y-4053D1*
X-34584Y-4126D1*
X-34606Y-4198D1*
X-34636Y-4267D1*
X-34674Y-4331D1*
X-34719Y-4391D1*
X-34771Y-4445D1*
X-34827Y-4491D1*
X-36875Y-4493D2*
X-36842Y-4535D1*
X-36806Y-4601D1*
X-36780Y-4671D1*
X-36768Y-4728D1*
X-36464Y-4424D1*
X-36462Y-3875D1*
X-36452Y-3801D1*
X-36420Y-3731D1*
X-36383Y-3684D1*
X-36345Y-3646D1*
X-36707D1*
X-36657Y-3745D1*
X-36634Y-3817D1*
X-36619Y-3890D1*
X-36613Y-3978D1*
X-36618Y-4053D1*
X-36631Y-4126D1*
X-36653Y-4198D1*
X-36683Y-4267D1*
X-36721Y-4331D1*
X-36766Y-4391D1*
X-36818Y-4445D1*
X-36875Y-4491D1*
X-38923Y-4493D2*
X-38889Y-4535D1*
X-38853Y-4601D1*
X-38827Y-4671D1*
X-38815Y-4728D1*
X-38650Y-4563D1*
Y-4063D1*
X-38640Y-3989D1*
X-38608Y-3919D1*
X-38571Y-3871D1*
X-38158Y-3459D1*
X-38929D1*
X-38875Y-3502D1*
X-38822Y-3555D1*
X-38775Y-3613D1*
X-38736Y-3677D1*
X-38705Y-3745D1*
X-38681Y-3817D1*
X-38667Y-3890D1*
X-38661Y-3978D1*
X-38665Y-4053D1*
X-38678Y-4126D1*
X-38700Y-4198D1*
X-38730Y-4267D1*
X-38768Y-4331D1*
X-38814Y-4391D1*
X-38866Y-4445D1*
X-38922Y-4491D1*
X-40970Y-4493D2*
X-40937Y-4535D1*
X-40900Y-4601D1*
X-40874Y-4671D1*
X-40862Y-4728D1*
X-40588Y-4454D1*
Y-3875D1*
X-40577Y-3801D1*
X-40546Y-3731D1*
X-40508Y-3684D1*
X-40407Y-3583D1*
X-40844Y-3584D1*
X-40783Y-3677D1*
X-40752Y-3745D1*
X-40729Y-3817D1*
X-40714Y-3890D1*
X-40708Y-3978D1*
X-40712Y-4053D1*
X-40725Y-4126D1*
X-40747Y-4198D1*
X-40777Y-4267D1*
X-40815Y-4331D1*
X-40861Y-4391D1*
X-40913Y-4445D1*
X-40969Y-4491D1*
X-34153Y6087D2*
X-34156Y6029D1*
X-34153Y5980D1*
X-34156Y5832D1*
X-34153Y5813D1*
Y5811D1*
X-34037Y5812D1*
X-34008Y5848D1*
X-33951Y5897D1*
X-33887Y5936D1*
X-33817Y5964D1*
X-33744Y5979D1*
X-33669Y5982D1*
X-33595Y5972D1*
X-33524Y5949D1*
X-33457Y5915D1*
X-33397Y5870D1*
X-33346Y5815D1*
X-33304Y5753D1*
X-33274Y5684D1*
X-33256Y5612D1*
X-33250Y5541D1*
X-33256Y5467D1*
X-33275Y5394D1*
X-33306Y5326D1*
X-33331Y5289D1*
X-32928Y5291D1*
X-32373D1*
X-31891Y5770D1*
X-31925Y5791D1*
X-33125D1*
X-33199Y5802D1*
X-33269Y5833D1*
X-33317Y5871D1*
X-33487Y6042D1*
X-34000D1*
X-34074Y6052D1*
X-34144Y6083D1*
X-34110Y6065D1*
X-35265Y5635D2*
Y5844D1*
X-35322Y5867D1*
X-35393Y5919D1*
X-35643Y6169D1*
X-35684Y6221D1*
X-35713Y6282D1*
X-35757Y6321D1*
X-35814Y6398D1*
X-35829Y6320D1*
X-35855Y6249D1*
X-35893Y6185D1*
X-35941Y6127D1*
X-35998Y6079D1*
X-36063Y6041D1*
X-36133Y6014D1*
X-36206Y6000D1*
X-36281Y5998D1*
X-36355Y6009D1*
X-36426Y6032D1*
X-36493Y6067D1*
X-36552Y6113D1*
X-36603Y6168D1*
X-36643Y6231D1*
X-36673Y6300D1*
X-36690Y6373D1*
X-36695Y6448D1*
X-36687Y6522D1*
X-36666Y6594D1*
X-36634Y6662D1*
X-36591Y6723D1*
X-36537Y6776D1*
X-36476Y6819D1*
X-36409Y6851D1*
X-36336Y6871D1*
X-36262Y6879D1*
X-36187Y6874D1*
X-36114Y6857D1*
X-36046Y6827D1*
X-35983Y6786D1*
X-35928Y6735D1*
X-35877Y6667D1*
X-35864Y6738D1*
X-35838Y6809D1*
X-35801Y6874D1*
X-35754Y6932D1*
X-35698Y6981D1*
X-35634Y7020D1*
X-35564Y7048D1*
X-35491Y7063D1*
X-35416Y7065D1*
X-35341Y7055D1*
X-35264Y7030D1*
X-35265Y7416D1*
Y8007D1*
X-34339D1*
X-34340Y8932D1*
X-34113D1*
X-34114Y10026D1*
Y10219D1*
X-34104Y10293D1*
X-34072Y10364D1*
X-34035Y10411D1*
X-29747Y14698D1*
X-29750Y14791D1*
X-29737Y14865D1*
X-29712Y14935D1*
X-29675Y15001D1*
X-29628Y15059D1*
X-29571Y15108D1*
X-29507Y15147D1*
X-29437Y15174D1*
X-29364Y15189D1*
X-29289Y15192D1*
X-29215Y15182D1*
X-29143Y15159D1*
X-29077Y15125D1*
X-29030Y15090D1*
X-28948Y15169D1*
X-28884Y15208D1*
X-28814Y15235D1*
X-28741Y15250D1*
X-28666Y15253D1*
X-28591Y15243D1*
X-28520Y15220D1*
X-28453Y15186D1*
X-28393Y15141D1*
X-28342Y15087D1*
X-28301Y15024D1*
X-28270Y14956D1*
X-28252Y14883D1*
X-28248Y14832D1*
X-26860Y14834D1*
X-26724Y14972D1*
X-26677Y15061D1*
X-26629Y15119D1*
X-26573Y15169D1*
X-26509Y15208D1*
X-26439Y15235D1*
X-26366Y15250D1*
X-26291Y15253D1*
X-26216Y15243D1*
X-26145Y15220D1*
X-26078Y15186D1*
X-26018Y15141D1*
X-25967Y15087D1*
X-25926Y15024D1*
X-25895Y14956D1*
X-25877Y14883D1*
X-25872Y14813D1*
X-25878Y14738D1*
X-25905Y14646D1*
X-22374D1*
X-22378Y14682D1*
X-22373Y14757D1*
X-22355Y14829D1*
X-22325Y14898D1*
X-22284Y14961D1*
X-22233Y15015D1*
X-22173Y15060D1*
X-22106Y15095D1*
X-22035Y15118D1*
X-21961Y15128D1*
X-21886Y15125D1*
X-21812Y15110D1*
X-21743Y15083D1*
X-21679Y15044D1*
X-21622Y14995D1*
X-21574Y14938D1*
X-21537Y14872D1*
X-21512Y14802D1*
X-21498Y14728D1*
X-21499Y14646D1*
X-18916Y14649D1*
X-18861Y14700D1*
X-18785Y14750D1*
X-18848Y14789D1*
X-18904Y14838D1*
X-18954Y14894D1*
X-18990Y14946D1*
X-20799Y14945D1*
X-20873Y14955D1*
X-20942Y14983D1*
X-21004Y15030D1*
X-21036Y15062D1*
X-21130Y15079D1*
X-21200Y15107D1*
X-21263Y15146D1*
X-21319Y15196D1*
X-21366Y15254D1*
X-21393Y15294D1*
X-23875Y17775D1*
Y17766D1*
X-24750Y17768D1*
X-34153Y4817D2*
X-34156Y4651D1*
X-34153Y4585D1*
X-34156Y4060D1*
X-34153Y3995D1*
X-34156Y3470D1*
X-34153Y3404D1*
X-34156Y2879D1*
X-34143Y2869D1*
X-33543Y2867D1*
X-33471Y2869D1*
X-33513Y2896D1*
X-33569Y2946D1*
X-33616Y3004D1*
X-33653Y3070D1*
X-33677Y3141D1*
X-33690Y3215D1*
X-33689Y3290D1*
X-33676Y3363D1*
X-33651Y3434D1*
X-33614Y3499D1*
X-33567Y3557D1*
X-33540Y3580D1*
X-33541Y3625D1*
X-33531Y3699D1*
X-33503Y3768D1*
X-33456Y3831D1*
X-32579Y4707D1*
X-33225Y4709D1*
X-33420D1*
X-33462Y4669D1*
X-33522Y4624D1*
X-33589Y4591D1*
X-33661Y4569D1*
X-33735Y4559D1*
X-33810Y4563D1*
X-33883Y4579D1*
X-33953Y4607D1*
X-34016Y4646D1*
X-34072Y4696D1*
X-34119Y4754D1*
X-34154Y4818D1*
X-34153Y4257D1*
Y3666D1*
Y3076D1*
Y2867D1*
X-33740Y2869D1*
X-33471D1*
X-33513Y2896D1*
X-33569Y2946D1*
X-33616Y3004D1*
X-33653Y3070D1*
X-33677Y3141D1*
X-33690Y3215D1*
X-33689Y3290D1*
X-33676Y3363D1*
X-33651Y3434D1*
X-33614Y3499D1*
X-33567Y3557D1*
X-33540Y3580D1*
X-33534Y3689D1*
X-33508Y3759D1*
X-33456Y3831D1*
X-30016Y2869D2*
X-30000Y2867D1*
X-29968Y2869D1*
X-29468D1*
X-29533Y2934D1*
X-29620Y2938D1*
X-29693Y2954D1*
X-29762Y2982D1*
X-29826Y3021D1*
X-29882Y3071D1*
X-29929Y3129D1*
X-29965Y3195D1*
X-29990Y3266D1*
X-30002Y3340D1*
Y3415D1*
X-29989Y3488D1*
X-29963Y3559D1*
X-29927Y3624D1*
X-29879Y3682D1*
X-29823Y3731D1*
X-29759Y3770D1*
X-29689Y3798D1*
X-29616Y3813D1*
X-29541Y3815D1*
X-29466Y3805D1*
X-29395Y3783D1*
X-29328Y3749D1*
X-29268Y3704D1*
X-29203Y3628D1*
X-29200Y3873D1*
X-29202Y3938D1*
Y4264D1*
X-29696Y4266D1*
X-30195D1*
X-30522Y3941D1*
X-30521Y3432D1*
X-30094Y3003D1*
X-30048Y2943D1*
X-30019Y2872D1*
X-29998Y2869D1*
X-29016Y2417D2*
Y1757D1*
X-29046D1*
X-29045Y1490D1*
X-28854Y1300D1*
X-28903Y1382D1*
X-28927Y1453D1*
X-28940Y1527D1*
X-28939Y1602D1*
X-28926Y1676D1*
X-28901Y1746D1*
X-28864Y1811D1*
X-28817Y1869D1*
X-28790Y1893D1*
X-28791Y2193D1*
X-29016Y2417D1*
X-29202Y4850D2*
X-29200Y4857D1*
X-29202Y4889D1*
Y5065D1*
X-29469Y5063D1*
X-29543Y5073D1*
X-29625Y5110D1*
X-29670Y5122D1*
X-29745Y5125D1*
X-29818Y5141D1*
X-29887Y5169D1*
X-29951Y5209D1*
X-30017Y5271D1*
X-31565Y5272D1*
X-32046Y4793D1*
X-31400Y4791D1*
X-30493D1*
X-30436Y4823D1*
X-30385Y4840D1*
X-30318Y4848D1*
X-29200D1*
X-29202Y5026D1*
Y5623D2*
X-29200Y5644D1*
X-29202Y5693D1*
Y6617D1*
X-29208Y6606D1*
X-29202Y6600D1*
Y6617D1*
X-29246Y6558D1*
X-29821Y5983D1*
X-29741Y6000D1*
X-29666Y6003D1*
X-29591Y5993D1*
X-29520Y5970D1*
X-29453Y5936D1*
X-29393Y5891D1*
X-29342Y5837D1*
X-29301Y5774D1*
X-29270Y5706D1*
X-29252Y5626D1*
X-29200Y5625D1*
X-29202Y5648D1*
X-29016Y8733D2*
Y8208D1*
X-28805Y8209D1*
X-27875Y9138D1*
X-26126Y10886D1*
X-26129Y10980D1*
X-26640Y10979D1*
X-27517Y10104D1*
X-28485Y9136D1*
X-28544Y9091D1*
X-28616Y9064D1*
X-28688Y9057D1*
X-29016Y8730D1*
X-29501Y7820D2*
X-29616Y7822D1*
X-29666Y7820D1*
X-29810D1*
X-29812Y7710D1*
X-29822Y7635D1*
X-29850Y7566D1*
X-29897Y7504D1*
X-30184Y7217D1*
X-30190Y7113D1*
X-30209Y7040D1*
X-30240Y6972D1*
X-30282Y6910D1*
X-30334Y6856D1*
X-30394Y6812D1*
X-30461Y6778D1*
X-30533Y6756D1*
X-30607Y6747D1*
X-30682Y6750D1*
X-30755Y6766D1*
X-30823Y6793D1*
X-30809Y6688D1*
X-30815Y6613D1*
X-30834Y6540D1*
X-30865Y6472D1*
X-30907Y6410D1*
X-30959Y6356D1*
X-30991Y6332D1*
X-30235Y6333D1*
X-29708Y6862D1*
Y7500D1*
X-29698Y7574D1*
X-29667Y7644D1*
X-29629Y7692D1*
X-29502Y7819D1*
X-29784Y7820D1*
X-30405D2*
X-30797Y7822D1*
X-30862Y7820D1*
X-31387Y7822D1*
X-31453Y7820D1*
X-31978Y7822D1*
X-32043Y7820D1*
X-32568Y7822D1*
X-32634Y7820D1*
X-33159Y7822D1*
X-33224Y7820D1*
X-33749Y7822D1*
X-33815Y7820D1*
X-34115D1*
X-34154Y7781D1*
X-33959D1*
X-30405Y7820D2*
X-30994Y7822D1*
X-31059Y7820D1*
X-31584Y7822D1*
X-31650Y7820D1*
X-32175Y7822D1*
X-32240Y7820D1*
X-32765Y7822D1*
X-32831Y7820D1*
X-33356Y7822D1*
X-33421Y7820D1*
X-33946Y7822D1*
X-33959Y7781D1*
X-32075D1*
X-31999Y7769D1*
X-31931Y7751D1*
X-31857Y7754D1*
X-31782Y7744D1*
X-31711Y7721D1*
X-31644Y7687D1*
X-31584Y7642D1*
X-31533Y7587D1*
X-31492Y7525D1*
X-31461Y7457D1*
X-31443Y7384D1*
X-31437Y7313D1*
X-31444Y7239D1*
X-31463Y7166D1*
X-31494Y7098D1*
X-31536Y7036D1*
X-31587Y6982D1*
X-31567Y6994D1*
X-31510Y7044D1*
X-31446Y7083D1*
X-31376Y7110D1*
X-31303Y7125D1*
X-31228Y7128D1*
X-31154Y7118D1*
X-31082Y7095D1*
X-31051Y7079D1*
X-31065Y7152D1*
X-31064Y7227D1*
X-31051Y7301D1*
X-31026Y7371D1*
X-30989Y7436D1*
X-30942Y7494D1*
X-30885Y7544D1*
X-30821Y7583D1*
X-30751Y7610D1*
X-30678Y7625D1*
X-30596Y7627D1*
X-30405Y7819D1*
X-45920Y4126D2*
X-45653D1*
X-45651Y4537D1*
Y5974D1*
X-45923Y5702D1*
X-45921Y4241D1*
Y4126D1*
X-44406Y9048D2*
X-44416Y8959D1*
X-44441Y8873D1*
X-44480Y8792D1*
X-44532Y8718D1*
X-44595Y8655D1*
X-44668Y8602D1*
X-44749Y8563D1*
X-44836Y8538D1*
X-44925Y8527D1*
X-45015Y8532D1*
X-45102Y8552D1*
X-45186Y8586D1*
X-45262Y8633D1*
X-45329Y8692D1*
X-45386Y8762D1*
X-45430Y8841D1*
X-45460Y8925D1*
X-45476Y9014D1*
X-45477Y9104D1*
X-45463Y9192D1*
X-45434Y9278D1*
X-45391Y9357D1*
X-45336Y9428D1*
X-45270Y9488D1*
X-45194Y9537D1*
X-45111Y9572D1*
X-45024Y9593D1*
X-44934Y9600D1*
X-44845Y9591D1*
X-44758Y9567D1*
X-44677Y9529D1*
X-44603Y9478D1*
X-44538Y9416D1*
X-44485Y9343D1*
X-44444Y9263D1*
X-44418Y9177D1*
X-44407Y9088D1*
X-44406Y9048D1*
X-28443Y1127D2*
X-28482Y1122D1*
X-28557Y1125D1*
X-28630Y1141D1*
X-28700Y1169D1*
X-28761Y1208D1*
X-28449Y895D1*
X-28377Y896D1*
X-28403Y945D1*
X-28427Y1016D1*
X-28440Y1090D1*
X-28439Y1125D1*
X-32922Y3543D2*
X-32863Y3462D1*
X-32833Y3393D1*
X-32815Y3321D1*
X-32809Y3250D1*
X-32815Y3175D1*
X-32831Y3114D1*
X-32811Y3084D1*
X-32782Y3015D1*
X-32772Y2939D1*
Y2869D1*
X-32756Y2867D1*
X-32724Y2869D1*
X-31968Y2867D1*
X-31903Y2869D1*
X-31378Y2867D1*
X-31312Y2869D1*
X-30787Y2867D1*
X-30797Y2869D1*
X-30785D1*
X-31018Y3104D1*
X-31064Y3163D1*
X-31093Y3232D1*
X-31103Y3310D1*
Y4063D1*
X-31094Y4137D1*
X-31069Y4199D1*
X-31125Y4209D1*
X-32252D1*
X-32806Y3658D1*
X-32920Y3543D1*
X-32863Y3462D1*
X-32833Y3393D1*
X-32815Y3321D1*
X-32809Y3250D1*
X-32815Y3175D1*
X-32831Y3114D1*
X-32785Y3025D1*
X-32772Y2937D1*
X-32769Y2869D1*
X-32754D1*
X-32165D1*
X-31575D1*
X-30984D1*
X-30785D1*
X-28318Y10865D2*
X-28271Y10830D1*
X-28220Y10775D1*
X-28179Y10713D1*
X-28142Y10619D1*
X-27097Y11665D1*
X-27516Y11667D1*
X-28318Y10866D1*
X-27729Y2410D2*
Y1473D1*
X-27698Y1481D1*
X-27648Y1512D1*
X-27646Y2327D1*
X-27731Y2410D1*
X-25003Y6938D2*
D14*
Y6481D1*
X-25440Y6938D2*
X-24565D1*
X-37091Y15315D2*
X-36654D1*
X-47381Y15377D2*
X-46924D1*
X-34173Y18056D2*
Y17598D1*
X-46924Y16689D2*
Y16252D1*
X-47381D2*
X-46924D1*
X-37464Y7918D2*
Y7460D1*
X-37026D1*
X-39990Y15269D2*
X-39115D1*
X-36625Y1564D2*
Y1107D1*
X-37063D2*
X-36625D1*
X-35897Y-625D2*
Y-1500D1*
Y-1063D2*
X-35440D1*
X-36441Y10753D2*
Y10295D1*
X-36879D2*
X-36004D1*
X-44380Y15834D2*
Y15377D1*
X-44817D2*
X-43942D1*
X-17502Y-3750D2*
D18*
Y-4326D1*
Y15825D2*
Y15250D1*
X-41693Y18504D2*
Y17929D1*
X-37693D2*
X-37118D1*
X-47518Y8439D2*
X-46367D1*
X-46817Y1474D2*
Y402D1*
X-47353Y938D2*
X-46281D1*
X-20940Y17788D2*
Y16716D1*
X-21476Y17252D2*
X-20404D1*
X-21496Y-4759D2*
D14*
Y-5634D1*
Y-5197D2*
X-21039D1*
X-21496Y-3578D2*
Y-4453D1*
Y-4016D2*
X-21039D1*
X-21496Y-2397D2*
Y-3272D1*
Y-1216D2*
Y-2091D1*
Y-35D2*
Y-910D1*
Y1146D2*
Y271D1*
Y2327D2*
Y1452D1*
Y3508D2*
Y2633D1*
Y4690D2*
Y3814D1*
X-21531Y6188D2*
Y5312D1*
X-21496Y-5940D2*
Y-6816D1*
Y-6378D2*
X-21039D1*
X-21496Y-7121D2*
Y-7997D1*
Y-7559D2*
X-21039D1*
X-40851Y15765D2*
Y15308D1*
X-41289D2*
X-40414D1*
X-42032Y15765D2*
Y15308D1*
X-42470D2*
X-41595D1*
X-38489Y347D2*
Y-110D1*
X-38927Y347D2*
X-38052D1*
X-39670D2*
Y-110D1*
X-40108Y347D2*
X-39233D1*
X-40851D2*
Y-110D1*
X-41289Y347D2*
X-40414D1*
X-35125Y1437D2*
Y980D1*
X-35563Y1437D2*
X-34687D1*
X-20472Y-4756D2*
D18*
Y-5638D1*
X-20913Y-5197D2*
X-20032D1*
X-37480Y834D2*
Y-47D1*
X-37921Y394D2*
X-37480D1*
X-42362Y795D2*
Y-86D1*
X-42803Y354D2*
X-41921D1*
X-36254Y6879D2*
Y5997D1*
X-36695Y6438D2*
X-35813D1*
X-46875Y14794D2*
Y14353D1*
X-47316Y14794D2*
X-46435D1*
X-35879Y15755D2*
Y15314D1*
X-21938Y15128D2*
Y14688D1*
X-22378D2*
X-21497D1*
X-38192Y11442D2*
Y10560D1*
X-38632Y11001D2*
X-37751D1*
X-43192Y15814D2*
Y15373D1*
X-43633Y15814D2*
X-42751D1*
X-45317D2*
Y15373D1*
X-45758Y15814D2*
X-44877D1*
X-33583Y17960D2*
Y17520D1*
X-45709Y12677D2*
Y12236D1*
Y12677D2*
X-45268D1*
X-27499Y-6379D2*
X-26525D1*
X-29546D2*
X-28572D1*
X-31593D2*
X-30620D1*
X-33640D2*
X-32667D1*
X-35688D2*
X-34714D1*
X-37735D2*
X-36761D1*
X-39782D2*
X-38809D1*
X-41829D2*
X-40856D1*
X-43877D2*
X-42903D1*
X-45924D2*
X-44950D1*
X-34709Y8006D2*
D14*
Y7707D1*
X-35265D2*
X-34709D1*
Y5935D2*
X-34154D1*
X-35265Y5738D2*
X-34709D1*
X-29202D2*
X-28646D1*
X-32662Y8376D2*
Y7820D1*
X-39331Y6816D2*
Y6181D1*
X-38972D1*
X-35938Y1503D2*
D18*
Y1063D1*
X-44942Y9599D2*
Y8527D1*
X-45478Y9063D2*
X-44406D1*
X-34792Y16403D2*
D19*
X-32406D1*
X-34795Y16254D2*
X-32406D1*
X-34797Y16106D2*
X-32406D1*
X-34800Y15957D2*
X-32406D1*
X-34802Y15808D2*
X-32406D1*
X-34805Y15660D2*
X-32804D1*
X-34807Y15511D2*
X-32942D1*
X-34673Y15362D2*
X-32989D1*
X-34525Y15214D2*
X-32979D1*
X-34277Y15065D2*
X-33291D1*
X-34277Y14916D2*
X-33291D1*
X-34277Y14767D2*
X-33291D1*
X-34277Y14619D2*
X-33291D1*
X-32465D2*
X-32406D1*
X-34277Y14470D2*
X-33291D1*
X-32465D2*
X-32406D1*
X-34277Y14321D2*
X-33291D1*
X-32465D2*
X-32406D1*
X-34277Y14173D2*
X-33291D1*
X-32465D2*
X-32406D1*
X-34277Y14024D2*
X-33291D1*
X-32465D2*
X-32406D1*
X-34277Y13875D2*
X-33291D1*
X-32465D2*
X-32406D1*
X-34837Y13727D2*
X-32406D1*
X-34840Y13578D2*
X-32406D1*
X-34842Y13429D2*
X-32406D1*
X-34844Y13281D2*
X-32406D1*
X-34847Y13132D2*
X-32406D1*
X-33201Y15136D2*
X-32936D1*
X-32957Y15187D1*
X-32972Y15250D1*
X-32977Y15314D1*
X-32972Y15378D1*
X-32957Y15441D1*
X-32932Y15501D1*
X-32898Y15556D1*
X-32857Y15605D1*
X-32807Y15647D1*
X-32753Y15680D1*
X-32693Y15705D1*
X-32630Y15720D1*
X-32566Y15725D1*
X-32502Y15720D1*
X-32439Y15705D1*
X-32391Y15686D1*
Y16552D1*
X-34805Y16551D1*
X-34822Y15496D1*
X-34471Y15144D1*
X-34412Y15136D1*
X-34291D1*
Y13867D1*
X-34850D1*
X-34864Y12999D1*
X-34833Y13012D1*
X-34816Y13014D1*
X-32391D1*
Y14838D1*
X-32480Y14749D1*
Y13867D1*
X-33276D1*
Y15136D1*
X-33201D1*
D21*
X-25003Y7608D3*
Y6938D3*
X-36654Y14646D3*
Y15315D3*
D22*
X-46255Y15377D3*
X-46924D3*
D21*
X-34173Y16929D3*
Y17598D3*
D22*
X-46255Y16252D3*
X-46924D3*
D21*
X-37464Y7460D3*
Y6791D3*
X-39552Y14599D3*
Y15269D3*
X-36625Y437D3*
Y1107D3*
D22*
X-36566Y-1063D3*
X-35897D3*
D21*
X-36441Y9626D3*
Y10295D3*
D22*
X-23465Y-7559D3*
X-24134D3*
X-23465Y-6378D3*
X-24134D3*
X-23465Y-5197D3*
X-24134D3*
X-23465Y-4016D3*
X-24134D3*
X-23465Y-2835D3*
X-24134D3*
X-23465Y-1654D3*
X-24134D3*
X-23465Y-472D3*
X-24134D3*
X-23465Y709D3*
X-24134D3*
X-23465Y1890D3*
X-24134D3*
X-23465Y3071D3*
X-24134D3*
X-23465Y4252D3*
X-24134D3*
X-23500Y5750D3*
X-24169D3*
D21*
X-44380Y15377D3*
Y14707D3*
D24*
X-31635Y18237D3*
X-31005D3*
X-30375D3*
X-31635Y15875D3*
X-31005D3*
X-30375D3*
X-28465Y18228D3*
X-27835D3*
X-27205D3*
X-28465Y15866D3*
X-27835D3*
X-27205D3*
X-25572Y18237D3*
X-24942D3*
X-24313D3*
X-25572Y15875D3*
X-24942D3*
X-24313D3*
D25*
X-14564Y-3813D3*
D26*
X-13564D3*
X-12564D3*
X-11564D3*
X-10564D3*
Y-813D3*
X-11564D3*
X-12564D3*
X-13564D3*
X-14564D3*
D29*
X-17502Y-3750D3*
D30*
X-18502D3*
X-17502Y-2750D3*
X-18502D3*
X-17502Y-1750D3*
X-18502D3*
X-17502Y-750D3*
X-18502D3*
X-17502Y250D3*
X-18502D3*
X-17502Y1250D3*
X-18502D3*
X-17502Y2250D3*
X-18502D3*
X-17502Y3250D3*
X-18502D3*
X-17502Y4250D3*
X-18502D3*
X-17502Y5250D3*
X-18502D3*
X-17502Y6250D3*
X-18502D3*
X-17502Y7250D3*
X-18502D3*
X-17502Y8250D3*
X-18502D3*
X-17502Y9250D3*
X-18502D3*
X-17502Y10250D3*
X-18502D3*
X-17502Y11250D3*
X-18502D3*
X-17502Y12250D3*
X-18502D3*
X-17502Y13250D3*
X-18502D3*
X-17502Y14250D3*
X-18502D3*
X-17502Y15250D3*
X-18502D3*
D29*
X-47067Y13376D3*
D30*
Y12376D3*
D29*
X-41693Y16929D3*
D30*
Y17929D3*
X-40693Y16929D3*
Y17929D3*
X-39693Y16929D3*
Y17929D3*
X-38693Y16929D3*
Y17929D3*
X-37693Y16929D3*
Y17929D3*
D29*
X-46942Y10439D3*
D30*
Y9439D3*
Y8439D3*
Y7439D3*
Y6439D3*
Y5439D3*
D32*
X-43671Y18215D3*
X-45580D3*
D33*
X-43238Y19396D3*
X-46013D3*
D34*
X-44114Y18341D3*
X-44369D3*
X-44625D3*
X-44881D3*
X-45137D3*
D35*
X-44171Y19394D3*
X-45077D3*
D29*
X-16000Y19375D3*
D30*
X-15000D3*
X-14000D3*
X-13000D3*
D29*
X-16000Y17250D3*
D30*
X-15000D3*
X-14000D3*
X-13000D3*
D29*
X-12875Y-8375D3*
D30*
X-13875D3*
X-14875D3*
X-15875D3*
D36*
X-46817Y938D3*
X-20940Y17252D3*
X-44942Y9063D3*
D22*
X-21496Y-5197D3*
X-22165D3*
X-21496Y-4016D3*
X-22165D3*
X-21496Y-2835D3*
X-22165D3*
X-21496Y-1654D3*
X-22165D3*
X-21496Y-472D3*
X-22165D3*
X-21496Y709D3*
X-22165D3*
X-21496Y1890D3*
X-22165D3*
X-21496Y3071D3*
X-22165D3*
X-21496Y4252D3*
X-22165D3*
X-21531Y5750D3*
X-22201D3*
X-21496Y-6378D3*
X-22165D3*
X-21496Y-7559D3*
X-22165D3*
D21*
X-39552Y12946D3*
Y12277D3*
X-40851Y12946D3*
Y12277D3*
X-43214Y12946D3*
Y12277D3*
X-44395Y12946D3*
Y12277D3*
X-38489Y3497D3*
Y2828D3*
X-39670Y3497D3*
Y2828D3*
X-40851Y3497D3*
Y2828D3*
X-42032Y3497D3*
Y2828D3*
X-43214Y3497D3*
Y2828D3*
X-44395Y3497D3*
Y2828D3*
X-42032Y12946D3*
Y12277D3*
X-40851Y15308D3*
Y14639D3*
X-42032Y15308D3*
Y14639D3*
X-38489Y347D3*
Y1017D3*
X-39670Y347D3*
Y1017D3*
X-40851Y347D3*
Y1017D3*
X-35125Y1437D3*
Y2107D3*
D37*
X-27012Y-4804D3*
Y-5592D3*
Y-6379D3*
D38*
Y-3978D3*
Y-7206D3*
D37*
X-29059Y-4804D3*
Y-5592D3*
Y-6379D3*
D38*
Y-3978D3*
Y-7206D3*
D37*
X-31106Y-4804D3*
Y-5592D3*
Y-6379D3*
D38*
Y-3978D3*
Y-7206D3*
D37*
X-33154Y-4804D3*
Y-5592D3*
Y-6379D3*
D38*
Y-3978D3*
Y-7206D3*
D37*
X-35201Y-4804D3*
Y-5592D3*
Y-6379D3*
D38*
Y-3978D3*
Y-7206D3*
D37*
X-37248Y-4804D3*
Y-5592D3*
Y-6379D3*
D38*
Y-3978D3*
Y-7206D3*
D37*
X-39295Y-4804D3*
Y-5592D3*
Y-6379D3*
D38*
Y-3978D3*
Y-7206D3*
D37*
X-41343Y-4804D3*
Y-5592D3*
Y-6379D3*
D38*
Y-3978D3*
Y-7206D3*
D37*
X-43390Y-4804D3*
Y-5592D3*
Y-6379D3*
D38*
Y-3978D3*
Y-7206D3*
D37*
X-45437Y-4804D3*
Y-5592D3*
Y-6379D3*
D38*
Y-3978D3*
Y-7206D3*
D40*
X-34709Y7707D3*
Y7510D3*
Y7313D3*
Y7116D3*
Y6919D3*
Y6722D3*
Y6525D3*
Y6329D3*
Y6132D3*
Y5935D3*
Y5738D3*
Y5541D3*
Y5344D3*
Y5148D3*
Y4951D3*
Y4754D3*
Y4557D3*
Y4360D3*
Y4163D3*
Y3966D3*
Y3770D3*
Y3573D3*
Y3376D3*
Y3179D3*
Y2982D3*
D41*
X-34040Y2313D3*
X-33843D3*
X-33646D3*
X-33449D3*
X-33253D3*
X-33056D3*
X-32859D3*
X-32662D3*
X-32465D3*
X-32268D3*
X-32071D3*
X-31875D3*
X-31678D3*
X-31481D3*
X-31284D3*
X-31087D3*
X-30890D3*
X-30694D3*
X-30497D3*
X-30300D3*
X-30103D3*
X-29906D3*
X-29709D3*
X-29512D3*
X-29316D3*
D40*
X-28646Y2982D3*
Y3179D3*
Y3376D3*
Y3573D3*
Y3770D3*
Y3966D3*
Y4163D3*
Y4360D3*
Y4557D3*
Y4754D3*
Y4951D3*
Y5148D3*
Y5344D3*
Y5541D3*
Y5738D3*
Y5935D3*
Y6132D3*
Y6329D3*
Y6525D3*
Y6722D3*
Y6919D3*
Y7116D3*
Y7313D3*
Y7510D3*
Y7707D3*
D41*
X-29316Y8376D3*
X-29512D3*
X-29709D3*
X-29906D3*
X-30103D3*
X-30300D3*
X-30497D3*
X-30694D3*
X-30890D3*
X-31087D3*
X-31284D3*
X-31481D3*
X-31678D3*
X-31875D3*
X-32071D3*
X-32268D3*
X-32465D3*
X-32662D3*
X-32859D3*
X-33056D3*
X-33253D3*
X-33449D3*
X-33646D3*
X-33843D3*
X-34040D3*
D43*
X-32878Y14502D3*
X-33784D3*
X-34689D3*
D44*
X-33784Y12218D3*
D47*
X-39331Y9882D3*
X-39831D3*
X-40331D3*
X-40831D3*
X-41331D3*
X-41831D3*
X-42331D3*
X-42831D3*
X-43331D3*
X-43831D3*
Y6181D3*
X-43331D3*
X-42831D3*
X-42331D3*
X-41831D3*
X-41331D3*
X-40831D3*
X-40331D3*
X-39831D3*
X-39331D3*
D48*
X-46192Y-938D3*
Y2803D3*
M02*
