G04 DipTrace 2.4.0.2*
%INTopMask.gbr*%
%MOIN*%
%ADD51C,0.133*%
%ADD60R,0.0867X0.2245*%
%ADD62R,0.0316X0.0867*%
%ADD68R,0.136X0.0926*%
%ADD70R,0.0454X0.0926*%
%ADD72R,0.0198X0.071*%
%ADD74R,0.071X0.0198*%
%ADD76C,0.0867*%
%ADD78C,0.0572*%
%ADD80C,0.0671*%
%ADD82R,0.0789X0.0828*%
%ADD84R,0.0237X0.0611*%
%ADD86R,0.0867X0.0828*%
%ADD88O,0.0493X0.0572*%
%ADD90C,0.0749*%
%ADD92R,0.0749X0.0749*%
%ADD98C,0.056*%
%ADD100R,0.056X0.056*%
%ADD102R,0.0474X0.0541*%
%ADD106R,0.0513X0.0474*%
%ADD108R,0.0474X0.0513*%
%FSLAX44Y44*%
G04*
G70*
G90*
G75*
G01*
%LNTopMask*%
%LPD*%
D108*
X-25003Y7608D3*
Y6938D3*
X-36654Y14646D3*
Y15315D3*
D106*
X-46255Y15377D3*
X-46924D3*
D108*
X-34173Y16929D3*
Y17598D3*
D106*
X-46255Y16252D3*
X-46924D3*
D108*
X-37464Y7460D3*
Y6791D3*
X-39552Y14599D3*
Y15269D3*
X-36625Y437D3*
Y1107D3*
D106*
X-36566Y-1063D3*
X-35897D3*
D108*
X-36441Y9626D3*
Y10295D3*
D106*
X-23465Y-7559D3*
X-24134D3*
X-23465Y-6378D3*
X-24134D3*
X-23465Y-5197D3*
X-24134D3*
X-23465Y-4016D3*
X-24134D3*
X-23465Y-2835D3*
X-24134D3*
X-23465Y-1654D3*
X-24134D3*
X-23465Y-472D3*
X-24134D3*
X-23465Y709D3*
X-24134D3*
X-23465Y1890D3*
X-24134D3*
X-23465Y3071D3*
X-24134D3*
X-23465Y4252D3*
X-24134D3*
X-23500Y5750D3*
X-24169D3*
D108*
X-44380Y15377D3*
Y14707D3*
D102*
X-31635Y18237D3*
X-31005D3*
X-30375D3*
X-31635Y15875D3*
X-31005D3*
X-30375D3*
X-28465Y18228D3*
X-27835D3*
X-27205D3*
X-28465Y15866D3*
X-27835D3*
X-27205D3*
X-25572Y18237D3*
X-24942D3*
X-24313D3*
X-25572Y15875D3*
X-24942D3*
X-24313D3*
D100*
X-14564Y-3813D3*
D98*
X-13564D3*
X-12564D3*
X-11564D3*
X-10564D3*
Y-813D3*
X-11564D3*
X-12564D3*
X-13564D3*
X-14564D3*
D51*
X-11125Y18500D3*
X-11000Y-7250D3*
X-47188Y-7077D3*
X-47304Y18189D3*
D92*
X-17502Y-3750D3*
D90*
X-18502D3*
X-17502Y-2750D3*
X-18502D3*
X-17502Y-1750D3*
X-18502D3*
X-17502Y-750D3*
X-18502D3*
X-17502Y250D3*
X-18502D3*
X-17502Y1250D3*
X-18502D3*
X-17502Y2250D3*
X-18502D3*
X-17502Y3250D3*
X-18502D3*
X-17502Y4250D3*
X-18502D3*
X-17502Y5250D3*
X-18502D3*
X-17502Y6250D3*
X-18502D3*
X-17502Y7250D3*
X-18502D3*
X-17502Y8250D3*
X-18502D3*
X-17502Y9250D3*
X-18502D3*
X-17502Y10250D3*
X-18502D3*
X-17502Y11250D3*
X-18502D3*
X-17502Y12250D3*
X-18502D3*
X-17502Y13250D3*
X-18502D3*
X-17502Y14250D3*
X-18502D3*
X-17502Y15250D3*
X-18502D3*
D92*
X-47067Y13376D3*
D90*
Y12376D3*
D92*
X-41693Y16929D3*
D90*
Y17929D3*
X-40693Y16929D3*
Y17929D3*
X-39693Y16929D3*
Y17929D3*
X-38693Y16929D3*
Y17929D3*
X-37693Y16929D3*
Y17929D3*
D92*
X-46942Y10439D3*
D90*
Y9439D3*
Y8439D3*
Y7439D3*
Y6439D3*
Y5439D3*
D88*
X-43671Y18215D3*
X-45580D3*
D86*
X-43238Y19396D3*
X-46013D3*
D84*
X-44114Y18341D3*
X-44369D3*
X-44625D3*
X-44881D3*
X-45137D3*
D82*
X-44171Y19394D3*
X-45077D3*
D92*
X-16000Y19375D3*
D90*
X-15000D3*
X-14000D3*
X-13000D3*
D92*
X-16000Y17250D3*
D90*
X-15000D3*
X-14000D3*
X-13000D3*
D92*
X-12875Y-8375D3*
D90*
X-13875D3*
X-14875D3*
X-15875D3*
D80*
X-46817Y938D3*
X-20940Y17252D3*
X-44942Y9063D3*
D106*
X-21496Y-5197D3*
X-22165D3*
X-21496Y-4016D3*
X-22165D3*
X-21496Y-2835D3*
X-22165D3*
X-21496Y-1654D3*
X-22165D3*
X-21496Y-472D3*
X-22165D3*
X-21496Y709D3*
X-22165D3*
X-21496Y1890D3*
X-22165D3*
X-21496Y3071D3*
X-22165D3*
X-21496Y4252D3*
X-22165D3*
X-21531Y5750D3*
X-22201D3*
X-21496Y-6378D3*
X-22165D3*
X-21496Y-7559D3*
X-22165D3*
D108*
X-39552Y12946D3*
Y12277D3*
X-40851Y12946D3*
Y12277D3*
X-43214Y12946D3*
Y12277D3*
X-44395Y12946D3*
Y12277D3*
X-38489Y3497D3*
Y2828D3*
X-39670Y3497D3*
Y2828D3*
X-40851Y3497D3*
Y2828D3*
X-42032Y3497D3*
Y2828D3*
X-43214Y3497D3*
Y2828D3*
X-44395Y3497D3*
Y2828D3*
X-42032Y12946D3*
Y12277D3*
X-40851Y15308D3*
Y14639D3*
X-42032Y15308D3*
Y14639D3*
X-38489Y347D3*
Y1017D3*
X-39670Y347D3*
Y1017D3*
X-40851Y347D3*
Y1017D3*
X-35125Y1437D3*
Y2107D3*
D78*
X-27012Y-4804D3*
Y-5592D3*
Y-6379D3*
D76*
Y-3978D3*
Y-7206D3*
D78*
X-29059Y-4804D3*
Y-5592D3*
Y-6379D3*
D76*
Y-3978D3*
Y-7206D3*
D78*
X-31106Y-4804D3*
Y-5592D3*
Y-6379D3*
D76*
Y-3978D3*
Y-7206D3*
D78*
X-33154Y-4804D3*
Y-5592D3*
Y-6379D3*
D76*
Y-3978D3*
Y-7206D3*
D78*
X-35201Y-4804D3*
Y-5592D3*
Y-6379D3*
D76*
Y-3978D3*
Y-7206D3*
D78*
X-37248Y-4804D3*
Y-5592D3*
Y-6379D3*
D76*
Y-3978D3*
Y-7206D3*
D78*
X-39295Y-4804D3*
Y-5592D3*
Y-6379D3*
D76*
Y-3978D3*
Y-7206D3*
D78*
X-41343Y-4804D3*
Y-5592D3*
Y-6379D3*
D76*
Y-3978D3*
Y-7206D3*
D78*
X-43390Y-4804D3*
Y-5592D3*
Y-6379D3*
D76*
Y-3978D3*
Y-7206D3*
D78*
X-45437Y-4804D3*
Y-5592D3*
Y-6379D3*
D76*
Y-3978D3*
Y-7206D3*
D74*
X-34709Y7707D3*
Y7510D3*
Y7313D3*
Y7116D3*
Y6919D3*
Y6722D3*
Y6525D3*
Y6329D3*
Y6132D3*
Y5935D3*
Y5738D3*
Y5541D3*
Y5344D3*
Y5148D3*
Y4951D3*
Y4754D3*
Y4557D3*
Y4360D3*
Y4163D3*
Y3966D3*
Y3770D3*
Y3573D3*
Y3376D3*
Y3179D3*
Y2982D3*
D72*
X-34040Y2313D3*
X-33843D3*
X-33646D3*
X-33449D3*
X-33253D3*
X-33056D3*
X-32859D3*
X-32662D3*
X-32465D3*
X-32268D3*
X-32071D3*
X-31875D3*
X-31678D3*
X-31481D3*
X-31284D3*
X-31087D3*
X-30890D3*
X-30694D3*
X-30497D3*
X-30300D3*
X-30103D3*
X-29906D3*
X-29709D3*
X-29512D3*
X-29316D3*
D74*
X-28646Y2982D3*
Y3179D3*
Y3376D3*
Y3573D3*
Y3770D3*
Y3966D3*
Y4163D3*
Y4360D3*
Y4557D3*
Y4754D3*
Y4951D3*
Y5148D3*
Y5344D3*
Y5541D3*
Y5738D3*
Y5935D3*
Y6132D3*
Y6329D3*
Y6525D3*
Y6722D3*
Y6919D3*
Y7116D3*
Y7313D3*
Y7510D3*
Y7707D3*
D72*
X-29316Y8376D3*
X-29512D3*
X-29709D3*
X-29906D3*
X-30103D3*
X-30300D3*
X-30497D3*
X-30694D3*
X-30890D3*
X-31087D3*
X-31284D3*
X-31481D3*
X-31678D3*
X-31875D3*
X-32071D3*
X-32268D3*
X-32465D3*
X-32662D3*
X-32859D3*
X-33056D3*
X-33253D3*
X-33449D3*
X-33646D3*
X-33843D3*
X-34040D3*
D70*
X-32878Y14502D3*
X-33784D3*
X-34689D3*
D68*
X-33784Y12218D3*
D62*
X-39331Y9882D3*
X-39831D3*
X-40331D3*
X-40831D3*
X-41331D3*
X-41831D3*
X-42331D3*
X-42831D3*
X-43331D3*
X-43831D3*
Y6181D3*
X-43331D3*
X-42831D3*
X-42331D3*
X-41831D3*
X-41331D3*
X-40831D3*
X-40331D3*
X-39831D3*
X-39331D3*
D60*
X-46192Y-938D3*
Y2803D3*
M02*
